<svg viewBox="0 0 330 200" xmlns="http://www.w3.org/2000/svg"><g><g><g><g><g><line x1="60" y1="172.55669836626222" x2="55" y2="172.55669836626222" style="visibility: inherit;" fill="rgb(0, 0, 0)" stroke="rgb(204, 204, 204)" stroke-width="1px"></line><line x1="60" y1="154.62615609128397" x2="55" y2="154.62615609128397" style="visibility: inherit;" fill="rgb(0, 0, 0)" stroke="rgb(204, 204, 204)" stroke-width="1px"></line><line x1="60" y1="136.6956138163057" x2="55" y2="136.6956138163057" style="visibility: inherit;" fill="rgb(0, 0, 0)" stroke="rgb(204, 204, 204)" stroke-width="1px"></line><line x1="60" y1="118.76507154132743" x2="55" y2="118.76507154132743" style="visibility: inherit;" fill="rgb(0, 0, 0)" stroke="rgb(204, 204, 204)" stroke-width="1px"></line><line x1="60" y1="100.83452926634918" x2="55" y2="100.83452926634918" style="visibility: inherit;" fill="rgb(0, 0, 0)" stroke="rgb(204, 204, 204)" stroke-width="1px"></line><line x1="60" y1="82.90398699137093" x2="55" y2="82.90398699137093" style="visibility: inherit;" fill="rgb(0, 0, 0)" stroke="rgb(204, 204, 204)" stroke-width="1px"></line><line x1="60" y1="64.97344471639266" x2="55" y2="64.97344471639266" style="visibility: inherit;" fill="rgb(0, 0, 0)" stroke="rgb(204, 204, 204)" stroke-width="1px"></line><line x1="60" y1="47.04290244141441" x2="55" y2="47.04290244141441" style="visibility: inherit;" fill="rgb(0, 0, 0)" stroke="rgb(204, 204, 204)" stroke-width="1px"></line><line x1="60" y1="29.112360166436144" x2="55" y2="29.112360166436144" style="visibility: inherit;" fill="rgb(0, 0, 0)" stroke="rgb(204, 204, 204)" stroke-width="1px"></line><line x1="60" y1="11.181817891457891" x2="55" y2="11.181817891457891" style="visibility: inherit;" fill="rgb(0, 0, 0)" stroke="rgb(204, 204, 204)" stroke-width="1px"></line></g><g transform="translate(50, 0)"><text x="0" y="172.55669836626222" dx="0em" dy="0.3em" style="text-anchor: end; visibility: hidden; font-family: Roboto, sans-serif; font-size: 12px; font-weight: 200;" fill="rgb(33, 33, 33)" stroke="none" stroke-width="1px">-1e-3</text><text x="0" y="154.62615609128397" dx="0em" dy="0.3em" style="text-anchor: end; visibility: inherit; font-family: Roboto, sans-serif; font-size: 12px; font-weight: 200;" fill="rgb(33, 33, 33)" stroke="none" stroke-width="1px">0</text><text x="0" y="136.6956138163057" dx="0em" dy="0.3em" style="text-anchor: end; visibility: hidden; font-family: Roboto, sans-serif; font-size: 12px; font-weight: 200;" fill="rgb(33, 33, 33)" stroke="none" stroke-width="1px">1e-3</text><text x="0" y="118.76507154132743" dx="0em" dy="0.3em" style="text-anchor: end; visibility: inherit; font-family: Roboto, sans-serif; font-size: 12px; font-weight: 200;" fill="rgb(33, 33, 33)" stroke="none" stroke-width="1px">2e-3</text><text x="0" y="100.83452926634918" dx="0em" dy="0.3em" style="text-anchor: end; visibility: hidden; font-family: Roboto, sans-serif; font-size: 12px; font-weight: 200;" fill="rgb(33, 33, 33)" stroke="none" stroke-width="1px">3e-3</text><text x="0" y="82.90398699137093" dx="0em" dy="0.3em" style="text-anchor: end; visibility: inherit; font-family: Roboto, sans-serif; font-size: 12px; font-weight: 200;" fill="rgb(33, 33, 33)" stroke="none" stroke-width="1px">4e-3</text><text x="0" y="64.97344471639266" dx="0em" dy="0.3em" style="text-anchor: end; visibility: hidden; font-family: Roboto, sans-serif; font-size: 12px; font-weight: 200;" fill="rgb(33, 33, 33)" stroke="none" stroke-width="1px">5e-3</text><text x="0" y="47.04290244141441" dx="0em" dy="0.3em" style="text-anchor: end; visibility: inherit; font-family: Roboto, sans-serif; font-size: 12px; font-weight: 200;" fill="rgb(33, 33, 33)" stroke="none" stroke-width="1px">6e-3</text><text x="0" y="29.112360166436144" dx="0em" dy="0.3em" style="text-anchor: end; visibility: hidden; font-family: Roboto, sans-serif; font-size: 12px; font-weight: 200;" fill="rgb(33, 33, 33)" stroke="none" stroke-width="1px">7e-3</text><text x="0" y="11.181817891457891" dx="0em" dy="0.3em" style="text-anchor: end; visibility: inherit; font-family: Roboto, sans-serif; font-size: 12px; font-weight: 200;" fill="rgb(33, 33, 33)" stroke="none" stroke-width="1px">8e-3</text></g><line x1="60" y1="0" x2="60" y2="177" fill="rgb(0, 0, 0)" stroke="rgb(204, 204, 204)" stroke-width="1px"></line></g></g><g transform="translate(60, 0)" clip-path="url(#clip_0)"><clipPath id="clip_0"><rect width="270" height="177"></rect></clipPath><g><g><g><line x1="12.270574090407845" y1="0" x2="12.270574090407845" y2="177" fill="rgb(0, 0, 0)" stroke="rgb(66, 66, 66)" stroke-width="1px" opacity="0.25"></line><line x1="32.78433008296773" y1="0" x2="32.78433008296773" y2="177" fill="rgb(0, 0, 0)" stroke="rgb(66, 66, 66)" stroke-width="1px" opacity="0.25"></line><line x1="53.298086075527614" y1="0" x2="53.298086075527614" y2="177" fill="rgb(0, 0, 0)" stroke="rgb(66, 66, 66)" stroke-width="1px" opacity="0.25"></line><line x1="73.81184206808751" y1="0" x2="73.81184206808751" y2="177" fill="rgb(0, 0, 0)" stroke="rgb(66, 66, 66)" stroke-width="1px" opacity="0.25"></line><line x1="94.32559806064741" y1="0" x2="94.32559806064741" y2="177" fill="rgb(0, 0, 0)" stroke="rgb(66, 66, 66)" stroke-width="1px" opacity="0.25"></line><line x1="114.83935405320729" y1="0" x2="114.83935405320729" y2="177" fill="rgb(0, 0, 0)" stroke="rgb(66, 66, 66)" stroke-width="1px" opacity="0.25"></line><line x1="135.35311004576718" y1="0" x2="135.35311004576718" y2="177" fill="rgb(0, 0, 0)" stroke="rgb(66, 66, 66)" stroke-width="1px" opacity="0.25"></line><line x1="155.86686603832706" y1="0" x2="155.86686603832706" y2="177" fill="rgb(0, 0, 0)" stroke="rgb(66, 66, 66)" stroke-width="1px" opacity="0.25"></line><line x1="176.38062203088694" y1="0" x2="176.38062203088694" y2="177" fill="rgb(0, 0, 0)" stroke="rgb(66, 66, 66)" stroke-width="1px" opacity="0.25"></line><line x1="196.89437802344682" y1="0" x2="196.89437802344682" y2="177" fill="rgb(0, 0, 0)" stroke="rgb(66, 66, 66)" stroke-width="1px" opacity="0.25"></line><line x1="217.40813401600673" y1="0" x2="217.40813401600673" y2="177" fill="rgb(0, 0, 0)" stroke="rgb(66, 66, 66)" stroke-width="1px" opacity="0.25"></line><line x1="237.9218900085666" y1="0" x2="237.9218900085666" y2="177" fill="rgb(0, 0, 0)" stroke="rgb(66, 66, 66)" stroke-width="1px" opacity="0.25"></line><line x1="258.4356460011265" y1="0" x2="258.4356460011265" y2="177" fill="rgb(0, 0, 0)" stroke="rgb(66, 66, 66)" stroke-width="1px" opacity="0.25"></line></g><g><line x1="0" y1="172.55669836626222" x2="270" y2="172.55669836626222" fill="rgb(0, 0, 0)" stroke="rgb(66, 66, 66)" stroke-width="1px" opacity="0.25"></line><line x1="0" y1="154.62615609128397" x2="270" y2="154.62615609128397" fill="rgb(0, 0, 0)" stroke="rgb(66, 66, 66)" stroke-width="1px" opacity="0.25"></line><line x1="0" y1="136.6956138163057" x2="270" y2="136.6956138163057" fill="rgb(0, 0, 0)" stroke="rgb(66, 66, 66)" stroke-width="1px" opacity="0.25"></line><line x1="0" y1="118.76507154132743" x2="270" y2="118.76507154132743" fill="rgb(0, 0, 0)" stroke="rgb(66, 66, 66)" stroke-width="1px" opacity="0.25"></line><line x1="0" y1="100.83452926634918" x2="270" y2="100.83452926634918" fill="rgb(0, 0, 0)" stroke="rgb(66, 66, 66)" stroke-width="1px" opacity="0.25"></line><line x1="0" y1="82.90398699137093" x2="270" y2="82.90398699137093" fill="rgb(0, 0, 0)" stroke="rgb(66, 66, 66)" stroke-width="1px" opacity="0.25"></line><line x1="0" y1="64.97344471639266" x2="270" y2="64.97344471639266" fill="rgb(0, 0, 0)" stroke="rgb(66, 66, 66)" stroke-width="1px" opacity="0.25"></line><line x1="0" y1="47.04290244141441" x2="270" y2="47.04290244141441" fill="rgb(0, 0, 0)" stroke="rgb(66, 66, 66)" stroke-width="1px" opacity="0.25"></line><line x1="0" y1="29.112360166436144" x2="270" y2="29.112360166436144" fill="rgb(0, 0, 0)" stroke="rgb(66, 66, 66)" stroke-width="1px" opacity="0.25"></line><line x1="0" y1="11.181817891457891" x2="270" y2="11.181817891457891" fill="rgb(0, 0, 0)" stroke="rgb(66, 66, 66)" stroke-width="1px" opacity="0.25"></line></g></g></g><g><g><line x1="0" y1="154.62615609128397" x2="270" y2="154.62615609128397" fill="rgb(0, 0, 0)" stroke="rgb(153, 153, 153)" stroke-width="1.5px"></line></g></g><g><g><line x1="32.78433008296773" y1="0" x2="32.78433008296773" y2="177" fill="rgb(0, 0, 0)" stroke="rgb(153, 153, 153)" stroke-width="1.5px"></line></g></g><g><g><g><g><g><path stroke="rgb(255, 112, 67)" stroke-width="2px" d="M32.78433008296773,20.147092034788386L33.81001788259573,20.147092034788386L34.83570568222372,20.147092034788404L35.861393481851714,20.147092034788404L36.8870812814797,20.147092034788404L37.912769081107704,20.147092034788404L38.9384568807357,20.147092034788404L39.96414468036369,20.147092034788404L40.989832479991684,20.147092034788404L42.01552027961968,20.147092034788386L43.041208079247674,20.147092034788404L44.06689587887567,20.147092034788404L45.09258367850366,20.147092034788386L46.11827147813166,20.147092034788404L47.14395927775965,20.147092034788404L48.169647077387644,20.147092034788404L49.19533487701564,20.147092034788386L50.221022676643635,20.147092034788386L51.24671047627163,20.147092034788404L52.272398275899626,20.147092034788386L53.298086075527614,20.147092034788404L54.32377387515562,63.18095861796886L55.349461674783605,89.00091605680036L56.3751494744116,104.49276001835611L57.400837274039596,113.78781941514681L58.426525073667584,119.36483814047459L59.452212873295586,122.71104328710504L60.477900672923575,124.71876418320441L61.50358847255157,125.92339593178865L62.529276272179565,126.6461746968723L63.55496407180756,127.07984185365844L64.58065187143555,127.34004211091508L65.60633967106355,127.49616225201565L66.63202747069155,127.58983433190477L67.65771527031954,127.6460375781206L68.68340306994754,127.67975952523176L69.70909086957553,127.69999269327585L70.73477866920352,127.71213259402212L71.76046646883152,127.71941653444107L72.78615426845951,127.72378689868205L73.81184206808751,127.7264091172229L74.8375298677155,127.72798244834605L75.86321766734349,127.72892644701948L76.8889054669715,127.72949284622334L77.9145932665995,127.72983268574559L78.94028106622748,127.73003658945893L79.96596886585547,127.73015893168693L80.99165666548346,127.73023233702374L82.01734446511146,127.73027638022579L83.04303226473947,127.73030280614704L84.06872006436745,127.7303186616998L85.09440786399544,127.73032817503145L86.12009566362345,127.73033388303043L87.14578346325143,127.73033730782981L88.17147126287944,127.73033936270947L89.19715906250742,127.73034059563723L90.22284686213541,127.73034133539393L91.24853466176341,127.73034177924791L92.2742224613914,127.7303420455603L93.2999102610194,127.73034220534774L94.32559806064741,127.73034230122022L95.35128586027538,127.73034235874371L96.37697365990338,127.73034239325777L97.40266145953137,127.73034241396624L98.42834925915938,127.7303424263913L99.45403705878738,127.73034243384635L100.47972485841535,127.7303424383194L101.50541265804335,127.7303424410032L102.53110045767136,127.73034244261348L103.55678825729935,127.73034244357966L104.58247605692735,127.73034244415936L105.60816385655532,127.73034244450716L106.63385165618332,127.73034244471587L107.65953945581133,127.73034244484109L108.68522725543932,127.73034244491622L109.71091505506732,127.7303424449613L110.73660285469529,127.73034244498834L111.7622906543233,127.73034244500457L112.7879784539513,127.73034244501432L113.81366625357929,127.73034244502014L114.83935405320729,127.73034244502367L115.86504185283528,127.73034244502576L116.89072965246326,127.730342445027L117.91641745209127,127.73034244502777L118.94210525171925,127.73034244502823L119.96779305134726,127.7303424450285L120.99348085097525,127.73034244502865L122.01916865060323,127.73034244502878L123.04485645023124,127.73034244502881L124.07054424985924,127.73034244502885L125.09623204948723,136.33700272833488L126.12191984911522,141.50099889831853L127.1476076487432,144.5993966003087L128.17329544837122,146.4584352215028L129.1989832479992,147.5738583942193L130.2246710476272,148.24311229784917L131.25035884725517,148.6446646400271L132.27604664688317,148.88559604533384L133.30173444651118,149.03015488851787L134.32742224613918,149.11689019442832L135.35311004576718,149.1689313779746L136.37879784539516,149.20015608810235L137.40448564502316,149.21889091417898L138.43017344465116,149.23013180982497L139.45586124427913,149.2368763472126L140.48154904390714,149.24092306964513L141.50723684353514,149.2433511031047L142.53292464316314,149.2448079231804L143.55861244279112,149.2456820152258L144.5843002424191,149.24620647045307L145.60998804204712,149.24652114358943L146.6356758416751,149.24670994747126L147.6613636413031,149.24682322980033L148.6870514409311,149.2468911991978L149.71273924055907,149.24693198083625L150.73842704018708,149.24695644981935L151.76411483981508,149.2469711312092L152.78980263944308,149.2469799400431L153.81549043907106,149.24698522534345L154.84117823869906,149.24698839652368L155.86686603832706,149.24699029923178L156.89255383795503,149.24699144085665L157.91824163758307,149.24699212583158L158.94392943721104,149.24699253681655L159.969617236839,149.24699278340753L160.99530503646702,149.24699293136212L162.02099283609502,149.24699302013485L163.04668063572302,149.2469930733985L164.072368435351,149.2469931053567L165.098056234979,149.2469931245316L166.123744034607,149.24699313603654L167.14943183423497,149.24699314293952L168.175119633863,149.2469931470813L169.20080743349098,149.24699314956638L170.22649523311895,149.2469931510574L171.25218303274698,149.24699315195204L172.27787083237496,149.2469931524888L173.30355863200296,149.24699315281086L174.32924643163096,149.24699315300413L175.35493423125894,149.24699315312006L176.38062203088694,149.24699315318963L177.4063098305149,149.24699315323136L178.43199763014294,149.2469931532564L179.45768542977092,149.24699315327143L180.4833732293989,149.24699315328044L181.50906102902692,149.24699315328584L182.5347488286549,149.24699315328908L183.5604366282829,149.24699315329107L184.5861244279109,149.2469931532922L185.61181222753888,149.24699315329292L186.63750002716688,149.24699315329335L187.66318782679488,149.2469931532936L188.68887562642288,149.24699315329374L189.71456342605086,149.24699315329383L190.74025122567883,149.2469931532939L191.76593902530686,149.24699315329394L192.79162682493484,149.24699315329394L193.81731462456284,149.24699315329394L194.84300242419084,149.24699315329397L195.86869022381882,149.24699315329397L196.89437802344682,149.24699315329397L197.92006582307482,149.24699315329397L198.94575362270282,149.24699315329397L199.9714414223308,149.24699315329397L200.9971292219588,150.96832529866924L202.0228170215868,152.00112458589442L203.04850482121478,152.6208041582295L204.0741926208428,152.99261190163057L205.09988042047078,153.2156965476712L206.12556822009876,153.34954733529557L207.15125601972676,153.4298578078702L208.17694381935476,153.47804409141497L209.20263161898276,153.50695586154185L210.22831941861074,153.52430292361797L211.25400721823874,153.53471116086365L212.27969501786674,153.54095610321107L213.30538281749472,153.5447030686195L214.33107061712275,153.54695124786457L215.35675841675072,153.5483001554116L216.3824462163787,153.54910949993982L217.40813401600673,153.54959510665674L218.4338218156347,153.5498864706869L219.4595096152627,153.550061289105L220.4851974148907,153.55016618015586L221.51088521451868,153.55022911478636L222.53657301414668,153.5502668755647L223.56226081377466,153.55028953203168L224.5879486134027,153.55030312591188L225.61363641303066,153.55031128224L226.63932421265864,153.89458259989343L227.66501201228667,154.1011453904855L228.69069981191464,154.22508306484073L229.71638761154264,154.2994456694539L230.74207541117065,154.34406323222177L231.76776321079862,154.37083376988252L232.79345101042662,154.38689609247896L233.81913881005462,154.39653348603682L234.84482660968263,154.40231592217154L235.8705144093106,154.40578538385236L236.89620220893858,154.47672034563217L237.9218900085666,154.51928132270007L238.94757780819458,154.5448179089408L239.97326560782258,154.56013986068524L240.99895340745059,154.5693330317319L242.02464120707856,154.5748489343599" style="fill: none;" fill="none"></path></g></g></g></g><g opacity="0.2"><g><g><g><path stroke="rgb(255, 112, 67)" stroke-width="2px" d="M32.78433008296773,20.147092034788404L33.81001788259573,20.147092034788404L34.83570568222372,20.147092034788404L35.861393481851714,20.147092034788404L36.8870812814797,20.147092034788404L37.912769081107704,20.147092034788404L38.9384568807357,20.147092034788404L39.96414468036369,20.147092034788404L40.989832479991684,20.147092034788404L42.01552027961968,20.147092034788404L43.041208079247674,20.147092034788404L44.06689587887567,20.147092034788404L45.09258367850366,20.147092034788404L46.11827147813166,20.147092034788404L47.14395927775965,20.147092034788404L48.169647077387644,20.147092034788404L49.19533487701564,20.147092034788404L50.221022676643635,20.147092034788404L51.24671047627163,20.147092034788404L52.272398275899626,20.147092034788404L53.298086075527614,20.147092034788404L54.32377387515562,127.73034244502891L55.349461674783605,127.73034244502891L56.3751494744116,127.73034244502891L57.400837274039596,127.73034244502891L58.426525073667584,127.73034244502891L59.452212873295586,127.73034244502891L60.477900672923575,127.73034244502891L61.50358847255157,127.73034244502891L62.529276272179565,127.73034244502891L63.55496407180756,127.73034244502891L64.58065187143555,127.73034244502891L65.60633967106355,127.73034244502891L66.63202747069155,127.73034244502891L67.65771527031954,127.73034244502891L68.68340306994754,127.73034244502891L69.70909086957553,127.73034244502891L70.73477866920352,127.73034244502891L71.76046646883152,127.73034244502891L72.78615426845951,127.73034244502891L73.81184206808751,127.73034244502891L74.8375298677155,127.73034244502891L75.86321766734349,127.73034244502891L76.8889054669715,127.73034244502891L77.9145932665995,127.73034244502891L78.94028106622748,127.73034244502891L79.96596886585547,127.73034244502891L80.99165666548346,127.73034244502891L82.01734446511146,127.73034244502891L83.04303226473947,127.73034244502891L84.06872006436745,127.73034244502891L85.09440786399544,127.73034244502891L86.12009566362345,127.73034244502891L87.14578346325143,127.73034244502891L88.17147126287944,127.73034244502891L89.19715906250742,127.73034244502891L90.22284686213541,127.73034244502891L91.24853466176341,127.73034244502891L92.2742224613914,127.73034244502891L93.2999102610194,127.73034244502891L94.32559806064741,127.73034244502891L95.35128586027538,127.73034244502891L96.37697365990338,127.73034244502891L97.40266145953137,127.73034244502891L98.42834925915938,127.73034244502891L99.45403705878738,127.73034244502891L100.47972485841535,127.73034244502891L101.50541265804335,127.73034244502891L102.53110045767136,127.73034244502891L103.55678825729935,127.73034244502891L104.58247605692735,127.73034244502891L105.60816385655532,127.73034244502891L106.63385165618332,127.73034244502891L107.65953945581133,127.73034244502891L108.68522725543932,127.73034244502891L109.71091505506732,127.73034244502891L110.73660285469529,127.73034244502891L111.7622906543233,127.73034244502891L112.7879784539513,127.73034244502891L113.81366625357929,127.73034244502891L114.83935405320729,127.73034244502891L115.86504185283528,127.73034244502891L116.89072965246326,127.73034244502891L117.91641745209127,127.73034244502891L118.94210525171925,127.73034244502891L119.96779305134726,127.73034244502891L120.99348085097525,127.73034244502891L122.01916865060323,127.73034244502891L123.04485645023124,127.73034244502891L124.07054424985924,127.73034244502891L125.09623204948723,149.24699315329397L126.12191984911522,149.24699315329397L127.1476076487432,149.24699315329397L128.17329544837122,149.24699315329397L129.1989832479992,149.24699315329397L130.2246710476272,149.24699315329397L131.25035884725517,149.24699315329397L132.27604664688317,149.24699315329397L133.30173444651118,149.24699315329397L134.32742224613918,149.24699315329397L135.35311004576718,149.24699315329397L136.37879784539516,149.24699315329397L137.40448564502316,149.24699315329397L138.43017344465116,149.24699315329397L139.45586124427913,149.24699315329397L140.48154904390714,149.24699315329397L141.50723684353514,149.24699315329397L142.53292464316314,149.24699315329397L143.55861244279112,149.24699315329397L144.5843002424191,149.24699315329397L145.60998804204712,149.24699315329397L146.6356758416751,149.24699315329397L147.6613636413031,149.24699315329397L148.6870514409311,149.24699315329397L149.71273924055907,149.24699315329397L150.73842704018708,149.24699315329397L151.76411483981508,149.24699315329397L152.78980263944308,149.24699315329397L153.81549043907106,149.24699315329397L154.84117823869906,149.24699315329397L155.86686603832706,149.24699315329397L156.89255383795503,149.24699315329397L157.91824163758307,149.24699315329397L158.94392943721104,149.24699315329397L159.969617236839,149.24699315329397L160.99530503646702,149.24699315329397L162.02099283609502,149.24699315329397L163.04668063572302,149.24699315329397L164.072368435351,149.24699315329397L165.098056234979,149.24699315329397L166.123744034607,149.24699315329397L167.14943183423497,149.24699315329397L168.175119633863,149.24699315329397L169.20080743349098,149.24699315329397L170.22649523311895,149.24699315329397L171.25218303274698,149.24699315329397L172.27787083237496,149.24699315329397L173.30355863200296,149.24699315329397L174.32924643163096,149.24699315329397L175.35493423125894,149.24699315329397L176.38062203088694,149.24699315329397L177.4063098305149,149.24699315329397L178.43199763014294,149.24699315329397L179.45768542977092,149.24699315329397L180.4833732293989,149.24699315329397L181.50906102902692,149.24699315329397L182.5347488286549,149.24699315329397L183.5604366282829,149.24699315329397L184.5861244279109,149.24699315329397L185.61181222753888,149.24699315329397L186.63750002716688,149.24699315329397L187.66318782679488,149.24699315329397L188.68887562642288,149.24699315329397L189.71456342605086,149.24699315329397L190.74025122567883,149.24699315329397L191.76593902530686,149.24699315329397L192.79162682493484,149.24699315329397L193.81731462456284,149.24699315329397L194.84300242419084,149.24699315329397L195.86869022381882,149.24699315329397L196.89437802344682,149.24699315329397L197.92006582307482,149.24699315329397L198.94575362270282,149.24699315329397L199.9714414223308,149.24699315329397L200.9971292219588,153.55032351673216L202.0228170215868,153.55032351673216L203.04850482121478,153.55032351673216L204.0741926208428,153.55032351673216L205.09988042047078,153.55032351673216L206.12556822009876,153.55032351673216L207.15125601972676,153.55032351673216L208.17694381935476,153.55032351673216L209.20263161898276,153.55032351673216L210.22831941861074,153.55032351673216L211.25400721823874,153.55032351673216L212.27969501786674,153.55032351673216L213.30538281749472,153.55032351673216L214.33107061712275,153.55032351673216L215.35675841675072,153.55032351673216L216.3824462163787,153.55032351673216L217.40813401600673,153.55032351673216L218.4338218156347,153.55032351673216L219.4595096152627,153.55032351673216L220.4851974148907,153.55032351673216L221.51088521451868,153.55032351673216L222.53657301414668,153.55032351673216L223.56226081377466,153.55032351673216L224.5879486134027,153.55032351673216L225.61363641303066,153.55032351673216L226.63932421265864,154.41098957637362L227.66501201228667,154.41098957637362L228.69069981191464,154.41098957637362L229.71638761154264,154.41098957637362L230.74207541117065,154.41098957637362L231.76776321079862,154.41098957637362L232.79345101042662,154.41098957637362L233.81913881005462,154.41098957637362L234.84482660968263,154.41098957637362L235.8705144093106,154.41098957637362L236.89620220893858,154.5831227883019L237.9218900085666,154.5831227883019L238.94757780819458,154.5831227883019L239.97326560782258,154.5831227883019L240.99895340745059,154.5831227883019L242.02464120707856,154.5831227883019" style="fill: none;" fill="none"></path></g></g></g></g></g></g><g transform="translate(60, 177)" clip-path="url(#clip_1)"><clipPath id="clip_1"><rect width="270" height="23"></rect></clipPath><g><g><line x1="12.270574090407845" y1="0" x2="12.270574090407845" y2="5" style="visibility: inherit;" fill="rgb(0, 0, 0)" stroke="rgb(204, 204, 204)" stroke-width="1px"></line><line x1="32.78433008296773" y1="0" x2="32.78433008296773" y2="5" style="visibility: inherit;" fill="rgb(0, 0, 0)" stroke="rgb(204, 204, 204)" stroke-width="1px"></line><line x1="53.298086075527614" y1="0" x2="53.298086075527614" y2="5" style="visibility: inherit;" fill="rgb(0, 0, 0)" stroke="rgb(204, 204, 204)" stroke-width="1px"></line><line x1="73.81184206808751" y1="0" x2="73.81184206808751" y2="5" style="visibility: inherit;" fill="rgb(0, 0, 0)" stroke="rgb(204, 204, 204)" stroke-width="1px"></line><line x1="94.32559806064741" y1="0" x2="94.32559806064741" y2="5" style="visibility: inherit;" fill="rgb(0, 0, 0)" stroke="rgb(204, 204, 204)" stroke-width="1px"></line><line x1="114.83935405320729" y1="0" x2="114.83935405320729" y2="5" style="visibility: inherit;" fill="rgb(0, 0, 0)" stroke="rgb(204, 204, 204)" stroke-width="1px"></line><line x1="135.35311004576718" y1="0" x2="135.35311004576718" y2="5" style="visibility: inherit;" fill="rgb(0, 0, 0)" stroke="rgb(204, 204, 204)" stroke-width="1px"></line><line x1="155.86686603832706" y1="0" x2="155.86686603832706" y2="5" style="visibility: inherit;" fill="rgb(0, 0, 0)" stroke="rgb(204, 204, 204)" stroke-width="1px"></line><line x1="176.38062203088694" y1="0" x2="176.38062203088694" y2="5" style="visibility: inherit;" fill="rgb(0, 0, 0)" stroke="rgb(204, 204, 204)" stroke-width="1px"></line><line x1="196.89437802344682" y1="0" x2="196.89437802344682" y2="5" style="visibility: inherit;" fill="rgb(0, 0, 0)" stroke="rgb(204, 204, 204)" stroke-width="1px"></line><line x1="217.40813401600673" y1="0" x2="217.40813401600673" y2="5" style="visibility: inherit;" fill="rgb(0, 0, 0)" stroke="rgb(204, 204, 204)" stroke-width="1px"></line><line x1="237.9218900085666" y1="0" x2="237.9218900085666" y2="5" style="visibility: inherit;" fill="rgb(0, 0, 0)" stroke="rgb(204, 204, 204)" stroke-width="1px"></line><line x1="258.4356460011265" y1="0" x2="258.4356460011265" y2="5" style="visibility: inherit;" fill="rgb(0, 0, 0)" stroke="rgb(204, 204, 204)" stroke-width="1px"></line></g><g transform="translate(0, 8)"><text x="12.270574090407845" y="0" dx="0em" dy="0.95em" style="text-anchor: middle; visibility: inherit; font-family: Roboto, sans-serif; font-size: 12px; font-weight: 200;" fill="rgb(33, 33, 33)" stroke="none" stroke-width="1px">-20</text><text x="32.78433008296773" y="0" dx="0em" dy="0.95em" style="text-anchor: middle; visibility: hidden; font-family: Roboto, sans-serif; font-size: 12px; font-weight: 200;" fill="rgb(33, 33, 33)" stroke="none" stroke-width="1px">0</text><text x="53.298086075527614" y="0" dx="0em" dy="0.95em" style="text-anchor: middle; visibility: inherit; font-family: Roboto, sans-serif; font-size: 12px; font-weight: 200;" fill="rgb(33, 33, 33)" stroke="none" stroke-width="1px">20</text><text x="73.81184206808751" y="0" dx="0em" dy="0.95em" style="text-anchor: middle; visibility: hidden; font-family: Roboto, sans-serif; font-size: 12px; font-weight: 200;" fill="rgb(33, 33, 33)" stroke="none" stroke-width="1px">40</text><text x="94.32559806064741" y="0" dx="0em" dy="0.95em" style="text-anchor: middle; visibility: inherit; font-family: Roboto, sans-serif; font-size: 12px; font-weight: 200;" fill="rgb(33, 33, 33)" stroke="none" stroke-width="1px">60</text><text x="114.83935405320729" y="0" dx="0em" dy="0.95em" style="text-anchor: middle; visibility: hidden; font-family: Roboto, sans-serif; font-size: 12px; font-weight: 200;" fill="rgb(33, 33, 33)" stroke="none" stroke-width="1px">80</text><text x="135.35311004576718" y="0" dx="0em" dy="0.95em" style="text-anchor: middle; visibility: inherit; font-family: Roboto, sans-serif; font-size: 12px; font-weight: 200;" fill="rgb(33, 33, 33)" stroke="none" stroke-width="1px">100</text><text x="155.86686603832706" y="0" dx="0em" dy="0.95em" style="text-anchor: middle; visibility: hidden; font-family: Roboto, sans-serif; font-size: 12px; font-weight: 200;" fill="rgb(33, 33, 33)" stroke="none" stroke-width="1px">120</text><text x="176.38062203088694" y="0" dx="0em" dy="0.95em" style="text-anchor: middle; visibility: inherit; font-family: Roboto, sans-serif; font-size: 12px; font-weight: 200;" fill="rgb(33, 33, 33)" stroke="none" stroke-width="1px">140</text><text x="196.89437802344682" y="0" dx="0em" dy="0.95em" style="text-anchor: middle; visibility: hidden; font-family: Roboto, sans-serif; font-size: 12px; font-weight: 200;" fill="rgb(33, 33, 33)" stroke="none" stroke-width="1px">160</text><text x="217.40813401600673" y="0" dx="0em" dy="0.95em" style="text-anchor: middle; visibility: inherit; font-family: Roboto, sans-serif; font-size: 12px; font-weight: 200;" fill="rgb(33, 33, 33)" stroke="none" stroke-width="1px">180</text><text x="237.9218900085666" y="0" dx="0em" dy="0.95em" style="text-anchor: middle; visibility: hidden; font-family: Roboto, sans-serif; font-size: 12px; font-weight: 200;" fill="rgb(33, 33, 33)" stroke="none" stroke-width="1px">200</text><text x="258.4356460011265" y="0" dx="0em" dy="0.95em" style="text-anchor: middle; visibility: inherit; font-family: Roboto, sans-serif; font-size: 12px; font-weight: 200;" fill="rgb(33, 33, 33)" stroke="none" stroke-width="1px">220</text></g><line x1="0" y1="0" x2="270" y2="0" fill="rgb(0, 0, 0)" stroke="rgb(204, 204, 204)" stroke-width="1px"></line></g></g></g></g></svg>