<svg viewBox="0 0 330 200" xmlns="http://www.w3.org/2000/svg"><g><g><g><g><g><line x1="40" y1="172.6204225631929" x2="35" y2="172.6204225631929" style="visibility: inherit;" fill="rgb(0, 0, 0)" stroke="rgb(204, 204, 204)" stroke-width="1px"></line><line x1="40" y1="154.27070700571923" x2="35" y2="154.27070700571923" style="visibility: inherit;" fill="rgb(0, 0, 0)" stroke="rgb(204, 204, 204)" stroke-width="1px"></line><line x1="40" y1="135.9209914482456" x2="35" y2="135.9209914482456" style="visibility: inherit;" fill="rgb(0, 0, 0)" stroke="rgb(204, 204, 204)" stroke-width="1px"></line><line x1="40" y1="117.57127589077191" x2="35" y2="117.57127589077191" style="visibility: inherit;" fill="rgb(0, 0, 0)" stroke="rgb(204, 204, 204)" stroke-width="1px"></line><line x1="40" y1="99.22156033329826" x2="35" y2="99.22156033329826" style="visibility: inherit;" fill="rgb(0, 0, 0)" stroke="rgb(204, 204, 204)" stroke-width="1px"></line><line x1="40" y1="80.87184477582463" x2="35" y2="80.87184477582463" style="visibility: inherit;" fill="rgb(0, 0, 0)" stroke="rgb(204, 204, 204)" stroke-width="1px"></line><line x1="40" y1="62.522129218350955" x2="35" y2="62.522129218350955" style="visibility: inherit;" fill="rgb(0, 0, 0)" stroke="rgb(204, 204, 204)" stroke-width="1px"></line><line x1="40" y1="44.17241366087728" x2="35" y2="44.17241366087728" style="visibility: inherit;" fill="rgb(0, 0, 0)" stroke="rgb(204, 204, 204)" stroke-width="1px"></line><line x1="40" y1="25.822698103403628" x2="35" y2="25.822698103403628" style="visibility: inherit;" fill="rgb(0, 0, 0)" stroke="rgb(204, 204, 204)" stroke-width="1px"></line><line x1="40" y1="7.472982545929974" x2="35" y2="7.472982545929974" style="visibility: inherit;" fill="rgb(0, 0, 0)" stroke="rgb(204, 204, 204)" stroke-width="1px"></line></g><g transform="translate(30, 0)"><text x="0" y="172.6204225631929" dx="0em" dy="0.3em" style="text-anchor: end; visibility: hidden; font-family: Roboto, sans-serif; font-size: 12px; font-weight: 200;" fill="rgb(33, 33, 33)" stroke="none" stroke-width="1px">0.1</text><text x="0" y="154.27070700571923" dx="0em" dy="0.3em" style="text-anchor: end; visibility: inherit; font-family: Roboto, sans-serif; font-size: 12px; font-weight: 200;" fill="rgb(33, 33, 33)" stroke="none" stroke-width="1px">0.2</text><text x="0" y="135.9209914482456" dx="0em" dy="0.3em" style="text-anchor: end; visibility: hidden; font-family: Roboto, sans-serif; font-size: 12px; font-weight: 200;" fill="rgb(33, 33, 33)" stroke="none" stroke-width="1px">0.3</text><text x="0" y="117.57127589077191" dx="0em" dy="0.3em" style="text-anchor: end; visibility: inherit; font-family: Roboto, sans-serif; font-size: 12px; font-weight: 200;" fill="rgb(33, 33, 33)" stroke="none" stroke-width="1px">0.4</text><text x="0" y="99.22156033329826" dx="0em" dy="0.3em" style="text-anchor: end; visibility: hidden; font-family: Roboto, sans-serif; font-size: 12px; font-weight: 200;" fill="rgb(33, 33, 33)" stroke="none" stroke-width="1px">0.5</text><text x="0" y="80.87184477582463" dx="0em" dy="0.3em" style="text-anchor: end; visibility: inherit; font-family: Roboto, sans-serif; font-size: 12px; font-weight: 200;" fill="rgb(33, 33, 33)" stroke="none" stroke-width="1px">0.6</text><text x="0" y="62.522129218350955" dx="0em" dy="0.3em" style="text-anchor: end; visibility: hidden; font-family: Roboto, sans-serif; font-size: 12px; font-weight: 200;" fill="rgb(33, 33, 33)" stroke="none" stroke-width="1px">0.7</text><text x="0" y="44.17241366087728" dx="0em" dy="0.3em" style="text-anchor: end; visibility: inherit; font-family: Roboto, sans-serif; font-size: 12px; font-weight: 200;" fill="rgb(33, 33, 33)" stroke="none" stroke-width="1px">0.8</text><text x="0" y="25.822698103403628" dx="0em" dy="0.3em" style="text-anchor: end; visibility: hidden; font-family: Roboto, sans-serif; font-size: 12px; font-weight: 200;" fill="rgb(33, 33, 33)" stroke="none" stroke-width="1px">0.9</text><text x="0" y="7.472982545929974" dx="0em" dy="0.3em" style="text-anchor: end; visibility: inherit; font-family: Roboto, sans-serif; font-size: 12px; font-weight: 200;" fill="rgb(33, 33, 33)" stroke="none" stroke-width="1px">1</text></g><line x1="40" y1="0" x2="40" y2="177" fill="rgb(0, 0, 0)" stroke="rgb(204, 204, 204)" stroke-width="1px"></line></g></g><g transform="translate(40, 0)" clip-path="url(#clip_0)"><clipPath id="clip_0"><rect width="290" height="177"></rect></clipPath><g><g><g><line x1="11.728172599818203" y1="0" x2="11.728172599818203" y2="177" fill="rgb(0, 0, 0)" stroke="rgb(66, 66, 66)" stroke-width="1px" opacity="0.25"></line><line x1="36.86109335069345" y1="0" x2="36.86109335069345" y2="177" fill="rgb(0, 0, 0)" stroke="rgb(66, 66, 66)" stroke-width="1px" opacity="0.25"></line><line x1="61.99401410156871" y1="0" x2="61.99401410156871" y2="177" fill="rgb(0, 0, 0)" stroke="rgb(66, 66, 66)" stroke-width="1px" opacity="0.25"></line><line x1="87.12693485244397" y1="0" x2="87.12693485244397" y2="177" fill="rgb(0, 0, 0)" stroke="rgb(66, 66, 66)" stroke-width="1px" opacity="0.25"></line><line x1="112.25985560331922" y1="0" x2="112.25985560331922" y2="177" fill="rgb(0, 0, 0)" stroke="rgb(66, 66, 66)" stroke-width="1px" opacity="0.25"></line><line x1="137.39277635419447" y1="0" x2="137.39277635419447" y2="177" fill="rgb(0, 0, 0)" stroke="rgb(66, 66, 66)" stroke-width="1px" opacity="0.25"></line><line x1="162.52569710506972" y1="0" x2="162.52569710506972" y2="177" fill="rgb(0, 0, 0)" stroke="rgb(66, 66, 66)" stroke-width="1px" opacity="0.25"></line><line x1="187.65861785594498" y1="0" x2="187.65861785594498" y2="177" fill="rgb(0, 0, 0)" stroke="rgb(66, 66, 66)" stroke-width="1px" opacity="0.25"></line><line x1="212.79153860682024" y1="0" x2="212.79153860682024" y2="177" fill="rgb(0, 0, 0)" stroke="rgb(66, 66, 66)" stroke-width="1px" opacity="0.25"></line><line x1="237.9244593576955" y1="0" x2="237.9244593576955" y2="177" fill="rgb(0, 0, 0)" stroke="rgb(66, 66, 66)" stroke-width="1px" opacity="0.25"></line><line x1="263.0573801085707" y1="0" x2="263.0573801085707" y2="177" fill="rgb(0, 0, 0)" stroke="rgb(66, 66, 66)" stroke-width="1px" opacity="0.25"></line><line x1="288.190300859446" y1="0" x2="288.190300859446" y2="177" fill="rgb(0, 0, 0)" stroke="rgb(66, 66, 66)" stroke-width="1px" opacity="0.25"></line></g><g><line x1="0" y1="172.6204225631929" x2="290" y2="172.6204225631929" fill="rgb(0, 0, 0)" stroke="rgb(66, 66, 66)" stroke-width="1px" opacity="0.25"></line><line x1="0" y1="154.27070700571923" x2="290" y2="154.27070700571923" fill="rgb(0, 0, 0)" stroke="rgb(66, 66, 66)" stroke-width="1px" opacity="0.25"></line><line x1="0" y1="135.9209914482456" x2="290" y2="135.9209914482456" fill="rgb(0, 0, 0)" stroke="rgb(66, 66, 66)" stroke-width="1px" opacity="0.25"></line><line x1="0" y1="117.57127589077191" x2="290" y2="117.57127589077191" fill="rgb(0, 0, 0)" stroke="rgb(66, 66, 66)" stroke-width="1px" opacity="0.25"></line><line x1="0" y1="99.22156033329826" x2="290" y2="99.22156033329826" fill="rgb(0, 0, 0)" stroke="rgb(66, 66, 66)" stroke-width="1px" opacity="0.25"></line><line x1="0" y1="80.87184477582463" x2="290" y2="80.87184477582463" fill="rgb(0, 0, 0)" stroke="rgb(66, 66, 66)" stroke-width="1px" opacity="0.25"></line><line x1="0" y1="62.522129218350955" x2="290" y2="62.522129218350955" fill="rgb(0, 0, 0)" stroke="rgb(66, 66, 66)" stroke-width="1px" opacity="0.25"></line><line x1="0" y1="44.17241366087728" x2="290" y2="44.17241366087728" fill="rgb(0, 0, 0)" stroke="rgb(66, 66, 66)" stroke-width="1px" opacity="0.25"></line><line x1="0" y1="25.822698103403628" x2="290" y2="25.822698103403628" fill="rgb(0, 0, 0)" stroke="rgb(66, 66, 66)" stroke-width="1px" opacity="0.25"></line><line x1="0" y1="7.472982545929974" x2="290" y2="7.472982545929974" fill="rgb(0, 0, 0)" stroke="rgb(66, 66, 66)" stroke-width="1px" opacity="0.25"></line></g></g></g><g><g><line x1="0" y1="190.97013812066658" x2="290" y2="190.97013812066658" fill="rgb(0, 0, 0)" stroke="rgb(153, 153, 153)" stroke-width="1.5px"></line></g></g><g><g><line x1="11.728172599818203" y1="0" x2="11.728172599818203" y2="177" fill="rgb(0, 0, 0)" stroke="rgb(153, 153, 153)" stroke-width="1.5px"></line></g></g><g><g><g><g><g><path stroke="rgb(0, 119, 187)" stroke-width="2px" d="M11.728172599818203,112.37218821201957L12.984818637361965,106.44676146294728L14.241464674905727,107.44148535914339L15.498110712449492,108.02088023106984L16.754756749993252,108.44905366546833L18.011402787537016,107.91369516382663L19.26804882508078,105.34354401139848L20.524694862624543,106.33671109159393L21.781340900168306,107.04540546077708L23.037986937712066,108.69677850102151L24.29463297525583,113.24171867913387L25.55127901279959,108.23441212627179L26.807925050343353,108.78926535392466L28.06457108788712,111.44783325298495L29.32121712543088,109.12519192958698L30.577863162974644,109.81252774562067L31.834509200518404,108.38952246975727L33.091155238062164,109.24868810117363L34.34780127560593,112.70026442507225L35.6044473131497,112.56902914168128L36.86109335069345,107.47459250269395L38.11773938823722,115.18331087037578L39.374385425780986,109.04322480620036L40.631031463324746,104.62521280127197L41.88767750086851,100.62877064630023L43.144323538412266,96.76292990136058L44.40096957595603,94.44342967482856L45.65761561349979,95.74302613436376L46.91426165104356,89.54988691830933L48.17090768858732,90.84959446862824L49.42755372613108,88.20414138979048L50.68419976367485,84.4149014499678L51.94084580121861,83.97633194739961L53.197491838762375,83.9578529070428L54.454137876306135,82.35645391590467L55.710783913849895,82.98592609516791L56.96742995139366,86.17722978484898L58.22407598893742,81.24145364408056L59.48072202648119,80.23728910187742L60.73736806402495,79.39012773688935L61.99401410156871,80.47214245982106L63.250660139112476,76.71741938211514L64.50730617665623,77.64519986758873L65.7639522142,73.92026756955494L67.02059825174376,73.39795105163545L68.27724428928752,73.5738864224909L69.53389032683128,74.29110424694744L70.79053636437504,71.90781019776199L72.04718240191882,72.06814530823063L73.30382843946258,70.57403483457333L74.56047447700634,73.83683781842609L75.8171205145501,73.59255584178268L77.07376655209387,83.23250103647837L78.33041258963762,81.06492357839461L79.58705862718139,75.72743915590948L80.84370466472515,68.3656792343997L82.10035070226891,67.98556122913033L83.35699673981269,71.30510309206115L84.61364277735643,70.11620950488361L85.8702888149002,67.81256618756592L87.12693485244397,64.96240435254961L88.38358088998773,66.67758422233325L89.6402269275315,71.37663613068082L90.89687296507525,65.1435408173379L92.15351900261902,66.78626610120618L93.41016504016278,64.59128694150479L94.66681107770654,62.90730548452757L95.9234571152503,59.694948468489564L97.18010315279406,65.22975355220696L98.43674919033782,66.47099978097118L99.6933952278816,59.63120127941719L100.95004126542536,55.771984819255714L102.20668730296912,51.00982416053626L103.46333334051288,52.92345363525121L104.71997937805664,49.42303677051903L105.97662541560041,50.01408007507326L107.23327145314417,50.3687060578058L108.48991749068793,51.68246353091461L109.74656352823169,49.29009930984443L111.00320956577545,53.35959894437494L112.25985560331922,46.871103587127315L113.51650164086298,44.078988256248046L114.77314767840674,47.541638888823535L116.0297937159505,52.6775166529188L117.28643975349426,53.19008120836788L118.54308579103804,48.60436275130522L119.7997318285818,49.64520698393046L121.05637786612556,53.205665212757005L122.31302390366932,56.320595088049835L123.56966994121308,60.63617942093501L124.82631597875685,53.439015640001934L126.08296201630061,46.5517596433471L127.33960805384437,39.36111866080423L128.59625409138812,33.94575218780923L129.8529001289319,32.28683946902343L131.10954616647567,28.722529734743848L132.36619220401943,27.44026751178754L133.6228382415632,25.447592599245898L134.87948427910695,25.230642589717814L136.1361303166507,23.999486325618587L137.39277635419447,23.260792567159037L138.64942239173823,22.572913671312346L139.906068429282,22.160186333804333L141.16271446682575,21.912549931299548L142.41936050436954,21.1523114878693L143.6760065419133,21.307825023738523L144.93265257945706,21.40113314526005L146.18929861700082,20.723130095860135L147.44594465454458,21.661972790460386L148.70259069208834,21.858284446064125L149.9592367296321,22.465396720968258L151.21588276717588,22.340338804368844L152.47252880471964,23.12162329710753L153.72917484226338,24.936042891904084L154.98582087980714,26.51401993032392L156.2424669173509,27.58313747376127L157.49911295489466,33.48485915131221L158.75575899243844,28.82968494218974L160.0124050299822,27.137562300185554L161.26905106752596,24.65431287035733L162.52569710506972,23.04203189207493L163.7823431426135,21.46300670317808L165.03898918015727,20.026266308298098L166.295635217701,19.653547352912L167.55228125524476,20.28623522237866L168.80892729278852,21.032841905215086L170.06557333033228,23.071117454841236L171.32221936787607,23.927088823460508L172.57886540541983,22.850360104707775L173.8355114429636,21.103340989986854L175.09215748050735,20.544454802696198L176.34880351805114,19.71979780877991L177.6054495555949,19.95899153474299L178.86209559313863,19.368519848007978L180.1187416306824,18.647242874810562L181.37538766822615,18.948464613204944L182.6320337057699,19.985516898939903L183.8886797433137,22.80971641223255L185.14532578085746,22.6692619395129L186.40197181840122,21.361676052026343L187.65861785594498,23.02375530215703L188.91526389348877,22.430691312311147L190.1719099310325,20.606877073777934L191.42855596857626,19.390257210272544L192.68520200612002,18.170960010627393L193.94184804366378,18.41803225392409L195.19849408120754,29.576103184421072L196.45514011875133,25.138786837814838L197.7117861562951,21.620077787152756L198.96843219383885,20.120508958682894L200.2250782313826,18.976105020830047L201.48172426892637,17.922468696961893L202.73837030647013,17.41261822302648L203.9950163440139,16.739713977508803L205.25166238155765,16.45830275058367L206.5083084191014,16.044793373657665L207.76495445664517,16.163681708658462L209.02160049418896,17.58065923389917L210.27824653173272,17.20753254518885L211.53489256927648,17.839975774660985L212.79153860682024,17.607785110416888L214.048184644364,18.814115236110666L215.30483068190776,17.82527482613026L216.56147671945152,23.837866255870786L217.81812275699528,26.22210790986032L219.07476879453904,25.32835344001694L220.3314148320828,21.122161146546645L221.5880608696266,18.231451809308066L222.84470690717035,16.252363566193964L224.1013529447141,15.187241940710992L225.35799898225787,14.425837645035696L226.6146450198016,13.84665937233196L227.8712910573454,13.499152408709715L229.12793709488915,13.535315246220428L230.3845831324329,13.434681628341364L231.64122916997667,13.251965762315367L232.89787520752043,13.387003258383826L234.15452124506422,13.468025756024902L235.41116728260798,13.149640918539998L236.66781332015174,13.203277031733101L237.9244593576955,12.990791683964932L239.18110539523923,12.863300475304019L240.437751432783,12.786805750107467L241.69439747032678,12.863240235375027L242.95104350787054,12.909100926535553L244.2076895454143,12.936617341231878L245.46433558295806,12.95312719004966L246.72098162050185,12.840701778954863L247.9776276580456,12.773246532297962L249.23427369558937,12.73277338430384L250.49091973313313,12.708489495507353L251.74756577067686,12.693919162229466L253.00421180822062,12.56284564187725L254.2608578457644,12.484201529665945L255.51750388330817,12.437015062339174L256.7741499208519,12.408703181943086L258.0307959583957,12.391716053705427L259.28744199593945,12.503855097148316L260.5440880334832,12.571138523214062L261.80073407102697,12.489177258468025L263.0573801085707,12.440000499620423L264.3140261461145,12.410494444311817L265.57067218365825,12.392790811126675L266.827318221202,12.382168631215592L268.08396425874577,12.375795323268935" style="fill: none;" fill="none"></path></g><g><path stroke="rgb(255, 112, 67)" stroke-width="2px" d="M11.728172599818203,118.33584554945287L12.984818637361965,109.16098968474051L14.241464674905727,106.00128193168148L15.498110712449492,102.78018896626449L16.754756749993252,101.70097766352625L18.011402787537016,100.8852310689952L19.26804882508078,100.20059741403287L20.524694862624543,98.65139502959545L21.781340900168306,97.64601604343451L23.037986937712066,97.51084348272965L24.29463297525583,96.17180544602085L25.55127901279959,95.67799399549233L26.807925050343353,94.83118511231211L28.06457108788712,94.07894927456498L29.32121712543088,93.35261245916786L30.577863162974644,91.50982182666989L31.834509200518404,91.07741638898642L33.091155238062164,90.94036371949451L34.34780127560593,89.57357951157499L35.6044473131497,88.66181263467604L36.86109335069345,89.09344587597921L38.11773938823722,89.5970856218071L39.374385425780986,88.584190959576L40.631031463324746,86.90605734381926L41.88767750086851,84.55352953854458L43.144323538412266,82.95851984231078L44.40096957595603,81.94035004308587L45.65761561349979,81.05420537805082L46.91426165104356,80.24727116756206L48.17090768858732,79.12087344500465L49.42755372613108,78.3838693025352L50.68419976367485,77.36059087408613L51.94084580121861,76.96070587749178L53.197491838762375,77.14893452537261L54.454137876306135,77.13954038816117L55.710783913849895,76.33874594031735L56.96742995139366,75.36894399232715L58.22407598893742,74.02249425958249L59.48072202648119,73.52045272478051L60.73736806402495,72.54640554159565L61.99401410156871,72.11488919566598L63.250660139112476,70.35741852542992L64.50730617665623,70.09808970656474L65.7639522142,69.02500751224355L67.02059825174376,67.98358359193224L68.27724428928752,66.65532196009785L69.53389032683128,66.25594395977444L70.79053636437504,65.92456648184223L72.04718240191882,65.17524905334561L73.30382843946258,65.12323757496667L74.56047447700634,64.35803839071008L75.8171205145501,62.797936996686L77.07376655209387,62.22887012143153L78.33041258963762,60.8170287554489L79.58705862718139,59.358267333932524L80.84370466472515,58.911170102372594L82.10035070226891,58.39824912266575L83.35699673981269,56.92834899117954L84.61364277735643,56.78039683460083L85.8702888149002,55.25423033866769L87.12693485244397,53.45163055576968L88.38358088998773,52.614733326801854L89.6402269275315,52.143175632060974L90.89687296507525,52.166069316180135L92.15351900261902,51.84339658304815L93.41016504016278,50.946385663495896L94.66681107770654,51.019835713691954L95.9234571152503,50.819243103038644L97.18010315279406,49.10858037163545L98.43674919033782,48.81617065510639L99.6933952278816,46.71400434166117L100.95004126542536,46.09494617307434L102.20668730296912,44.56136372826025L103.46333334051288,42.72372498356762L104.71997937805664,41.83522373488317L105.97662541560041,40.8127977041306L107.23327145314417,42.615387850748746L108.48991749068793,41.46439315422817L109.74656352823169,40.34563671496664L111.00320956577545,39.39913519308586L112.25985560331922,38.12783137519747L113.51650164086298,37.36504908446443L114.77314767840674,35.80639345164222L116.0297937159505,35.69693867200743L117.28643975349426,35.60068078667363L118.54308579103804,34.93126945354595L119.7997318285818,34.621373331415015L121.05637786612556,33.91552535904162L122.31302390366932,34.868246117410756L123.56966994121308,35.195215931661274L124.82631597875685,33.801090655200426L126.08296201630061,32.53645586797473L127.33960805384437,30.309694776100507L128.59625409138812,29.004223138528907L129.8529001289319,28.1597744957932L131.10954616647567,27.622520292598875L132.36619220401943,27.483664751260473L133.6228382415632,26.84986048472278L134.87948427910695,26.775406225763867L136.1361303166507,25.874414427690212L137.39277635419447,25.456150669231484L138.64942239173823,24.960529773385296L139.906068429282,25.458310818383165L141.16271446682575,25.022991523069024L142.41936050436954,24.700634285687812L143.6760065419133,24.87421390441551L144.93265257945706,24.48903639411023L146.18929861700082,24.6249238490835L147.44594465454458,24.70645632206745L148.70259069208834,24.908292143796192L149.9592367296321,24.662395300763954L151.21588276717588,25.034767494039407L152.47252880471964,24.52420288769181L153.72917484226338,24.370776086908563L154.98582087980714,23.45298578129322L156.2424669173509,22.99405790075659L157.49911295489466,22.290541551085425L158.75575899243844,22.816501661726704L160.0124050299822,22.48983610863118L161.26905106752596,22.691415755483234L162.52569710506972,22.934694863979924L163.7823431426135,22.560752029983103L165.03898918015727,22.519883310163234L166.295635217701,21.761374155958467L167.55228125524476,22.621332545036008L168.80892729278852,22.770313617326114L170.06557333033228,22.339791961605357L171.32221936787607,23.029548888616862L172.57886540541983,21.914261540005334L173.8355114429636,22.223739693922234L175.09215748050735,22.77642054742879L176.34880351805114,22.5575381177981L177.6054495555949,22.70145194343044L178.86209559313863,22.14556299424263L180.1187416306824,21.200373022802605L181.37538766822615,20.66383968257839L182.6320337057699,21.412320919273313L183.8886797433137,21.524996342773658L185.14532578085746,22.051346235775952L186.40197181840122,21.510836928878994L187.65861785594498,21.064200024355358L188.91526389348877,21.07146116505196L190.1719099310325,21.503977470819063L191.42855596857626,20.784836691195533L192.68520200612002,20.720346184577846L193.94184804366378,20.620486220414495L195.19849408120754,20.713486579854877L196.45514011875133,20.646955475133613L197.7117861562951,19.689547534496704L198.96843219383885,19.63501306920937L200.2250782313826,19.4493804270117L201.48172426892637,18.879256202790998L202.73837030647013,19.485251588702578L203.9950163440139,20.185257763853013L205.25166238155765,19.87127354663042L206.5083084191014,19.346469697780236L207.76495445664517,19.64324836531064L209.02160049418896,19.698984245443373L210.27824653173272,19.67126011333032L211.53489256927648,19.96045393502616L212.79153860682024,19.18590030759968L214.048184644364,18.598836810758314L215.30483068190776,18.674758334002654L216.56147671945152,18.934393246080386L217.81812275699528,18.93725785538863L219.07476879453904,18.11323802091508L220.3314148320828,18.35281404254378L221.5880608696266,17.88490305359364L222.84470690717035,17.971150421379985L224.1013529447141,17.380661597484593L225.35799898225787,17.668605547714556L226.6146450198016,18.024868898430753L227.8712910573454,18.17746124866771L229.12793709488915,18.20785099861715L230.3845831324329,17.767344584597847L231.64122916997667,17.77828401959705L232.89787520752043,17.448438736993065L234.15452124506422,17.55635986839435L235.41116728260798,18.171603488969733L236.66781332015174,18.23492136035128L237.9244593576955,18.211746422987503L239.18110539523923,17.64735051883457L240.437751432783,17.614541277306497L241.69439747032678,17.441939394451275L242.95104350787054,17.24663196190559L244.2076895454143,17.496441463534595L245.46433558295806,17.46283018393379L246.72098162050185,17.259166435595098L247.9776276580456,18.054453089482955L249.23427369558937,18.195211763299042L250.49091973313313,17.69859538321424L251.74756577067686,17.951116496898013L253.00421180822062,17.643884526206165L254.2608578457644,17.306633380765785L255.51750388330817,17.563022957490524L256.7741499208519,17.38044775992188L258.0307959583957,17.423814604405962L259.28744199593945,17.66391670922755L260.5440880334832,17.746812311927783L261.80073407102697,17.368390052198766L263.0573801085707,17.661242620543067L264.3140261461145,17.072385596596952L265.57067218365825,17.300142966603765L266.827318221202,17.161554105197055L268.08396425874577,17.231312751378344" style="fill: none;" fill="none"></path></g></g></g></g><g opacity="0.2"><g><g><g><path stroke="rgb(0, 119, 187)" stroke-width="2px" d="M11.728172599818203,112.3721882120196L12.984818637361965,102.8915054135039L14.241464674905727,108.39642029949165L15.498110712449492,108.70224860045535L16.754756749993252,109.00807690141903L18.011402787537016,107.17310162699553L19.26804882508078,101.66818674100777L20.524694862624543,107.7847582289229L21.781340900168306,108.09059199852797L23.037986937712066,111.14887500816482L24.29463297525583,120.01790667339453L25.55127901279959,100.75070183811673L26.807925050343353,109.61973350334641L28.06457108788712,115.43047669029784L29.32121712543088,105.64396012217708L30.577863162974644,110.84304670720115L31.834509200518404,106.25561672410447L33.091155238062164,110.53721840623747L34.34780127560593,117.87710309800734L35.6044473131497,112.3721882120196L36.86109335069345,99.83321693522566L38.11773938823722,126.74613476323704L39.374385425780986,99.83321693522566L40.631031463324746,97.99824712944353L41.88767750086851,94.63413581884296L43.144323538412266,90.96418526999595L44.40096957595603,90.96418526999595L45.65761561349979,97.69241882847984L46.91426165104356,80.26018379898412L48.17090768858732,92.79915507577807L49.42755372613108,84.23596264879484L50.68419976367485,78.7310422941657L51.94084580121861,83.31847774590378L53.197491838762375,83.93013434783116L54.454137876306135,79.95435549802045L55.710783913849895,83.93013434783116L56.96742995139366,90.96418526999595L58.22407598893742,73.8377894787467L59.48072202648119,78.7310422941657L60.73736806402495,78.11938569223832L61.99401410156871,82.09516454204902L63.250660139112476,71.08533477007353L64.50730617665623,79.03687059512939L65.7639522142,68.33286912411755L67.02059825174376,72.61447627489194L68.27724428928752,73.8377894787467L69.53389032683128,75.36693098356514L70.79053636437504,68.33286912411755L72.04718240191882,72.30864797392827L73.30382843946258,68.33286912411755L74.56047447700634,78.7310422941657L75.8171205145501,73.22613287681932L77.07376655209387,97.69241882847984L78.33041258963762,77.81355739127464L79.58705862718139,67.7212125221902L80.84370466472515,57.32303935214206L82.10035070226891,67.41538422122649L83.35699673981269,76.2844158864562L84.61364277735643,68.33286912411755L85.8702888149002,64.35710121158964L87.12693485244397,60.68716160002538L88.38358088998773,69.25035402700863L89.6402269275315,78.42521399320201L90.89687296507525,55.79389784732363L92.15351900261902,69.25035402700863L93.41016504016278,61.298818201952756L94.66681107770654,60.3813332990617L95.9234571152503,54.876412944432566L97.18010315279406,73.531961177783L98.43674919033782,68.33286912411755L99.6933952278816,49.37150352708619L100.95004126542536,49.98316012901357L102.20668730296912,43.866583172457055L103.46333334051288,55.79389784732363L104.71997937805664,44.17241147342074L105.97662541560041,50.90064503190463L107.23327145314417,50.90064503190463L108.48991749068793,53.65309974057781L109.74656352823169,45.70155297823918L111.00320956577545,59.46384839617064L112.25985560331922,37.13836055125594L113.51650164086298,39.89081525992912L114.77314767840674,52.73561483768675L116.0297937159505,60.3813332990617L117.28643975349426,53.958928041541505L118.54308579103804,41.725785065711236L119.7997318285818,51.206473332868306L121.05637786612556,58.546352555996805L122.31302390366932,60.99298990098908L123.56966994121308,67.1095559202628L124.82631597875685,42.6432699686023L126.08296201630061,36.22087564836488L127.33960805384437,28.575157186989934L128.59625409138812,25.822702478316753L129.8529001289319,29.79847039084467L131.10954616647567,23.376065133324477L132.36619220401943,25.516874177353056L133.6228382415632,22.45858023043342L134.87948427910695,24.905217575425695L136.1361303166507,22.15275192946972L137.39277635419447,22.15275192946972L138.64942239173823,21.54109532754236L139.906068429282,21.54109532754236L141.16271446682575,21.54109532754236L142.41936050436954,20.01195382272392L143.6760065419133,21.54109532754236L144.93265257945706,21.54109532754236L146.18929861700082,19.706125521760242L147.44594465454458,23.0702368323608L148.70259069208834,22.15275192946972L149.9592367296321,23.376065133324477L151.21588276717588,22.15275192946972L152.47252880471964,24.29355003621554L153.72917484226338,27.657672284098872L154.98582087980714,28.880985487953613L156.2424669173509,29.186813788917313L157.49911295489466,42.33744166763862L158.75575899243844,21.84692362850604L160.0124050299822,24.599378337179218L161.26905106752596,20.92943872561498L162.52569710506972,20.6236104246513L163.7823431426135,19.094468919832863L165.03898918015727,17.871155715978105L166.295635217701,19.094468919832863L167.55228125524476,21.23526702657866L168.80892729278852,22.15275192946972L170.06557333033228,26.128530779280435L171.32221936787607,25.211045876389374L172.57886540541983,21.23526702657866L173.8355114429636,18.482812317905484L175.09215748050735,19.706125521760242L176.34880351805114,18.482812317905484L177.6054495555949,20.3177821236876L178.86209559313863,18.482812317905484L180.1187416306824,17.565327415014423L181.37538766822615,19.400297220796542L182.6320337057699,21.54109532754236L183.8886797433137,27.046015682171493L185.14532578085746,22.45858023043342L186.40197181840122,19.400297220796542L187.65861785594498,25.516874177353056L188.91526389348877,21.54109532754236L190.1719099310325,17.871155715978105L191.42855596857626,17.565327415014423L192.68520200612002,16.342014211159686L193.94184804366378,18.788640618869163L195.19849408120754,46.31320958016656L196.45514011875133,18.482812317905484L197.7117861562951,16.342014211159686L198.96843219383885,17.871155715978105L200.2250782313826,17.259499114050744L201.48172426892637,16.342014211159686L202.73837030647013,16.647842512123365L203.9950163440139,15.730357609232305L205.25166238155765,16.036185910195986L206.5083084191014,15.424529308268605L207.76495445664517,16.342014211159686L209.02160049418896,19.706125521760242L210.27824653173272,16.647842512123365L211.53489256927648,18.788640618869163L212.79153860682024,17.259499114050744L214.048184644364,20.6236104246513L215.30483068190776,16.342014211159686L216.56147671945152,32.85675340048155L217.81812275699528,29.79847039084467L219.07476879453904,23.987721735251856L220.3314148320828,14.812872706341246L221.5880608696266,13.895387803450186L222.84470690717035,13.283731201522807L224.1013529447141,13.589559502486487L225.35799898225787,13.283731201522807L226.6146450198016,12.977891963276349L227.8712910573454,12.977891963276349L229.12793709488915,13.589559502486487L230.3845831324329,13.283731201522807L231.64122916997667,12.977891963276349L232.89787520752043,13.589559502486487L234.15452124506422,13.589559502486487L235.41116728260798,12.672063662312649L236.66781332015174,13.283731201522807L237.9244593576955,12.672063662312649L239.18110539523923,12.672063662312649L240.437751432783,12.672063662312649L241.69439747032678,12.977891963276349L242.95104350787054,12.977891963276349L244.2076895454143,12.977891963276349L245.46433558295806,12.977891963276349L246.72098162050185,12.672063662312649L247.9776276580456,12.672063662312649L249.23427369558937,12.672063662312649L250.49091973313313,12.672063662312649L251.74756577067686,12.672063662312649L253.00421180822062,12.36623536134897L254.2608578457644,12.36623536134897L255.51750388330817,12.36623536134897L256.7741499208519,12.36623536134897L258.0307959583957,12.36623536134897L259.28744199593945,12.672063662312649L260.5440880334832,12.672063662312649L261.80073407102697,12.36623536134897L263.0573801085707,12.36623536134897L264.3140261461145,12.36623536134897L265.57067218365825,12.36623536134897L266.827318221202,12.36623536134897L268.08396425874577,12.36623536134897" style="fill: none;" fill="none"></path></g><g><path stroke="rgb(255, 112, 67)" stroke-width="2px" d="M11.728172599818203,118.33584554945287L12.984818637361965,103.65607616591312L14.241464674905727,102.96796248874482L15.498110712449492,98.99218363893412L16.754756749993252,100.2919593866712L18.011402787537016,99.75675985998473L19.26804882508078,99.22156033329826L20.524694862624543,96.39264308074277L21.781340900168306,96.1632773236614L23.037986937712066,97.31012798363383L24.29463297525583,94.17539336739743L25.55127901279959,94.93996411980666L26.807925050343353,93.56373676547008L28.06457108788712,92.95206922625992L29.32121712543088,92.26396101773301L30.577863162974644,88.7469355566506L31.834509200518404,90.42899121195089L33.091155238062164,90.73481951291458L34.34780127560593,87.52361141551307L35.6044473131497,87.2942456584317L36.86109335069345,89.74087206614121L38.11773938823722,90.35252866806857L39.374385425780986,87.06486896406754L40.631031463324746,84.38887679927669L41.88767750086851,81.02475455139334L43.144323538412266,80.56601209994783L44.40096957595603,80.41309794946596L45.65761561349979,79.72498974093905L46.91426165104356,79.03687059512939L48.17090768858732,77.43127748371141L49.42755372613108,77.27836333322958L50.68419976367485,75.82567343501067L51.94084580121861,76.36087843033852L53.197491838762375,77.43127748371141L54.454137876306135,77.12544918274773L55.710783913849895,75.13755428920098L56.96742995139366,73.91424108534625L58.22407598893742,72.00281967296459L59.48072202648119,72.76739042537379L60.73736806402495,71.08533477007353L61.99401410156871,71.46761467763675L63.250660139112476,67.7212125221902L64.50730617665623,69.70909647845416L65.7639522142,67.41538422122649L67.02059825174376,66.4214477117359L68.27724428928752,64.66292951255332L69.53389032683128,65.6568769593267L70.79053636437504,65.42750026496255L72.04718240191882,64.05127291062594L73.30382843946258,65.04522035739932L74.56047447700634,63.21023961433441L75.8171205145501,60.457784905661235L77.07376655209387,61.3752698085523L78.33041258963762,58.69926670647865L79.58705862718139,57.17012520166021L80.84370466472515,58.24052425503312L82.10035070226891,57.62886765310574L83.35699673981269,54.72349879395072L84.61364277735643,56.558468599732834L85.8702888149002,52.964980594768136L87.12693485244397,50.74773088142278L88.38358088998773,51.35938748335016L89.6402269275315,51.435839089949695L90.89687296507525,52.2004098423589L92.15351900261902,51.35938748335016L93.41016504016278,49.60086928416758L94.66681107770654,51.13001078898601L95.9234571152503,50.518354187058634L97.18010315279406,46.5425862745307L98.43674919033782,48.377556080312814L99.6933952278816,43.56075487149336L100.95004126542536,45.166358920194114L102.20668730296912,42.26099006103908L103.46333334051288,39.967266866528654L104.71997937805664,40.5024718618565L105.97662541560041,39.27915865800174L107.23327145314417,45.31927307067596L108.48991749068793,39.73790110944727L109.74656352823169,38.66750205607438L111.00320956577545,37.97938291026469L112.25985560331922,36.22087564836488L113.51650164086298,36.22087564836488L114.77314767840674,33.46841000240893L116.0297937159505,35.53275650255519L117.28643975349426,35.456293958672894L118.54308579103804,33.927152453854454L119.7997318285818,34.1565291482186L121.05637786612556,32.85675340048155L122.31302390366932,36.29732725496442L123.56966994121308,35.68567065303704L124.82631597875685,31.709902740509104L126.08296201630061,30.639503687136216L127.33960805384437,26.96955313828918L128.59625409138812,27.046015682171493L129.8529001289319,26.893101531689645L131.10954616647567,26.816638987807348L132.36619220401943,27.27538143925288L133.6228382415632,25.89915408491629L134.87948427910695,26.6637248373255L136.1361303166507,24.52292673057968L137.39277635419447,24.82875503154338L138.64942239173823,24.217098429616L139.906068429282,26.20498238587997L141.16271446682575,24.370012580097853L142.41936050436954,24.217098429616L143.6760065419133,25.134583332507063L144.93265257945706,23.911270128652323L146.18929861700082,24.82875503154338L147.44594465454458,24.82875503154338L148.70259069208834,25.211045876389374L149.9592367296321,24.29355003621554L151.21588276717588,25.59332578395259L152.47252880471964,23.75835597817047L153.72917484226338,24.140635885733687L154.98582087980714,22.076300322870203L156.2424669173509,22.30566607995157L157.49911295489466,21.23526702657866L158.75575899243844,23.605441827688622L160.0124050299822,21.99983777898789L161.26905106752596,22.99378522576126L162.52569710506972,23.299613526724944L163.7823431426135,21.99983777898789L165.03898918015727,22.45858023043342L166.295635217701,20.6236104246513L167.55228125524476,23.911270128652323L168.80892729278852,22.99378522576126L170.06557333033228,21.69400947802419L171.32221936787607,24.064184279134153L172.57886540541983,20.241330517088066L173.8355114429636,22.687956924797565L175.09215748050735,23.605441827688622L176.34880351805114,22.229214473352034L177.6054495555949,22.91732268187895L178.86209559313863,21.311729570460976L180.1187416306824,19.782588065642535L181.37538766822615,19.859039672242073L182.6320337057699,22.535042774315734L183.8886797433137,21.69400947802419L185.14532578085746,22.840871075279413L186.40197181840122,20.700072968533597L187.65861785594498,20.394244667569914L188.91526389348877,21.08235287609683L190.1719099310325,22.15275192946972L191.42855596857626,19.706125521760242L192.68520200612002,20.6236104246513L193.94184804366378,20.470696274169452L195.19849408120754,20.852987119015445L196.45514011875133,20.547158818051766L197.7117861562951,18.25343562354134L198.96843219383885,19.55321137127839L200.2250782313826,19.170931463715178L201.48172426892637,18.024069866459953L202.73837030647013,20.394244667569914L203.9950163440139,21.23526702657866L205.25166238155765,19.400297220796542L206.5083084191014,18.559263924505018L207.76495445664517,20.088416366606236L209.02160049418896,19.782588065642535L210.27824653173272,19.629673915160705L211.53489256927648,20.394244667569914L212.79153860682024,18.024069866459953L214.048184644364,17.718241565496275L215.30483068190776,18.788640618869163L216.56147671945152,19.323845614197005L217.81812275699528,18.94155476935101L219.07476879453904,16.87720826920475L220.3314148320828,18.71217807498687L221.5880608696266,17.18303657016843L222.84470690717035,18.100521473059487L224.1013529447141,16.494928361641513L225.35799898225787,18.100521473059487L226.6146450198016,18.559263924505018L227.8712910573454,18.40634977402317L229.12793709488915,18.25343562354134L230.3845831324329,17.106584963568896L231.64122916997667,17.79469317209581L232.89787520752043,16.953670813087044L234.15452124506422,17.718241565496275L235.41116728260798,19.094468919832863L236.66781332015174,18.329898167423632L237.9244593576955,18.1769840169418L239.18110539523923,16.800756662605213L240.437751432783,17.565327415014423L241.69439747032678,17.18303657016843L242.95104350787054,16.953670813087044L244.2076895454143,17.871155715978105L245.46433558295806,17.412413264532574L246.72098162050185,16.953670813087044L247.9776276580456,19.24738307031471L249.23427369558937,18.40634977402317L250.49091973313313,16.953670813087044L251.74756577067686,18.329898167423632L253.00421180822062,17.18303657016843L254.2608578457644,16.800756662605213L255.51750388330817,17.94760732257764L256.7741499208519,17.106584963568896L258.0307959583957,17.488864871132108L259.28744199593945,18.024069866459953L260.5440880334832,17.871155715978105L261.80073407102697,16.800756662605213L263.0573801085707,18.100521473059487L264.3140261461145,16.189100060677834L265.57067218365825,17.64177902161396L266.827318221202,16.953670813087044L268.08396425874577,17.335950720650278" style="fill: none;" fill="none"></path></g></g></g></g></g></g><g transform="translate(40, 177)" clip-path="url(#clip_1)"><clipPath id="clip_1"><rect width="290" height="23"></rect></clipPath><g><g><line x1="11.728172599818203" y1="0" x2="11.728172599818203" y2="5" style="visibility: inherit;" fill="rgb(0, 0, 0)" stroke="rgb(204, 204, 204)" stroke-width="1px"></line><line x1="36.86109335069345" y1="0" x2="36.86109335069345" y2="5" style="visibility: inherit;" fill="rgb(0, 0, 0)" stroke="rgb(204, 204, 204)" stroke-width="1px"></line><line x1="61.99401410156871" y1="0" x2="61.99401410156871" y2="5" style="visibility: inherit;" fill="rgb(0, 0, 0)" stroke="rgb(204, 204, 204)" stroke-width="1px"></line><line x1="87.12693485244397" y1="0" x2="87.12693485244397" y2="5" style="visibility: inherit;" fill="rgb(0, 0, 0)" stroke="rgb(204, 204, 204)" stroke-width="1px"></line><line x1="112.25985560331922" y1="0" x2="112.25985560331922" y2="5" style="visibility: inherit;" fill="rgb(0, 0, 0)" stroke="rgb(204, 204, 204)" stroke-width="1px"></line><line x1="137.39277635419447" y1="0" x2="137.39277635419447" y2="5" style="visibility: inherit;" fill="rgb(0, 0, 0)" stroke="rgb(204, 204, 204)" stroke-width="1px"></line><line x1="162.52569710506972" y1="0" x2="162.52569710506972" y2="5" style="visibility: inherit;" fill="rgb(0, 0, 0)" stroke="rgb(204, 204, 204)" stroke-width="1px"></line><line x1="187.65861785594498" y1="0" x2="187.65861785594498" y2="5" style="visibility: inherit;" fill="rgb(0, 0, 0)" stroke="rgb(204, 204, 204)" stroke-width="1px"></line><line x1="212.79153860682024" y1="0" x2="212.79153860682024" y2="5" style="visibility: inherit;" fill="rgb(0, 0, 0)" stroke="rgb(204, 204, 204)" stroke-width="1px"></line><line x1="237.9244593576955" y1="0" x2="237.9244593576955" y2="5" style="visibility: inherit;" fill="rgb(0, 0, 0)" stroke="rgb(204, 204, 204)" stroke-width="1px"></line><line x1="263.0573801085707" y1="0" x2="263.0573801085707" y2="5" style="visibility: inherit;" fill="rgb(0, 0, 0)" stroke="rgb(204, 204, 204)" stroke-width="1px"></line><line x1="288.190300859446" y1="0" x2="288.190300859446" y2="5" style="visibility: inherit;" fill="rgb(0, 0, 0)" stroke="rgb(204, 204, 204)" stroke-width="1px"></line></g><g transform="translate(0, 8)"><text x="11.728172599818203" y="0" dx="0em" dy="0.95em" style="text-anchor: middle; visibility: inherit; font-family: Roboto, sans-serif; font-size: 12px; font-weight: 200;" fill="rgb(33, 33, 33)" stroke="none" stroke-width="1px">0</text><text x="36.86109335069345" y="0" dx="0em" dy="0.95em" style="text-anchor: middle; visibility: inherit; font-family: Roboto, sans-serif; font-size: 12px; font-weight: 200;" fill="rgb(33, 33, 33)" stroke="none" stroke-width="1px">20</text><text x="61.99401410156871" y="0" dx="0em" dy="0.95em" style="text-anchor: middle; visibility: inherit; font-family: Roboto, sans-serif; font-size: 12px; font-weight: 200;" fill="rgb(33, 33, 33)" stroke="none" stroke-width="1px">40</text><text x="87.12693485244397" y="0" dx="0em" dy="0.95em" style="text-anchor: middle; visibility: inherit; font-family: Roboto, sans-serif; font-size: 12px; font-weight: 200;" fill="rgb(33, 33, 33)" stroke="none" stroke-width="1px">60</text><text x="112.25985560331922" y="0" dx="0em" dy="0.95em" style="text-anchor: middle; visibility: inherit; font-family: Roboto, sans-serif; font-size: 12px; font-weight: 200;" fill="rgb(33, 33, 33)" stroke="none" stroke-width="1px">80</text><text x="137.39277635419447" y="0" dx="0em" dy="0.95em" style="text-anchor: middle; visibility: inherit; font-family: Roboto, sans-serif; font-size: 12px; font-weight: 200;" fill="rgb(33, 33, 33)" stroke="none" stroke-width="1px">100</text><text x="162.52569710506972" y="0" dx="0em" dy="0.95em" style="text-anchor: middle; visibility: inherit; font-family: Roboto, sans-serif; font-size: 12px; font-weight: 200;" fill="rgb(33, 33, 33)" stroke="none" stroke-width="1px">120</text><text x="187.65861785594498" y="0" dx="0em" dy="0.95em" style="text-anchor: middle; visibility: inherit; font-family: Roboto, sans-serif; font-size: 12px; font-weight: 200;" fill="rgb(33, 33, 33)" stroke="none" stroke-width="1px">140</text><text x="212.79153860682024" y="0" dx="0em" dy="0.95em" style="text-anchor: middle; visibility: inherit; font-family: Roboto, sans-serif; font-size: 12px; font-weight: 200;" fill="rgb(33, 33, 33)" stroke="none" stroke-width="1px">160</text><text x="237.9244593576955" y="0" dx="0em" dy="0.95em" style="text-anchor: middle; visibility: inherit; font-family: Roboto, sans-serif; font-size: 12px; font-weight: 200;" fill="rgb(33, 33, 33)" stroke="none" stroke-width="1px">180</text><text x="263.0573801085707" y="0" dx="0em" dy="0.95em" style="text-anchor: middle; visibility: inherit; font-family: Roboto, sans-serif; font-size: 12px; font-weight: 200;" fill="rgb(33, 33, 33)" stroke="none" stroke-width="1px">200</text><text x="288.190300859446" y="0" dx="0em" dy="0.95em" style="text-anchor: middle; visibility: hidden; font-family: Roboto, sans-serif; font-size: 12px; font-weight: 200;" fill="rgb(33, 33, 33)" stroke="none" stroke-width="1px">220</text></g><line x1="0" y1="0" x2="290" y2="0" fill="rgb(0, 0, 0)" stroke="rgb(204, 204, 204)" stroke-width="1px"></line></g></g></g></g></svg>