<svg viewBox="0 0 330 200" xmlns="http://www.w3.org/2000/svg"><g><g><g><g><g><line x1="41.171875" y1="175.33372929236873" x2="36.171875" y2="175.33372929236873" style="visibility: inherit;" fill="rgb(0, 0, 0)" stroke="rgb(204, 204, 204)" stroke-width="1px"></line><line x1="41.171875" y1="151.59963838327783" x2="36.171875" y2="151.59963838327783" style="visibility: inherit;" fill="rgb(0, 0, 0)" stroke="rgb(204, 204, 204)" stroke-width="1px"></line><line x1="41.171875" y1="127.86554747418691" x2="36.171875" y2="127.86554747418691" style="visibility: inherit;" fill="rgb(0, 0, 0)" stroke="rgb(204, 204, 204)" stroke-width="1px"></line><line x1="41.171875" y1="104.13145656509599" x2="36.171875" y2="104.13145656509599" style="visibility: inherit;" fill="rgb(0, 0, 0)" stroke="rgb(204, 204, 204)" stroke-width="1px"></line><line x1="41.171875" y1="80.39736565600505" x2="36.171875" y2="80.39736565600505" style="visibility: inherit;" fill="rgb(0, 0, 0)" stroke="rgb(204, 204, 204)" stroke-width="1px"></line><line x1="41.171875" y1="56.66327474691413" x2="36.171875" y2="56.66327474691413" style="visibility: inherit;" fill="rgb(0, 0, 0)" stroke="rgb(204, 204, 204)" stroke-width="1px"></line><line x1="41.171875" y1="32.92918383782321" x2="36.171875" y2="32.92918383782321" style="visibility: inherit;" fill="rgb(0, 0, 0)" stroke="rgb(204, 204, 204)" stroke-width="1px"></line><line x1="41.171875" y1="9.195092928732288" x2="36.171875" y2="9.195092928732288" style="visibility: inherit;" fill="rgb(0, 0, 0)" stroke="rgb(204, 204, 204)" stroke-width="1px"></line></g><g transform="translate(31.171875, 0)"><text x="0" y="175.33372929236873" dx="0em" dy="0.3em" style="text-anchor: end; visibility: hidden; font-family: Roboto, sans-serif; font-size: 12px; font-weight: 200;" fill="rgb(33, 33, 33)" stroke="none" stroke-width="1px">0</text><text x="0" y="151.59963838327783" dx="0em" dy="0.3em" style="text-anchor: end; visibility: inherit; font-family: Roboto, sans-serif; font-size: 12px; font-weight: 200;" fill="rgb(33, 33, 33)" stroke="none" stroke-width="1px">0.5</text><text x="0" y="127.86554747418691" dx="0em" dy="0.3em" style="text-anchor: end; visibility: inherit; font-family: Roboto, sans-serif; font-size: 12px; font-weight: 200;" fill="rgb(33, 33, 33)" stroke="none" stroke-width="1px">1</text><text x="0" y="104.13145656509599" dx="0em" dy="0.3em" style="text-anchor: end; visibility: inherit; font-family: Roboto, sans-serif; font-size: 12px; font-weight: 200;" fill="rgb(33, 33, 33)" stroke="none" stroke-width="1px">1.5</text><text x="0" y="80.39736565600505" dx="0em" dy="0.3em" style="text-anchor: end; visibility: inherit; font-family: Roboto, sans-serif; font-size: 12px; font-weight: 200;" fill="rgb(33, 33, 33)" stroke="none" stroke-width="1px">2</text><text x="0" y="56.66327474691413" dx="0em" dy="0.3em" style="text-anchor: end; visibility: inherit; font-family: Roboto, sans-serif; font-size: 12px; font-weight: 200;" fill="rgb(33, 33, 33)" stroke="none" stroke-width="1px">2.5</text><text x="0" y="32.92918383782321" dx="0em" dy="0.3em" style="text-anchor: end; visibility: inherit; font-family: Roboto, sans-serif; font-size: 12px; font-weight: 200;" fill="rgb(33, 33, 33)" stroke="none" stroke-width="1px">3</text><text x="0" y="9.195092928732288" dx="0em" dy="0.3em" style="text-anchor: end; visibility: inherit; font-family: Roboto, sans-serif; font-size: 12px; font-weight: 200;" fill="rgb(33, 33, 33)" stroke="none" stroke-width="1px">3.5</text></g><line x1="41.171875" y1="0" x2="41.171875" y2="177" fill="rgb(0, 0, 0)" stroke="rgb(204, 204, 204)" stroke-width="1px"></line></g></g><g transform="translate(41, 0)" clip-path="url(#clip_0)"><clipPath id="clip_0"><rect width="288" height="177"></rect></clipPath><g><g><g><line x1="2.042575817311615" y1="0" x2="2.042575817311615" y2="177" fill="rgb(0, 0, 0)" stroke="rgb(66, 66, 66)" stroke-width="1px" opacity="0.25"></line><line x1="29.735613370578623" y1="0" x2="29.735613370578623" y2="177" fill="rgb(0, 0, 0)" stroke="rgb(66, 66, 66)" stroke-width="1px" opacity="0.25"></line><line x1="57.42865092384562" y1="0" x2="57.42865092384562" y2="177" fill="rgb(0, 0, 0)" stroke="rgb(66, 66, 66)" stroke-width="1px" opacity="0.25"></line><line x1="85.12168847711263" y1="0" x2="85.12168847711263" y2="177" fill="rgb(0, 0, 0)" stroke="rgb(66, 66, 66)" stroke-width="1px" opacity="0.25"></line><line x1="112.81472603037963" y1="0" x2="112.81472603037963" y2="177" fill="rgb(0, 0, 0)" stroke="rgb(66, 66, 66)" stroke-width="1px" opacity="0.25"></line><line x1="140.50776358364664" y1="0" x2="140.50776358364664" y2="177" fill="rgb(0, 0, 0)" stroke="rgb(66, 66, 66)" stroke-width="1px" opacity="0.25"></line><line x1="168.20080113691367" y1="0" x2="168.20080113691367" y2="177" fill="rgb(0, 0, 0)" stroke="rgb(66, 66, 66)" stroke-width="1px" opacity="0.25"></line><line x1="195.89383869018067" y1="0" x2="195.89383869018067" y2="177" fill="rgb(0, 0, 0)" stroke="rgb(66, 66, 66)" stroke-width="1px" opacity="0.25"></line><line x1="223.58687624344768" y1="0" x2="223.58687624344768" y2="177" fill="rgb(0, 0, 0)" stroke="rgb(66, 66, 66)" stroke-width="1px" opacity="0.25"></line><line x1="251.27991379671468" y1="0" x2="251.27991379671468" y2="177" fill="rgb(0, 0, 0)" stroke="rgb(66, 66, 66)" stroke-width="1px" opacity="0.25"></line><line x1="278.9729513499817" y1="0" x2="278.9729513499817" y2="177" fill="rgb(0, 0, 0)" stroke="rgb(66, 66, 66)" stroke-width="1px" opacity="0.25"></line></g><g><line x1="0" y1="175.33372929236873" x2="288.828125" y2="175.33372929236873" fill="rgb(0, 0, 0)" stroke="rgb(66, 66, 66)" stroke-width="1px" opacity="0.25"></line><line x1="0" y1="151.59963838327783" x2="288.828125" y2="151.59963838327783" fill="rgb(0, 0, 0)" stroke="rgb(66, 66, 66)" stroke-width="1px" opacity="0.25"></line><line x1="0" y1="127.86554747418691" x2="288.828125" y2="127.86554747418691" fill="rgb(0, 0, 0)" stroke="rgb(66, 66, 66)" stroke-width="1px" opacity="0.25"></line><line x1="0" y1="104.13145656509599" x2="288.828125" y2="104.13145656509599" fill="rgb(0, 0, 0)" stroke="rgb(66, 66, 66)" stroke-width="1px" opacity="0.25"></line><line x1="0" y1="80.39736565600505" x2="288.828125" y2="80.39736565600505" fill="rgb(0, 0, 0)" stroke="rgb(66, 66, 66)" stroke-width="1px" opacity="0.25"></line><line x1="0" y1="56.66327474691413" x2="288.828125" y2="56.66327474691413" fill="rgb(0, 0, 0)" stroke="rgb(66, 66, 66)" stroke-width="1px" opacity="0.25"></line><line x1="0" y1="32.92918383782321" x2="288.828125" y2="32.92918383782321" fill="rgb(0, 0, 0)" stroke="rgb(66, 66, 66)" stroke-width="1px" opacity="0.25"></line><line x1="0" y1="9.195092928732288" x2="288.828125" y2="9.195092928732288" fill="rgb(0, 0, 0)" stroke="rgb(66, 66, 66)" stroke-width="1px" opacity="0.25"></line></g></g></g><g><g><line x1="0" y1="175.33372929236873" x2="288.828125" y2="175.33372929236873" fill="rgb(0, 0, 0)" stroke="rgb(153, 153, 153)" stroke-width="1.5px"></line></g></g><g><g><line x1="2.042575817311615" y1="0" x2="2.042575817311615" y2="177" fill="rgb(0, 0, 0)" stroke="rgb(153, 153, 153)" stroke-width="1.5px"></line></g></g><g><g><g><g><g><path stroke="rgb(0, 119, 187)" stroke-width="2px" d="M2.042575817311615,67.3351684259261L3.4272276949749654,77.40206277802349L4.811879572638316,80.57921440068542L6.196531450301666,78.36822651408936L7.581183327965016,60.40216267099942L8.965835205628366,68.20725688991052L10.350487083291716,75.27852718811586L11.735138960955068,62.544437054647815L13.119790838618417,38.75785461318125L14.504442716281767,27.219658796790593L15.889094593945119,44.81981866621878L17.27374647160847,63.30900683971479L18.658398349271817,69.00595091918481L20.04305022693517,73.84952552115499L21.42770210459852,80.20008556316711L22.812353982261868,81.81583300156089L24.19700585992522,80.62113886383604L25.58165773758857,76.99830046670012L26.96630961525192,72.30007542809255L28.35096149291527,62.22306327830267L29.735613370578623,70.62428622316806L31.12026524824197,49.544242527234196L32.50491712590532,64.78317274787227L33.889569003568674,71.0375508593028L35.27422088123202,81.99575477728493L36.65887275889538,90.97735681781887L38.04352463655872,95.61790144609056L39.42817651422207,94.99672183301452L40.812828391885425,103.25718169623677L42.19748026954878,99.39396606848322L43.58213214721213,102.93700102858956L44.96678402487548,108.65545474581862L46.35143590253882,110.1860650588963L47.73608778020217,110.64351844414509L49.12073965786552,113.31347511747337L50.50539153552887,114.0691235462913L51.890043413192224,108.61154520658816L53.274695290855576,113.53383088610332L54.65934716851893,114.3342835464525L56.04399904618227,115.93372711702547L57.42865092384562,114.4372479376095L58.813302801508975,118.48415434538832L60.19795467917233,118.21930222580204L61.58260655683568,120.80336636143791L62.96725843449903,119.83296759381544L64.35191031216237,118.99811495897086L65.73656218982572,118.95163583677524L67.12121406748908,121.52524398385478L68.50586594515242,121.39340327752933L69.89051782281578,122.90188467446629L71.27516970047913,119.28220068735762L72.65982157814247,120.88077024589808L74.04447345580583,107.55055992444777L75.42912533346917,111.92065207919826L76.81377721113252,119.13560579506996L78.19842908879588,125.84907467084355L79.58308096645922,124.76604875387243L80.96773284412258,122.2256448778857L82.35238472178592,124.08380973615809L83.73703659944928,125.67812404172129L85.12168847711263,127.96277812542695L86.50634035477597,124.19869587891867L87.89099223243933,119.78832824915507L89.27564411010268,127.17497246906258L90.66029598776603,122.68028071129015L92.04494786542938,126.1170351796144L93.42959974309274,127.40744968980313L94.81425162075608,131.43501596942036L96.19890349841943,115.3057933794789L97.58355537608278,110.9662709398946L98.96820725374613,124.57797531944252L100.35285913140949,129.04696494574839L101.73751100907283,136.56749435404686L103.12216288673618,135.5308962747051L104.50681476439954,141.58845333139658L105.89146664206288,141.33617866381974L107.27611851972624,140.62771654976117L108.66077039738958,136.9068354451754L110.04542227505294,139.88176496001216L111.43007415271629,129.92061610781698L112.81472603037963,138.98160848592482L114.19937790804299,144.03010778733855L115.58402978570633,139.08431767194634L116.9686816633697,131.87458558077114L118.35333354103304,129.771863983424L119.7379854186964,136.85772742890495L121.12263729635974,137.9140829822872L122.50728917402309,130.4425991085433L123.89194105168644,128.2696323689749L125.27659292934979,113.71618181580877L126.66124480701315,127.23855415555491L128.04589668467648,136.92021646181965L129.43054856233982,145.53210358577465L130.8152004400032,151.2842518123013L132.19985231766654,154.05052855971766L133.58450419532988,157.1470242622412L134.96915607299323,158.4322014083424L136.3538079506566,160.07464106306907L137.73845982831995,160.51523135430085L139.1231117059833,161.21703072571182L140.50776358364664,161.69149120664375L141.89241546130998,161.98255893837964L143.27706733897335,162.36402996063524L144.6617192166367,162.71909080983374L146.04637109430004,163.26013058111948L147.4310229719634,163.49221319365665L148.81567484962676,163.68510476588017L150.2003267272901,163.93830892880675L151.58497860495345,163.2182399587075L152.9696304826168,162.9815509577907L154.35428236028017,162.64993323097073L155.7389342379435,162.89477829772892L157.12358611560686,162.90436126251848L158.5082379932702,161.66987568367418L159.89288987093354,160.34930134402413L161.27754174859692,157.48571776725595L162.66219362626026,143.82547208102912L164.0468455039236,152.19324988622253L165.43149738158695,156.30121820077295L166.8161492592503,159.75382318664316L168.20080113691367,161.69062547054844L169.585453014577,163.34878638466643L170.97010489224036,164.08937847179348L172.3547567699037,164.7607193634847L173.73940864756705,164.70379635975667L175.12406052523042,163.8654374514836L176.50871240289376,161.99514047631797L177.89336428055714,161.37819979129014L179.27801615822048,162.1853312913146L180.66266803588383,163.78394798215442L182.04731991354717,164.6432923685565L183.43197179121054,165.2879806886501L184.8166236688739,165.47280540278328L186.20127554653723,165.66411103728512L187.58592742420058,166.15893772113995L188.97057930186392,166.1517637223784L190.3552311795273,165.71037231888258L191.73988305719064,163.9489520563879L193.12453493485398,163.92478990319105L194.50918681251733,164.52420671407654L195.89383869018067,163.35052411859974L197.27849056784405,162.9040371291212L198.6631424455074,164.2961340090628L200.04779432317073,165.56040623076817L201.43244620083408,166.37190395453138L202.81709807849745,166.74190114085374L204.2017499561608,136.5561827262032L205.58640183382414,148.99234792466322L206.97105371148749,156.50126535096888L208.3557055891508,160.91349567680393L209.7403574668142,163.8763080380914L211.12500934447755,165.81437880460217L212.50966122214086,166.3691864972169L213.8943130998042,167.11705826635918L215.27896497746755,167.82362782004836L216.66361685513095,168.0650422144019L218.04826873279427,168.04846036842056L219.43292061045761,167.09646403028464L220.81757248812096,167.63153082479735L222.2022243657843,166.63438964493437L223.58687624344768,167.44511881498818L224.97152812111102,166.5006997739455L226.35617999877437,166.9280883715414L227.7408318764377,149.79698204370152L229.12548375410108,152.8980307172798L230.51013563176443,157.6885087909239L231.89478750942777,162.1746961014116L233.27943938709112,165.12527636591366L234.66409126475446,167.03446950305852L236.04874314241783,168.293112514911L237.43339502008118,169.10802408090288L238.81804689774452,169.65116771419204L240.20269877540787,169.91138386678492L241.5873506530712,170.07625475519518L242.97200253073458,170.23010677688129L244.35665440839793,170.35036180951874L245.74130628606127,170.38171272163436L247.12595816372462,170.4173883040908L248.51061004138796,170.46009422016752L249.89526191905134,170.50677756093418L251.27991379671468,170.49144033941926L252.66456567437803,170.47588235428364L254.04921755204137,170.48155260071596L255.43386942970474,170.47244475053284L256.8185213073681,170.40967476832333L258.20317318503146,170.4337453774731L259.5878250626948,170.44173433758806L260.97247694035815,170.43473381754822L262.3571288180215,170.48695701876338L263.74178069568484,170.47012806240696L265.1264325733482,170.47692429995377L266.5110844510115,170.49472596203603L267.8957363286749,170.51104749984188L269.2803882063383,170.51288040205912L270.6650400840016,170.51013113086285L272.04969196166496,170.50839315176648L273.4343438393283,170.5124656408431L274.81899571699165,170.52460961348496L276.203647594655,170.53143962709026L277.58829947231834,170.53526899092867L278.9729513499817,170.5396448892607L280.35760322764503,170.54517147574165L281.7422551053084,170.548006725463L283.1269069829718,170.5498418437927L284.5115588606351,170.5555718305095" style="fill: none;" fill="none"></path></g><g><path stroke="rgb(255, 112, 67)" stroke-width="2px" d="M2.042575817311615,58.20508663036368L3.4272276949749654,72.86901021869109L4.811879572638316,79.26005750654785L6.196531450301666,83.07384036257069L7.581183327965016,85.62657558157639L8.965835205628366,87.81667496155976L10.350487083291716,88.88094751087789L11.735138960955068,90.45270318346458L13.119790838618417,91.27651887635363L14.504442716281767,91.82700924703175L15.889094593945119,92.76884043024926L17.27374647160847,93.93152306558474L18.658398349271817,95.44161765974638L20.04305022693517,96.60091024934039L21.42770210459852,97.24537578397735L22.812353982261868,98.55844549698304L24.19700585992522,99.61399407742333L25.58165773758857,99.94503805029024L26.96630961525192,100.90367284745358L28.35096149291527,101.7307983667662L29.735613370578623,101.8215285877843L31.12026524824197,101.34618677231494L32.50491712590532,102.83841734880613L33.889569003568674,105.40642307035282L35.27422088123202,107.92896075943507L36.65887275889538,110.32264453791925L38.04352463655872,111.52395693637465L39.42817651422207,113.12816776592872L40.812828391885425,114.46944746994977L42.19748026954878,115.41031907686809L43.58213214721213,116.42068912460182L44.96678402487548,117.59764237345168L46.35143590253882,118.46959681967718L47.73608778020217,119.59136392236319L49.12073965786552,120.10683986130529L50.50539153552887,120.81023895504394L51.890043413192224,121.31656057737446L53.274695290855576,121.90271330615546L54.65934716851893,122.04873118605721L56.04399904618227,123.52617608837359L57.42865092384562,124.16567019453788L58.813302801508975,125.58682322504465L60.19795467917233,125.92934263557011L61.58260655683568,126.93806884162466L62.96725843449903,128.22243289128537L64.35191031216237,129.78133497148713L65.73656218982572,129.80355826217985L67.12121406748908,130.15229502972815L68.50586594515242,130.33339663259994L69.89051782281578,130.21150389426262L71.27516970047913,130.32201402094455L72.65982157814247,131.44231236545372L74.04447345580583,131.8740531453702L75.42912533346917,133.32032388614226L76.81377721113252,134.96856896859566L78.19842908879588,135.84155673506186L79.58308096645922,136.1304962539586L80.96773284412258,136.9207386339084L82.35238472178592,137.1455130929945L83.73703659944928,138.76979283273775L85.12168847711263,140.06992873908416L86.50634035477597,140.74913695607023L87.89099223243933,141.0293581452836L89.27564411010268,140.6128449822523L90.66029598776603,140.9231885284698L92.04494786542938,141.526725621871L93.42959974309274,141.22823578058336L94.81425162075608,141.33917928607002L96.19890349841943,142.72054475481747L97.58355537608278,143.73923771399157L98.96820725374613,145.0130495088941L100.35285913140949,145.3654175513329L101.73751100907283,145.8956590671463L103.12216288673618,147.37781507922404L104.50681476439954,148.51522456717674L105.89146664206288,149.57206113938435L107.27611851972624,147.59227728620533L108.66077039738958,148.70905443536546L110.04542227505294,149.57184296630655L111.43007415271629,150.6612081839006L112.81472603037963,151.28079054534868L114.19937790804299,151.94806965644958L115.58402978570633,152.9204110228214L116.9686816633697,152.74394992361803L118.35333354103304,153.0469864246585L119.7379854186964,153.8453701095936L121.12263729635974,153.89761658301438L122.50728917402309,154.56318293145225L123.89194105168644,153.90667160607384L125.27659292934979,153.60381698779918L126.66124480701315,154.77619384041566L128.04589668467648,155.77130685820407L129.43054856233982,157.40508655740715L130.8152004400032,158.56487499205153L132.19985231766654,159.45676645687763L133.58450419532988,160.09832579650947L134.96915607299323,159.64496831437754L136.3538079506566,160.3927174963123L137.73845982831995,160.4678300160552L139.1231117059833,161.02018176103758L140.50776358364664,161.61556026002205L141.89241546130998,161.82074514009904L143.27706733897335,161.60168949278926L144.6617192166367,161.7046893736874L146.04637109430004,162.0976673485828L147.4310229719634,162.14863136500526L148.81567484962676,162.4464015246157L150.2003267272901,162.49763708673714L151.58497860495345,162.3820961427304L152.9696304826168,162.21701253577564L154.35428236028017,162.62745913619764L155.7389342379435,162.43688001889691L157.12358611560686,162.6035081994989L158.5082379932702,162.79493735124237L159.89288987093354,163.22169557171708L161.27754174859692,163.44584478181733L162.66219362626026,164.01902214370082L164.0468455039236,163.87255802725625L165.43149738158695,164.24643798498235L166.8161492592503,163.80895111660817L168.20080113691367,163.71852066354077L169.585453014577,164.0124627836648L170.97010489224036,164.07287839243608L172.3547567699037,164.42812245148207L173.73940864756705,163.76823622778002L175.12406052523042,163.88202986754214L176.50871240289376,164.44582821832347L177.89336428055714,164.24850598817903L179.27801615822048,164.69098739423129L180.66266803588383,164.57695635967028L182.04731991354717,164.14207462566904L183.43197179121054,164.2951478511172L184.8166236688739,164.49860494461754L186.20127554653723,164.56227742405716L187.58592742420058,165.08769986116351L188.97057930186392,165.31376142708083L190.3552311795273,164.76307393760686L191.73988305719064,164.74394934174774L193.12453493485398,164.52711460076097L194.50918681251733,164.85781756980518L195.89383869018067,165.20273694407646L197.27849056784405,165.24058580784202L198.6631424455074,164.9735041499726L200.04779432317073,165.53806914367644L201.43244620083408,165.77670155991225L202.81709807849745,165.7693898258201L204.2017499561608,165.52975665126246L205.58640183382414,165.69670896509686L206.97105371148749,165.97336142562284L208.3557055891508,166.0156429684516L209.7403574668142,166.3695694205097L211.12500934447755,166.5279881885381L212.50966122214086,166.10304164830595L213.8943130998042,165.9442319823501L215.27896497746755,166.2746717530977L216.66361685513095,166.63962326527852L218.04826873279427,166.44178040736463L219.43292061045761,166.04672159137363L220.81757248812096,166.48029411827468L222.2022243657843,166.4185462786028L223.58687624344768,166.74968431231537L224.97152812111102,167.04595787752598L226.35617999877437,167.10158490444124L227.7408318764377,167.02190613878977L229.12548375410108,166.95391250063267L230.51013563176443,167.26245522972695L231.89478750942777,167.2313992848356L233.27943938709112,167.51438383469682L234.66409126475446,167.53755842308834L236.04874314241783,167.86526690895192L237.43339502008118,167.65086052494237L238.81804689774452,167.6612329885554L240.20269877540787,167.55345168081706L241.5873506530712,167.25281217216573L242.97200253073458,167.5572713500254L244.35665440839793,167.56780568477646L245.74130628606127,167.89020536090936L247.12595816372462,167.69967674209008L248.51061004138796,167.4566074988056L249.89526191905134,167.47281011582896L251.27991379671468,167.48100809500687L252.66456567437803,168.03812380665815L254.04921755204137,167.96337284170244L255.43386942970474,168.08738085285506L256.8185213073681,168.31096488578797L258.20317318503146,168.04381048046392L259.5878250626948,167.98937982837154L260.97247694035815,168.20534574736575L262.3571288180215,167.70053198214657L263.74178069568484,167.56690549182753L265.1264325733482,167.83944417622672L266.5110844510115,167.81536707086735L267.8957363286749,167.9860862073169L269.2803882063383,168.12560673315065L270.6650400840016,168.00712055194617L272.04969196166496,168.07294323235692L273.4343438393283,168.20901242409383L274.81899571699165,168.09768101957434L276.203647594655,168.1293452024705L277.58829947231834,168.42023298879397L278.9729513499817,168.10651117851927L280.35760322764503,168.31347468960547L281.7422551053084,168.23129972002138L283.1269069829718,168.40120907313812L284.5115588606351,168.15624191844861" style="fill: none;" fill="none"></path></g></g></g></g><g opacity="0.2"><g><g><g><path stroke="rgb(0, 119, 187)" stroke-width="2px" d="M2.042575817311615,67.3351684259261L3.4272276949749654,83.44219938928194L4.811879572638316,83.62927995844085L6.196531450301666,75.76810475945236L7.581183327965016,36.945669717461186L8.965835205628366,79.0045120285834L10.350487083291716,85.39055685487423L11.735138960955068,43.978011392786065L13.119790838618417,3.6772658177915227L14.504442716281767,10.08678271694376L15.889094593945119,71.06042631571707L17.27374647160847,90.9421717544012L18.658398349271817,77.53276552752779L20.04305022693517,81.10539835723728L21.42770210459852,89.71846078124676L22.812353982261868,84.23831460887499L24.19700585992522,78.82960321176898L25.58165773758857,71.56496270927279L26.96630961525192,65.25345359747823L28.35096149291527,47.10846613244338L29.735613370578623,83.22565989743343L31.12026524824197,17.92487063115053L32.50491712590532,87.64126721273533L33.889569003568674,80.41904393737731L35.27422088123202,98.43298276803475L36.65887275889538,104.44972157618982L38.04352463655872,102.57870651461624L39.42817651422207,94.06495336705754L40.812828391885425,115.64786388201914L42.19748026954878,93.59914476199349L43.58213214721213,108.25155229384015L44.96678402487548,117.23313418388133L46.35143590253882,112.48198034578868L47.73608778020217,111.32969848925184L49.12073965786552,117.31841001271968L50.50539153552887,115.20259617003293L51.890043413192224,100.42517778147116L53.274695290855576,120.91725935968253L54.65934716851893,115.53496253251795L56.04399904618227,118.33289246753979L57.42865092384562,112.19252917148616L58.813302801508975,124.5545139521879L60.19795467917233,117.82202404661378L61.58260655683568,124.67946256377247L62.96725843449903,118.37736944263398L64.35191031216237,117.74583600683412L65.73656218982572,118.88191715348617L67.12121406748908,125.38565620432966L68.50586594515242,121.19564221804559L69.89051782281578,125.16460676984121L71.27516970047913,113.85267470673848L72.65982157814247,123.27862458369715L74.04447345580583,87.55524444233052L75.42912533346917,118.47579031131251L76.81377721113252,129.95803636886623L78.19842908879588,135.9192779844976L79.58308096645922,123.14150987841633L80.96773284412258,118.41503906390649L82.35238472178592,126.87105702356627L83.73703659944928,128.0695955000659L85.12168847711263,131.38975925098532L86.50634035477597,118.5525725091564L87.89099223243933,113.17277680450987L89.27564411010268,138.25493879892375L90.66029598776603,115.93824307463152L92.04494786542938,131.27216688210078L93.42959974309274,129.3430714550862L94.81425162075608,137.47636538884623L96.19890349841943,91.11195949456673L97.58355537608278,104.45698728051816L98.96820725374613,144.9955318887644L100.35285913140949,135.7504493852072L101.73751100907283,147.84828846649458L103.12216288673618,133.97599915569245L104.50681476439954,150.67478891643378L105.89146664206288,140.95776666245445L107.27611851972624,139.5650233786733L108.66077039738958,131.3255137882968L110.04542227505294,144.3441592322673L111.43007415271629,114.97889282952421L112.81472603037963,152.5730970530866L114.19937790804299,151.6028567394591L115.58402978570633,131.66563249885803L116.9686816633697,121.05998744400831L118.35333354103304,126.6177815874033L119.7379854186964,147.48652259712637L121.12263729635974,139.49861631236058L122.50728917402309,119.23537329792742L123.89194105168644,125.01018225962231L125.27659292934979,91.8860059860596L126.66124480701315,147.52211266517406L128.04589668467648,151.44270992121682L129.43054856233982,158.44993427170718L130.8152004400032,159.91247415209128L132.19985231766654,158.1999436808422L133.58450419532988,161.7917678160265L134.96915607299323,160.35996712749423L136.3538079506566,162.5383005451591L137.73845982831995,161.17611679114847L139.1231117059833,162.26972978282828L140.50776358364664,162.4031819280417L141.89241546130998,162.41916053598345L143.27706733897335,162.9362364940187L144.6617192166367,163.2516820836315L146.04637109430004,164.07169023804812L147.4310229719634,163.84033711246238L148.81567484962676,163.97444212421544L150.2003267272901,164.31811517319665L151.58497860495345,162.13813650355866L152.9696304826168,162.62651745641543L154.35428236028017,162.1525066407408L155.7389342379435,163.26204589786622L157.12358611560686,162.91873570970282L158.5082379932702,159.81814731540774L159.89288987093354,158.36843983454906L161.27754174859692,153.19034240210365L162.66219362626026,123.33510355168889L164.0468455039236,164.7449165940126L165.43149738158695,162.4631706725986L166.8161492592503,164.93273066544842L168.20080113691367,164.5958288964064L169.585453014577,165.83602775584336L170.97010489224036,165.20026660248408L172.3547567699037,165.76773070102158L173.73940864756705,164.61841185416455L175.12406052523042,162.60789908907398L176.50871240289376,159.18969501356955L177.89336428055714,160.45278876374837L179.27801615822048,163.39602854135128L180.66266803588383,166.18187301841417L182.04731991354717,165.9323089481596L183.43197179121054,166.25501316879053L184.8166236688739,165.7500424739831L186.20127554653723,165.95106948903785L187.58592742420058,166.90117774692217L188.97057930186392,166.1410027242361L190.3552311795273,165.04828521363885L191.73988305719064,161.30682166264583L193.12453493485398,163.8885466733958L194.50918681251733,165.42333193040474L195.89383869018067,161.59000022538453L197.27849056784405,162.23430664490337L198.6631424455074,166.38427932897523L200.04779432317073,167.45681456332625L201.43244620083408,167.58915054017618L202.81709807849745,167.29689692033733L204.2017499561608,91.2776051042273L205.58640183382414,167.6465957223533L206.97105371148749,167.76464149042732L208.3557055891508,167.53184116555653L209.7403574668142,168.32052658002254L211.12500934447755,168.72148495436838L212.50966122214086,167.20139803613898L213.8943130998042,168.23886592007264L215.27896497746755,168.88348215058215L216.66361685513095,168.4271638059322L218.04826873279427,168.02358759944858L219.43292061045761,165.66846952308077L220.81757248812096,168.4341310165664L222.2022243657843,165.13867787513988L223.58687624344768,168.66121257006893L224.97152812111102,165.0840712123815L226.35617999877437,167.56917126793522L227.7408318764377,124.1003225519417L229.12548375410108,157.54960372764722L230.51013563176443,164.87422590139008L231.89478750942777,168.90397706714313L233.27943938709112,169.55114676266678L234.66409126475446,169.89825920877578L236.04874314241783,170.18107703268976L237.43339502008118,170.33039142989068L238.81804689774452,170.4658831641258L240.20269877540787,170.3017080956742L241.5873506530712,170.32356108781056L242.97200253073458,170.46088480941043L244.35665440839793,170.53074435847495L245.74130628606127,170.42873908980772L247.12595816372462,170.47090167777552L248.51061004138796,170.5241530942826L249.89526191905134,170.57680257208415L251.27991379671468,170.46843450714687L252.66456567437803,170.45254537658028L254.04921755204137,170.49005797036438L255.43386942970474,170.4587829752582L256.8185213073681,170.3155197950091L258.20317318503146,170.46985129119767L259.5878250626948,170.45371777776057L260.97247694035815,170.42423303748842L262.3571288180215,170.5652918205861L263.74178069568484,170.44488462787228L265.1264325733482,170.487118656274L266.5110844510115,170.52142845515945L267.8957363286749,170.53552980655064L269.2803882063383,170.51562975538494L270.6650400840016,170.50600722406844L272.04969196166496,170.50578618312193L273.4343438393283,170.51857437445804L274.81899571699165,170.54282557244773L276.203647594655,170.5416846474982L277.58829947231834,170.5410130366863L278.9729513499817,170.54620873675873L280.35760322764503,170.55346135546307L281.7422551053084,170.55225960004503L283.1269069829718,170.5525945212872L284.5115588606351,170.56416681058474" style="fill: none;" fill="none"></path></g><g><path stroke="rgb(255, 112, 67)" stroke-width="2px" d="M2.042575817311615,58.20508663036368L3.4272276949749654,81.66736437168751L4.811879572638316,85.39546290289036L6.196531450301666,87.55884900125355L7.581183327965016,88.95942668351026L8.965835205628366,90.84637083985353L10.350487083291716,90.40287428476358L11.735138960955068,92.74433804295045L13.119790838618417,92.4914870054048L14.504442716281767,92.64442329113896L15.889094593945119,94.17304486556252L17.27374647160847,95.66921975103055L18.658398349271817,97.70182883013143L20.04305022693517,98.33757795886324L21.42770210459852,98.21131654088913L22.812353982261868,100.52712398799747L24.19700585992522,101.19687027530003L25.58165773758857,100.44151995756172L26.96630961525192,102.34147900483589L28.35096149291527,102.97141104318644L29.735613370578623,101.95761894345048L31.12026524824197,100.63318969043584L32.50491712590532,105.07673375205326L33.889569003568674,109.2584012321969L35.27422088123202,111.71274936394023L36.65887275889538,113.91315999767762L38.04352463655872,113.32592246022857L39.42817651422207,115.53448154741832L40.812828391885425,116.48136579047316L42.19748026954878,116.82162596724017L43.58213214721213,117.93624386115273L44.96678402487548,119.36307201255218L46.35143590253882,119.7775283849216L47.73608778020217,121.27401449604235L49.12073965786552,120.88005374756493L50.50539153552887,121.86533757751404L51.890043413192224,122.0760430030366L53.274695290855576,122.78194239388579L54.65934716851893,122.26775800509654L56.04399904618227,125.74234343691072L57.42865092384562,125.12491135250204L58.813302801508975,127.71855276909507L60.19795467917233,126.44312175111105L61.58260655683568,128.4511581502696L62.96725843449903,130.14897896544267L64.35191031216237,132.1196880915467L65.73656218982572,129.83689319821687L67.12121406748908,130.67540018103105L68.50586594515242,130.60504903690148L69.89051782281578,130.0286647867591L71.27516970047913,130.48777921096612L72.65982157814247,133.12275988220935L74.04447345580583,132.52166431524302L75.42912533346917,135.48972999729662L76.81377721113252,137.44093659227312L78.19842908879588,137.15103838476034L79.58308096645922,136.56390553230355L80.96773284412258,138.1061022038328L82.35238472178592,137.4826747816236L83.73703659944928,141.2062124423524L85.12168847711263,142.0201325986037L86.50634035477597,141.7679492815493L87.89099223243933,141.44968992910367L89.27564411010268,139.98807523770535L90.66029598776603,141.3887038477961L92.04494786542938,142.43203126197278L93.42959974309274,140.7805010186519L94.81425162075608,141.5055945443L96.19890349841943,144.79259295793864L97.58355537608278,145.2672771527527L98.96820725374613,146.92376720124793L100.35285913140949,145.8939696149911L101.73751100907283,146.69102134086637L103.12216288673618,149.6010490973406L104.50681476439954,150.22133879910584L105.89146664206288,151.15731599769578L107.27611851972624,144.6226015064368L108.66077039738958,150.38422015910567L110.04542227505294,150.8660257627182L111.43007415271629,152.29525601029164L112.81472603037963,152.21016408752078L114.19937790804299,152.94898832310096L115.58402978570633,154.3789230723791L116.9686816633697,152.47925827481296L118.35333354103304,153.50154117621926L119.7379854186964,155.0429456369962L121.12263729635974,153.97598629314558L122.50728917402309,155.56153245410903L123.89194105168644,152.92190461800624L125.27659292934979,153.14953506038717L126.66124480701315,156.53475911934035L128.04589668467648,157.26397638488666L129.43054856233982,159.85575610621177L130.8152004400032,160.30455764401813L132.19985231766654,160.79460365411677L133.58450419532988,161.06066480595726L134.96915607299323,158.9649320911796L136.3538079506566,161.51434126921444L137.73845982831995,160.58049879566957L139.1231117059833,161.8487093785111L140.50776358364664,162.5086280084988L141.89241546130998,162.1285224602145L143.27706733897335,161.2731060218246L144.6617192166367,161.85918919503456L146.04637109430004,162.68713431092593L147.4310229719634,162.22507738963893L148.81567484962676,162.8930567640314L150.2003267272901,162.57449042991928L151.58497860495345,162.20878472672035L152.9696304826168,161.96938712534347L154.35428236028017,163.24312903683062L155.7389342379435,162.15101134294582L157.12358611560686,162.8534504704019L158.5082379932702,163.08208107885758L159.89288987093354,163.86183290242917L161.27754174859692,163.78206859696763L162.66219362626026,164.87878818652615L164.0468455039236,163.65286185258938L165.43149738158695,164.80725792157148L166.8161492592503,163.15272081404692L168.20080113691367,163.58287498393966L169.585453014577,164.45337596385085L170.97010489224036,164.16350180559306L172.3547567699037,164.96098854005106L173.73940864756705,162.77840689222688L175.12406052523042,164.05272032718534L176.50871240289376,165.29152574449546L177.89336428055714,163.95252264296235L179.27801615822048,165.3547095033097L180.66266803588383,164.40590980782872L182.04731991354717,163.4897520246672L183.43197179121054,164.52475768928946L184.8166236688739,164.80379058486804L186.20127554653723,164.6577861432166L187.58592742420058,165.875833516823L188.97057930186392,165.65285377595683L190.3552311795273,163.93704270339592L191.73988305719064,164.71526244795902L193.12453493485398,164.20186248928076L194.50918681251733,165.35387202337154L195.89383869018067,165.7201160054834L197.27849056784405,165.2973591034904L198.6631424455074,164.57288166316843L200.04779432317073,166.38491663423218L201.43244620083408,166.13465018426598L202.81709807849745,165.75842222468188L204.2017499561608,165.17030688942603L205.58640183382414,165.94713743584848L206.97105371148749,166.38834011641183L208.3557055891508,166.0790652826947L209.7403574668142,166.90045909859685L211.12500934447755,166.7656163405807L212.50966122214086,165.46562183795774L213.8943130998042,165.70601748341633L215.27896497746755,166.77033140921904L216.66361685513095,167.18705053354975L218.04826873279427,166.1450161204938L219.43292061045761,165.45413336738713L220.81757248812096,167.13065290862633L222.2022243657843,166.32592451909497L223.58687624344768,167.24639136288422L224.97152812111102,167.49036822534188L226.35617999877437,167.18502544481413L227.7408318764377,166.90238799031255L229.12548375410108,166.85192204339708L230.51013563176443,167.72526932336837L231.89478750942777,167.18481536749857L233.27943938709112,167.93886065948863L234.66409126475446,167.57232030567567L236.04874314241783,168.35682963774732L237.43339502008118,167.329250948928L238.81804689774452,167.67679168397498L240.20269877540787,167.39177971920952L241.5873506530712,166.80185290918877L242.97200253073458,168.01396011681487L244.35665440839793,167.58360718690307L245.74130628606127,168.37380487510873L247.12595816372462,167.41388381386113L248.51061004138796,167.09200363387885L249.89526191905134,167.49711404136406L251.27991379671468,167.49330506377368L252.66456567437803,168.8737973741351L254.04921755204137,167.85124639426888L255.43386942970474,168.273392869584L256.8185213073681,168.6463409351873L258.20317318503146,167.64307887247787L259.5878250626948,167.90773385023297L260.97247694035815,168.52929462585706L262.3571288180215,166.94331133431777L263.74178069568484,167.366465756349L265.1264325733482,168.2482522028255L266.5110844510115,167.77925141282827L267.8957363286749,168.2421649119912L269.2803882063383,168.3348875219013L270.6650400840016,167.82939128013945L272.04969196166496,168.17167725297307L273.4343438393283,168.41311621169922L274.81899571699165,167.9306839127951L276.203647594655,168.17684147681473L277.58829947231834,168.8565646682792L278.9729513499817,167.6359284631072L280.35760322764503,168.62391995623477L281.7422551053084,168.10803726564524L283.1269069829718,168.65607310281328L284.5115588606351,167.7887911864144" style="fill: none;" fill="none"></path></g></g></g></g></g></g><g transform="translate(41, 177)" clip-path="url(#clip_1)"><clipPath id="clip_1"><rect width="288" height="23"></rect></clipPath><g><g><line x1="2.042575817311615" y1="0" x2="2.042575817311615" y2="5" style="visibility: inherit;" fill="rgb(0, 0, 0)" stroke="rgb(204, 204, 204)" stroke-width="1px"></line><line x1="29.735613370578623" y1="0" x2="29.735613370578623" y2="5" style="visibility: inherit;" fill="rgb(0, 0, 0)" stroke="rgb(204, 204, 204)" stroke-width="1px"></line><line x1="57.42865092384562" y1="0" x2="57.42865092384562" y2="5" style="visibility: inherit;" fill="rgb(0, 0, 0)" stroke="rgb(204, 204, 204)" stroke-width="1px"></line><line x1="85.12168847711263" y1="0" x2="85.12168847711263" y2="5" style="visibility: inherit;" fill="rgb(0, 0, 0)" stroke="rgb(204, 204, 204)" stroke-width="1px"></line><line x1="112.81472603037963" y1="0" x2="112.81472603037963" y2="5" style="visibility: inherit;" fill="rgb(0, 0, 0)" stroke="rgb(204, 204, 204)" stroke-width="1px"></line><line x1="140.50776358364664" y1="0" x2="140.50776358364664" y2="5" style="visibility: inherit;" fill="rgb(0, 0, 0)" stroke="rgb(204, 204, 204)" stroke-width="1px"></line><line x1="168.20080113691367" y1="0" x2="168.20080113691367" y2="5" style="visibility: inherit;" fill="rgb(0, 0, 0)" stroke="rgb(204, 204, 204)" stroke-width="1px"></line><line x1="195.89383869018067" y1="0" x2="195.89383869018067" y2="5" style="visibility: inherit;" fill="rgb(0, 0, 0)" stroke="rgb(204, 204, 204)" stroke-width="1px"></line><line x1="223.58687624344768" y1="0" x2="223.58687624344768" y2="5" style="visibility: inherit;" fill="rgb(0, 0, 0)" stroke="rgb(204, 204, 204)" stroke-width="1px"></line><line x1="251.27991379671468" y1="0" x2="251.27991379671468" y2="5" style="visibility: inherit;" fill="rgb(0, 0, 0)" stroke="rgb(204, 204, 204)" stroke-width="1px"></line><line x1="278.9729513499817" y1="0" x2="278.9729513499817" y2="5" style="visibility: inherit;" fill="rgb(0, 0, 0)" stroke="rgb(204, 204, 204)" stroke-width="1px"></line></g><g transform="translate(0, 8)"><text x="2.042575817311615" y="0" dx="0em" dy="0.95em" style="text-anchor: middle; visibility: inherit; font-family: Roboto, sans-serif; font-size: 12px; font-weight: 200;" fill="rgb(33, 33, 33)" stroke="none" stroke-width="1px">0</text><text x="29.735613370578623" y="0" dx="0em" dy="0.95em" style="text-anchor: middle; visibility: inherit; font-family: Roboto, sans-serif; font-size: 12px; font-weight: 200;" fill="rgb(33, 33, 33)" stroke="none" stroke-width="1px">20</text><text x="57.42865092384562" y="0" dx="0em" dy="0.95em" style="text-anchor: middle; visibility: inherit; font-family: Roboto, sans-serif; font-size: 12px; font-weight: 200;" fill="rgb(33, 33, 33)" stroke="none" stroke-width="1px">40</text><text x="85.12168847711263" y="0" dx="0em" dy="0.95em" style="text-anchor: middle; visibility: inherit; font-family: Roboto, sans-serif; font-size: 12px; font-weight: 200;" fill="rgb(33, 33, 33)" stroke="none" stroke-width="1px">60</text><text x="112.81472603037963" y="0" dx="0em" dy="0.95em" style="text-anchor: middle; visibility: inherit; font-family: Roboto, sans-serif; font-size: 12px; font-weight: 200;" fill="rgb(33, 33, 33)" stroke="none" stroke-width="1px">80</text><text x="140.50776358364664" y="0" dx="0em" dy="0.95em" style="text-anchor: middle; visibility: inherit; font-family: Roboto, sans-serif; font-size: 12px; font-weight: 200;" fill="rgb(33, 33, 33)" stroke="none" stroke-width="1px">100</text><text x="168.20080113691367" y="0" dx="0em" dy="0.95em" style="text-anchor: middle; visibility: inherit; font-family: Roboto, sans-serif; font-size: 12px; font-weight: 200;" fill="rgb(33, 33, 33)" stroke="none" stroke-width="1px">120</text><text x="195.89383869018067" y="0" dx="0em" dy="0.95em" style="text-anchor: middle; visibility: inherit; font-family: Roboto, sans-serif; font-size: 12px; font-weight: 200;" fill="rgb(33, 33, 33)" stroke="none" stroke-width="1px">140</text><text x="223.58687624344768" y="0" dx="0em" dy="0.95em" style="text-anchor: middle; visibility: inherit; font-family: Roboto, sans-serif; font-size: 12px; font-weight: 200;" fill="rgb(33, 33, 33)" stroke="none" stroke-width="1px">160</text><text x="251.27991379671468" y="0" dx="0em" dy="0.95em" style="text-anchor: middle; visibility: inherit; font-family: Roboto, sans-serif; font-size: 12px; font-weight: 200;" fill="rgb(33, 33, 33)" stroke="none" stroke-width="1px">180</text><text x="278.9729513499817" y="0" dx="0em" dy="0.95em" style="text-anchor: middle; visibility: inherit; font-family: Roboto, sans-serif; font-size: 12px; font-weight: 200;" fill="rgb(33, 33, 33)" stroke="none" stroke-width="1px">200</text></g><line x1="0" y1="0" x2="288.828125" y2="0" fill="rgb(0, 0, 0)" stroke="rgb(204, 204, 204)" stroke-width="1px"></line></g></g></g></g></svg>