<svg viewBox="0 0 330 200" xmlns="http://www.w3.org/2000/svg"><g><g><g><g><g><line x1="50" y1="177" x2="45" y2="177" style="visibility: inherit;" fill="rgb(0, 0, 0)" stroke="rgb(204, 204, 204)" stroke-width="1px"></line><line x1="50" y1="154.875" x2="45" y2="154.875" style="visibility: inherit;" fill="rgb(0, 0, 0)" stroke="rgb(204, 204, 204)" stroke-width="1px"></line><line x1="50" y1="132.75" x2="45" y2="132.75" style="visibility: inherit;" fill="rgb(0, 0, 0)" stroke="rgb(204, 204, 204)" stroke-width="1px"></line><line x1="50" y1="110.625" x2="45" y2="110.625" style="visibility: inherit;" fill="rgb(0, 0, 0)" stroke="rgb(204, 204, 204)" stroke-width="1px"></line><line x1="50" y1="88.5" x2="45" y2="88.5" style="visibility: inherit;" fill="rgb(0, 0, 0)" stroke="rgb(204, 204, 204)" stroke-width="1px"></line><line x1="50" y1="66.375" x2="45" y2="66.375" style="visibility: inherit;" fill="rgb(0, 0, 0)" stroke="rgb(204, 204, 204)" stroke-width="1px"></line><line x1="50" y1="44.25000000000002" x2="45" y2="44.25000000000002" style="visibility: inherit;" fill="rgb(0, 0, 0)" stroke="rgb(204, 204, 204)" stroke-width="1px"></line><line x1="50" y1="22.125" x2="45" y2="22.125" style="visibility: inherit;" fill="rgb(0, 0, 0)" stroke="rgb(204, 204, 204)" stroke-width="1px"></line><line x1="50" y1="0" x2="45" y2="0" style="visibility: inherit;" fill="rgb(0, 0, 0)" stroke="rgb(204, 204, 204)" stroke-width="1px"></line></g><g transform="translate(40, 0)"><text x="0" y="177" dx="0em" dy="0.3em" style="text-anchor: end; visibility: hidden; font-family: Roboto, sans-serif; font-size: 12px; font-weight: 200;" fill="rgb(33, 33, 33)" stroke="none" stroke-width="1px">0</text><text x="0" y="154.875" dx="0em" dy="0.3em" style="text-anchor: end; visibility: inherit; font-family: Roboto, sans-serif; font-size: 12px; font-weight: 200;" fill="rgb(33, 33, 33)" stroke="none" stroke-width="1px">1e-4</text><text x="0" y="132.75" dx="0em" dy="0.3em" style="text-anchor: end; visibility: hidden; font-family: Roboto, sans-serif; font-size: 12px; font-weight: 200;" fill="rgb(33, 33, 33)" stroke="none" stroke-width="1px">2e-4</text><text x="0" y="110.625" dx="0em" dy="0.3em" style="text-anchor: end; visibility: inherit; font-family: Roboto, sans-serif; font-size: 12px; font-weight: 200;" fill="rgb(33, 33, 33)" stroke="none" stroke-width="1px">3e-4</text><text x="0" y="88.5" dx="0em" dy="0.3em" style="text-anchor: end; visibility: hidden; font-family: Roboto, sans-serif; font-size: 12px; font-weight: 200;" fill="rgb(33, 33, 33)" stroke="none" stroke-width="1px">4e-4</text><text x="0" y="66.375" dx="0em" dy="0.3em" style="text-anchor: end; visibility: inherit; font-family: Roboto, sans-serif; font-size: 12px; font-weight: 200;" fill="rgb(33, 33, 33)" stroke="none" stroke-width="1px">5e-4</text><text x="0" y="44.25000000000002" dx="0em" dy="0.3em" style="text-anchor: end; visibility: hidden; font-family: Roboto, sans-serif; font-size: 12px; font-weight: 200;" fill="rgb(33, 33, 33)" stroke="none" stroke-width="1px">6e-4</text><text x="0" y="22.125" dx="0em" dy="0.3em" style="text-anchor: end; visibility: inherit; font-family: Roboto, sans-serif; font-size: 12px; font-weight: 200;" fill="rgb(33, 33, 33)" stroke="none" stroke-width="1px">7e-4</text><text x="0" y="0" dx="0em" dy="0.3em" style="text-anchor: end; visibility: hidden; font-family: Roboto, sans-serif; font-size: 12px; font-weight: 200;" fill="rgb(33, 33, 33)" stroke="none" stroke-width="1px">8e-4</text></g><line x1="50" y1="0" x2="50" y2="177" fill="rgb(0, 0, 0)" stroke="rgb(204, 204, 204)" stroke-width="1px"></line></g></g><g transform="translate(50, 0)" clip-path="url(#clip_0)"><clipPath id="clip_0"><rect width="280" height="177"></rect></clipPath><g><g><g><line x1="0" y1="0" x2="0" y2="177" fill="rgb(0, 0, 0)" stroke="rgb(66, 66, 66)" stroke-width="1px" opacity="0.25"></line><line x1="20" y1="0" x2="20" y2="177" fill="rgb(0, 0, 0)" stroke="rgb(66, 66, 66)" stroke-width="1px" opacity="0.25"></line><line x1="40" y1="0" x2="40" y2="177" fill="rgb(0, 0, 0)" stroke="rgb(66, 66, 66)" stroke-width="1px" opacity="0.25"></line><line x1="60" y1="0" x2="60" y2="177" fill="rgb(0, 0, 0)" stroke="rgb(66, 66, 66)" stroke-width="1px" opacity="0.25"></line><line x1="80" y1="0" x2="80" y2="177" fill="rgb(0, 0, 0)" stroke="rgb(66, 66, 66)" stroke-width="1px" opacity="0.25"></line><line x1="100" y1="0" x2="100" y2="177" fill="rgb(0, 0, 0)" stroke="rgb(66, 66, 66)" stroke-width="1px" opacity="0.25"></line><line x1="120" y1="0" x2="120" y2="177" fill="rgb(0, 0, 0)" stroke="rgb(66, 66, 66)" stroke-width="1px" opacity="0.25"></line><line x1="140" y1="0" x2="140" y2="177" fill="rgb(0, 0, 0)" stroke="rgb(66, 66, 66)" stroke-width="1px" opacity="0.25"></line><line x1="160" y1="0" x2="160" y2="177" fill="rgb(0, 0, 0)" stroke="rgb(66, 66, 66)" stroke-width="1px" opacity="0.25"></line><line x1="180" y1="0" x2="180" y2="177" fill="rgb(0, 0, 0)" stroke="rgb(66, 66, 66)" stroke-width="1px" opacity="0.25"></line><line x1="200" y1="0" x2="200" y2="177" fill="rgb(0, 0, 0)" stroke="rgb(66, 66, 66)" stroke-width="1px" opacity="0.25"></line><line x1="220" y1="0" x2="220" y2="177" fill="rgb(0, 0, 0)" stroke="rgb(66, 66, 66)" stroke-width="1px" opacity="0.25"></line><line x1="240" y1="0" x2="240" y2="177" fill="rgb(0, 0, 0)" stroke="rgb(66, 66, 66)" stroke-width="1px" opacity="0.25"></line><line x1="260" y1="0" x2="260" y2="177" fill="rgb(0, 0, 0)" stroke="rgb(66, 66, 66)" stroke-width="1px" opacity="0.25"></line><line x1="280" y1="0" x2="280" y2="177" fill="rgb(0, 0, 0)" stroke="rgb(66, 66, 66)" stroke-width="1px" opacity="0.25"></line></g><g><line x1="0" y1="177" x2="280" y2="177" fill="rgb(0, 0, 0)" stroke="rgb(66, 66, 66)" stroke-width="1px" opacity="0.25"></line><line x1="0" y1="154.875" x2="280" y2="154.875" fill="rgb(0, 0, 0)" stroke="rgb(66, 66, 66)" stroke-width="1px" opacity="0.25"></line><line x1="0" y1="132.75" x2="280" y2="132.75" fill="rgb(0, 0, 0)" stroke="rgb(66, 66, 66)" stroke-width="1px" opacity="0.25"></line><line x1="0" y1="110.625" x2="280" y2="110.625" fill="rgb(0, 0, 0)" stroke="rgb(66, 66, 66)" stroke-width="1px" opacity="0.25"></line><line x1="0" y1="88.5" x2="280" y2="88.5" fill="rgb(0, 0, 0)" stroke="rgb(66, 66, 66)" stroke-width="1px" opacity="0.25"></line><line x1="0" y1="66.375" x2="280" y2="66.375" fill="rgb(0, 0, 0)" stroke="rgb(66, 66, 66)" stroke-width="1px" opacity="0.25"></line><line x1="0" y1="44.25000000000002" x2="280" y2="44.25000000000002" fill="rgb(0, 0, 0)" stroke="rgb(66, 66, 66)" stroke-width="1px" opacity="0.25"></line><line x1="0" y1="22.125" x2="280" y2="22.125" fill="rgb(0, 0, 0)" stroke="rgb(66, 66, 66)" stroke-width="1px" opacity="0.25"></line><line x1="0" y1="0" x2="280" y2="0" fill="rgb(0, 0, 0)" stroke="rgb(66, 66, 66)" stroke-width="1px" opacity="0.25"></line></g></g></g><g><g><line x1="0" y1="177" x2="280" y2="177" fill="rgb(0, 0, 0)" stroke="rgb(153, 153, 153)" stroke-width="1.5px"></line></g></g><g><g><line x1="20" y1="0" x2="20" y2="177" fill="rgb(0, 0, 0)" stroke="rgb(153, 153, 153)" stroke-width="1.5px"></line></g></g><g><g><g><g><g><path stroke="rgb(238, 51, 119)" stroke-width="2px" d="M31,-44.2500105088111L32,97.52699633405182L33,125.74062059127402L34,131.35513181432265L35,132.47241954754543L36,132.69475980645026L37,132.73900551797206L38,132.74781041456492L39,132.7495625889869L40,132.74991127169685L41,132.74998065955614L42,161.10539568560392L43,166.74812327578744L44,167.87102606623398L45,168.0944837215328L46,168.1389517949373L46.99999999999999,168.14780094154477L48,168.14956192171968L49,168.14991235677448L50,168.1499820933504L51,168.14999597092898L52,168.14999873256713L53,168.1499992821331L54,168.14999939149675L55,168.1499994132601L56,168.14999941759103L57,168.14999941845286L58.00000000000001,168.1499994186244L59,168.1499994186585L60,168.14999941866532L61,168.14999941866665L62,168.14999941866694L63,168.14999941866697L64,168.149999418667L65,168.149999418667L66,168.149999418667L67,168.149999418667L68,168.149999418667L69,168.149999418667L70,168.149999418667L71,168.149999418667L72,168.149999418667L73,168.149999418667L74,168.149999418667L75,168.149999418667L76,168.149999418667L77,168.149999418667L78,168.149999418667L79,168.149999418667L80,168.149999418667L81.00000000000001,168.149999418667L82,168.149999418667L83,168.149999418667L84,168.149999418667L85,168.149999418667L86,168.149999418667L87,168.149999418667L88,168.149999418667L89,168.149999418667L90,168.149999418667L91,168.149999418667L92,168.149999418667L93,168.149999418667L93.99999999999999,168.149999418667L95,168.149999418667L96,168.149999418667L97,168.149999418667L98,168.149999418667L99,168.149999418667L100,168.149999418667L101,168.149999418667L102,168.149999418667L103,168.149999418667L104,168.149999418667L105,168.149999418667L106,168.149999418667L107,168.149999418667L108,168.149999418667L109,168.149999418667L110,168.149999418667L111,168.149999418667L112,168.149999418667L113,168.149999418667L114,168.149999418667L115,168.149999418667L116.00000000000001,168.149999418667L117,168.149999418667L118,168.149999418667L119,168.149999418667L120,168.149999418667L121,168.149999418667L122,168.149999418667L123,168.149999418667L124,168.149999418667L125,168.149999418667L126,168.149999418667L127,168.149999418667L128,168.149999418667L129,168.149999418667L130,168.149999418667L131,168.149999418667L132,168.149999418667L133,168.149999418667L134,168.149999418667L135,168.149999418667L136,168.149999418667L137,168.149999418667L138,168.149999418667L139,168.149999418667L140,168.149999418667L141,168.149999418667L142,168.149999418667L143,168.149999418667L144,168.149999418667L145,168.149999418667L146,168.149999418667L147,168.149999418667L148,168.149999418667L149,168.149999418667L150,168.149999418667L151,168.149999418667L152,168.149999418667L152.99999999999997,168.149999418667L154,168.149999418667L155,168.149999418667L156,168.149999418667L157,168.149999418667L158,168.149999418667L159,168.149999418667L160,168.149999418667L161,168.149999418667L162.00000000000003,168.149999418667L163,168.149999418667L164,168.149999418667L165,168.149999418667L166,168.149999418667L167,168.149999418667L168,168.149999418667L169,168.149999418667L170,168.149999418667L171,168.149999418667L172,168.149999418667L173,168.149999418667L174,168.149999418667L175,168.149999418667L176,168.149999418667L177,168.149999418667L178,168.149999418667L179,168.149999418667L180,168.149999418667L181,168.149999418667L182,168.149999418667L183,168.149999418667L184,168.149999418667L185,168.149999418667L186,168.149999418667L187,168.149999418667L187.99999999999997,168.149999418667L189,168.149999418667L190,168.149999418667L191,168.149999418667L192,168.149999418667L193,168.149999418667L194,168.149999418667L195,168.149999418667L196,168.149999418667L197.00000000000003,168.149999418667L198,168.149999418667L199,168.149999418667L200,168.149999418667L201,168.149999418667L202,168.149999418667L203,168.149999418667L204,168.149999418667L205,168.149999418667L206,168.149999418667L207,168.149999418667L208,168.149999418667L209,168.149999418667L210,168.149999418667L211,168.149999418667L212,168.149999418667L213,168.149999418667L214,168.149999418667L215,168.149999418667L216,168.149999418667L217,168.149999418667L218,168.149999418667L219,168.149999418667L220,168.149999418667L221,168.149999418667L222,168.149999418667L222.99999999999997,168.149999418667L224,168.149999418667L225,168.149999418667L226,168.149999418667L227,168.149999418667L228,168.149999418667L229,168.149999418667L230,168.149999418667L231,168.149999418667L232.00000000000003,168.149999418667L233,168.149999418667L234,168.149999418667L235,168.149999418667L236,168.149999418667L237,168.149999418667L238,168.149999418667L239,168.149999418667L240,168.149999418667L241,168.149999418667L242,168.149999418667L243,168.149999418667L244,173.82107972671247L245,174.94962470801352L246,175.17420515929243L247,175.21889666909692L248,175.22779027954803L249,175.22956010802778L250,175.22991230389528L251,175.2299823908729L252,175.22999633818145L253,175.22999911369584L254,175.2299996660232L255,175.22999977593636L256,175.22999979780909L257,175.22999980216176L258,175.2299998030279L259,175.2299998032003L260,175.2299998032346L261,175.22999980324144L262,175.22999980324278L263,175.22999980324306L264,175.2299998032431L265,175.22999980324312L266,175.22999980324312L267,175.22999980324312L268,175.22999980324312L269,175.22999980324312" style="fill: none;" fill="none"></path></g></g></g></g><g opacity="0.2"><g><g><g><path stroke="rgb(238, 51, 119)" stroke-width="2px" d="M31,-44.2500105088111L32,132.74999789823778L33,132.74999789823778L34,132.74999789823778L35,132.74999789823778L36,132.74999789823778L37,132.74999789823778L38,132.74999789823778L39,132.74999789823778L40,132.74999789823778L41,132.74999789823778L42,168.149999418667L43,168.149999418667L44,168.149999418667L45,168.149999418667L46,168.149999418667L46.99999999999999,168.149999418667L48,168.149999418667L49,168.149999418667L50,168.149999418667L51,168.149999418667L52,168.149999418667L53,168.149999418667L54,168.149999418667L55,168.149999418667L56,168.149999418667L57,168.149999418667L58.00000000000001,168.149999418667L59,168.149999418667L60,168.149999418667L61,168.149999418667L62,168.149999418667L63,168.149999418667L64,168.149999418667L65,168.149999418667L66,168.149999418667L67,168.149999418667L68,168.149999418667L69,168.149999418667L70,168.149999418667L71,168.149999418667L72,168.149999418667L73,168.149999418667L74,168.149999418667L75,168.149999418667L76,168.149999418667L77,168.149999418667L78,168.149999418667L79,168.149999418667L80,168.149999418667L81.00000000000001,168.149999418667L82,168.149999418667L83,168.149999418667L84,168.149999418667L85,168.149999418667L86,168.149999418667L87,168.149999418667L88,168.149999418667L89,168.149999418667L90,168.149999418667L91,168.149999418667L92,168.149999418667L93,168.149999418667L93.99999999999999,168.149999418667L95,168.149999418667L96,168.149999418667L97,168.149999418667L98,168.149999418667L99,168.149999418667L100,168.149999418667L101,168.149999418667L102,168.149999418667L103,168.149999418667L104,168.149999418667L105,168.149999418667L106,168.149999418667L107,168.149999418667L108,168.149999418667L109,168.149999418667L110,168.149999418667L111,168.149999418667L112,168.149999418667L113,168.149999418667L114,168.149999418667L115,168.149999418667L116.00000000000001,168.149999418667L117,168.149999418667L118,168.149999418667L119,168.149999418667L120,168.149999418667L121,168.149999418667L122,168.149999418667L123,168.149999418667L124,168.149999418667L125,168.149999418667L126,168.149999418667L127,168.149999418667L128,168.149999418667L129,168.149999418667L130,168.149999418667L131,168.149999418667L132,168.149999418667L133,168.149999418667L134,168.149999418667L135,168.149999418667L136,168.149999418667L137,168.149999418667L138,168.149999418667L139,168.149999418667L140,168.149999418667L141,168.149999418667L142,168.149999418667L143,168.149999418667L144,168.149999418667L145,168.149999418667L146,168.149999418667L147,168.149999418667L148,168.149999418667L149,168.149999418667L150,168.149999418667L151,168.149999418667L152,168.149999418667L152.99999999999997,168.149999418667L154,168.149999418667L155,168.149999418667L156,168.149999418667L157,168.149999418667L158,168.149999418667L159,168.149999418667L160,168.149999418667L161,168.149999418667L162.00000000000003,168.149999418667L163,168.149999418667L164,168.149999418667L165,168.149999418667L166,168.149999418667L167,168.149999418667L168,168.149999418667L169,168.149999418667L170,168.149999418667L171,168.149999418667L172,168.149999418667L173,168.149999418667L174,168.149999418667L175,168.149999418667L176,168.149999418667L177,168.149999418667L178,168.149999418667L179,168.149999418667L180,168.149999418667L181,168.149999418667L182,168.149999418667L183,168.149999418667L184,168.149999418667L185,168.149999418667L186,168.149999418667L187,168.149999418667L187.99999999999997,168.149999418667L189,168.149999418667L190,168.149999418667L191,168.149999418667L192,168.149999418667L193,168.149999418667L194,168.149999418667L195,168.149999418667L196,168.149999418667L197.00000000000003,168.149999418667L198,168.149999418667L199,168.149999418667L200,168.149999418667L201,168.149999418667L202,168.149999418667L203,168.149999418667L204,168.149999418667L205,168.149999418667L206,168.149999418667L207,168.149999418667L208,168.149999418667L209,168.149999418667L210,168.149999418667L211,168.149999418667L212,168.149999418667L213,168.149999418667L214,168.149999418667L215,168.149999418667L216,168.149999418667L217,168.149999418667L218,168.149999418667L219,168.149999418667L220,168.149999418667L221,168.149999418667L222,168.149999418667L222.99999999999997,168.149999418667L224,168.149999418667L225,168.149999418667L226,168.149999418667L227,168.149999418667L228,168.149999418667L229,168.149999418667L230,168.149999418667L231,168.149999418667L232.00000000000003,168.149999418667L233,168.149999418667L234,168.149999418667L235,168.149999418667L236,168.149999418667L237,168.149999418667L238,168.149999418667L239,168.149999418667L240,168.149999418667L241,168.149999418667L242,168.149999418667L243,168.149999418667L244,175.22999980324312L245,175.22999980324312L246,175.22999980324312L247,175.22999980324312L248,175.22999980324312L249,175.22999980324312L250,175.22999980324312L251,175.22999980324312L252,175.22999980324312L253,175.22999980324312L254,175.22999980324312L255,175.22999980324312L256,175.22999980324312L257,175.22999980324312L258,175.22999980324312L259,175.22999980324312L260,175.22999980324312L261,175.22999980324312L262,175.22999980324312L263,175.22999980324312L264,175.22999980324312L265,175.22999980324312L266,175.22999980324312L267,175.22999980324312L268,175.22999980324312L269,175.22999980324312" style="fill: none;" fill="none"></path></g></g></g></g></g></g><g transform="translate(50, 177)" clip-path="url(#clip_1)"><clipPath id="clip_1"><rect width="280" height="23"></rect></clipPath><g><g><line x1="0" y1="0" x2="0" y2="5" style="visibility: inherit;" fill="rgb(0, 0, 0)" stroke="rgb(204, 204, 204)" stroke-width="1px"></line><line x1="20" y1="0" x2="20" y2="5" style="visibility: inherit;" fill="rgb(0, 0, 0)" stroke="rgb(204, 204, 204)" stroke-width="1px"></line><line x1="40" y1="0" x2="40" y2="5" style="visibility: inherit;" fill="rgb(0, 0, 0)" stroke="rgb(204, 204, 204)" stroke-width="1px"></line><line x1="60" y1="0" x2="60" y2="5" style="visibility: inherit;" fill="rgb(0, 0, 0)" stroke="rgb(204, 204, 204)" stroke-width="1px"></line><line x1="80" y1="0" x2="80" y2="5" style="visibility: inherit;" fill="rgb(0, 0, 0)" stroke="rgb(204, 204, 204)" stroke-width="1px"></line><line x1="100" y1="0" x2="100" y2="5" style="visibility: inherit;" fill="rgb(0, 0, 0)" stroke="rgb(204, 204, 204)" stroke-width="1px"></line><line x1="120" y1="0" x2="120" y2="5" style="visibility: inherit;" fill="rgb(0, 0, 0)" stroke="rgb(204, 204, 204)" stroke-width="1px"></line><line x1="140" y1="0" x2="140" y2="5" style="visibility: inherit;" fill="rgb(0, 0, 0)" stroke="rgb(204, 204, 204)" stroke-width="1px"></line><line x1="160" y1="0" x2="160" y2="5" style="visibility: inherit;" fill="rgb(0, 0, 0)" stroke="rgb(204, 204, 204)" stroke-width="1px"></line><line x1="180" y1="0" x2="180" y2="5" style="visibility: inherit;" fill="rgb(0, 0, 0)" stroke="rgb(204, 204, 204)" stroke-width="1px"></line><line x1="200" y1="0" x2="200" y2="5" style="visibility: inherit;" fill="rgb(0, 0, 0)" stroke="rgb(204, 204, 204)" stroke-width="1px"></line><line x1="220" y1="0" x2="220" y2="5" style="visibility: inherit;" fill="rgb(0, 0, 0)" stroke="rgb(204, 204, 204)" stroke-width="1px"></line><line x1="240" y1="0" x2="240" y2="5" style="visibility: inherit;" fill="rgb(0, 0, 0)" stroke="rgb(204, 204, 204)" stroke-width="1px"></line><line x1="260" y1="0" x2="260" y2="5" style="visibility: inherit;" fill="rgb(0, 0, 0)" stroke="rgb(204, 204, 204)" stroke-width="1px"></line><line x1="280" y1="0" x2="280" y2="5" style="visibility: inherit;" fill="rgb(0, 0, 0)" stroke="rgb(204, 204, 204)" stroke-width="1px"></line></g><g transform="translate(0, 8)"><text x="0" y="0" dx="0em" dy="0.95em" style="text-anchor: middle; visibility: hidden; font-family: Roboto, sans-serif; font-size: 12px; font-weight: 200;" fill="rgb(33, 33, 33)" stroke="none" stroke-width="1px">-20</text><text x="20" y="0" dx="0em" dy="0.95em" style="text-anchor: middle; visibility: inherit; font-family: Roboto, sans-serif; font-size: 12px; font-weight: 200;" fill="rgb(33, 33, 33)" stroke="none" stroke-width="1px">0</text><text x="40" y="0" dx="0em" dy="0.95em" style="text-anchor: middle; visibility: hidden; font-family: Roboto, sans-serif; font-size: 12px; font-weight: 200;" fill="rgb(33, 33, 33)" stroke="none" stroke-width="1px">20</text><text x="60" y="0" dx="0em" dy="0.95em" style="text-anchor: middle; visibility: inherit; font-family: Roboto, sans-serif; font-size: 12px; font-weight: 200;" fill="rgb(33, 33, 33)" stroke="none" stroke-width="1px">40</text><text x="80" y="0" dx="0em" dy="0.95em" style="text-anchor: middle; visibility: hidden; font-family: Roboto, sans-serif; font-size: 12px; font-weight: 200;" fill="rgb(33, 33, 33)" stroke="none" stroke-width="1px">60</text><text x="100" y="0" dx="0em" dy="0.95em" style="text-anchor: middle; visibility: inherit; font-family: Roboto, sans-serif; font-size: 12px; font-weight: 200;" fill="rgb(33, 33, 33)" stroke="none" stroke-width="1px">80</text><text x="120" y="0" dx="0em" dy="0.95em" style="text-anchor: middle; visibility: hidden; font-family: Roboto, sans-serif; font-size: 12px; font-weight: 200;" fill="rgb(33, 33, 33)" stroke="none" stroke-width="1px">100</text><text x="140" y="0" dx="0em" dy="0.95em" style="text-anchor: middle; visibility: inherit; font-family: Roboto, sans-serif; font-size: 12px; font-weight: 200;" fill="rgb(33, 33, 33)" stroke="none" stroke-width="1px">120</text><text x="160" y="0" dx="0em" dy="0.95em" style="text-anchor: middle; visibility: hidden; font-family: Roboto, sans-serif; font-size: 12px; font-weight: 200;" fill="rgb(33, 33, 33)" stroke="none" stroke-width="1px">140</text><text x="180" y="0" dx="0em" dy="0.95em" style="text-anchor: middle; visibility: inherit; font-family: Roboto, sans-serif; font-size: 12px; font-weight: 200;" fill="rgb(33, 33, 33)" stroke="none" stroke-width="1px">160</text><text x="200" y="0" dx="0em" dy="0.95em" style="text-anchor: middle; visibility: hidden; font-family: Roboto, sans-serif; font-size: 12px; font-weight: 200;" fill="rgb(33, 33, 33)" stroke="none" stroke-width="1px">180</text><text x="220" y="0" dx="0em" dy="0.95em" style="text-anchor: middle; visibility: inherit; font-family: Roboto, sans-serif; font-size: 12px; font-weight: 200;" fill="rgb(33, 33, 33)" stroke="none" stroke-width="1px">200</text><text x="240" y="0" dx="0em" dy="0.95em" style="text-anchor: middle; visibility: hidden; font-family: Roboto, sans-serif; font-size: 12px; font-weight: 200;" fill="rgb(33, 33, 33)" stroke="none" stroke-width="1px">220</text><text x="260" y="0" dx="0em" dy="0.95em" style="text-anchor: middle; visibility: inherit; font-family: Roboto, sans-serif; font-size: 12px; font-weight: 200;" fill="rgb(33, 33, 33)" stroke="none" stroke-width="1px">240</text><text x="280" y="0" dx="0em" dy="0.95em" style="text-anchor: middle; visibility: hidden; font-family: Roboto, sans-serif; font-size: 12px; font-weight: 200;" fill="rgb(33, 33, 33)" stroke="none" stroke-width="1px">260</text></g><line x1="0" y1="0" x2="280" y2="0" fill="rgb(0, 0, 0)" stroke="rgb(204, 204, 204)" stroke-width="1px"></line></g></g></g></g></svg>