<svg viewBox="0 0 330 200" xmlns="http://www.w3.org/2000/svg"><g><g><g><g><g><line x1="40" y1="170.44785110055753" x2="35" y2="170.44785110055753" style="visibility: inherit;" fill="rgb(0, 0, 0)" stroke="rgb(204, 204, 204)" stroke-width="1px"></line><line x1="40" y1="154.9294402030553" x2="35" y2="154.9294402030553" style="visibility: inherit;" fill="rgb(0, 0, 0)" stroke="rgb(204, 204, 204)" stroke-width="1px"></line><line x1="40" y1="139.41102930555306" x2="35" y2="139.41102930555306" style="visibility: inherit;" fill="rgb(0, 0, 0)" stroke="rgb(204, 204, 204)" stroke-width="1px"></line><line x1="40" y1="123.89261840805081" x2="35" y2="123.89261840805081" style="visibility: inherit;" fill="rgb(0, 0, 0)" stroke="rgb(204, 204, 204)" stroke-width="1px"></line><line x1="40" y1="108.37420751054857" x2="35" y2="108.37420751054857" style="visibility: inherit;" fill="rgb(0, 0, 0)" stroke="rgb(204, 204, 204)" stroke-width="1px"></line><line x1="40" y1="92.85579661304632" x2="35" y2="92.85579661304632" style="visibility: inherit;" fill="rgb(0, 0, 0)" stroke="rgb(204, 204, 204)" stroke-width="1px"></line><line x1="40" y1="77.33738571554409" x2="35" y2="77.33738571554409" style="visibility: inherit;" fill="rgb(0, 0, 0)" stroke="rgb(204, 204, 204)" stroke-width="1px"></line><line x1="40" y1="61.818974818041845" x2="35" y2="61.818974818041845" style="visibility: inherit;" fill="rgb(0, 0, 0)" stroke="rgb(204, 204, 204)" stroke-width="1px"></line><line x1="40" y1="46.300563920539595" x2="35" y2="46.300563920539595" style="visibility: inherit;" fill="rgb(0, 0, 0)" stroke="rgb(204, 204, 204)" stroke-width="1px"></line><line x1="40" y1="30.782153023037363" x2="35" y2="30.782153023037363" style="visibility: inherit;" fill="rgb(0, 0, 0)" stroke="rgb(204, 204, 204)" stroke-width="1px"></line><line x1="40" y1="15.263742125535131" x2="35" y2="15.263742125535131" style="visibility: inherit;" fill="rgb(0, 0, 0)" stroke="rgb(204, 204, 204)" stroke-width="1px"></line></g><g transform="translate(30, 0)"><text x="0" y="170.44785110055753" dx="0em" dy="0.3em" style="text-anchor: end; visibility: inherit; font-family: Roboto, sans-serif; font-size: 12px; font-weight: 200;" fill="rgb(33, 33, 33)" stroke="none" stroke-width="1px">0</text><text x="0" y="154.9294402030553" dx="0em" dy="0.3em" style="text-anchor: end; visibility: hidden; font-family: Roboto, sans-serif; font-size: 12px; font-weight: 200;" fill="rgb(33, 33, 33)" stroke="none" stroke-width="1px">0.1</text><text x="0" y="139.41102930555306" dx="0em" dy="0.3em" style="text-anchor: end; visibility: inherit; font-family: Roboto, sans-serif; font-size: 12px; font-weight: 200;" fill="rgb(33, 33, 33)" stroke="none" stroke-width="1px">0.2</text><text x="0" y="123.89261840805081" dx="0em" dy="0.3em" style="text-anchor: end; visibility: hidden; font-family: Roboto, sans-serif; font-size: 12px; font-weight: 200;" fill="rgb(33, 33, 33)" stroke="none" stroke-width="1px">0.3</text><text x="0" y="108.37420751054857" dx="0em" dy="0.3em" style="text-anchor: end; visibility: inherit; font-family: Roboto, sans-serif; font-size: 12px; font-weight: 200;" fill="rgb(33, 33, 33)" stroke="none" stroke-width="1px">0.4</text><text x="0" y="92.85579661304632" dx="0em" dy="0.3em" style="text-anchor: end; visibility: hidden; font-family: Roboto, sans-serif; font-size: 12px; font-weight: 200;" fill="rgb(33, 33, 33)" stroke="none" stroke-width="1px">0.5</text><text x="0" y="77.33738571554409" dx="0em" dy="0.3em" style="text-anchor: end; visibility: inherit; font-family: Roboto, sans-serif; font-size: 12px; font-weight: 200;" fill="rgb(33, 33, 33)" stroke="none" stroke-width="1px">0.6</text><text x="0" y="61.818974818041845" dx="0em" dy="0.3em" style="text-anchor: end; visibility: hidden; font-family: Roboto, sans-serif; font-size: 12px; font-weight: 200;" fill="rgb(33, 33, 33)" stroke="none" stroke-width="1px">0.7</text><text x="0" y="46.300563920539595" dx="0em" dy="0.3em" style="text-anchor: end; visibility: inherit; font-family: Roboto, sans-serif; font-size: 12px; font-weight: 200;" fill="rgb(33, 33, 33)" stroke="none" stroke-width="1px">0.8</text><text x="0" y="30.782153023037363" dx="0em" dy="0.3em" style="text-anchor: end; visibility: hidden; font-family: Roboto, sans-serif; font-size: 12px; font-weight: 200;" fill="rgb(33, 33, 33)" stroke="none" stroke-width="1px">0.9</text><text x="0" y="15.263742125535131" dx="0em" dy="0.3em" style="text-anchor: end; visibility: inherit; font-family: Roboto, sans-serif; font-size: 12px; font-weight: 200;" fill="rgb(33, 33, 33)" stroke="none" stroke-width="1px">1</text></g><line x1="40" y1="0" x2="40" y2="177" fill="rgb(0, 0, 0)" stroke="rgb(204, 204, 204)" stroke-width="1px"></line></g></g><g transform="translate(40, 0)" clip-path="url(#clip_0)"><clipPath id="clip_0"><rect width="290" height="177"></rect></clipPath><g><g><g><line x1="14.61386049941361" y1="0" x2="14.61386049941361" y2="177" fill="rgb(0, 0, 0)" stroke="rgb(66, 66, 66)" stroke-width="1px" opacity="0.25"></line><line x1="34.79235815034519" y1="0" x2="34.79235815034519" y2="177" fill="rgb(0, 0, 0)" stroke="rgb(66, 66, 66)" stroke-width="1px" opacity="0.25"></line><line x1="54.97085580127676" y1="0" x2="54.97085580127676" y2="177" fill="rgb(0, 0, 0)" stroke="rgb(66, 66, 66)" stroke-width="1px" opacity="0.25"></line><line x1="75.14935345220835" y1="0" x2="75.14935345220835" y2="177" fill="rgb(0, 0, 0)" stroke="rgb(66, 66, 66)" stroke-width="1px" opacity="0.25"></line><line x1="95.32785110313992" y1="0" x2="95.32785110313992" y2="177" fill="rgb(0, 0, 0)" stroke="rgb(66, 66, 66)" stroke-width="1px" opacity="0.25"></line><line x1="115.50634875407151" y1="0" x2="115.50634875407151" y2="177" fill="rgb(0, 0, 0)" stroke="rgb(66, 66, 66)" stroke-width="1px" opacity="0.25"></line><line x1="135.6848464050031" y1="0" x2="135.6848464050031" y2="177" fill="rgb(0, 0, 0)" stroke="rgb(66, 66, 66)" stroke-width="1px" opacity="0.25"></line><line x1="155.86334405593465" y1="0" x2="155.86334405593465" y2="177" fill="rgb(0, 0, 0)" stroke="rgb(66, 66, 66)" stroke-width="1px" opacity="0.25"></line><line x1="176.04184170686625" y1="0" x2="176.04184170686625" y2="177" fill="rgb(0, 0, 0)" stroke="rgb(66, 66, 66)" stroke-width="1px" opacity="0.25"></line><line x1="196.22033935779785" y1="0" x2="196.22033935779785" y2="177" fill="rgb(0, 0, 0)" stroke="rgb(66, 66, 66)" stroke-width="1px" opacity="0.25"></line><line x1="216.3988370087294" y1="0" x2="216.3988370087294" y2="177" fill="rgb(0, 0, 0)" stroke="rgb(66, 66, 66)" stroke-width="1px" opacity="0.25"></line><line x1="236.57733465966098" y1="0" x2="236.57733465966098" y2="177" fill="rgb(0, 0, 0)" stroke="rgb(66, 66, 66)" stroke-width="1px" opacity="0.25"></line><line x1="256.7558323105926" y1="0" x2="256.7558323105926" y2="177" fill="rgb(0, 0, 0)" stroke="rgb(66, 66, 66)" stroke-width="1px" opacity="0.25"></line><line x1="276.93432996152416" y1="0" x2="276.93432996152416" y2="177" fill="rgb(0, 0, 0)" stroke="rgb(66, 66, 66)" stroke-width="1px" opacity="0.25"></line></g><g><line x1="0" y1="170.44785110055753" x2="290" y2="170.44785110055753" fill="rgb(0, 0, 0)" stroke="rgb(66, 66, 66)" stroke-width="1px" opacity="0.25"></line><line x1="0" y1="154.9294402030553" x2="290" y2="154.9294402030553" fill="rgb(0, 0, 0)" stroke="rgb(66, 66, 66)" stroke-width="1px" opacity="0.25"></line><line x1="0" y1="139.41102930555306" x2="290" y2="139.41102930555306" fill="rgb(0, 0, 0)" stroke="rgb(66, 66, 66)" stroke-width="1px" opacity="0.25"></line><line x1="0" y1="123.89261840805081" x2="290" y2="123.89261840805081" fill="rgb(0, 0, 0)" stroke="rgb(66, 66, 66)" stroke-width="1px" opacity="0.25"></line><line x1="0" y1="108.37420751054857" x2="290" y2="108.37420751054857" fill="rgb(0, 0, 0)" stroke="rgb(66, 66, 66)" stroke-width="1px" opacity="0.25"></line><line x1="0" y1="92.85579661304632" x2="290" y2="92.85579661304632" fill="rgb(0, 0, 0)" stroke="rgb(66, 66, 66)" stroke-width="1px" opacity="0.25"></line><line x1="0" y1="77.33738571554409" x2="290" y2="77.33738571554409" fill="rgb(0, 0, 0)" stroke="rgb(66, 66, 66)" stroke-width="1px" opacity="0.25"></line><line x1="0" y1="61.818974818041845" x2="290" y2="61.818974818041845" fill="rgb(0, 0, 0)" stroke="rgb(66, 66, 66)" stroke-width="1px" opacity="0.25"></line><line x1="0" y1="46.300563920539595" x2="290" y2="46.300563920539595" fill="rgb(0, 0, 0)" stroke="rgb(66, 66, 66)" stroke-width="1px" opacity="0.25"></line><line x1="0" y1="30.782153023037363" x2="290" y2="30.782153023037363" fill="rgb(0, 0, 0)" stroke="rgb(66, 66, 66)" stroke-width="1px" opacity="0.25"></line><line x1="0" y1="15.263742125535131" x2="290" y2="15.263742125535131" fill="rgb(0, 0, 0)" stroke="rgb(66, 66, 66)" stroke-width="1px" opacity="0.25"></line></g></g></g><g><g><line x1="0" y1="170.44785110055753" x2="290" y2="170.44785110055753" fill="rgb(0, 0, 0)" stroke="rgb(153, 153, 153)" stroke-width="1.5px"></line></g></g><g><g><line x1="14.61386049941361" y1="0" x2="14.61386049941361" y2="177" fill="rgb(0, 0, 0)" stroke="rgb(153, 153, 153)" stroke-width="1.5px"></line></g></g><g><g><g><g><g><path stroke="rgb(0, 153, 136)" stroke-width="2px" d="M14.61386049941361,99.46213133987816L15.622785381960188,99.46213133987816L16.63171026450677,99.46213133987816L17.640635147053345,99.46213133987816L18.649560029599925,99.46213133987816L19.658484912146506,99.46213133987816L20.667409794693086,99.46213133987816L21.676334677239662,99.46213133987816L22.685259559786243,99.46213133987816L23.694184442332823,99.46213133987816L24.7031093248794,99.46213133987816L25.71203420742598,99.46213133987816L26.72095908997256,99.46213133987816L27.729883972519136,99.46213133987816L28.738808855065717,99.46213133987816L29.747733737612297,99.25461623325268L30.756658620158873,98.5907679981573L31.765583502705454,98.66618101050072L32.77450838525203,99.51125603545864L33.78343326779861,99.67942596542522L34.79235815034519,97.43020708611041L35.80128303289177,96.56757861137598L36.81020791543834,95.15081749615379L37.81913279798493,94.66136322309802L38.8280576805315,93.94141279838492L39.83698256307808,94.21317658161777L40.84590744562466,87.41921089735129L41.85483232817124,82.74694038417597L42.863757210717814,78.08185699679935L43.8726820932644,73.00317363420821L44.881606975810975,68.67225171205091L45.890531858357555,61.584900596786795L46.899456740904135,56.23169735846793L47.908381623450715,52.053664792167396L48.91730650599729,52.052304146975175L49.926231388543876,49.14679965882874L50.93515627109045,44.83330271043285L51.94408115363703,43.55987919544896L52.95300603618361,41.02379062959366L53.96193091873019,43.21682391361507L54.97085580127676,42.823169701633766L55.97978068382335,42.12228348907446L56.98870556636992,42.397837346023636L57.9976304489165,42.245161161434595L59.00655533146308,42.62980881394985L60.01548021400966,43.12138391004883L61.02440509655624,40.93653006779905L62.033329979102824,40.50174415319132L63.0422548616494,38.34005587193278L64.05117974419598,41.85269286133899L65.06010462674256,40.476541737979204L66.06902950928914,40.82523668880564L67.07795439183572,39.85704774639661L68.0868792743823,38.6267915002291L69.09580415692888,37.759421482866735L70.10472903947544,36.75674701391006L71.11365392202204,38.839899489965845L72.1225788045686,37.59431116169781L73.1315036871152,35.686310822373954L74.14042856966176,35.92916777922355L75.14935345220835,38.67521122226322L76.15827833475493,36.52395895880151L77.1672032173015,34.22820527624292L78.17612809984809,36.054034988791926L79.18505298239467,34.54972802846413L80.19397786494125,35.08043877886046L81.20290274748783,38.71383296231752L82.21182763003439,34.4564788008207L83.22075251258097,33.40174651155628L84.22967739512757,32.56930576161765L85.23860227767415,32.81868026562832L86.24752716022071,34.11340384067647L87.2564520427673,33.125955783361036L88.26537692531387,32.92945361995525L89.27430180786045,32.475319476189036L90.28322669040703,33.21501461708112L91.29215157295361,32.94717632786555L92.3010764555002,33.30891413056476L93.31000133804677,33.173381142175366L94.31892622059334,32.73137245523275L95.32785110313992,32.43590132440926L96.33677598568651,34.452268453627L97.3457008682331,33.608427463591276L98.35462575077966,32.1953976488195L99.36355063332624,30.876625478056447L100.37247551587282,30.614189816074592L101.3814003984194,30.354446308213642L102.39032528096598,30.095238539022773L103.39925016351256,31.703791863956923L104.40817504605914,31.401344951243793L105.41709992860572,30.718608991238856L106.42602481115229,30.582744535197893L107.43494969369887,32.21583577044423L108.44387457624546,33.78592638401294L109.45279945879204,31.60817090960839L110.46172434133861,32.21238421683001L111.47064922388519,31.502554829465538L112.47957410643177,31.983847805755033L113.48849898897835,29.796940412658493L114.49742387152493,30.606843890182294L115.50634875407151,30.145465657834528L116.51527363661809,27.978485505345713L117.52419851916467,30.24497136362705L118.53312340171124,30.48849064730314L119.54204828425783,28.66929650262499L120.55097316680441,28.722314490087157L121.55989804935099,28.110316045217104L122.56882293189756,30.271205641061464L123.57774781444414,29.663643433011018L124.58667269699072,29.335219742482426L125.59559757953731,27.81724656819066L126.60452246208388,30.627922437386314L127.61344734463046,29.942148886606223L128.62237222717704,28.56057449224632L129.63129710972362,33.681078414026565L130.6402219922702,28.267042230579488L131.64914687481678,26.77461140782039L132.65807175736336,27.515204320719455L133.66699663990994,27.040033286011347L134.67592152245652,27.152993061230983L135.6848464050031,26.13788540987158L136.69377128754965,27.803526060376118L137.70269617009626,28.965056385328083L138.71162105264284,27.328553846868477L139.72054593518942,25.55027298183842L140.72947081773597,27.064042162822492L141.73839570028255,25.912665369961736L142.74732058282913,27.551195870312156L143.75624546537574,28.707331275383446L144.7651703479223,27.484785361116042L145.77409523046887,25.166325430920573L146.78302011301545,24.08240288043667L147.79194499556206,24.074221104016928L148.8008698781086,22.41245725950625L149.8097947606552,24.986999974201797L150.81871964320177,24.66926613892465L151.82764452574835,26.473691587834182L152.83656940829493,24.965117770037484L153.84549429084151,24.24988136704751L154.8544191733881,23.900030511725923L155.86334405593465,24.037929002643477L156.87226893848126,25.725506473339202L157.8811938210278,25.023747743379545L158.89011870357442,23.43148089624099L159.899043586121,24.567236653537016L160.90796846866755,24.793252049238916L161.91689335121416,24.630710301857025L162.9258182337607,23.76830406763113L163.93474311630732,23.38916641589361L164.9436679988539,21.653582352194697L165.95259288140045,24.42095365439834L166.96151776394706,22.688975848158712L167.9704426464936,24.211959337842064L168.9793675290402,29.495432656293836L169.98829241158677,22.453699120785867L170.99721729413335,23.1275600314714L172.00614217667996,23.469177163824387L173.0150670592265,23.122121350909513L174.0239919417731,20.97789135988784L175.03291682431967,19.928640567299517L176.04184170686625,21.379975330577594L177.05076658941283,22.91388899721995L178.0596914719594,20.93645312150361L179.068616354506,21.373011217737634L180.07754123705254,22.289954114389783L181.08646611959915,24.755110446201705L182.09539100214573,22.340442836479124L183.1043158846923,23.105022030894343L184.1132407672389,20.35193957082983L185.12216564978544,19.38904594802854L186.13109053233205,20.442528165841097L187.1400154148786,19.82210329168422L188.1489402974252,21.566285814852048L189.1578651799718,19.838212252710846L190.16679006251834,20.94694247372131L191.17571494506495,20.752549574453948L192.1846398276115,19.261248527623163L193.19356471015809,22.284743552305475L194.2024895927047,18.73608729371405L195.21141447525125,19.27500274700438L196.22033935779785,19.797284544462272L197.2292642403444,23.63651276840646L198.238189122891,19.42011958096661L199.24711400543757,22.108847489798926L200.25603888798415,20.361219648278368L201.26496377053073,20.428471921064265L202.2738886530773,20.23433631222206L203.2828135356239,17.705507228562436L204.29173841817044,18.239849478537636L205.30066330071705,17.723634561907694L206.30958818326363,22.18627718425464L207.3185130658102,20.999177181850087L208.3274379483568,21.177974494620056L209.33636283090334,19.553426897862764L210.34528771344995,18.19255527947995L211.3542125959965,17.29919280304674L212.36313747854308,18.574030530113124L213.3720623610897,20.072821286549384L214.38098724363624,18.91846378720359L215.38991212618285,21.801499175713516L216.3988370087294,21.5451553825254L217.40776189127598,19.626495894555926L218.4166867738226,18.41461482094845L219.42561165636914,19.211029724924018L220.43453653891575,18.539448455313583L221.4434614214623,18.405803782661117L222.45238630400888,18.37920849280328L223.46131118655546,19.619021487876235L224.47023606910204,17.375540767391044L225.47916095164862,18.381704963891096L226.4880858341952,16.71428456586954L227.49701071674178,18.66515260204141L228.50593559928834,17.600758481363016L229.51486048183494,17.181425240221465L230.52378536438152,16.267910089732723L231.5327102469281,17.123707221413596L232.54163512947468,17.294010850618093L233.55056001202124,16.912863650576707L234.55948489456785,18.91218124202007L235.5684097771144,17.64991718071881L236.57733465966098,18.228787059016764L237.58625954220759,17.72143314042306L238.59518442475414,18.24301873499791L239.60410930730075,17.10171621956828L240.6130341898473,17.704664854499363L241.62195907239388,17.40962141960216L242.6308839549405,16.935870153804522L243.63980883748704,16.841593651910795L244.64873372003365,17.03035143916048L245.6576586025802,16.2378464033216L246.66658348512678,16.28765671231624L247.6755083676734,16.090050152679606L248.68443325021994,15.843207636185355L249.69335813276652,15.794085975402995L250.7022830153131,15.784310764907293L251.71120789785968,15.782365498018684L252.72013278040623,16.404534823287516L253.72905766295284,16.113308896762884L254.73798254549942,16.262873748511044L255.746907428046,16.085118342882357L256.7558323105926,16.04974501716226L257.76475719313913,16.042705725343957L258.77368207568577,16.456342528525234L259.78260695823235,15.916099818978624L260.79153184077893,16.43114795315854L261.8004567233255,15.911086098480654L262.8093816058721,15.807593789399785L263.81830648841867,15.786998819892673L264.82723137096525,15.990419232087305L265.83615625351183,16.23841870524061" style="fill: none;" fill="none"></path></g><g><path stroke="rgb(238, 51, 119)" stroke-width="2px" d="M14.61386049941361,102.02429186722826L15.622785381960188,95.53938485109694L16.63171026450677,93.24197178292742L17.640635147053345,90.15110335266345L18.649560029599925,87.82741779523717L19.658484912146506,85.49715239812264L20.667409794693086,82.69800658330698L21.676334677239662,80.5320812021503L22.685259559786243,79.2706507020376L23.694184442332823,78.55251847303283L24.7031093248794,74.62085262942665L25.71203420742598,72.22952656263611L26.72095908997256,71.90935291695541L27.729883972519136,67.27836485605303L28.738808855065717,65.00737398940304L29.747733737612297,61.38949762274967L30.756658620158873,58.95681543982497L31.765583502705454,57.95370350097682L32.77450838525203,56.87176808888192L33.78343326779861,55.98175452479303L34.79235815034519,54.97422576681941L35.80128303289177,53.89141881672299L36.81020791543834,51.65180757340302L37.81913279798493,52.86694964441757L38.8280576805315,50.51372199430551L39.83698256307808,50.20112992456645L40.84590744562466,51.12504039404155L41.85483232817124,50.73799031547387L42.863757210717814,49.3115431066702L43.8726820932644,48.24917153994738L44.881606975810975,47.83015187898725L45.890531858357555,49.04429113208049L46.899456740904135,48.19598839700404L47.908381623450715,47.71576827845269L48.91730650599729,48.76202099884737L49.926231388543876,48.03601648540182L50.93515627109045,46.49021726651303L51.94408115363703,47.84342793038935L52.95300603618361,48.73552519203836L53.96193091873019,47.51173563539804L54.97085580127676,46.07447750309114L55.97978068382335,47.55309540729074L56.98870556636992,47.120724466595355L57.9976304489165,45.944766202954995L59.00655533146308,45.29554247913058L60.01548021400966,45.84106278417622L61.02440509655624,45.48251321797591L62.033329979102824,45.77446239711295L63.0422548616494,45.78066020621682L64.05117974419598,45.88570113432194L65.06010462674256,44.50527995830175L66.06902950928914,44.0229684250914L67.07795439183572,45.12071244051803L68.0868792743823,44.87205539268356L69.09580415692888,43.0060402900914L70.10472903947544,43.25751903321784L71.11365392202204,43.51516361327766L72.1225788045686,43.30692708798284L73.1315036871152,44.19970423325793L74.14042856966176,42.508941866554785L75.14935345220835,42.380080465758525L76.15827833475493,42.14683673682241L77.1672032173015,40.69909691405099L78.17612809984809,42.01992132021025L79.18505298239467,41.452349318316045L80.19397786494125,40.19758596595266L81.20290274748783,41.45301253463431L82.21182763003439,40.09391779091119L83.22075251258097,41.79569051961663L84.22967739512757,40.31781094255591L85.23860227767415,39.86801267408758L86.24752716022071,41.076026984286706L87.2564520427673,39.13658153012768L88.26537692531387,40.774764545000764L89.27430180786045,38.920930072076516L90.28322669040703,40.78374998239301L91.29215157295361,39.753134232837496L92.3010764555002,39.44423413458247L93.31000133804677,40.4207793839273L94.31892622059334,38.79858694747848L95.32785110313992,39.40998686643392L96.33677598568651,39.06454734340169L97.3457008682331,38.32109646123624L98.35462575077966,36.668025259883336L99.36355063332624,36.96187243035172L100.37247551587282,38.05836438617255L101.3814003984194,38.32846636292528L102.39032528096598,38.693624530570204L103.39925016351256,38.76629100593156L104.40817504605914,37.7427352656309L105.41709992860572,35.72251532323796L106.42602481115229,37.50032444758576L107.43494969369887,37.231300123793346L108.44387457624546,36.97016397318099L109.45279945879204,37.22959834447564L110.46172434133861,37.12552555173003L111.47064922388519,36.84530726924694L112.47957410643177,36.5300434433107L113.48849898897835,36.519206019493815L114.49742387152493,36.41324921706542L115.50634875407151,35.821255551388965L116.51527363661809,36.37815722900137L117.52419851916467,36.2813803526686L118.53312340171124,36.158314190184925L119.54204828425783,34.83630726723101L120.55097316680441,34.573227889563164L121.55989804935099,35.55889146230486L122.56882293189756,33.67900577548527L123.57774781444414,33.87581678580139L124.58667269699072,33.86308209930988L125.59559757953731,33.70484766406483L126.60452246208388,33.41385121472434L127.61344734463046,33.14834261112793L128.62237222717704,33.77021481609427L129.63129710972362,34.361075491786956L130.6402219922702,33.4406403973522L131.64914687481678,33.41317404619294L132.65807175736336,33.04440029049669L133.66699663990994,32.65961384784665L134.67592152245652,32.5311412682149L135.6848464050031,31.46755885597057L136.69377128754965,31.98251445056041L137.70269617009626,32.75969903096583L138.71162105264284,33.17386655919322L139.72054593518942,31.90686165414176L140.72947081773597,32.069935707396475L141.73839570028255,32.050487366449744L142.74732058282913,31.060500855248165L143.75624546537574,31.07110125870136L144.7651703479223,30.24279468026861L145.77409523046887,31.6868863020513L146.78302011301545,32.07806068987489L147.79194499556206,31.533096053514154L148.8008698781086,31.320847935789534L149.8097947606552,31.019102763635622L150.81871964320177,29.765338872846183L151.82764452574835,29.723440168756724L152.83656940829493,31.22022680244489L153.84549429084151,30.531971051195658L154.8544191733881,30.291208001608226L155.86334405593465,29.205279785842738L156.87226893848126,30.961412653611774L157.8811938210278,31.25898301675338L158.89011870357442,30.643491101936533L159.899043586121,30.31340049170566L160.90796846866755,29.52110396564328L161.91689335121416,31.179961898025315L162.9258182337607,29.485941966318588L163.93474311630732,28.4741235828269L164.9436679988539,29.622195967680778L165.95259288140045,30.629170944437558L166.96151776394706,29.220634333921357L167.9704426464936,28.36942728643545L168.9793675290402,29.289953530427738L169.98829241158677,29.161737787715737L170.99721729413335,27.423490659931765L172.00614217667996,27.28518720068505L173.0150670592265,27.309564889839372L174.0239919417731,27.47011628261434L175.03291682431967,28.332482068496486L176.04184170686625,27.102768539173898L177.05076658941283,27.94797199328071L178.0596914719594,28.738975820185573L179.068616354506,28.377377397290854L180.07754123705254,27.163602787148378L181.08646611959915,27.648670134356497L182.09539100214573,27.48569814872883L183.1043158846923,27.60896695622217L184.1132407672389,27.4777972162801L185.12216564978544,28.126402855113668L186.13109053233205,27.68456711524834L187.1400154148786,26.81813323084426L188.1489402974252,26.8014131204811L189.1578651799718,26.071477323892385L190.16679006251834,26.756628750086495L191.17571494506495,26.37396569945034L192.1846398276115,26.1421155197405L193.19356471015809,25.317461352802724L194.2024895927047,25.56856320294208L195.21141447525125,25.77423270375306L196.22033935779785,27.112685100038725L197.2292642403444,26.289120680457597L198.238189122891,26.2809315935942L199.24711400543757,26.279301965308356L200.25603888798415,25.656169329741875L201.26496377053073,25.947373964624102L202.2738886530773,25.538215580061287L203.2828135356239,25.76819352679976L204.29173841817044,25.55445875047866L205.30066330071705,24.99291734554197L206.30958818326363,24.984970761048412L207.3185130658102,25.96950568208735L208.3274379483568,25.957827821196435L209.33636283090334,25.38458825588129L210.34528771344995,23.92109674821949L211.3542125959965,22.955153521112766L212.36313747854308,23.230031516818276L213.3720623610897,24.374656093410316L214.38098724363624,24.187228354792147L215.38991212618285,24.617038341711517L216.3988370087294,25.325378868646112L217.40776189127598,25.258730914323785L218.4166867738226,23.16943523361845L219.42561165636914,23.480281296789208L220.43453653891575,25.670072478699755L221.4434614214623,23.406999846567174L222.45238630400888,23.68325688739922L223.46131118655546,22.544515436993983L224.47023606910204,22.421706043452165L225.47916095164862,23.383383265490526L226.4880858341952,23.159549003316197L227.49701071674178,22.803605519877017L228.50593559928834,23.19987346457236L229.51486048183494,22.60402236848468L230.52378536438152,22.84875595217877L231.5327102469281,23.57216635241595L232.54163512947468,24.442740925694245L233.55056001202124,23.474161332785563L234.55948489456785,23.333314071341135L235.5684097771144,23.25338538876928L236.57733465966098,23.133679425848666L237.58625954220759,22.38324944460101L238.59518442475414,22.649121907692688L239.60410930730075,22.598222963754463L240.6130341898473,22.276693608644287L241.62195907239388,22.62791729633731L242.6308839549405,21.711694518835056L243.63980883748704,22.35977483582735L244.64873372003365,22.696350538091135L245.6576586025802,22.244320918392834L246.66658348512678,22.25816717916171L247.6755083676734,23.039431157225586L248.68443325021994,21.48217790288068L249.69335813276652,22.106500719074788L250.7022830153131,21.607932619959804L251.71120789785968,21.820118033502403L252.72013278040623,22.121850727524112L253.72905766295284,21.66288734918562L254.73798254549942,21.104445529991896L255.746907428046,20.733807811245622L256.7558323105926,21.85377491575058L257.76475719313913,21.86904065036478L258.77368207568577,22.131586328279717L259.78260695823235,21.561024578647174L260.79153184077893,21.75888325573679L261.8004567233255,22.524873036108726L262.8093816058721,21.327880759234006L263.81830648841867,21.868187868306787L264.82723137096525,21.249100488385867L265.83615625351183,22.682926653127932" style="fill: none;" fill="none"></path></g></g></g></g><g opacity="0.2"><g><g><g><path stroke="rgb(0, 153, 136)" stroke-width="2px" d="M14.61386049941361,99.46213133987816L15.622785381960188,99.46213133987816L16.63171026450677,99.46213133987816L17.640635147053345,99.46213133987816L18.649560029599925,99.46213133987816L19.658484912146506,99.46213133987816L20.667409794693086,99.46213133987816L21.676334677239662,99.46213133987816L22.685259559786243,99.46213133987816L23.694184442332823,99.46213133987816L24.7031093248794,99.46213133987816L25.71203420742598,99.46213133987816L26.72095908997256,99.46213133987816L27.729883972519136,99.46213133987816L28.738808855065717,99.46213133987816L29.747733737612297,99.203061294155L30.756658620158873,98.42584190729191L31.765583502705454,98.68491657786188L32.77450838525203,99.72120601044814L33.78343326779861,99.72120601044814L34.79235815034519,96.8714123832594L35.80128303289177,96.3532676669663L36.81020791543834,94.79883814293379L37.81913279798493,94.53976347236382L38.8280576805315,93.76254871034756L39.83698256307808,94.28069342664068L40.84590744562466,85.73132179476822L41.85483232817124,81.58616406442331L42.863757210717814,76.92286624263211L43.8726820932644,71.74142832939465L44.881606975810975,67.59627984874341L45.890531858357555,59.82412297888722L46.899456740904135,54.90175048652604L47.908381623450715,51.0156766764448L48.91730650599729,52.05196610903103L49.926231388543876,48.42495771982606L50.93515627109045,43.76165989803487L51.94408115363703,43.24351055689491L52.95300603618361,40.39372617939988L53.96193091873019,43.76165989803487L54.97085580127676,42.72537046544864L55.97978068382335,41.94815570343238L56.98870556636992,42.46629579487865L57.9976304489165,42.20723037400237L59.00655533146308,42.72537046544864L60.01548021400966,43.24351055689491L61.02440509655624,40.39372617939988L62.033329979102824,40.39372617939988L63.0422548616494,37.80300722278116L64.05117974419598,42.72537046544864L65.06010462674256,40.134651508829904L66.06902950928914,40.91186627084615L67.07795439183572,39.616511417383634L68.0868792743823,38.321147314227424L69.09580415692888,37.54393255221117L70.10472903947544,36.50764311962493L71.11365392202204,39.35743674681366L72.1225788045686,37.284857881641194L73.1315036871152,35.212288266162425L74.14042856966176,35.98950302817866L75.14935345220835,39.35743674681366L76.15827833475493,35.98950302817866L77.1672032173015,33.65784949243622L78.17612809984809,36.50764311962493L79.18505298239467,34.17599883357619L80.19397786494125,35.212288266162425L81.20290274748783,39.616511417383634L82.21182763003439,33.398784071559945L83.22075251258097,33.13970940098995L84.22967739512757,32.362494638973715L85.23860227767415,32.880634730419985L86.24752716022071,34.435064254452485L87.2564520427673,32.880634730419985L88.26537692531387,32.880634730419985L89.27430180786045,32.362494638973715L90.28322669040703,33.398784071559945L91.29215157295361,32.880634730419985L92.3010764555002,33.398784071559945L93.31000133804677,33.13970940098995L94.31892622059334,32.62156005984999L95.32785110313992,32.362494638973715L96.33677598568651,34.95321359559243L97.3457008682331,33.398784071559945L98.35462575077966,31.844345297833748L99.36355063332624,30.548990444371217L100.37247551587282,30.548990444371217L101.3814003984194,30.289915773801244L102.39032528096598,30.03084110323127L103.39925016351256,32.10341996840372L104.40817504605914,31.326205206387478L105.41709992860572,30.548990444371217L106.42602481115229,30.548990444371217L107.43494969369887,32.62156005984999L108.44387457624546,34.17599883357619L109.45279945879204,31.067130535817487L110.46172434133861,32.362494638973715L111.47064922388519,31.326205206387478L112.47957410643177,32.10341996840372L113.48849898897835,29.25362634121501L114.49742387152493,30.808055865247514L115.50634875407151,30.03084110323127L116.51527363661809,27.440122146612534L117.52419851916467,30.808055865247514L118.53312340171124,30.548990444371217L119.54204828425783,28.217336908628777L120.55097316680441,28.73548624976874L121.55989804935099,27.9582714877525L122.56882293189756,30.808055865247514L123.57774781444414,29.512701011785L124.58667269699072,29.25362634121501L125.59559757953731,27.440122146612534L126.60452246208388,31.326205206387478L127.61344734463046,29.771775682354974L128.62237222717704,28.217336908628777L129.63129710972362,34.95321359559243L130.6402219922702,26.921982055166264L131.64914687481678,26.4038327140263L132.65807175736336,27.699196817182507L133.66699663990994,26.921982055166264L134.67592152245652,27.181056725736237L135.6848464050031,25.88569262258003L136.69377128754965,28.217336908628777L137.70269617009626,29.25362634121501L138.71162105264284,26.921982055166264L139.72054593518942,25.10847786056379L140.72947081773597,27.440122146612534L141.73839570028255,25.62661795201006L142.74732058282913,27.9582714877525L143.75624546537574,28.994560920338735L144.7651703479223,27.181056725736237L145.77409523046887,24.590328519423828L146.78302011301545,23.813113757407564L147.79194499556206,24.072188427977558L148.8008698781086,21.99960956280509L149.8097947606552,25.62661795201006L150.81871964320177,24.590328519423828L151.82764452574835,26.921982055166264L152.83656940829493,24.590328519423828L153.84549429084151,24.072188427977558L154.8544191733881,23.813113757407564L155.86334405593465,24.072188427977558L156.87226893848126,26.144767293150004L157.8811938210278,24.849403189993797L158.89011870357442,23.035898995391324L159.899043586121,24.849403189993797L160.90796846866755,24.849403189993797L161.91689335121416,24.590328519423828L162.9258182337607,23.554048336531288L163.93474311630732,23.294973665961294L164.9436679988539,21.222394800788848L165.95259288140045,25.10847786056379L166.96151776394706,22.25868423337506L167.9704426464936,24.590328519423828L168.9793675290402,30.808055865247514L169.98829241158677,20.704254709342578L170.99721729413335,23.294973665961294L172.00614217667996,23.554048336531288L173.0150670592265,23.035898995391324L174.0239919417731,20.445180038772605L175.03291682431967,19.667965276756345L176.04184170686625,21.74054414192881L177.05076658941283,23.294973665961294L178.0596914719594,20.445180038772605L179.068616354506,21.48146947135884L180.07754123705254,22.517758903945055L181.08646611959915,25.367552531133764L182.09539100214573,21.74054414192881L183.1043158846923,23.294973665961294L184.1132407672389,19.667965276756345L185.12216564978544,19.149825185310075L186.13109053233205,20.704254709342578L187.1400154148786,19.667965276756345L188.1489402974252,21.99960956280509L189.1578651799718,19.40889060618637L190.16679006251834,21.222394800788848L191.17571494506495,20.704254709342578L192.1846398276115,18.890750514740102L193.19356471015809,23.035898995391324L194.2024895927047,17.85446108215387L195.21141447525125,19.40889060618637L196.22033935779785,19.927039947326335L197.2292642403444,24.590328519423828L198.238189122891,18.37260117360014L199.24711400543757,22.776833574515027L200.25603888798415,19.927039947326335L201.26496377053073,20.445180038772605L202.2738886530773,20.186105368202632L203.2828135356239,17.077246320137625L204.29173841817044,18.37260117360014L205.30066330071705,17.595386411583895L206.30958818326363,23.294973665961294L207.3185130658102,20.704254709342578L208.3274379483568,21.222394800788848L209.33636283090334,19.149825185310075L210.34528771344995,17.85446108215387L211.3542125959965,17.077246320137625L212.36313747854308,18.890750514740102L213.3720623610897,20.445180038772605L214.38098724363624,18.63167584417013L215.38991212618285,22.517758903945055L216.3988370087294,21.48146947135884L217.40776189127598,19.149825185310075L218.4166867738226,18.113535752723863L219.42561165636914,19.40889060618637L220.43453653891575,18.37260117360014L221.4434614214623,18.37260117360014L222.45238630400888,18.37260117360014L223.46131118655546,19.927039947326335L224.47023606910204,16.818171649567635L225.47916095164862,18.63167584417013L226.4880858341952,16.300031558121365L227.49701071674178,19.149825185310075L228.50593559928834,17.3363209907076L229.51486048183494,17.077246320137625L230.52378536438152,16.040956887551392L231.5327102469281,17.3363209907076L232.54163512947468,17.3363209907076L233.55056001202124,16.818171649567635L234.55948489456785,19.40889060618637L235.5684097771144,17.3363209907076L236.57733465966098,18.37260117360014L237.58625954220759,17.595386411583895L238.59518442475414,18.37260117360014L239.60410930730075,16.818171649567635L240.6130341898473,17.85446108215387L241.62195907239388,17.3363209907076L242.6308839549405,16.818171649567635L243.63980883748704,16.818171649567635L244.64873372003365,17.077246320137625L245.6576586025802,16.040956887551392L246.66658348512678,16.300031558121365L247.6755083676734,16.040956887551392L248.68443325021994,15.781882216981401L249.69335813276652,15.781882216981401L250.7022830153131,15.781882216981401L251.71120789785968,15.781882216981401L252.72013278040623,16.55910622869136L253.72905766295284,16.040956887551392L254.73798254549942,16.300031558121365L255.746907428046,16.040956887551392L256.7558323105926,16.040956887551392L257.76475719313913,16.040956887551392L258.77368207568577,16.55910622869136L259.78260695823235,15.781882216981401L260.79153184077893,16.55910622869136L261.8004567233255,15.781882216981401L262.8093816058721,15.781882216981401L263.81830648841867,15.781882216981401L264.82723137096525,16.040956887551392L265.83615625351183,16.300031558121365" style="fill: none;" fill="none"></path></g><g><path stroke="rgb(238, 51, 119)" stroke-width="2px" d="M14.61386049941361,102.02429186722826L15.622785381960188,94.24888835488679L16.63171026450677,92.69380672744911L17.640635147053345,89.38926115967337L18.649560029599925,87.25102796868757L19.658484912146506,84.91840321510763L20.667409794693086,82.00263152282645L21.676334677239662,79.99398654044093L22.685259559786243,78.95726237225125L23.694184442332823,78.37410618385628L24.7031093248794,73.64407182209L25.71203420742598,71.63542683970448L26.72095908997256,71.8298091526049L27.729883972519136,66.12784472694909L28.738808855065717,64.4431702660643L29.747733737612297,60.490674405593424L30.756658620158873,58.352441214607616L31.765583502705454,57.7044909219125L32.77450838525203,56.60297264942268L33.78343326779861,55.76064004382714L34.79235815034519,54.72391587563745L35.80128303289177,53.62240685284133L36.81020791543834,51.095399786360986L37.81913279798493,53.16883887304664L38.8280576805315,49.929087409571025L39.83698256307808,50.12346972247146L40.84590744562466,51.354576203561564L41.85483232817124,50.641831806566294L42.863757210717814,48.9571573456815L43.8726820932644,47.985236531485654L44.881606975810975,47.7260508645914L45.890531858357555,49.34593122117606L46.899456740904135,47.985236531485654L47.908381623450715,47.596462655991104L48.91730650599729,49.02195144998164L49.926231388543876,47.85564832288538L50.93515627109045,46.106179757700424L51.94408115363703,48.1796188443861L52.95300603618361,48.9571573456815L53.96193091873019,47.20769803019025L54.97085580127676,45.717405882205874L55.97978068382335,47.92044242718552L56.98870556636992,47.01330646759614L57.9976304489165,45.65261177790573L59.00655533146308,45.13424969381091L60.01548021400966,45.97659154910015L61.02440509655624,45.393435360705176L62.033329979102824,45.84699409080618L63.0422548616494,45.782199986506036L64.05117974419598,45.91179744480001L65.06010462674256,44.16232887961506L66.06902950928914,43.903143212720806L67.07795439183572,45.393435360705176L68.0868792743823,44.81027917231019L69.09580415692888,42.54244852303041L70.10472903947544,43.31999627401951L71.11365392202204,43.57917269122009L72.1225788045686,43.25519292002568L73.1315036871152,44.42150529681564L74.14042856966176,42.08888979292941L75.14935345220835,42.348066210129986L76.15827833475493,42.08888979292941L77.1672032173015,40.33942122774448L78.17612809984809,42.348066210129986L79.18505298239467,41.31134204194031L80.19397786494125,39.88585324794979L81.20290274748783,41.764910021735L82.21182763003439,39.756265039349486L83.22075251258097,42.21847800152971L84.22967739512757,39.95064735224992L85.23860227767415,39.756265039349486L86.24752716022071,41.37614539593414L87.2564520427673,38.65474676685969L88.26537692531387,41.181753833340025L89.27430180786045,38.46036445395925L90.28322669040703,41.246547937640166L91.29215157295361,39.49708862214893L92.3010764555002,39.367491163854936L93.31000133804677,40.66339174924519L94.31892622059334,38.39557034965911L95.32785110313992,39.56188272644907L96.33677598568651,38.978726538054076L97.3457008682331,38.13639393245853L98.35462575077966,36.2573371586733L99.36355063332624,37.03487565996871L100.37247551587282,38.33077624535897L101.3814003984194,38.39557034965911L102.39032528096598,38.78434422515366L103.39925016351256,38.78434422515366L104.40817504605914,37.48844363976342L105.41709992860572,35.22061299048364L106.42602481115229,37.94200236986442L107.43494969369887,37.16446386856901L108.44387457624546,36.90528745136843L109.45279945879204,37.29405207716929L110.46172434133861,37.09966976426887L111.47064922388519,36.77568999307446L112.47957410643177,36.45171947157374L113.48849898897835,36.51651357587388L114.49742387152493,36.3869253672736L115.50634875407151,35.67418097027833L116.51527363661809,36.51651357587388L117.52419851916467,36.2573371586733L118.53312340171124,36.12773970037933L119.54204828425783,34.50786859348837L120.55097316680441,34.50786859348837L121.55989804935099,35.80376917887861L122.56882293189756,33.21196800809813L123.57774781444414,33.9247124050934L124.58667269699072,33.85991830079324L125.59559757953731,33.665535987892824L126.60452246208388,33.34155621669841L127.61344734463046,33.08237979949783L128.62237222717704,33.9247124050934L129.63129710972362,34.50786859348837L130.6402219922702,33.21196800809813L131.64914687481678,33.40635032099855L132.65807175736336,32.95278234120386L133.66699663990994,32.564017715403L134.67592152245652,32.49922361110286L135.6848464050031,31.20332302571262L136.69377128754965,32.110449735608306L137.70269617009626,32.95278234120386L138.71162105264284,33.276762112398266L139.72054593518942,31.592087651513477L140.72947081773597,32.110449735608306L141.73839570028255,32.04565563130817L142.74732058282913,30.814549150218067L143.75624546537574,31.07373481711232L144.7651703479223,30.03701064892266L145.77409523046887,32.04565563130817L146.78302011301545,32.17524383990845L147.79194499556206,31.39770533861304L148.8008698781086,31.26811713001276L149.8097947606552,30.94413735881835L150.81871964320177,29.45385446052767L151.82764452574835,29.713030877728247L152.83656940829493,31.592087651513477L153.84549429084151,30.360981170423376L154.8544191733881,30.23139296182308L155.86334405593465,28.935492376432837L156.87226893848126,31.39770533861304L157.8811938210278,31.3329112343129L158.89011870357442,30.49057862871735L159.899043586121,30.23139296182308L160.90796846866755,29.32426625192739L161.91689335121416,31.592087651513477L162.9258182337607,29.06508058503312L163.93474311630732,28.222747979437568L164.9436679988539,29.90742244032236L165.95259288140045,30.879343254518208L166.96151776394706,28.8706982721327L167.9704426464936,28.15795387513743L168.9793675290402,29.518648564827828L169.98829241158677,29.129883939026953L170.99721729413335,26.99164149834747L172.00614217667996,27.25082716524174L173.0150670592265,27.315621269541882L174.0239919417731,27.5100035824423L175.03291682431967,28.54672775063198L176.04184170686625,26.79725918544705L177.05076658941283,28.15795387513743L178.0596914719594,28.935492376432837L179.068616354506,28.28754208373771L180.07754123705254,26.86205328974719L181.08646611959915,27.769179999642876L182.09539100214573,27.44520947814216L183.1043158846923,27.639591791042598L184.1132407672389,27.44520947814216L185.12216564978544,28.28754208373771L186.13109053233205,27.57479768674246L187.1400154148786,26.602876872546613L188.1489402974252,26.79725918544705L189.1578651799718,25.890132475551344L190.16679006251834,26.92684739404733L191.17571494506495,26.2788971013522L192.1846398276115,26.08451478845178L193.19356471015809,25.11258472456224L194.2024895927047,25.63094680865709L195.21141447525125,25.82532912155751L196.22033935779785,27.44520947814216L197.2292642403444,26.08451478845178L198.238189122891,26.2788971013522L199.24711400543757,26.2788971013522L200.25603888798415,25.50135860005679L201.26496377053073,26.019720684151643L202.2738886530773,25.436564495756652L203.2828135356239,25.82532912155751L204.29173841817044,25.50135860005679L205.30066330071705,24.85340830736168L206.30958818326363,24.98299651596196L207.3185130658102,26.21410299705206L208.3274379483568,25.95492657985148L209.33636283090334,25.24217293316254L210.34528771344995,23.557507721971422L211.3542125959965,22.715175116375875L212.36313747854308,23.29832205507717L213.3720623610897,24.659025994461242L214.38098724363624,24.140663910366413L215.38991212618285,24.723820098761383L216.3988370087294,25.50135860005679L217.40776189127598,25.24217293316254L218.4166867738226,22.65037176238204L219.42561165636914,23.557507721971422L220.43453653891575,26.21410299705206L221.4434614214623,22.84476332497617L222.45238630400888,23.75189003487186L223.46131118655546,22.261607136581183L224.47023606910204,22.39119534518148L225.47916095164862,23.62230182627158L226.4880858341952,23.10393974217673L227.49701071674178,22.715175116375875L228.50593559928834,23.29832205507717L229.51486048183494,22.45598944948162L230.52378536438152,22.909557429276312L231.5327102469281,23.75189003487186L232.54163512947468,24.659025994461242L233.55056001202124,23.233527950777027L234.55948489456785,23.29832205507717L235.5684097771144,23.233527950777027L236.57733465966098,23.10393974217673L237.58625954220759,22.196813032281042L238.59518442475414,22.715175116375875L239.60410930730075,22.5855776580819L240.6130341898473,22.196813032281042L241.62195907239388,22.715175116375875L242.6308839549405,21.48406863528579L243.63980883748704,22.520783553781758L244.64873372003365,22.779969220676012L245.6576586025802,22.1320189279809L246.66658348512678,22.261607136581183L247.6755083676734,23.233527950777027L248.68443325021994,21.09529475979124L249.69335813276652,22.261607136581183L250.7022830153131,21.48406863528579L251.71120789785968,21.87283326108663L252.72013278040623,22.196813032281042L253.72905766295284,21.548862739585932L254.73798254549942,20.965706551190962L255.746907428046,20.64172677999655L256.7558323105926,22.1320189279809L257.76475719313913,21.87283326108663L258.77368207568577,22.196813032281042L259.78260695823235,21.419274530985653L260.79153184077893,21.80803915678651L261.8004567233255,22.715175116375875L262.8093816058721,21.0305006554911L263.81830648841867,22.00242146968693L264.82723137096525,21.09529475979124L265.83615625351183,23.03914563787659" style="fill: none;" fill="none"></path></g></g></g></g></g></g><g transform="translate(40, 177)" clip-path="url(#clip_1)"><clipPath id="clip_1"><rect width="290" height="23"></rect></clipPath><g><g><line x1="14.61386049941361" y1="0" x2="14.61386049941361" y2="5" style="visibility: inherit;" fill="rgb(0, 0, 0)" stroke="rgb(204, 204, 204)" stroke-width="1px"></line><line x1="34.79235815034519" y1="0" x2="34.79235815034519" y2="5" style="visibility: inherit;" fill="rgb(0, 0, 0)" stroke="rgb(204, 204, 204)" stroke-width="1px"></line><line x1="54.97085580127676" y1="0" x2="54.97085580127676" y2="5" style="visibility: inherit;" fill="rgb(0, 0, 0)" stroke="rgb(204, 204, 204)" stroke-width="1px"></line><line x1="75.14935345220835" y1="0" x2="75.14935345220835" y2="5" style="visibility: inherit;" fill="rgb(0, 0, 0)" stroke="rgb(204, 204, 204)" stroke-width="1px"></line><line x1="95.32785110313992" y1="0" x2="95.32785110313992" y2="5" style="visibility: inherit;" fill="rgb(0, 0, 0)" stroke="rgb(204, 204, 204)" stroke-width="1px"></line><line x1="115.50634875407151" y1="0" x2="115.50634875407151" y2="5" style="visibility: inherit;" fill="rgb(0, 0, 0)" stroke="rgb(204, 204, 204)" stroke-width="1px"></line><line x1="135.6848464050031" y1="0" x2="135.6848464050031" y2="5" style="visibility: inherit;" fill="rgb(0, 0, 0)" stroke="rgb(204, 204, 204)" stroke-width="1px"></line><line x1="155.86334405593465" y1="0" x2="155.86334405593465" y2="5" style="visibility: inherit;" fill="rgb(0, 0, 0)" stroke="rgb(204, 204, 204)" stroke-width="1px"></line><line x1="176.04184170686625" y1="0" x2="176.04184170686625" y2="5" style="visibility: inherit;" fill="rgb(0, 0, 0)" stroke="rgb(204, 204, 204)" stroke-width="1px"></line><line x1="196.22033935779785" y1="0" x2="196.22033935779785" y2="5" style="visibility: inherit;" fill="rgb(0, 0, 0)" stroke="rgb(204, 204, 204)" stroke-width="1px"></line><line x1="216.3988370087294" y1="0" x2="216.3988370087294" y2="5" style="visibility: inherit;" fill="rgb(0, 0, 0)" stroke="rgb(204, 204, 204)" stroke-width="1px"></line><line x1="236.57733465966098" y1="0" x2="236.57733465966098" y2="5" style="visibility: inherit;" fill="rgb(0, 0, 0)" stroke="rgb(204, 204, 204)" stroke-width="1px"></line><line x1="256.7558323105926" y1="0" x2="256.7558323105926" y2="5" style="visibility: inherit;" fill="rgb(0, 0, 0)" stroke="rgb(204, 204, 204)" stroke-width="1px"></line><line x1="276.93432996152416" y1="0" x2="276.93432996152416" y2="5" style="visibility: inherit;" fill="rgb(0, 0, 0)" stroke="rgb(204, 204, 204)" stroke-width="1px"></line></g><g transform="translate(0, 8)"><text x="14.61386049941361" y="0" dx="0em" dy="0.95em" style="text-anchor: middle; visibility: inherit; font-family: Roboto, sans-serif; font-size: 12px; font-weight: 200;" fill="rgb(33, 33, 33)" stroke="none" stroke-width="1px">0</text><text x="34.79235815034519" y="0" dx="0em" dy="0.95em" style="text-anchor: middle; visibility: hidden; font-family: Roboto, sans-serif; font-size: 12px; font-weight: 200;" fill="rgb(33, 33, 33)" stroke="none" stroke-width="1px">20</text><text x="54.97085580127676" y="0" dx="0em" dy="0.95em" style="text-anchor: middle; visibility: inherit; font-family: Roboto, sans-serif; font-size: 12px; font-weight: 200;" fill="rgb(33, 33, 33)" stroke="none" stroke-width="1px">40</text><text x="75.14935345220835" y="0" dx="0em" dy="0.95em" style="text-anchor: middle; visibility: hidden; font-family: Roboto, sans-serif; font-size: 12px; font-weight: 200;" fill="rgb(33, 33, 33)" stroke="none" stroke-width="1px">60</text><text x="95.32785110313992" y="0" dx="0em" dy="0.95em" style="text-anchor: middle; visibility: inherit; font-family: Roboto, sans-serif; font-size: 12px; font-weight: 200;" fill="rgb(33, 33, 33)" stroke="none" stroke-width="1px">80</text><text x="115.50634875407151" y="0" dx="0em" dy="0.95em" style="text-anchor: middle; visibility: hidden; font-family: Roboto, sans-serif; font-size: 12px; font-weight: 200;" fill="rgb(33, 33, 33)" stroke="none" stroke-width="1px">100</text><text x="135.6848464050031" y="0" dx="0em" dy="0.95em" style="text-anchor: middle; visibility: inherit; font-family: Roboto, sans-serif; font-size: 12px; font-weight: 200;" fill="rgb(33, 33, 33)" stroke="none" stroke-width="1px">120</text><text x="155.86334405593465" y="0" dx="0em" dy="0.95em" style="text-anchor: middle; visibility: hidden; font-family: Roboto, sans-serif; font-size: 12px; font-weight: 200;" fill="rgb(33, 33, 33)" stroke="none" stroke-width="1px">140</text><text x="176.04184170686625" y="0" dx="0em" dy="0.95em" style="text-anchor: middle; visibility: inherit; font-family: Roboto, sans-serif; font-size: 12px; font-weight: 200;" fill="rgb(33, 33, 33)" stroke="none" stroke-width="1px">160</text><text x="196.22033935779785" y="0" dx="0em" dy="0.95em" style="text-anchor: middle; visibility: hidden; font-family: Roboto, sans-serif; font-size: 12px; font-weight: 200;" fill="rgb(33, 33, 33)" stroke="none" stroke-width="1px">180</text><text x="216.3988370087294" y="0" dx="0em" dy="0.95em" style="text-anchor: middle; visibility: inherit; font-family: Roboto, sans-serif; font-size: 12px; font-weight: 200;" fill="rgb(33, 33, 33)" stroke="none" stroke-width="1px">200</text><text x="236.57733465966098" y="0" dx="0em" dy="0.95em" style="text-anchor: middle; visibility: hidden; font-family: Roboto, sans-serif; font-size: 12px; font-weight: 200;" fill="rgb(33, 33, 33)" stroke="none" stroke-width="1px">220</text><text x="256.7558323105926" y="0" dx="0em" dy="0.95em" style="text-anchor: middle; visibility: inherit; font-family: Roboto, sans-serif; font-size: 12px; font-weight: 200;" fill="rgb(33, 33, 33)" stroke="none" stroke-width="1px">240</text><text x="276.93432996152416" y="0" dx="0em" dy="0.95em" style="text-anchor: middle; visibility: hidden; font-family: Roboto, sans-serif; font-size: 12px; font-weight: 200;" fill="rgb(33, 33, 33)" stroke="none" stroke-width="1px">260</text></g><line x1="0" y1="0" x2="290" y2="0" fill="rgb(0, 0, 0)" stroke="rgb(204, 204, 204)" stroke-width="1px"></line></g></g></g></g></svg>