<svg viewBox="0 0 330 200" xmlns="http://www.w3.org/2000/svg"><g><g><g><g><g><line x1="40" y1="170.44785110055753" x2="35" y2="170.44785110055753" style="visibility: inherit;" fill="rgb(0, 0, 0)" stroke="rgb(204, 204, 204)" stroke-width="1px"></line><line x1="40" y1="154.9294402030553" x2="35" y2="154.9294402030553" style="visibility: inherit;" fill="rgb(0, 0, 0)" stroke="rgb(204, 204, 204)" stroke-width="1px"></line><line x1="40" y1="139.41102930555306" x2="35" y2="139.41102930555306" style="visibility: inherit;" fill="rgb(0, 0, 0)" stroke="rgb(204, 204, 204)" stroke-width="1px"></line><line x1="40" y1="123.89261840805081" x2="35" y2="123.89261840805081" style="visibility: inherit;" fill="rgb(0, 0, 0)" stroke="rgb(204, 204, 204)" stroke-width="1px"></line><line x1="40" y1="108.37420751054857" x2="35" y2="108.37420751054857" style="visibility: inherit;" fill="rgb(0, 0, 0)" stroke="rgb(204, 204, 204)" stroke-width="1px"></line><line x1="40" y1="92.85579661304632" x2="35" y2="92.85579661304632" style="visibility: inherit;" fill="rgb(0, 0, 0)" stroke="rgb(204, 204, 204)" stroke-width="1px"></line><line x1="40" y1="77.33738571554409" x2="35" y2="77.33738571554409" style="visibility: inherit;" fill="rgb(0, 0, 0)" stroke="rgb(204, 204, 204)" stroke-width="1px"></line><line x1="40" y1="61.818974818041845" x2="35" y2="61.818974818041845" style="visibility: inherit;" fill="rgb(0, 0, 0)" stroke="rgb(204, 204, 204)" stroke-width="1px"></line><line x1="40" y1="46.300563920539595" x2="35" y2="46.300563920539595" style="visibility: inherit;" fill="rgb(0, 0, 0)" stroke="rgb(204, 204, 204)" stroke-width="1px"></line><line x1="40" y1="30.782153023037363" x2="35" y2="30.782153023037363" style="visibility: inherit;" fill="rgb(0, 0, 0)" stroke="rgb(204, 204, 204)" stroke-width="1px"></line><line x1="40" y1="15.263742125535131" x2="35" y2="15.263742125535131" style="visibility: inherit;" fill="rgb(0, 0, 0)" stroke="rgb(204, 204, 204)" stroke-width="1px"></line></g><g transform="translate(30, 0)"><text x="0" y="170.44785110055753" dx="0em" dy="0.3em" style="text-anchor: end; visibility: inherit; font-family: Roboto, sans-serif; font-size: 12px; font-weight: 200;" fill="rgb(33, 33, 33)" stroke="none" stroke-width="1px">0</text><text x="0" y="154.9294402030553" dx="0em" dy="0.3em" style="text-anchor: end; visibility: hidden; font-family: Roboto, sans-serif; font-size: 12px; font-weight: 200;" fill="rgb(33, 33, 33)" stroke="none" stroke-width="1px">0.1</text><text x="0" y="139.41102930555306" dx="0em" dy="0.3em" style="text-anchor: end; visibility: inherit; font-family: Roboto, sans-serif; font-size: 12px; font-weight: 200;" fill="rgb(33, 33, 33)" stroke="none" stroke-width="1px">0.2</text><text x="0" y="123.89261840805081" dx="0em" dy="0.3em" style="text-anchor: end; visibility: hidden; font-family: Roboto, sans-serif; font-size: 12px; font-weight: 200;" fill="rgb(33, 33, 33)" stroke="none" stroke-width="1px">0.3</text><text x="0" y="108.37420751054857" dx="0em" dy="0.3em" style="text-anchor: end; visibility: inherit; font-family: Roboto, sans-serif; font-size: 12px; font-weight: 200;" fill="rgb(33, 33, 33)" stroke="none" stroke-width="1px">0.4</text><text x="0" y="92.85579661304632" dx="0em" dy="0.3em" style="text-anchor: end; visibility: hidden; font-family: Roboto, sans-serif; font-size: 12px; font-weight: 200;" fill="rgb(33, 33, 33)" stroke="none" stroke-width="1px">0.5</text><text x="0" y="77.33738571554409" dx="0em" dy="0.3em" style="text-anchor: end; visibility: inherit; font-family: Roboto, sans-serif; font-size: 12px; font-weight: 200;" fill="rgb(33, 33, 33)" stroke="none" stroke-width="1px">0.6</text><text x="0" y="61.818974818041845" dx="0em" dy="0.3em" style="text-anchor: end; visibility: hidden; font-family: Roboto, sans-serif; font-size: 12px; font-weight: 200;" fill="rgb(33, 33, 33)" stroke="none" stroke-width="1px">0.7</text><text x="0" y="46.300563920539595" dx="0em" dy="0.3em" style="text-anchor: end; visibility: inherit; font-family: Roboto, sans-serif; font-size: 12px; font-weight: 200;" fill="rgb(33, 33, 33)" stroke="none" stroke-width="1px">0.8</text><text x="0" y="30.782153023037363" dx="0em" dy="0.3em" style="text-anchor: end; visibility: hidden; font-family: Roboto, sans-serif; font-size: 12px; font-weight: 200;" fill="rgb(33, 33, 33)" stroke="none" stroke-width="1px">0.9</text><text x="0" y="15.263742125535131" dx="0em" dy="0.3em" style="text-anchor: end; visibility: inherit; font-family: Roboto, sans-serif; font-size: 12px; font-weight: 200;" fill="rgb(33, 33, 33)" stroke="none" stroke-width="1px">1</text></g><line x1="40" y1="0" x2="40" y2="177" fill="rgb(0, 0, 0)" stroke="rgb(204, 204, 204)" stroke-width="1px"></line></g></g><g transform="translate(40, 0)" clip-path="url(#clip_0)"><clipPath id="clip_0"><rect width="290" height="177"></rect></clipPath><g><g><g><line x1="14.61386049941361" y1="0" x2="14.61386049941361" y2="177" fill="rgb(0, 0, 0)" stroke="rgb(66, 66, 66)" stroke-width="1px" opacity="0.25"></line><line x1="34.79235815034519" y1="0" x2="34.79235815034519" y2="177" fill="rgb(0, 0, 0)" stroke="rgb(66, 66, 66)" stroke-width="1px" opacity="0.25"></line><line x1="54.97085580127676" y1="0" x2="54.97085580127676" y2="177" fill="rgb(0, 0, 0)" stroke="rgb(66, 66, 66)" stroke-width="1px" opacity="0.25"></line><line x1="75.14935345220835" y1="0" x2="75.14935345220835" y2="177" fill="rgb(0, 0, 0)" stroke="rgb(66, 66, 66)" stroke-width="1px" opacity="0.25"></line><line x1="95.32785110313992" y1="0" x2="95.32785110313992" y2="177" fill="rgb(0, 0, 0)" stroke="rgb(66, 66, 66)" stroke-width="1px" opacity="0.25"></line><line x1="115.50634875407151" y1="0" x2="115.50634875407151" y2="177" fill="rgb(0, 0, 0)" stroke="rgb(66, 66, 66)" stroke-width="1px" opacity="0.25"></line><line x1="135.6848464050031" y1="0" x2="135.6848464050031" y2="177" fill="rgb(0, 0, 0)" stroke="rgb(66, 66, 66)" stroke-width="1px" opacity="0.25"></line><line x1="155.86334405593465" y1="0" x2="155.86334405593465" y2="177" fill="rgb(0, 0, 0)" stroke="rgb(66, 66, 66)" stroke-width="1px" opacity="0.25"></line><line x1="176.04184170686625" y1="0" x2="176.04184170686625" y2="177" fill="rgb(0, 0, 0)" stroke="rgb(66, 66, 66)" stroke-width="1px" opacity="0.25"></line><line x1="196.22033935779785" y1="0" x2="196.22033935779785" y2="177" fill="rgb(0, 0, 0)" stroke="rgb(66, 66, 66)" stroke-width="1px" opacity="0.25"></line><line x1="216.3988370087294" y1="0" x2="216.3988370087294" y2="177" fill="rgb(0, 0, 0)" stroke="rgb(66, 66, 66)" stroke-width="1px" opacity="0.25"></line><line x1="236.57733465966098" y1="0" x2="236.57733465966098" y2="177" fill="rgb(0, 0, 0)" stroke="rgb(66, 66, 66)" stroke-width="1px" opacity="0.25"></line><line x1="256.7558323105926" y1="0" x2="256.7558323105926" y2="177" fill="rgb(0, 0, 0)" stroke="rgb(66, 66, 66)" stroke-width="1px" opacity="0.25"></line><line x1="276.93432996152416" y1="0" x2="276.93432996152416" y2="177" fill="rgb(0, 0, 0)" stroke="rgb(66, 66, 66)" stroke-width="1px" opacity="0.25"></line></g><g><line x1="0" y1="170.44785110055753" x2="290" y2="170.44785110055753" fill="rgb(0, 0, 0)" stroke="rgb(66, 66, 66)" stroke-width="1px" opacity="0.25"></line><line x1="0" y1="154.9294402030553" x2="290" y2="154.9294402030553" fill="rgb(0, 0, 0)" stroke="rgb(66, 66, 66)" stroke-width="1px" opacity="0.25"></line><line x1="0" y1="139.41102930555306" x2="290" y2="139.41102930555306" fill="rgb(0, 0, 0)" stroke="rgb(66, 66, 66)" stroke-width="1px" opacity="0.25"></line><line x1="0" y1="123.89261840805081" x2="290" y2="123.89261840805081" fill="rgb(0, 0, 0)" stroke="rgb(66, 66, 66)" stroke-width="1px" opacity="0.25"></line><line x1="0" y1="108.37420751054857" x2="290" y2="108.37420751054857" fill="rgb(0, 0, 0)" stroke="rgb(66, 66, 66)" stroke-width="1px" opacity="0.25"></line><line x1="0" y1="92.85579661304632" x2="290" y2="92.85579661304632" fill="rgb(0, 0, 0)" stroke="rgb(66, 66, 66)" stroke-width="1px" opacity="0.25"></line><line x1="0" y1="77.33738571554409" x2="290" y2="77.33738571554409" fill="rgb(0, 0, 0)" stroke="rgb(66, 66, 66)" stroke-width="1px" opacity="0.25"></line><line x1="0" y1="61.818974818041845" x2="290" y2="61.818974818041845" fill="rgb(0, 0, 0)" stroke="rgb(66, 66, 66)" stroke-width="1px" opacity="0.25"></line><line x1="0" y1="46.300563920539595" x2="290" y2="46.300563920539595" fill="rgb(0, 0, 0)" stroke="rgb(66, 66, 66)" stroke-width="1px" opacity="0.25"></line><line x1="0" y1="30.782153023037363" x2="290" y2="30.782153023037363" fill="rgb(0, 0, 0)" stroke="rgb(66, 66, 66)" stroke-width="1px" opacity="0.25"></line><line x1="0" y1="15.263742125535131" x2="290" y2="15.263742125535131" fill="rgb(0, 0, 0)" stroke="rgb(66, 66, 66)" stroke-width="1px" opacity="0.25"></line></g></g></g><g><g><line x1="0" y1="170.44785110055753" x2="290" y2="170.44785110055753" fill="rgb(0, 0, 0)" stroke="rgb(153, 153, 153)" stroke-width="1.5px"></line></g></g><g><g><line x1="14.61386049941361" y1="0" x2="14.61386049941361" y2="177" fill="rgb(0, 0, 0)" stroke="rgb(153, 153, 153)" stroke-width="1.5px"></line></g></g><g><g><g><g><g><path stroke="rgb(0, 153, 136)" stroke-width="2px" d="M14.61386049941361,99.46213133987816L15.622785381960188,99.46213133987816L16.63171026450677,99.46213133987816L17.640635147053345,99.46213133987816L18.649560029599925,99.46213133987816L19.658484912146506,99.46213133987816L20.667409794693086,99.46213133987816L21.676334677239662,99.46213133987816L22.685259559786243,99.46213133987816L23.694184442332823,99.46213133987816L24.7031093248794,99.46213133987816L25.71203420742598,99.46213133987813L26.72095908997256,99.46213133987816L27.729883972519136,99.46213133987816L28.738808855065717,99.46213133987816L29.747733737612297,99.35847407873625L30.756658620158873,98.98535805407968L31.765583502705454,98.86516925722358L32.77450838525203,99.20760482515824L33.78343326779861,99.41305281077808L34.79235815034519,98.3963743369451L35.80128303289177,97.57912091212475L36.81020791543834,96.4669990216857L37.81913279798493,95.69610114914886L38.8280576805315,94.92267797476396L39.83698256307808,94.66588371747059L40.84590744562466,91.09205529061067L41.85483232817124,87.28969646512914L42.863757210717814,83.14296284823924L43.8726820932644,78.5823480324684L44.881606975810975,74.18792017608237L45.890531858357555,68.44240083993792L46.899456740904135,63.026140439936064L47.908381623450715,58.221954796893975L48.91730650599729,55.7539592793222L49.926231388543876,52.82235862528597L50.93515627109045,49.19807911195612L51.94408115363703,46.81625168108744L52.95300603618361,44.24724147468888L53.96193091873019,44.053008843767614L54.97085580127676,43.521953492014106L55.97978068382335,42.89243437627847L56.98870556636992,42.72197894366933L57.9976304489165,42.51607951576688L59.00655533146308,42.59979589564828L60.01548021400966,42.857281760163005L61.02440509655624,41.871859527820874L62.033329979102824,41.2806061884392L63.0422548616494,39.88956660215725L64.05117974419598,41.02388814748294L65.06010462674256,40.66819349202003L66.06902950928914,40.76566260355075L67.07795439183572,40.306002129083105L68.0868792743823,39.51206020314001L69.09580415692888,38.72480914276799L70.10472903947544,37.83794273351042L71.11365392202204,38.44574033883185L72.1225788045686,37.981387355955526L73.1315036871152,36.87374772003819L74.14042856966176,36.52004984329436L75.14935345220835,37.65500460470211L76.15827833475493,36.98880397409273L77.1672032173015,35.656422181430116L78.17612809984809,35.99691055670806L79.18505298239467,35.26854586745531L80.19397786494125,35.246042826938165L81.20290274748783,36.994230263116364L82.21182763003439,35.5560517864938L83.22075251258097,34.58951483229226L84.22967739512757,33.69870675496483L85.23860227767415,33.3714779451469L86.24752716022071,33.79691246886912L87.2564520427673,33.43040137348944L88.26537692531387,33.21049471626165L89.27430180786045,32.87129468534648L90.28322669040703,33.082290439831866L91.29215157295361,33.00162815606713L92.3010764555002,33.16049052226426L93.31000133804677,33.152178073754555L94.31892622059334,32.939930868192725L95.32785110313992,32.70895637650512L96.33677598568651,33.60665926414005L97.3457008682331,33.523509187108L98.35462575077966,32.85184363139828L99.36355063332624,31.93070235658746L100.37247551587282,31.37801759170097L101.3814003984194,30.94277686454108L102.39032528096598,30.578002560017154L103.39925016351256,31.18816952337178L104.40817504605914,31.243383796578073L105.41709992860572,30.965626455695315L106.42602481115229,30.79897205116567L107.43494969369887,31.528007254639395L108.44387457624546,32.58720388621411L109.45279945879204,31.979174546055468L110.46172434133861,32.132502583222774L111.47064922388519,31.809983632488635L112.47957410643177,31.927358166854688L113.48849898897835,30.857865436598818L114.49742387152493,30.837941608058294L115.50634875407151,30.515101406127485L116.51527363661809,29.28510970232151L117.52419851916467,29.8942881674919L118.53312340171124,30.156169078243636L119.54204828425783,29.38063621039769L120.55097316680441,29.12257622614612L121.55989804935099,28.65685433078865L122.56882293189756,29.51733494457221L123.57774781444414,29.51548137145732L124.58667269699072,29.410739359360402L125.59559757953731,28.62249247426126L126.60452246208388,29.703977567111746L127.61344734463046,29.731096813209053L128.62237222717704,29.12559285137695L129.63129710972362,31.456641149063127L130.6402219922702,29.642777511504367L131.64914687481678,28.347199592513146L132.65807175736336,28.087998482380918L133.66699663990994,27.621591911495045L134.67592152245652,27.445377837191515L135.6848464050031,26.82150375134693L136.69377128754965,27.37983701425967L137.70269617009626,28.12935274504181L138.71162105264284,27.646404469091586L139.72054593518942,26.631233825680464L140.72947081773597,26.954789154053294L141.73839570028255,26.423520673235984L142.74732058282913,27.0374209990426L143.75624546537574,27.820276967561043L144.7651703479223,27.564588870831123L145.77409523046887,26.37488473026818L146.78302011301545,25.35017634112392L147.79194499556206,24.83898117586539L148.8008698781086,23.70323253064126L149.8097947606552,24.472586699188785L150.81871964320177,24.519683427282814L151.82764452574835,25.480602878436194L152.83656940829493,25.124493134831237L153.84549429084151,24.70357125208978L154.8544191733881,24.347388254216884L155.86334405593465,24.23730832372116L156.87226893848126,25.000291911492713L157.8811938210278,24.939936422893144L158.89011870357442,24.17832145189241L159.899043586121,24.446754147132957L160.90796846866755,24.60781376427729L161.91689335121416,24.6008196663359L162.9258182337607,24.182111134414047L163.93474311630732,23.827256147032948L164.9436679988539,22.785311608535302L165.95259288140045,23.71457810934669L166.96151776394706,23.132220558958043L167.9704426464936,23.715463743144365L168.9793675290402,26.55250059198565L169.98829241158677,24.213202238928396L170.99721729413335,23.845910809741575L172.00614217667996,23.72916582045744L173.0150670592265,23.451859090431004L174.0239919417731,22.24918746976764L175.03291682431967,21.21669859256314L176.04184170686625,21.426236812309394L177.05076658941283,22.173731553770143L178.0596914719594,21.482310947771108L179.068616354506,21.481974357206223L180.07754123705254,21.896288175901745L181.08646611959915,23.284793917994545L182.09539100214573,22.667094007568252L183.1043158846923,22.91824587092548L184.1132407672389,21.618133633257834L185.12216564978544,20.630810254078728L186.13109053233205,20.660188036184294L187.1400154148786,20.26329893241311L188.1489402974252,20.957823184569893L189.1578651799718,20.33825015321648L190.16679006251834,20.691908012245435L191.17571494506495,20.696846691084318L192.1846398276115,19.974408220546636L193.19356471015809,21.199004530484498L194.2024895927047,19.861187151152233L195.21141447525125,19.680268533165865L196.22033935779785,19.778977098830058L197.2292642403444,21.703517667067565L198.238189122891,20.371151069680565L199.24711400543757,21.33342407161436L200.25603888798415,20.770870421899165L201.26496377053073,20.640594268648538L202.2738886530773,20.45879870847018L203.2828135356239,19.10617775313715L204.29173841817044,18.812747121322356L205.30066330071705,18.325802837426984L206.30958818326363,20.31347116884072L207.3185130658102,20.469784585041488L208.3274379483568,20.770828671340414L209.33636283090334,20.122427276928278L210.34528771344995,19.21524079901851L211.3542125959965,18.36004300746614L212.36313747854308,18.57232601037573L213.3720623610897,19.321467621734485L214.38098724363624,19.045550910708744L215.38991212618285,20.434434108003263L216.3988370087294,20.853248253345473L217.40776189127598,20.17187902613131L218.4166867738226,19.348541716768317L219.42561165636914,19.372681272535544L220.43453653891575,18.97264923296137L221.4434614214623,18.73263000921689L222.45238630400888,18.588618474970186L223.46131118655546,19.123987063912644L224.47023606910204,18.20166089817465L225.47916095164862,18.373666876572845L226.4880858341952,17.54421274919227L227.49701071674178,18.186457723639368L228.50593559928834,17.84640303046665L229.51486048183494,17.538740346335036L230.52378536438152,16.939626962821563L231.5327102469281,17.098304573975987L232.54163512947468,17.193511140668637L233.55056001202124,17.043375344228256L234.55948489456785,17.989581449011478L235.5684097771144,17.728277265689922L236.57733465966098,17.98600682885402L237.58625954220759,17.829758661945984L238.59518442475414,18.046895666607618L239.60410930730075,17.55540605979161L240.6130341898473,17.6750280687365L241.62195907239388,17.539545237524948L242.6308839549405,17.250995802342015L243.63980883748704,17.077866141232292L244.64873372003365,17.077618212794416L245.6576586025802,16.66295368269722L246.66658348512678,16.517784832866887L247.6755083676734,16.327053654740677L248.68443325021994,16.108985079636998L249.69335813276652,15.978143934574748L250.7022830153131,15.899639247537413L251.71120789785968,15.852536435315013L252.72013278040623,16.135164352665512L253.72905766295284,16.097481366619864L254.73798254549942,16.178501443220462L255.746907428046,16.123483620952815L256.7558323105926,16.09047292759225L257.76475719313913,16.070666511575915L258.77368207568577,16.266042398422087L259.78260695823235,16.072378325845804L260.79153184077893,16.267069486983996L261.8004567233255,16.07299457898299L262.8093816058721,15.956549634182373L263.81830648841867,15.886682667302008L264.82723137096525,15.948392355401747L265.83615625351183,16.089048036489576" style="fill: none;" fill="none"></path></g><g><path stroke="rgb(238, 51, 119)" stroke-width="2px" d="M14.61386049941361,102.02429186722826L15.622785381960188,97.16466467201485L16.63171026450677,94.88361470029763L17.640635147053345,92.35863605111368L18.649560029599925,90.14333067185184L19.658484912146506,87.95107794597567L20.667409794693086,85.50317372511903L21.676334677239662,83.2618532743453L22.685259559786243,81.52248812025175L23.694184442332823,80.2554741970058L24.7031093248794,77.60128392286427L25.71203420742598,75.20973520860346L26.72095908997256,73.85599670977295L27.729883972519136,70.76231157614869L28.738808855065717,68.23346602690937L29.747733737612297,65.13547540117824L30.756658620158873,62.42180239236133L31.765583502705454,60.53468614873789L32.77450838525203,58.96190491005514L33.78343326779861,57.68135214452592L34.79235815034519,56.49835168554785L35.80128303289177,55.34795861079558L36.81020791543834,53.64692164741874L37.81913279798493,53.455687631530196L38.8280576805315,52.04504353224471L39.83698256307808,51.27641269719165L40.84590744562466,51.30767813173951L41.85483232817124,51.041339438113155L42.863757210717814,50.207666293968174L43.8726820932644,49.31869419244663L44.881606975810975,48.68163677680248L45.890531858357555,48.94735457569948L46.899456740904135,48.562507339636745L47.908381623450715,48.17608945510717L48.91730650599729,48.514434258873344L49.926231388543876,48.25091988176017L50.93515627109045,47.393023826827026L51.94408115363703,47.70766183501896L52.95300603618361,48.20746004039749L53.96193091873019,47.807555235780015L54.97085580127676,46.97149549367982L55.97978068382335,47.35107426726475L56.98870556636992,47.21596714735826L57.9976304489165,46.590624999468915L59.00655533146308,46.00807487714516L60.01548021400966,45.99548154592639L61.02440509655624,45.754663071828894L62.033329979102824,45.79159547942062L63.0422548616494,45.787837282254735L64.05117974419598,45.83742134727324L65.06010462674256,45.167384360206725L66.06902950928914,44.66168790121087L67.07795439183572,44.95438688500909L68.0868792743823,44.896743799929496L69.09580415692888,43.95502568916926L70.10472903947544,43.70101392310925L71.11365392202204,43.65227743035359L72.1225788045686,43.493443626222394L73.1315036871152,43.864668294459726L74.14042856966176,43.15435689384758L75.14935345220835,42.83184062036054L76.15827833475493,42.53466028938808L77.1672032173015,41.6565646647306L78.17612809984809,41.93316528289035L79.18505298239467,41.68443598651034L80.19397786494125,40.96500289108611L81.20290274748783,41.28496574334568L82.21182763003439,40.67348546174721L83.22075251258097,41.29148247766023L84.22967739512757,40.75514842749608L85.23860227767415,40.35559507223743L86.24752716022071,40.76381520171611L87.2564520427673,39.92018782777353L88.26537692531387,40.424814230000145L89.27430180786045,39.6390343195838L90.28322669040703,40.28203976680634L91.29215157295361,39.96805930894337L92.3010764555002,39.72783205090799L93.31000133804677,40.10205593024286L94.31892622059334,39.41946169800937L95.32785110313992,39.47643010938524L96.33677598568651,39.2773486808528L97.3457008682331,38.820966781495095L98.35462575077966,37.79551493236637L99.36355063332624,37.491259223407326L100.37247551587282,37.82706603218798L101.3814003984194,38.05446775917645L102.39032528096598,38.346418345567315L103.39925016351256,38.52158869740184L104.40817504605914,38.10833067434648L105.41709992860572,36.953243600801336L106.42602481115229,37.34874710842656L107.43494969369887,37.275033812483535L108.44387457624546,37.127135268037485L109.45279945879204,37.193901991690204L110.46172434133861,37.156209100721654L111.47064922388519,37.004001457662795L112.47957410643177,36.783088663227154L113.48849898897835,36.67645862828585L114.49742387152493,36.56064532388097L115.50634875407151,36.20605958243991L116.51527363661809,36.330241179813505L117.52419851916467,36.30107957135743L118.53312340171124,36.231743622966206L119.54204828425783,35.542193611175065L120.55097316680441,35.12846360410038L121.55989804935099,35.398585834011705L122.56882293189756,34.52393870364627L123.57774781444414,34.28424818422513L124.58667269699072,34.114516230852374L125.59559757953731,33.93492413366855L126.60452246208388,33.697576966880504L127.61344734463046,33.451498099927434L128.62237222717704,33.64078382199381L129.63129710972362,33.987617730591616L130.6402219922702,33.677357841594215L131.64914687481678,33.56895483335597L132.65807175736336,33.322485836495105L133.66699663990994,33.01909858805827L134.67592152245652,32.811148597276095L135.6848464050031,32.168018368650685L136.69377128754965,32.144990915433745L137.70269617009626,32.4681074857418L138.71162105264284,32.791569336404386L139.72054593518942,32.31177666244802L140.72947081773597,32.231245891712156L141.73839570028255,32.15700978755055L142.74732058282913,31.620025532617554L143.75624546537574,31.401509246415472L144.7651703479223,30.855709807418332L145.77409523046887,31.33168813697427L146.78302011301545,31.66911041814794L147.79194499556206,31.560548386333974L148.8008698781086,31.443575883805483L149.8097947606552,31.243800473810637L150.81871964320177,30.52782206849745L151.82764452574835,30.20190559218978L152.83656940829493,30.75797841591925L153.84549429084151,30.59917951772091L154.8544191733881,30.452064895361765L155.86334405593465,29.845435887790188L156.87226893848126,30.466343668119332L157.8811938210278,30.812970694596757L158.89011870357442,30.684013868244993L159.899043586121,30.50296550567623L160.90796846866755,30.03148580417671L161.91689335121416,30.655726543111417L162.9258182337607,30.019468159880113L163.93474311630732,29.300780087703096L164.9436679988539,29.5434370287508L165.95259288140045,30.07779951905775L166.96151776394706,29.59495902028774L167.9704426464936,29.020156962227617L168.9793675290402,29.219553603267673L169.98829241158677,29.18368573757139L170.99721729413335,28.30686804188183L172.00614217667996,27.884451691225802L173.0150670592265,27.65691952255224L174.0239919417731,27.598153146508263L175.03291682431967,27.977582988157753L176.04184170686625,27.505453467073462L177.05076658941283,27.76645363029906L178.0596914719594,28.234069128752587L179.068616354506,28.255458310746636L180.07754123705254,27.698096302346862L181.08646611959915,27.726529781265256L182.09539100214573,27.61400166001603L183.1043158846923,27.62423771242665L184.1132407672389,27.552626418712855L185.12216564978544,27.8465926847228L186.13109053233205,27.737874685530656L187.1400154148786,27.28387556033703L188.1489402974252,27.089229010381043L189.1578651799718,26.609590396449143L190.16679006251834,26.736493195488414L191.17571494506495,26.553454757833926L192.1846398276115,26.365878770081054L193.19356471015809,25.86456115187354L194.2024895927047,25.77111541458697L195.21141447525125,25.792800897375194L196.22033935779785,26.45376432968197L197.2292642403444,26.306064513189895L198.238189122891,26.295197548454837L199.24711400543757,26.28867736961379L200.25603888798415,25.973749861791L201.26496377053073,25.992138190735254L202.2738886530773,25.7699087127438L203.2828135356239,25.792076876269295L204.29173841817044,25.675789565784285L205.30066330071705,25.346837062415254L206.30958818326363,25.201300843833938L207.3185130658102,25.606421705121182L208.3274379483568,25.745823655013297L209.33636283090334,25.54436336627299L210.34528771344995,24.749621108552358L211.3542125959965,23.935842711681783L212.36313747854308,23.680834449039953L213.3720623610897,24.072111067208475L214.38098724363624,24.09953220447165L215.38991212618285,24.349247362187533L216.3988370087294,24.810091857335248L217.40776189127598,24.982924287666165L218.4166867738226,24.049903277552517L219.42561165636914,23.852945055320074L220.43453653891575,24.797408232012877L221.4434614214623,24.0163502691982L222.45238630400888,23.910566175467647L223.46131118655546,23.250982559913055L224.47023606910204,22.907067674020432L225.47916095164862,23.193161334920887L226.4880858341952,23.157472697823245L227.49701071674178,22.98055366524431L228.50593559928834,23.107661021177464L229.51486048183494,22.846992392499125L230.52378536438152,22.872018407210003L231.5327102469281,23.22396705827475L232.54163512947468,23.797990632749357L233.55056001202124,23.572205559960437L234.55948489456785,23.462652158007142L235.5684097771144,23.371002475115112L236.57733465966098,23.264177381939767L237.58625954220759,22.837231642076272L238.59518442475414,22.788409031796093L239.60410930730075,22.707276482310434L240.6130341898473,22.503091102298686L241.62195907239388,22.58792470792957L242.6308839549405,22.146382278872036L243.63980883748704,22.29614278883592L244.64873372003365,22.489673361571956L245.6576586025802,22.34661158813552L246.66658348512678,22.31260980751381L247.6755083676734,22.680977064819082L248.68443325021994,22.046704142807922L249.69335813276652,22.132665340317242L250.7022830153131,21.873226658304645L251.71120789785968,21.873069299417427L252.72013278040623,22.00256679256289L253.72905766295284,21.821085171372093L254.73798254549942,21.47893372329966L255.746907428046,21.14405094597841L256.7558323105926,21.53923813877942L257.76475719313913,21.67267618770232L258.77368207568577,21.88233092553379L259.78260695823235,21.69710836771452L260.79153184077893,21.741480683343305L261.8004567233255,22.130958456556314L262.8093816058721,21.690775336130233L263.81830648841867,21.8154337895529L264.82723137096525,21.527378177648227L265.83615625351183,22.13208516173959" style="fill: none;" fill="none"></path></g></g></g></g><g opacity="0.2"><g><g><g><path stroke="rgb(0, 153, 136)" stroke-width="2px" d="M14.61386049941361,99.46213133987816L15.622785381960188,99.46213133987816L16.63171026450677,99.46213133987816L17.640635147053345,99.46213133987816L18.649560029599925,99.46213133987816L19.658484912146506,99.46213133987816L20.667409794693086,99.46213133987816L21.676334677239662,99.46213133987816L22.685259559786243,99.46213133987816L23.694184442332823,99.46213133987816L24.7031093248794,99.46213133987816L25.71203420742598,99.46213133987816L26.72095908997256,99.46213133987816L27.729883972519136,99.46213133987816L28.738808855065717,99.46213133987816L29.747733737612297,99.203061294155L30.756658620158873,98.42584190729191L31.765583502705454,98.68491657786188L32.77450838525203,99.72120601044814L33.78343326779861,99.72120601044814L34.79235815034519,96.8714123832594L35.80128303289177,96.3532676669663L36.81020791543834,94.79883814293379L37.81913279798493,94.53976347236382L38.8280576805315,93.76254871034756L39.83698256307808,94.28069342664068L40.84590744562466,85.73132179476822L41.85483232817124,81.58616406442331L42.863757210717814,76.92286624263211L43.8726820932644,71.74142832939465L44.881606975810975,67.59627984874341L45.890531858357555,59.82412297888722L46.899456740904135,54.90175048652604L47.908381623450715,51.0156766764448L48.91730650599729,52.05196610903103L49.926231388543876,48.42495771982606L50.93515627109045,43.76165989803487L51.94408115363703,43.24351055689491L52.95300603618361,40.39372617939988L53.96193091873019,43.76165989803487L54.97085580127676,42.72537046544864L55.97978068382335,41.94815570343238L56.98870556636992,42.46629579487865L57.9976304489165,42.20723037400237L59.00655533146308,42.72537046544864L60.01548021400966,43.24351055689491L61.02440509655624,40.39372617939988L62.033329979102824,40.39372617939988L63.0422548616494,37.80300722278116L64.05117974419598,42.72537046544864L65.06010462674256,40.134651508829904L66.06902950928914,40.91186627084615L67.07795439183572,39.616511417383634L68.0868792743823,38.321147314227424L69.09580415692888,37.54393255221117L70.10472903947544,36.50764311962493L71.11365392202204,39.35743674681366L72.1225788045686,37.284857881641194L73.1315036871152,35.212288266162425L74.14042856966176,35.98950302817866L75.14935345220835,39.35743674681366L76.15827833475493,35.98950302817866L77.1672032173015,33.65784949243622L78.17612809984809,36.50764311962493L79.18505298239467,34.17599883357619L80.19397786494125,35.212288266162425L81.20290274748783,39.616511417383634L82.21182763003439,33.398784071559945L83.22075251258097,33.13970940098995L84.22967739512757,32.362494638973715L85.23860227767415,32.880634730419985L86.24752716022071,34.435064254452485L87.2564520427673,32.880634730419985L88.26537692531387,32.880634730419985L89.27430180786045,32.362494638973715L90.28322669040703,33.398784071559945L91.29215157295361,32.880634730419985L92.3010764555002,33.398784071559945L93.31000133804677,33.13970940098995L94.31892622059334,32.62156005984999L95.32785110313992,32.362494638973715L96.33677598568651,34.95321359559243L97.3457008682331,33.398784071559945L98.35462575077966,31.844345297833748L99.36355063332624,30.548990444371217L100.37247551587282,30.548990444371217L101.3814003984194,30.289915773801244L102.39032528096598,30.03084110323127L103.39925016351256,32.10341996840372L104.40817504605914,31.326205206387478L105.41709992860572,30.548990444371217L106.42602481115229,30.548990444371217L107.43494969369887,32.62156005984999L108.44387457624546,34.17599883357619L109.45279945879204,31.067130535817487L110.46172434133861,32.362494638973715L111.47064922388519,31.326205206387478L112.47957410643177,32.10341996840372L113.48849898897835,29.25362634121501L114.49742387152493,30.808055865247514L115.50634875407151,30.03084110323127L116.51527363661809,27.440122146612534L117.52419851916467,30.808055865247514L118.53312340171124,30.548990444371217L119.54204828425783,28.217336908628777L120.55097316680441,28.73548624976874L121.55989804935099,27.9582714877525L122.56882293189756,30.808055865247514L123.57774781444414,29.512701011785L124.58667269699072,29.25362634121501L125.59559757953731,27.440122146612534L126.60452246208388,31.326205206387478L127.61344734463046,29.771775682354974L128.62237222717704,28.217336908628777L129.63129710972362,34.95321359559243L130.6402219922702,26.921982055166264L131.64914687481678,26.4038327140263L132.65807175736336,27.699196817182507L133.66699663990994,26.921982055166264L134.67592152245652,27.181056725736237L135.6848464050031,25.88569262258003L136.69377128754965,28.217336908628777L137.70269617009626,29.25362634121501L138.71162105264284,26.921982055166264L139.72054593518942,25.10847786056379L140.72947081773597,27.440122146612534L141.73839570028255,25.62661795201006L142.74732058282913,27.9582714877525L143.75624546537574,28.994560920338735L144.7651703479223,27.181056725736237L145.77409523046887,24.590328519423828L146.78302011301545,23.813113757407564L147.79194499556206,24.072188427977558L148.8008698781086,21.99960956280509L149.8097947606552,25.62661795201006L150.81871964320177,24.590328519423828L151.82764452574835,26.921982055166264L152.83656940829493,24.590328519423828L153.84549429084151,24.072188427977558L154.8544191733881,23.813113757407564L155.86334405593465,24.072188427977558L156.87226893848126,26.144767293150004L157.8811938210278,24.849403189993797L158.89011870357442,23.035898995391324L159.899043586121,24.849403189993797L160.90796846866755,24.849403189993797L161.91689335121416,24.590328519423828L162.9258182337607,23.554048336531288L163.93474311630732,23.294973665961294L164.9436679988539,21.222394800788848L165.95259288140045,25.10847786056379L166.96151776394706,22.25868423337506L167.9704426464936,24.590328519423828L168.9793675290402,30.808055865247514L169.98829241158677,20.704254709342578L170.99721729413335,23.294973665961294L172.00614217667996,23.554048336531288L173.0150670592265,23.035898995391324L174.0239919417731,20.445180038772605L175.03291682431967,19.667965276756345L176.04184170686625,21.74054414192881L177.05076658941283,23.294973665961294L178.0596914719594,20.445180038772605L179.068616354506,21.48146947135884L180.07754123705254,22.517758903945055L181.08646611959915,25.367552531133764L182.09539100214573,21.74054414192881L183.1043158846923,23.294973665961294L184.1132407672389,19.667965276756345L185.12216564978544,19.149825185310075L186.13109053233205,20.704254709342578L187.1400154148786,19.667965276756345L188.1489402974252,21.99960956280509L189.1578651799718,19.40889060618637L190.16679006251834,21.222394800788848L191.17571494506495,20.704254709342578L192.1846398276115,18.890750514740102L193.19356471015809,23.035898995391324L194.2024895927047,17.85446108215387L195.21141447525125,19.40889060618637L196.22033935779785,19.927039947326335L197.2292642403444,24.590328519423828L198.238189122891,18.37260117360014L199.24711400543757,22.776833574515027L200.25603888798415,19.927039947326335L201.26496377053073,20.445180038772605L202.2738886530773,20.186105368202632L203.2828135356239,17.077246320137625L204.29173841817044,18.37260117360014L205.30066330071705,17.595386411583895L206.30958818326363,23.294973665961294L207.3185130658102,20.704254709342578L208.3274379483568,21.222394800788848L209.33636283090334,19.149825185310075L210.34528771344995,17.85446108215387L211.3542125959965,17.077246320137625L212.36313747854308,18.890750514740102L213.3720623610897,20.445180038772605L214.38098724363624,18.63167584417013L215.38991212618285,22.517758903945055L216.3988370087294,21.48146947135884L217.40776189127598,19.149825185310075L218.4166867738226,18.113535752723863L219.42561165636914,19.40889060618637L220.43453653891575,18.37260117360014L221.4434614214623,18.37260117360014L222.45238630400888,18.37260117360014L223.46131118655546,19.927039947326335L224.47023606910204,16.818171649567635L225.47916095164862,18.63167584417013L226.4880858341952,16.300031558121365L227.49701071674178,19.149825185310075L228.50593559928834,17.3363209907076L229.51486048183494,17.077246320137625L230.52378536438152,16.040956887551392L231.5327102469281,17.3363209907076L232.54163512947468,17.3363209907076L233.55056001202124,16.818171649567635L234.55948489456785,19.40889060618637L235.5684097771144,17.3363209907076L236.57733465966098,18.37260117360014L237.58625954220759,17.595386411583895L238.59518442475414,18.37260117360014L239.60410930730075,16.818171649567635L240.6130341898473,17.85446108215387L241.62195907239388,17.3363209907076L242.6308839549405,16.818171649567635L243.63980883748704,16.818171649567635L244.64873372003365,17.077246320137625L245.6576586025802,16.040956887551392L246.66658348512678,16.300031558121365L247.6755083676734,16.040956887551392L248.68443325021994,15.781882216981401L249.69335813276652,15.781882216981401L250.7022830153131,15.781882216981401L251.71120789785968,15.781882216981401L252.72013278040623,16.55910622869136L253.72905766295284,16.040956887551392L254.73798254549942,16.300031558121365L255.746907428046,16.040956887551392L256.7558323105926,16.040956887551392L257.76475719313913,16.040956887551392L258.77368207568577,16.55910622869136L259.78260695823235,15.781882216981401L260.79153184077893,16.55910622869136L261.8004567233255,15.781882216981401L262.8093816058721,15.781882216981401L263.81830648841867,15.781882216981401L264.82723137096525,16.040956887551392L265.83615625351183,16.300031558121365" style="fill: none;" fill="none"></path></g><g><path stroke="rgb(238, 51, 119)" stroke-width="2px" d="M14.61386049941361,102.02429186722826L15.622785381960188,94.24888835488679L16.63171026450677,92.69380672744911L17.640635147053345,89.38926115967337L18.649560029599925,87.25102796868757L19.658484912146506,84.91840321510763L20.667409794693086,82.00263152282645L21.676334677239662,79.99398654044093L22.685259559786243,78.95726237225125L23.694184442332823,78.37410618385628L24.7031093248794,73.64407182209L25.71203420742598,71.63542683970448L26.72095908997256,71.8298091526049L27.729883972519136,66.12784472694909L28.738808855065717,64.4431702660643L29.747733737612297,60.490674405593424L30.756658620158873,58.352441214607616L31.765583502705454,57.7044909219125L32.77450838525203,56.60297264942268L33.78343326779861,55.76064004382714L34.79235815034519,54.72391587563745L35.80128303289177,53.62240685284133L36.81020791543834,51.095399786360986L37.81913279798493,53.16883887304664L38.8280576805315,49.929087409571025L39.83698256307808,50.12346972247146L40.84590744562466,51.354576203561564L41.85483232817124,50.641831806566294L42.863757210717814,48.9571573456815L43.8726820932644,47.985236531485654L44.881606975810975,47.7260508645914L45.890531858357555,49.34593122117606L46.899456740904135,47.985236531485654L47.908381623450715,47.596462655991104L48.91730650599729,49.02195144998164L49.926231388543876,47.85564832288538L50.93515627109045,46.106179757700424L51.94408115363703,48.1796188443861L52.95300603618361,48.9571573456815L53.96193091873019,47.20769803019025L54.97085580127676,45.717405882205874L55.97978068382335,47.92044242718552L56.98870556636992,47.01330646759614L57.9976304489165,45.65261177790573L59.00655533146308,45.13424969381091L60.01548021400966,45.97659154910015L61.02440509655624,45.393435360705176L62.033329979102824,45.84699409080618L63.0422548616494,45.782199986506036L64.05117974419598,45.91179744480001L65.06010462674256,44.16232887961506L66.06902950928914,43.903143212720806L67.07795439183572,45.393435360705176L68.0868792743823,44.81027917231019L69.09580415692888,42.54244852303041L70.10472903947544,43.31999627401951L71.11365392202204,43.57917269122009L72.1225788045686,43.25519292002568L73.1315036871152,44.42150529681564L74.14042856966176,42.08888979292941L75.14935345220835,42.348066210129986L76.15827833475493,42.08888979292941L77.1672032173015,40.33942122774448L78.17612809984809,42.348066210129986L79.18505298239467,41.31134204194031L80.19397786494125,39.88585324794979L81.20290274748783,41.764910021735L82.21182763003439,39.756265039349486L83.22075251258097,42.21847800152971L84.22967739512757,39.95064735224992L85.23860227767415,39.756265039349486L86.24752716022071,41.37614539593414L87.2564520427673,38.65474676685969L88.26537692531387,41.181753833340025L89.27430180786045,38.46036445395925L90.28322669040703,41.246547937640166L91.29215157295361,39.49708862214893L92.3010764555002,39.367491163854936L93.31000133804677,40.66339174924519L94.31892622059334,38.39557034965911L95.32785110313992,39.56188272644907L96.33677598568651,38.978726538054076L97.3457008682331,38.13639393245853L98.35462575077966,36.2573371586733L99.36355063332624,37.03487565996871L100.37247551587282,38.33077624535897L101.3814003984194,38.39557034965911L102.39032528096598,38.78434422515366L103.39925016351256,38.78434422515366L104.40817504605914,37.48844363976342L105.41709992860572,35.22061299048364L106.42602481115229,37.94200236986442L107.43494969369887,37.16446386856901L108.44387457624546,36.90528745136843L109.45279945879204,37.29405207716929L110.46172434133861,37.09966976426887L111.47064922388519,36.77568999307446L112.47957410643177,36.45171947157374L113.48849898897835,36.51651357587388L114.49742387152493,36.3869253672736L115.50634875407151,35.67418097027833L116.51527363661809,36.51651357587388L117.52419851916467,36.2573371586733L118.53312340171124,36.12773970037933L119.54204828425783,34.50786859348837L120.55097316680441,34.50786859348837L121.55989804935099,35.80376917887861L122.56882293189756,33.21196800809813L123.57774781444414,33.9247124050934L124.58667269699072,33.85991830079324L125.59559757953731,33.665535987892824L126.60452246208388,33.34155621669841L127.61344734463046,33.08237979949783L128.62237222717704,33.9247124050934L129.63129710972362,34.50786859348837L130.6402219922702,33.21196800809813L131.64914687481678,33.40635032099855L132.65807175736336,32.95278234120386L133.66699663990994,32.564017715403L134.67592152245652,32.49922361110286L135.6848464050031,31.20332302571262L136.69377128754965,32.110449735608306L137.70269617009626,32.95278234120386L138.71162105264284,33.276762112398266L139.72054593518942,31.592087651513477L140.72947081773597,32.110449735608306L141.73839570028255,32.04565563130817L142.74732058282913,30.814549150218067L143.75624546537574,31.07373481711232L144.7651703479223,30.03701064892266L145.77409523046887,32.04565563130817L146.78302011301545,32.17524383990845L147.79194499556206,31.39770533861304L148.8008698781086,31.26811713001276L149.8097947606552,30.94413735881835L150.81871964320177,29.45385446052767L151.82764452574835,29.713030877728247L152.83656940829493,31.592087651513477L153.84549429084151,30.360981170423376L154.8544191733881,30.23139296182308L155.86334405593465,28.935492376432837L156.87226893848126,31.39770533861304L157.8811938210278,31.3329112343129L158.89011870357442,30.49057862871735L159.899043586121,30.23139296182308L160.90796846866755,29.32426625192739L161.91689335121416,31.592087651513477L162.9258182337607,29.06508058503312L163.93474311630732,28.222747979437568L164.9436679988539,29.90742244032236L165.95259288140045,30.879343254518208L166.96151776394706,28.8706982721327L167.9704426464936,28.15795387513743L168.9793675290402,29.518648564827828L169.98829241158677,29.129883939026953L170.99721729413335,26.99164149834747L172.00614217667996,27.25082716524174L173.0150670592265,27.315621269541882L174.0239919417731,27.5100035824423L175.03291682431967,28.54672775063198L176.04184170686625,26.79725918544705L177.05076658941283,28.15795387513743L178.0596914719594,28.935492376432837L179.068616354506,28.28754208373771L180.07754123705254,26.86205328974719L181.08646611959915,27.769179999642876L182.09539100214573,27.44520947814216L183.1043158846923,27.639591791042598L184.1132407672389,27.44520947814216L185.12216564978544,28.28754208373771L186.13109053233205,27.57479768674246L187.1400154148786,26.602876872546613L188.1489402974252,26.79725918544705L189.1578651799718,25.890132475551344L190.16679006251834,26.92684739404733L191.17571494506495,26.2788971013522L192.1846398276115,26.08451478845178L193.19356471015809,25.11258472456224L194.2024895927047,25.63094680865709L195.21141447525125,25.82532912155751L196.22033935779785,27.44520947814216L197.2292642403444,26.08451478845178L198.238189122891,26.2788971013522L199.24711400543757,26.2788971013522L200.25603888798415,25.50135860005679L201.26496377053073,26.019720684151643L202.2738886530773,25.436564495756652L203.2828135356239,25.82532912155751L204.29173841817044,25.50135860005679L205.30066330071705,24.85340830736168L206.30958818326363,24.98299651596196L207.3185130658102,26.21410299705206L208.3274379483568,25.95492657985148L209.33636283090334,25.24217293316254L210.34528771344995,23.557507721971422L211.3542125959965,22.715175116375875L212.36313747854308,23.29832205507717L213.3720623610897,24.659025994461242L214.38098724363624,24.140663910366413L215.38991212618285,24.723820098761383L216.3988370087294,25.50135860005679L217.40776189127598,25.24217293316254L218.4166867738226,22.65037176238204L219.42561165636914,23.557507721971422L220.43453653891575,26.21410299705206L221.4434614214623,22.84476332497617L222.45238630400888,23.75189003487186L223.46131118655546,22.261607136581183L224.47023606910204,22.39119534518148L225.47916095164862,23.62230182627158L226.4880858341952,23.10393974217673L227.49701071674178,22.715175116375875L228.50593559928834,23.29832205507717L229.51486048183494,22.45598944948162L230.52378536438152,22.909557429276312L231.5327102469281,23.75189003487186L232.54163512947468,24.659025994461242L233.55056001202124,23.233527950777027L234.55948489456785,23.29832205507717L235.5684097771144,23.233527950777027L236.57733465966098,23.10393974217673L237.58625954220759,22.196813032281042L238.59518442475414,22.715175116375875L239.60410930730075,22.5855776580819L240.6130341898473,22.196813032281042L241.62195907239388,22.715175116375875L242.6308839549405,21.48406863528579L243.63980883748704,22.520783553781758L244.64873372003365,22.779969220676012L245.6576586025802,22.1320189279809L246.66658348512678,22.261607136581183L247.6755083676734,23.233527950777027L248.68443325021994,21.09529475979124L249.69335813276652,22.261607136581183L250.7022830153131,21.48406863528579L251.71120789785968,21.87283326108663L252.72013278040623,22.196813032281042L253.72905766295284,21.548862739585932L254.73798254549942,20.965706551190962L255.746907428046,20.64172677999655L256.7558323105926,22.1320189279809L257.76475719313913,21.87283326108663L258.77368207568577,22.196813032281042L259.78260695823235,21.419274530985653L260.79153184077893,21.80803915678651L261.8004567233255,22.715175116375875L262.8093816058721,21.0305006554911L263.81830648841867,22.00242146968693L264.82723137096525,21.09529475979124L265.83615625351183,23.03914563787659" style="fill: none;" fill="none"></path></g></g></g></g></g></g><g transform="translate(40, 177)" clip-path="url(#clip_1)"><clipPath id="clip_1"><rect width="290" height="23"></rect></clipPath><g><g><line x1="14.61386049941361" y1="0" x2="14.61386049941361" y2="5" style="visibility: inherit;" fill="rgb(0, 0, 0)" stroke="rgb(204, 204, 204)" stroke-width="1px"></line><line x1="34.79235815034519" y1="0" x2="34.79235815034519" y2="5" style="visibility: inherit;" fill="rgb(0, 0, 0)" stroke="rgb(204, 204, 204)" stroke-width="1px"></line><line x1="54.97085580127676" y1="0" x2="54.97085580127676" y2="5" style="visibility: inherit;" fill="rgb(0, 0, 0)" stroke="rgb(204, 204, 204)" stroke-width="1px"></line><line x1="75.14935345220835" y1="0" x2="75.14935345220835" y2="5" style="visibility: inherit;" fill="rgb(0, 0, 0)" stroke="rgb(204, 204, 204)" stroke-width="1px"></line><line x1="95.32785110313992" y1="0" x2="95.32785110313992" y2="5" style="visibility: inherit;" fill="rgb(0, 0, 0)" stroke="rgb(204, 204, 204)" stroke-width="1px"></line><line x1="115.50634875407151" y1="0" x2="115.50634875407151" y2="5" style="visibility: inherit;" fill="rgb(0, 0, 0)" stroke="rgb(204, 204, 204)" stroke-width="1px"></line><line x1="135.6848464050031" y1="0" x2="135.6848464050031" y2="5" style="visibility: inherit;" fill="rgb(0, 0, 0)" stroke="rgb(204, 204, 204)" stroke-width="1px"></line><line x1="155.86334405593465" y1="0" x2="155.86334405593465" y2="5" style="visibility: inherit;" fill="rgb(0, 0, 0)" stroke="rgb(204, 204, 204)" stroke-width="1px"></line><line x1="176.04184170686625" y1="0" x2="176.04184170686625" y2="5" style="visibility: inherit;" fill="rgb(0, 0, 0)" stroke="rgb(204, 204, 204)" stroke-width="1px"></line><line x1="196.22033935779785" y1="0" x2="196.22033935779785" y2="5" style="visibility: inherit;" fill="rgb(0, 0, 0)" stroke="rgb(204, 204, 204)" stroke-width="1px"></line><line x1="216.3988370087294" y1="0" x2="216.3988370087294" y2="5" style="visibility: inherit;" fill="rgb(0, 0, 0)" stroke="rgb(204, 204, 204)" stroke-width="1px"></line><line x1="236.57733465966098" y1="0" x2="236.57733465966098" y2="5" style="visibility: inherit;" fill="rgb(0, 0, 0)" stroke="rgb(204, 204, 204)" stroke-width="1px"></line><line x1="256.7558323105926" y1="0" x2="256.7558323105926" y2="5" style="visibility: inherit;" fill="rgb(0, 0, 0)" stroke="rgb(204, 204, 204)" stroke-width="1px"></line><line x1="276.93432996152416" y1="0" x2="276.93432996152416" y2="5" style="visibility: inherit;" fill="rgb(0, 0, 0)" stroke="rgb(204, 204, 204)" stroke-width="1px"></line></g><g transform="translate(0, 8)"><text x="14.61386049941361" y="0" dx="0em" dy="0.95em" style="text-anchor: middle; visibility: inherit; font-family: Roboto, sans-serif; font-size: 12px; font-weight: 200;" fill="rgb(33, 33, 33)" stroke="none" stroke-width="1px">0</text><text x="34.79235815034519" y="0" dx="0em" dy="0.95em" style="text-anchor: middle; visibility: hidden; font-family: Roboto, sans-serif; font-size: 12px; font-weight: 200;" fill="rgb(33, 33, 33)" stroke="none" stroke-width="1px">20</text><text x="54.97085580127676" y="0" dx="0em" dy="0.95em" style="text-anchor: middle; visibility: inherit; font-family: Roboto, sans-serif; font-size: 12px; font-weight: 200;" fill="rgb(33, 33, 33)" stroke="none" stroke-width="1px">40</text><text x="75.14935345220835" y="0" dx="0em" dy="0.95em" style="text-anchor: middle; visibility: hidden; font-family: Roboto, sans-serif; font-size: 12px; font-weight: 200;" fill="rgb(33, 33, 33)" stroke="none" stroke-width="1px">60</text><text x="95.32785110313992" y="0" dx="0em" dy="0.95em" style="text-anchor: middle; visibility: inherit; font-family: Roboto, sans-serif; font-size: 12px; font-weight: 200;" fill="rgb(33, 33, 33)" stroke="none" stroke-width="1px">80</text><text x="115.50634875407151" y="0" dx="0em" dy="0.95em" style="text-anchor: middle; visibility: hidden; font-family: Roboto, sans-serif; font-size: 12px; font-weight: 200;" fill="rgb(33, 33, 33)" stroke="none" stroke-width="1px">100</text><text x="135.6848464050031" y="0" dx="0em" dy="0.95em" style="text-anchor: middle; visibility: inherit; font-family: Roboto, sans-serif; font-size: 12px; font-weight: 200;" fill="rgb(33, 33, 33)" stroke="none" stroke-width="1px">120</text><text x="155.86334405593465" y="0" dx="0em" dy="0.95em" style="text-anchor: middle; visibility: hidden; font-family: Roboto, sans-serif; font-size: 12px; font-weight: 200;" fill="rgb(33, 33, 33)" stroke="none" stroke-width="1px">140</text><text x="176.04184170686625" y="0" dx="0em" dy="0.95em" style="text-anchor: middle; visibility: inherit; font-family: Roboto, sans-serif; font-size: 12px; font-weight: 200;" fill="rgb(33, 33, 33)" stroke="none" stroke-width="1px">160</text><text x="196.22033935779785" y="0" dx="0em" dy="0.95em" style="text-anchor: middle; visibility: hidden; font-family: Roboto, sans-serif; font-size: 12px; font-weight: 200;" fill="rgb(33, 33, 33)" stroke="none" stroke-width="1px">180</text><text x="216.3988370087294" y="0" dx="0em" dy="0.95em" style="text-anchor: middle; visibility: inherit; font-family: Roboto, sans-serif; font-size: 12px; font-weight: 200;" fill="rgb(33, 33, 33)" stroke="none" stroke-width="1px">200</text><text x="236.57733465966098" y="0" dx="0em" dy="0.95em" style="text-anchor: middle; visibility: hidden; font-family: Roboto, sans-serif; font-size: 12px; font-weight: 200;" fill="rgb(33, 33, 33)" stroke="none" stroke-width="1px">220</text><text x="256.7558323105926" y="0" dx="0em" dy="0.95em" style="text-anchor: middle; visibility: inherit; font-family: Roboto, sans-serif; font-size: 12px; font-weight: 200;" fill="rgb(33, 33, 33)" stroke="none" stroke-width="1px">240</text><text x="276.93432996152416" y="0" dx="0em" dy="0.95em" style="text-anchor: middle; visibility: hidden; font-family: Roboto, sans-serif; font-size: 12px; font-weight: 200;" fill="rgb(33, 33, 33)" stroke="none" stroke-width="1px">260</text></g><line x1="0" y1="0" x2="290" y2="0" fill="rgb(0, 0, 0)" stroke="rgb(204, 204, 204)" stroke-width="1px"></line></g></g></g></g></svg>