<svg viewBox="0 0 330 200" xmlns="http://www.w3.org/2000/svg"><g><g><g><g><g><line x1="20.390625" y1="176.7187971371301" x2="15.390625" y2="176.7187971371301" style="visibility: inherit;" fill="rgb(0, 0, 0)" stroke="rgb(204, 204, 204)" stroke-width="1px"></line><line x1="20.390625" y1="155.0929992539984" x2="15.390625" y2="155.0929992539984" style="visibility: inherit;" fill="rgb(0, 0, 0)" stroke="rgb(204, 204, 204)" stroke-width="1px"></line><line x1="20.390625" y1="133.46720137086666" x2="15.390625" y2="133.46720137086666" style="visibility: inherit;" fill="rgb(0, 0, 0)" stroke="rgb(204, 204, 204)" stroke-width="1px"></line><line x1="20.390625" y1="111.84140348773495" x2="15.390625" y2="111.84140348773495" style="visibility: inherit;" fill="rgb(0, 0, 0)" stroke="rgb(204, 204, 204)" stroke-width="1px"></line><line x1="20.390625" y1="90.21560560460324" x2="15.390625" y2="90.21560560460324" style="visibility: inherit;" fill="rgb(0, 0, 0)" stroke="rgb(204, 204, 204)" stroke-width="1px"></line><line x1="20.390625" y1="68.58980772147153" x2="15.390625" y2="68.58980772147153" style="visibility: inherit;" fill="rgb(0, 0, 0)" stroke="rgb(204, 204, 204)" stroke-width="1px"></line><line x1="20.390625" y1="46.96400983833979" x2="15.390625" y2="46.96400983833979" style="visibility: inherit;" fill="rgb(0, 0, 0)" stroke="rgb(204, 204, 204)" stroke-width="1px"></line><line x1="20.390625" y1="25.338211955208074" x2="15.390625" y2="25.338211955208074" style="visibility: inherit;" fill="rgb(0, 0, 0)" stroke="rgb(204, 204, 204)" stroke-width="1px"></line><line x1="20.390625" y1="3.7124140720763608" x2="15.390625" y2="3.7124140720763608" style="visibility: inherit;" fill="rgb(0, 0, 0)" stroke="rgb(204, 204, 204)" stroke-width="1px"></line></g><g transform="translate(10.390625, 0)"><text x="0" y="176.7187971371301" dx="0em" dy="0.3em" style="text-anchor: end; visibility: hidden; font-family: Roboto, sans-serif; font-size: 12px; font-weight: 200;" fill="rgb(33, 33, 33)" stroke="none" stroke-width="1px">0</text><text x="0" y="155.0929992539984" dx="0em" dy="0.3em" style="text-anchor: end; visibility: inherit; font-family: Roboto, sans-serif; font-size: 12px; font-weight: 200;" fill="rgb(33, 33, 33)" stroke="none" stroke-width="1px">1</text><text x="0" y="133.46720137086666" dx="0em" dy="0.3em" style="text-anchor: end; visibility: hidden; font-family: Roboto, sans-serif; font-size: 12px; font-weight: 200;" fill="rgb(33, 33, 33)" stroke="none" stroke-width="1px">2</text><text x="0" y="111.84140348773495" dx="0em" dy="0.3em" style="text-anchor: end; visibility: inherit; font-family: Roboto, sans-serif; font-size: 12px; font-weight: 200;" fill="rgb(33, 33, 33)" stroke="none" stroke-width="1px">3</text><text x="0" y="90.21560560460324" dx="0em" dy="0.3em" style="text-anchor: end; visibility: hidden; font-family: Roboto, sans-serif; font-size: 12px; font-weight: 200;" fill="rgb(33, 33, 33)" stroke="none" stroke-width="1px">4</text><text x="0" y="68.58980772147153" dx="0em" dy="0.3em" style="text-anchor: end; visibility: inherit; font-family: Roboto, sans-serif; font-size: 12px; font-weight: 200;" fill="rgb(33, 33, 33)" stroke="none" stroke-width="1px">5</text><text x="0" y="46.96400983833979" dx="0em" dy="0.3em" style="text-anchor: end; visibility: hidden; font-family: Roboto, sans-serif; font-size: 12px; font-weight: 200;" fill="rgb(33, 33, 33)" stroke="none" stroke-width="1px">6</text><text x="0" y="25.338211955208074" dx="0em" dy="0.3em" style="text-anchor: end; visibility: inherit; font-family: Roboto, sans-serif; font-size: 12px; font-weight: 200;" fill="rgb(33, 33, 33)" stroke="none" stroke-width="1px">7</text><text x="0" y="3.7124140720763608" dx="0em" dy="0.3em" style="text-anchor: end; visibility: hidden; font-family: Roboto, sans-serif; font-size: 12px; font-weight: 200;" fill="rgb(33, 33, 33)" stroke="none" stroke-width="1px">8</text></g><line x1="20.390625" y1="0" x2="20.390625" y2="177" fill="rgb(0, 0, 0)" stroke="rgb(204, 204, 204)" stroke-width="1px"></line></g></g><g transform="translate(20, 0)" clip-path="url(#clip_0)"><clipPath id="clip_0"><rect width="309" height="177"></rect></clipPath><g><g><g><line x1="5.298630176838462" y1="0" x2="5.298630176838462" y2="177" fill="rgb(0, 0, 0)" stroke="rgb(66, 66, 66)" stroke-width="1px" opacity="0.25"></line><line x1="28.86526505468746" y1="0" x2="28.86526505468746" y2="177" fill="rgb(0, 0, 0)" stroke="rgb(66, 66, 66)" stroke-width="1px" opacity="0.25"></line><line x1="52.43189993253645" y1="0" x2="52.43189993253645" y2="177" fill="rgb(0, 0, 0)" stroke="rgb(66, 66, 66)" stroke-width="1px" opacity="0.25"></line><line x1="75.99853481038544" y1="0" x2="75.99853481038544" y2="177" fill="rgb(0, 0, 0)" stroke="rgb(66, 66, 66)" stroke-width="1px" opacity="0.25"></line><line x1="99.56516968823443" y1="0" x2="99.56516968823443" y2="177" fill="rgb(0, 0, 0)" stroke="rgb(66, 66, 66)" stroke-width="1px" opacity="0.25"></line><line x1="123.13180456608343" y1="0" x2="123.13180456608343" y2="177" fill="rgb(0, 0, 0)" stroke="rgb(66, 66, 66)" stroke-width="1px" opacity="0.25"></line><line x1="146.69843944393241" y1="0" x2="146.69843944393241" y2="177" fill="rgb(0, 0, 0)" stroke="rgb(66, 66, 66)" stroke-width="1px" opacity="0.25"></line><line x1="170.2650743217814" y1="0" x2="170.2650743217814" y2="177" fill="rgb(0, 0, 0)" stroke="rgb(66, 66, 66)" stroke-width="1px" opacity="0.25"></line><line x1="193.8317091996304" y1="0" x2="193.8317091996304" y2="177" fill="rgb(0, 0, 0)" stroke="rgb(66, 66, 66)" stroke-width="1px" opacity="0.25"></line><line x1="217.39834407747938" y1="0" x2="217.39834407747938" y2="177" fill="rgb(0, 0, 0)" stroke="rgb(66, 66, 66)" stroke-width="1px" opacity="0.25"></line><line x1="240.96497895532838" y1="0" x2="240.96497895532838" y2="177" fill="rgb(0, 0, 0)" stroke="rgb(66, 66, 66)" stroke-width="1px" opacity="0.25"></line><line x1="264.5316138331774" y1="0" x2="264.5316138331774" y2="177" fill="rgb(0, 0, 0)" stroke="rgb(66, 66, 66)" stroke-width="1px" opacity="0.25"></line><line x1="288.0982487110264" y1="0" x2="288.0982487110264" y2="177" fill="rgb(0, 0, 0)" stroke="rgb(66, 66, 66)" stroke-width="1px" opacity="0.25"></line></g><g><line x1="0" y1="176.7187971371301" x2="309.609375" y2="176.7187971371301" fill="rgb(0, 0, 0)" stroke="rgb(66, 66, 66)" stroke-width="1px" opacity="0.25"></line><line x1="0" y1="155.0929992539984" x2="309.609375" y2="155.0929992539984" fill="rgb(0, 0, 0)" stroke="rgb(66, 66, 66)" stroke-width="1px" opacity="0.25"></line><line x1="0" y1="133.46720137086666" x2="309.609375" y2="133.46720137086666" fill="rgb(0, 0, 0)" stroke="rgb(66, 66, 66)" stroke-width="1px" opacity="0.25"></line><line x1="0" y1="111.84140348773495" x2="309.609375" y2="111.84140348773495" fill="rgb(0, 0, 0)" stroke="rgb(66, 66, 66)" stroke-width="1px" opacity="0.25"></line><line x1="0" y1="90.21560560460324" x2="309.609375" y2="90.21560560460324" fill="rgb(0, 0, 0)" stroke="rgb(66, 66, 66)" stroke-width="1px" opacity="0.25"></line><line x1="0" y1="68.58980772147153" x2="309.609375" y2="68.58980772147153" fill="rgb(0, 0, 0)" stroke="rgb(66, 66, 66)" stroke-width="1px" opacity="0.25"></line><line x1="0" y1="46.96400983833979" x2="309.609375" y2="46.96400983833979" fill="rgb(0, 0, 0)" stroke="rgb(66, 66, 66)" stroke-width="1px" opacity="0.25"></line><line x1="0" y1="25.338211955208074" x2="309.609375" y2="25.338211955208074" fill="rgb(0, 0, 0)" stroke="rgb(66, 66, 66)" stroke-width="1px" opacity="0.25"></line><line x1="0" y1="3.7124140720763608" x2="309.609375" y2="3.7124140720763608" fill="rgb(0, 0, 0)" stroke="rgb(66, 66, 66)" stroke-width="1px" opacity="0.25"></line></g></g></g><g><g><line x1="0" y1="176.7187971371301" x2="309.609375" y2="176.7187971371301" fill="rgb(0, 0, 0)" stroke="rgb(153, 153, 153)" stroke-width="1.5px"></line></g></g><g><g><line x1="5.298630176838462" y1="0" x2="5.298630176838462" y2="177" fill="rgb(0, 0, 0)" stroke="rgb(153, 153, 153)" stroke-width="1.5px"></line></g></g><g><g><g><g><g><path stroke="rgb(0, 153, 136)" stroke-width="2px" d="M5.298630176838462,121.15498120269645L6.476961920730912,125.18587468736644L7.655293664623362,132.43865177116382L8.833625408515813,130.75643446559943L10.011957152408263,127.87111443178235L11.19028889630071,106.504030185643L12.36862064019316,106.33748683358503L13.54695238408561,93.46988965076265L14.72528412797806,89.99896491900157L15.903615871870509,83.1649684283626L17.08194761576296,51.26768505744684L18.26027935965541,47.14684641217081L19.438611103547856,84.11465719094534L20.616942847440306,26.729946896606545L21.79527459133276,37.82586703914042L22.97360633522521,22.836721136714843L24.151938079117656,29.30279277969378L25.330269823010106,19.42960776193291L26.508601566902556,48.433477475917385L27.68693331079501,59.61627446823446L28.86526505468746,85.72080486824775L30.043596798579905,88.80798576104146L31.221928542472355,83.54141869439783L32.400260286364805,101.87427127719172L33.578592030257255,114.66269449658648L34.756923774149705,120.91832564828783L35.935255518042155,130.34783949514443L37.113587261934605,138.17604506067687L38.291919005827054,142.73337840952485L39.470250749719504,150.015432813265L40.648582493611954,152.8075283239042L41.8269142375044,156.87598927191482L43.005245981396854,160.08762472437942L44.183577725289304,162.07002073988397L45.361909469181754,162.05693695142884L46.540241213074204,163.14275568099558L47.718572956966646,164.46185125351596L48.8969047008591,165.00715473337408L50.075236444751546,164.9957807865971L51.253568188643996,165.1548703718995L52.43189993253645,165.46038822196678L53.610231676428896,165.52327602862502L54.78856342032135,165.39161003185328L55.966895164213796,164.68934400976045L57.145226908106245,165.46496748935775L58.3235586519987,165.70668151552158L59.501890395891145,166.06630418840444L60.6802221397836,166.261480556649L61.858553883676045,166.20371751920632L63.036885627568495,165.47900619195443L64.21521737146095,166.28433580750183L65.3935491153534,166.59678039736312L66.57188085924585,166.56550488756284L67.7502126031383,167.0551042246659L68.92854434703075,166.71171503038425L70.1068760909232,167.07078906426634L71.28520783481564,167.02819882017275L72.4635395787081,167.21408756566245L73.64187132260054,167.13886043563068L74.820203066493,167.27582437117124L75.99853481038544,167.0580389275354L77.1768665542779,167.42032210744085L78.35519829817035,167.80600663042145L79.5335300420628,167.81164269969426L80.71186178595524,167.97042407076563L81.89019352984769,167.96590825186635L83.06852527374014,167.53913539663563L84.24685701763259,167.90514337234185L85.42518876152505,168.15169909427945L86.60352050541748,168.37150509157195L87.78185224930994,168.51506839922183L88.96018399320239,168.16816984122005L90.13851573709485,168.5753609996862L91.31684748098729,168.6506467640912L92.49517922487973,168.72514791603393L93.67351096877219,168.41405196184536L94.85184271266463,168.7338652993595L96.03017445655709,168.28898900867404L97.20850620044955,168.7071667887812L98.38683794434198,168.9488916324629L99.56516968823443,169.15106058100696L100.74350143212689,168.75350773611035L101.92183317601935,168.7245044308945L103.10016491991179,169.04714739740575L104.27849666380423,169.48002981810097L105.45682840769668,169.54745235830708L106.63516015158913,169.52333078321175L107.81349189548159,169.2474169511687L108.99182363937405,169.3152232908962L110.17015538326648,169.21550554172765L111.34848712715893,169.45195244290352L112.52681887105139,169.71927933532717L113.70515061494383,169.18683814455778L114.88348235883628,168.58563634449717L116.06181410272873,169.6770630891591L117.24014584662117,169.73155506584945L118.41847759051363,169.9361096087518L119.59680933440609,169.686517675836L120.77514107829852,170.2994647053099L121.95347282219097,169.8923337043517L123.13180456608343,170.18272616463952L124.31013630997589,170.48373783697988L125.48846805386833,169.82703456957617L126.66679979776077,170.39504981309494L127.84513154165323,170.73339218171324L129.0234632855457,170.44459572703937L130.20179502943813,170.88205064831948L131.38012677333057,170.22962689411253L132.55845851722302,170.3354319386069L133.7367902611155,170.77341071647217L134.91512200500793,170.79859240467613L136.09345374890037,170.2194309666168L137.27178549279284,170.4227549247579L138.45011723668526,171.00219907797592L139.62844898057773,168.764293643847L140.80678072447017,170.75542764812005L141.98511246836262,171.13483118915394L143.1634442122551,171.28330199198803L144.34177595614753,171.3101304330406L145.52010770003997,171.4306380996922L146.69843944393241,171.59066224622018L147.8767711878249,171.40018102358476L149.05510293171733,170.70247425492673L150.23343467560977,171.63552572752107L151.41176641950221,171.7435304922982L152.59009816339469,171.36371081782366L153.76842990728713,171.54482139655835L154.94676165117957,171.6676094117424L156.12509339507204,171.14891016750803L157.30342513896449,171.8063761738338L158.4817568828569,172.059277215554L159.66008862674937,172.13066055462068L160.8384203706418,172.32099012077475L162.01675211453426,172.3994984716476L163.19508385842673,172.27126568046145L164.37341560231917,172.38177447232502L165.5517473462116,172.11898633822014L166.73007909010408,172.4349412944753L167.90841083399653,172.4087415779139L169.086742577889,172.45393670846053L170.2650743217814,172.33812139771598L171.44340606567386,172.32184597760372L172.6217378095663,172.3941276854099L173.80006955345877,172.52648685289498L174.9784012973512,172.60868854168464L176.15673304124365,172.38441516462498L177.33506478513613,172.6121952053619L178.51339652902857,172.55397217479597L179.69172827292104,172.80080603023347L180.87006001681348,172.90329704795457L182.0483917607059,172.46297545909098L183.22672350459834,172.65701066967415L184.4050552484908,172.6786175766371L185.58338699238325,170.13280537672836L186.76171873627572,172.69421808473788L187.94005048016817,173.0952714636552L189.1183822240606,172.9771147915834L190.29671396795308,172.82425159253853L191.47504571184552,173.42583774426694L192.65337745573794,173.48782469490584L193.8317091996304,173.23034119868183L195.01004094352285,172.94582281257019L196.1883726874153,173.2773998146086L197.36670443130777,173.33465860325197L198.5450361752002,173.33441490423445L199.72336791909265,172.3742685078545L200.90169966298512,172.64869476992405L202.08003140687757,172.25039002759186L203.25836315077004,173.44192268275347L204.43669489466245,173.69981236007882L205.6150266385549,173.64372377427267L206.79335838244734,173.64531026760835L207.9716901263398,173.2888641558812L209.15002187023225,173.7376424297778L210.32835361412472,173.81376934651763L211.50668535801717,173.84778214772217L212.6850171019096,174.04077657542817L213.86334884580208,173.4602034317121L215.04168058969452,173.82800744391963L216.22001233358694,173.65867612169657L217.39834407747938,173.72205855811018L218.57667582137185,172.2946583906005L219.7550075652643,173.93508263775453L220.93333930915676,172.9628712531483L222.1116710530492,173.6940432124957L223.29000279694165,173.64055255484595L224.46833454083412,173.92074232000877L225.64666628472656,174.33411370928098L226.824998028619,173.98747444603282L228.00332977251145,174.44737535209524L229.1816615164039,173.3760920623682L230.35999326029633,173.82291006059626L231.5383250041888,173.55607220980008L232.71665674808125,174.18018176911755L233.8949884919737,174.5470312752069L235.07332023586616,174.6305236245234L236.2516519797586,174.54557668846016L237.42998372365108,174.0983280157823L238.6083154675435,174.35970451672188L239.78664721143593,173.19102794812656L240.96497895532838,173.79057904260512L242.14331069922085,173.99965377766202L243.3216424431133,174.57008640225035L244.49997418700576,174.27535452496062L245.6783059308982,174.4100729291403L246.85663767479065,174.6578791080845L248.03496941868312,174.77691821857798L249.21330116257556,174.34953958552575L250.39163290646798,174.84802072097182L251.56996465036045,174.68220476387773L252.7482963942529,174.7705206568684L253.92662813814533,174.5287566253905L255.1049598820378,174.8812555981168L256.28329162593025,175.01749809075747L257.4616233698227,175.14917615339562L258.63995511371513,175.06377929930633L259.81828685760763,175.0034994527026L260.9966186015001,175.13664477586687L262.17495034539246,174.45585107722678L263.3532820892849,174.91239998591178L264.5316138331774,174.8236435177243L265.70994557706985,174.83337145157094L266.8882773209623,174.83728852466348L268.06660906485473,175.01956214178816L269.2449408087472,174.98589389521157L270.4232725526397,175.13869631025273L271.6016042965321,175.22431586730582L272.77993604042456,175.23502797980694L273.958267784317,175.23287654528232L275.13659952820944,175.35614511089364L276.3149312721019,175.38889331624753L277.49326301599433,175.37790819256617L278.6715947598868,175.3905364112103L279.8499265037792,175.40140786392575L281.0282582476717,175.41961484658188L282.20658999156416,175.4185455099645L283.3849217354566,175.41479224815723L284.56325347934904,175.41394752087655L285.7415852232415,175.38977150691065L286.91991696713393,175.38936203844233L288.0982487110264,175.42504185228714L289.2765804549188,175.4392262248758L290.45491219881126,175.4481016788041L291.63324394270376,175.4605554293211L292.8115756865962,175.46077444965434L293.98990743048864,175.429746810639L295.1682391743811,175.4525349371467L296.3465709182735,175.42496554661773L297.52490266216597,175.45991015382427L298.7032344060584,175.41340825714173" style="fill: none;" fill="none"></path></g><g><path stroke="rgb(238, 51, 119)" stroke-width="2px" d="M5.298630176838462,126.41001981231241L6.476961920730912,133.04426783474864L7.655293664623362,136.01533642630383L8.833625408515813,138.9910805982284L10.011957152408263,140.69937515611986L11.19028889630071,142.21740314601246L12.36862064019316,144.41528315981506L13.54695238408561,145.4359610355433L14.72528412797806,146.2646992425182L15.903615871870509,147.62017289657962L17.08194761576296,149.37858542677048L18.26027935965541,150.64415235579668L19.438611103547856,151.6359818241889L20.616942847440306,153.83029183067194L21.79527459133276,155.20987037858453L22.97360633522521,156.5518745812991L24.151938079117656,157.76873096549733L25.330269823010106,158.43094875414164L26.508601566902556,158.98731575707797L27.68693331079501,159.4840746665796L28.86526505468746,159.85195976859904L30.043596798579905,160.3988390178289L31.221928542472355,160.90011851362635L32.400260286364805,161.17783472629574L33.578592030257255,161.8195221204268L34.756923774149705,162.08848593520403L35.935255518042155,161.92586572484964L37.113587261934605,162.2373670036969L38.291919005827054,162.34816866493335L39.470250749719504,163.0402271456616L40.648582493611954,162.8729851103376L41.8269142375044,162.68232911854403L43.005245981396854,162.7736725182862L44.183577725289304,163.05877469205763L45.361909469181754,162.91693378823103L46.540241213074204,163.11127765943382L47.718572956966646,163.39578320947157L48.8969047008591,163.03624854049238L50.075236444751546,163.13436669812307L51.253568188643996,163.55128422138225L52.43189993253645,163.38678939123997L53.610231676428896,163.63164431960507L54.78856342032135,163.7908682842404L55.966895164213796,163.59412943858823L57.145226908106245,163.98789624460676L58.3235586519987,164.04029497585287L59.501890395891145,164.04308294910825L60.6802221397836,164.27611261846556L61.858553883676045,163.94969459002456L63.036885627568495,164.26825587907985L64.21521737146095,164.56744388526798L65.3935491153534,164.71072735140373L66.57188085924585,164.41570257489934L67.7502126031383,164.31234995423225L68.92854434703075,164.91011883602155L70.1068760909232,164.75527673766206L71.28520783481564,164.7623533826441L72.4635395787081,165.2009364168435L73.64187132260054,164.65335962145613L74.820203066493,165.3806271305489L75.99853481038544,165.15012885941664L77.1768665542779,165.46167793122595L78.35519829817035,165.77618544467884L79.5335300420628,165.6038567769661L80.71186178595524,165.82936301377595L81.89019352984769,165.89557665572525L83.06852527374014,165.82798632747026L84.24685701763259,165.7874392528574L85.42518876152505,165.3765567837885L86.60352050541748,166.1964691288508L87.78185224930994,166.23475543211396L88.96018399320239,166.17785426892183L90.13851573709485,166.3250285942567L91.31684748098729,166.1456165096475L92.49517922487973,166.66746186251697L93.67351096877219,166.12401950655936L94.85184271266463,166.49029675872166L96.03017445655709,166.61760421273507L97.20850620044955,166.68032528103248L98.38683794434198,166.81129038129916L99.56516968823443,166.58768097970457L100.74350143212689,166.58448117224575L101.92183317601935,166.66492151602765L103.10016491991179,167.3162811063157L104.27849666380423,167.16859465052318L105.45682840769668,167.07141089073787L106.63516015158913,166.9090547817858L107.81349189548159,166.96926556316606L108.99182363937405,167.10575000162666L110.17015538326648,167.39229240541226L111.34848712715893,167.94763406184885L112.52681887105139,167.57197971007855L113.70515061494383,167.33598300200427L114.88348235883628,167.4555319973396L116.06181410272873,167.5560396748367L117.24014584662117,167.5017981475278L118.41847759051363,167.77393247549512L119.59680933440609,167.72767987221695L120.77514107829852,167.76788270740838L121.95347282219097,167.71886343877745L123.13180456608343,167.80092615995054L124.31013630997589,167.70598392578063L125.48846805386833,168.08585615555538L126.66679979776077,167.94958070137218L127.84513154165323,168.48265857387395L129.0234632855457,168.42371447962634L130.20179502943813,168.24129017442078L131.38012677333057,168.82494427995908L132.55845851722302,168.46797216506044L133.7367902611155,168.74695000731194L134.91512200500793,168.86877706861074L136.09345374890037,168.85884635340136L137.27178549279284,168.92672617349237L138.45011723668526,168.92532565589772L139.62844898057773,168.64384178246294L140.80678072447017,169.05501310095755L141.98511246836262,169.3527133048405L143.1634442122551,169.3138022308608L144.34177595614753,169.34684372811648L145.52010770003997,169.45165086966514L146.69843944393241,169.62453351662865L147.8767711878249,169.28963087570173L149.05510293171733,169.18080246124185L150.23343467560977,169.31923019670614L151.41176641950221,169.55564280564184L152.59009816339469,169.65992433752038L153.76842990728713,169.661149960681L154.94676165117957,169.90906487190273L156.12509339507204,169.72637782228065L157.30342513896449,170.12166942747777L158.4817568828569,169.64434418766467L159.66008862674937,169.68868547695237L160.8384203706418,169.86240382600903L162.01675211453426,169.74372064040264L163.19508385842673,169.75867022075607L164.37341560231917,169.98313954644127L165.5517473462116,170.04296430853367L166.73007909010408,169.6086794906208L167.90841083399653,170.1286826067711L169.086742577889,170.37728552568933L170.2650743217814,170.4144290907705L171.44340606567386,170.1602270716818L172.6217378095663,170.1381530093968L173.80006955345877,170.29229612984594L174.9784012973512,170.37561404581015L176.15673304124365,170.3344292223512L177.33506478513613,170.19889625536396L178.51339652902857,170.58431718175171L179.69172827292104,171.06039136428635L180.87006001681348,170.59279051113063L182.0483917607059,170.22735898944654L183.22672350459834,170.7532376570646L184.4050552484908,170.95016607317473L185.58338699238325,170.75079706579203L186.76171873627572,170.88719167692685L187.94005048016817,171.29552597090486L189.1183822240606,171.077273323395L190.29671396795308,171.30937218247473L191.47504571184552,171.259453347147L192.65337745573794,171.18813967179824L193.8317091996304,171.42823131191759L195.01004094352285,171.0325587918007L196.1883726874153,170.9752982794078L197.36670443130777,171.03144618184263L198.5450361752002,171.37661999550306L199.72336791909265,171.38875353842948L200.90169966298512,171.57727577393104L202.08003140687757,171.32204047990513L203.25836315077004,171.5384674944035L204.43669489466245,171.2647504934886L205.6150266385549,171.11470293557L206.79335838244734,171.45980133711524L207.9716901263398,171.58544108814647L209.15002187023225,171.72998608022633L210.32835361412472,171.5270280961625L211.50668535801717,171.74751830647193L212.6850171019096,171.9947189555459L213.86334884580208,172.15490118260402L215.04168058969452,172.02498821915162L216.22001233358694,171.86836378297406L217.39834407747938,171.67479041480448L218.57667582137185,171.83838491774839L219.7550075652643,171.8724837924952L220.93333930915676,171.79804445928377L222.1116710530492,171.77801000132155L223.29000279694165,171.90204951664458L224.46833454083412,172.12017118493975L225.64666628472656,171.9688433042556L226.824998028619,172.0914956333815L228.00332977251145,172.40299353736145L229.1816615164039,172.29755397993247L230.35999326029633,172.1752122200789L231.5383250041888,172.10860366130103L232.71665674808125,172.19250484795143L233.8949884919737,172.6462027661817L235.07332023586616,172.78764040073517L236.2516519797586,172.88230758813137L237.42998372365108,172.56450074463197L238.6083154675435,172.7939477430316L239.78664721143593,172.3993351935474L240.96497895532838,172.16334522425078L242.14331069922085,172.31946600614108L243.3216424431133,172.8613778319661L244.49997418700576,172.91315834950834L245.6783059308982,172.08941160821624L246.85663767479065,172.81017360859585L248.03496941868312,172.76456532200004L249.21330116257556,172.95872615749207L250.39163290646798,173.0694594032185L251.56996465036045,172.98814668609748L252.7482963942529,172.99769968755797L253.92662813814533,173.1292194609967L255.1049598820378,173.07160864097295L256.28329162593025,173.20752753399555L257.4616233698227,172.99666835670143L258.63995511371513,172.7705611878963L259.81828685760763,172.65431106658306L260.9966186015001,172.74418278010188L262.17495034539246,172.94429379141977L263.3532820892849,173.07691223635658L264.5316138331774,172.98681317426846L265.70994557706985,173.31293407432725L266.8882773209623,173.29653046196353L268.06660906485473,173.3107915842078L269.2449408087472,173.37355356742083L270.4232725526397,173.18109600217977L271.6016042965321,173.46160995438228L272.77993604042456,173.53087599116654L273.958267784317,173.31508093883846L275.13659952820944,173.32596051715112L276.3149312721019,173.44502222777913L277.49326301599433,173.34978793093717L278.6715947598868,173.53304999537815L279.8499265037792,173.45476694798512L281.0282582476717,173.60697608373331L282.20658999156416,173.5101347539862L283.3849217354566,173.4823873821892L284.56325347934904,173.59755439783873L285.7415852232415,173.758531944585L286.91991696713393,173.8257004738324L288.0982487110264,173.57663530096693L289.2765804549188,173.4693516722764L290.45491219881126,173.43572389002227L291.63324394270376,173.74931110114525L292.8115756865962,173.57456886236594L293.98990743048864,173.31126878410362L295.1682391743811,173.62014482987504L296.3465709182735,173.59988359045622L297.52490266216597,173.558992061802L298.7032344060584,173.4566306219648" style="fill: none;" fill="none"></path></g></g></g></g><g opacity="0.2"><g><g><g><path stroke="rgb(0, 153, 136)" stroke-width="2px" d="M5.298630176838462,121.15498120269645L6.476961920730912,125.98802249081572L7.655293664623362,134.16917163613496L8.833625408515813,130.34179885425843L10.011957152408263,127.15541126423591L11.19028889630071,101.19726016443494L12.36862064019316,106.29611346428894L13.54695238408561,90.2731103834153L14.72528412797806,89.13665240602252L15.903615871870509,81.46713492518018L17.08194761576296,43.343142270180785L18.26027935965541,46.12306754261235L19.438611103547856,93.29891975848909L20.616942847440306,12.4733210042112L21.79527459133276,40.582531343793335L22.97360633522521,19.112825962567513L24.151938079117656,30.909220066766206L25.330269823010106,16.97671909959574L26.508601566902556,55.639182935444865L27.68693331079501,62.394522410145825L28.86526505468746,92.20620006125974L30.043596798579905,89.57496328621743L31.221928542472355,82.23299566535654L32.400260286364805,106.4288751023802L33.578592030257255,117.8398433363612L34.756923774149705,122.47247121531478L35.935255518042155,132.69050273549954L37.113587261934605,140.12088015123987L38.291919005827054,143.86559980330858L39.470250749719504,151.82458240920045L40.648582493611954,153.50119499883203L41.8269142375044,157.88675547497866L43.005245981396854,160.8855216719955L44.183577725289304,162.5625261170193L45.361909469181754,162.05368642221214L46.540241213074204,163.4125158897144L47.718572956966646,164.7895666329561L48.8969047008591,165.14262963036754L50.075236444751546,164.99295504950766L51.253568188643996,165.194394501082L52.43189993253645,165.53629090881245L53.610231676428896,165.53889984076608L54.78856342032135,165.3588990039412L55.966895164213796,164.5148734249958L57.145226908106245,165.6576629605686L58.3235586519987,165.766732815405L59.501890395891145,166.1556486477099L60.6802221397836,166.3099700663627L61.858553883676045,166.18936690191404L63.036885627568495,165.2989593079056L64.21521737146095,166.4844114548101L65.3935491153534,166.67440395963828L66.57188085924585,166.5577348170881L67.7502126031383,167.17674001503232L68.92854434703075,166.62640360758516L70.1068760909232,167.15999721999984L71.28520783481564,167.01761772332554L72.4635395787081,167.26026966348073L73.64187132260054,167.12017104876887L74.820203066493,167.30985161608083L75.99853481038544,167.00393243155096L77.1768665542779,167.51032754164956L78.35519829817035,167.90182588144913L79.5335300420628,167.81304292164842L80.71186178595524,168.00987162737388L81.89019352984769,167.9647863442996L83.06852527374014,167.43310818291414L84.24685701763259,167.99607419277322L85.42518876152505,168.21295326240124L86.60352050541748,168.42611357279694L87.78185224930994,168.55073518851313L88.96018399320239,168.08198655402612L90.13851573709485,168.67652334742002L91.31684748098729,168.6693507180445L92.49517922487973,168.74365694129813L93.67351096877219,168.3367634538759L94.85184271266463,168.8133195492538L96.03017445655709,168.17846418739262L97.20850620044955,168.8110586467604L98.38683794434198,169.0089456198445L99.56516968823443,169.20128732352913L100.74350143212689,168.65473992570534L101.92183317601935,168.71729886567857L103.10016491991179,169.12730463877372L104.27849666380423,169.5875748889104L105.45682840769668,169.56420277715975L106.63516015158913,169.51733803234538L107.81349189548159,169.17886907029907L108.99182363937405,169.33206906069117L110.17015538326648,169.1907317189005L111.34848712715893,169.51069518114818L112.52681887105139,169.78569388163467L113.70515061494383,169.0545587476001L114.88348235883628,168.43627409953834L116.06181410272873,169.9482165500676L117.24014584662117,169.7450930226052L118.41847759051363,169.9869290270259L119.59680933440609,169.62450919312658L120.77514107829852,170.4517449286124L121.95347282219097,169.79118630211613L123.13180456608343,170.25487110795694L124.31013630997589,170.5585210115064L125.48846805386833,169.66388357055826L126.66679979776077,170.53616720817638L127.84513154165323,170.8174497739168L129.0234632855457,170.37284729447995L130.20179502943813,170.99073170866248L131.38012677333057,170.06753909500245L132.55845851722302,170.36171808574096L133.7367902611155,170.88222192345742L134.91512200500793,170.80484852946088L136.09345374890037,170.07554441708646L137.27178549279284,170.47326861722993L138.45011723668526,171.14615586510496L139.62844898057773,168.20830964710333L140.80678072447017,171.25010388638515L141.98511246836262,171.22908999647697L143.1634442122551,171.3201879966871L144.34177595614753,171.31679567619847L145.52010770003997,171.46057695819866L146.69843944393241,171.6304185572802L147.8767711878249,171.3528579732671L149.05510293171733,170.52913636858096L150.23343467560977,171.86733252283477L151.41176641950221,171.77036313673096L152.59009816339469,171.26934862653724L153.76842990728713,171.5898164092527L154.94676165117957,171.69811479878567L156.12509339507204,171.02004481219888L157.30342513896449,171.9697166672905L158.4817568828569,172.12210781143708L159.66008862674937,172.14839499216657L160.8384203706418,172.36827549363946L162.01675211453426,172.4190030432128L163.19508385842673,172.23940759625916L164.37341560231917,172.40922921587165L165.5517473462116,172.05369939853617L166.73007909010408,172.51343697024902L167.90841083399653,172.40223253472328L169.086742577889,172.46516496186726L170.2650743217814,172.30934830553352L171.44340606567386,172.3178025211713L172.6217378095663,172.41208531319197L173.80006955345877,172.55937009175832L174.9784012973512,172.62911068409306L176.15673304124365,172.32869681002464L177.33506478513613,172.66878475355995L178.51339652902857,172.53950727706487L179.69172827292104,172.86212929768922L180.87006001681348,172.9287598600975L182.0483917607059,172.35358220542827L183.22672350459834,172.7052166708053L184.4050552484908,172.683985584734L185.58338699238325,169.50032519223168L186.76171873627572,173.33057405089752L187.94005048016817,173.19490894480944L189.1183822240606,172.94776001287892L190.29671396795308,172.78627434333762L191.47504571184552,173.57529547734302L192.65337745573794,173.50322469887232L193.8317091996304,173.16637214031903L195.01004094352285,172.8751372210144L196.1883726874153,173.35977662285535L197.36670443130777,173.3488839452495L198.5450361752002,173.33435435978438L199.72336791909265,172.13573026455913L200.90169966298512,172.7168730797266L202.08003140687757,172.15143541620097L203.25836315077004,173.73794640107704L204.43669489466245,173.7638823298513L205.6150266385549,173.6297891568252L206.79335838244734,173.64570441514118L207.9716901263398,173.20030887968431L209.15002187023225,173.84913665762477L210.32835361412472,173.83268227589497L211.50668535801717,173.8562322693697L212.6850171019096,174.08872400503304L213.86334884580208,173.31596615880386L215.04168058969452,173.91938447067284L216.22001233358694,173.61660754101942L217.39834407747938,173.73780525579596L218.57667582137185,171.94003587707437L219.7550075652643,174.34262873661052L220.93333930915676,172.7213355908054L222.1116710530492,173.87569517243344L223.29000279694165,173.6272633652426L224.46833454083412,173.99035251135385L225.64666628472656,174.43681147016136L226.824998028619,173.90135557788503L228.00332977251145,174.56163288056766L229.1816615164039,173.10994303033866L230.35999326029633,173.93391727863295L231.5383250041888,173.48977916072587L232.71665674808125,174.33523520520265L233.8949884919737,174.6381711649844L235.07332023586616,174.65126641792412L236.2516519797586,174.5244725183271L237.42998372365108,173.98721380122188L238.6083154675435,174.4246407510377L239.78664721143593,172.9006825833944L240.96497895532838,173.93953118717596L242.14331069922085,174.05159618999198L243.3216424431133,174.71180437015684L244.49997418700576,174.20213149926693L245.6783059308982,174.44354229547207L246.85663767479065,174.71944393905812L248.03496941868312,174.80649222979923L249.21330116257556,174.24336187269503L250.39163290646798,174.9718631004397L251.56996465036045,174.64100953858218L252.7482963942529,174.79246180880992L253.92662813814533,174.46869290221437L255.1049598820378,174.96883024926854L256.28329162593025,175.0513461007893L257.4616233698227,175.1818901789449L258.63995511371513,175.04256335178604L259.81828685760763,174.9885235607249L260.9966186015001,175.1697233268153L262.17495034539246,174.28671506470573L263.3532820892849,175.02582474599706L264.5316138331774,174.8015929095229L265.70994557706985,174.8357882541121L266.8882773209623,174.8382616801509L268.06660906485473,175.06484609910126L269.2449408087472,174.9775293745265L270.4232725526397,175.17665845830913L271.6016042965321,175.24558714302813L272.77993604042456,175.23768929115244L273.958267784317,175.2323420440708L275.13659952820944,175.38676988562105L276.3149312721019,175.39702926239661L277.49326301599433,175.37517905447302L278.6715947598868,175.39367375891337L279.8499265037792,175.40410876166655L281.0282582476717,175.42413817935162L282.20658999156416,175.4182798445627L283.3849217354566,175.41385978985554L284.56325347934904,175.41373765729497L285.7415852232415,175.38376523128116L286.91991696713393,175.389260310321L288.0982487110264,175.43390612563937L289.2765804549188,175.44275018261004L290.45491219881126,175.45030669170265L291.63324394270376,175.4636494322585L292.8115756865962,175.46082886294562L293.98990743048864,175.4220383210459L295.1682391743811,175.45819640677848L296.3465709182735,175.41811622237896L297.52490266216597,175.46859177284313L298.7032344060584,175.401855351474" style="fill: none;" fill="none"></path></g><g><path stroke="rgb(238, 51, 119)" stroke-width="2px" d="M5.298630176838462,126.41001981231241L6.476961920730912,134.36448319121348L7.655293664623362,136.7242363633175L8.833625408515813,139.7245467799393L10.011957152408263,141.12311734480448L11.19028889630071,142.5944234888593L12.36862064019316,144.96128935193178L13.54695238408561,145.68953455244855L14.72528412797806,146.4705900010584L15.903615871870509,147.95692586180266L17.08194761576296,149.81544442730433L18.26027935965541,150.9585691023573L19.438611103547856,151.8823913915407L20.616942847440306,154.37544500290036L21.79527459133276,155.55261211515466L22.97360633522521,156.88528136823052L24.151938079117656,158.07104609715023L25.330269823010106,158.59546977778714L26.508601566902556,159.12553926966763L27.68693331079501,159.6074891771799L28.86526505468746,159.94335694126056L30.043596798579905,160.53470539809945L31.221928542472355,161.02465611620275L32.400260286364805,161.24683038961808L33.578592030257255,161.9789425841373L34.756923774149705,162.1553071576019L35.935255518042155,161.88546444911864L37.113587261934605,162.31475621030188L38.291919005827054,162.37569616878613L39.470250749719504,163.21216177445675L40.648582493611954,162.83143559094995L41.8269142375044,162.63496264867274L43.005245981396854,162.79636582234198L44.183577725289304,163.12960531949898L45.361909469181754,162.8816949119995L46.540241213074204,163.15956034403976L47.718572956966646,163.46646561204025L48.8969047008591,162.9469259448284L50.075236444751546,163.15874311930725L51.253568188643996,163.6548629818424L52.43189993253645,163.34592238599865L53.610231676428896,163.692475943506L54.78856342032135,163.83042579855052L55.966895164213796,163.54525174784567L57.145226908106245,164.08572345359266L58.3235586519987,164.05331288786033L59.501890395891145,164.04377559165232L60.6802221397836,164.33400638151437L61.858553883676045,163.86859947434448L63.036885627568495,164.34739907074277L64.21521737146095,164.6417739891774L65.3935491153534,164.74632461702296L66.57188085924585,164.34240678148564L67.7502126031383,164.28667308592668L68.92854434703075,165.05862820865084L70.1068760909232,164.71680785180246L71.28520783481564,164.76411150043612L72.4635395787081,165.30989774494046L73.64187132260054,164.51731994320136L74.820203066493,165.56130907101013L75.99853481038544,165.09286399555234L77.1768665542779,165.53907901148818L78.35519829817035,165.85432151855792L79.5335300420628,165.56104353742197L80.71186178595524,165.8853876593754L81.89019352984769,165.9120267365591L83.06852527374014,165.81119422344688L84.24685701763259,165.77736575991364L85.42518876152505,165.27447736887623L86.60352050541748,166.40016770146926L87.78185224930994,166.24426726026547L88.96018399320239,166.16371777519498L90.13851573709485,166.3615925027981L91.31684748098729,166.10104346990065L92.49517922487973,166.79710883532724L93.67351096877219,165.98900698616538L94.85184271266463,166.58129447804788L96.03017445655709,166.64923240667846L97.20850620044955,166.69590766878676L98.38683794434198,166.84382727886853L99.56516968823443,166.53212758280404L100.74350143212689,166.58368621383838L101.92183317601935,166.68490607084985L103.10016491991179,167.47810452512635L104.27849666380423,167.13190350857224L105.45682840769668,167.04726661084115L106.63516015158913,166.86871911926215L107.81349189548159,166.98422429661758L108.99182363937405,167.13965812054508L110.17015538326648,167.46348084280717L111.34848712715893,168.08560283791738L112.52681887105139,167.4786523492767L113.70515061494383,167.27735210948643L114.88348235883628,167.48523268407084L116.06181410272873,167.5810097470239L117.24014584662117,167.48832241227876L118.41847759051363,167.8415413784483L119.59680933440609,167.7161889008657L120.77514107829852,167.77787067769935L121.95347282219097,167.70668511860572L123.13180456608343,167.82131377732063L124.31013630997589,167.6823965292765L125.48846805386833,168.18023140365173L126.66679979776077,167.91572450239283L127.84513154165323,168.61509614769147L129.0234632855457,168.40907044123026L130.20179502943813,168.1959687802436L131.38012677333057,168.96994698533004L132.55845851722302,168.37928620892455L133.7367902611155,168.81625910919465L134.91512200500793,168.89904371679856L136.09345374890037,168.8563791719698L137.27178549279284,168.9435901987085L138.45011723668526,168.92497771207582L139.62844898057773,168.57391008356964L140.80678072447017,169.15716427746247L141.98511246836262,169.4266737799625L143.1634442122551,169.30413518501564L144.34177595614753,169.35505253954457L145.52010770003997,169.47768909833948L146.69843944393241,169.66748438647355L147.8767711878249,169.20642784755637L149.05510293171733,169.15376518973432L150.23343467560977,169.35362110726467L151.41176641950221,169.61437702434122L152.59009816339469,169.68583198401703L153.76842990728713,169.66145445382577L154.94676165117957,169.97065671626368L156.12509339507204,169.680991152025L157.30342513896449,170.219875456734L158.4817568828569,169.52575776728665L159.66008862674937,169.69970160250574L160.8384203706418,169.90556231722286L162.01675211453426,169.71423505496486L163.19508385842673,169.76238428628704L164.37341560231917,170.03890658241048L165.5517473462116,170.05782713956535L166.73007909010408,169.500786009017L167.90841083399653,170.25787189530283L169.086742577889,170.43904829830447L170.2650743217814,170.4236570176758L171.44340606567386,170.09707326169595L172.6217378095663,170.1326689414883L173.80006955345877,170.33059136201743L174.9784012973512,170.39631350308466L176.15673304124365,170.32419728743443L177.33506478513613,170.16522451949572L178.51339652902857,170.68007094498662L179.69172827292104,171.17866697268136L180.87006001681348,170.47662001203201L182.0483917607059,170.13657138293573L183.22672350459834,170.88388666437547L184.4050552484908,170.99909086069772L185.58338699238325,170.70126593911394L186.76171873627572,170.9210774791938L187.94005048016817,171.39697231859728L189.1183822240606,171.02305075553676L190.29671396795308,171.3670346955295L191.47504571184552,171.24705153911924L192.65337745573794,171.17042254146816L193.8317091996304,171.4878795471033L195.01004094352285,170.93425812825106L196.1883726874153,170.96107250916288L197.36670443130777,171.04539553588074L198.5450361752002,171.46237478816028L199.72336791909265,171.391767989169L200.90169966298512,171.62411213456122L202.08003140687757,171.2586299636615L203.25836315077004,171.59223650299924L204.43669489466245,171.1967483921377L205.6150266385549,171.07742520270384L206.79335838244734,171.54553739442795L207.9716901263398,171.61665495887706L209.15002187023225,171.76589675865816L210.32835361412472,171.4766053260892L211.50668535801717,171.80229677320298L212.6850171019096,172.0561333490112L213.86334884580208,172.19469676710412L215.04168058969452,171.99271271387443L216.22001233358694,171.82945209408604L217.39834407747938,171.62669915354886L218.57667582137185,171.8790282461951L219.7550075652643,171.88095529820635L220.93333930915676,171.77955079223122L222.1116710530492,171.77303265159063L223.29000279694165,171.9328658256949L224.46833454083412,172.17436121239385L225.64666628472656,171.93124748870486L226.824998028619,172.12196731065498L228.00332977251145,172.48038190551628L229.1816615164039,172.27135863420418L230.35999326029633,172.1448177004648L231.5383250041888,172.09205546754723L232.71665674808125,172.21334921267479L233.8949884919737,172.7589192277645L235.07332023586616,172.82277908897004L236.2516519797586,172.90582665216613L237.42998372365108,172.48554498700852L238.6083154675435,172.8509514292757L239.78664721143593,172.30129786851947L240.96497895532838,172.10471600591117L242.14331069922085,172.3582525674347L243.3216424431133,172.99601010829468L244.49997418700576,172.9260226728428L245.6783059308982,171.88476042030473L246.85663767479065,172.98923932404594L248.03496941868312,172.75323442433142L249.21330116257556,173.00696336880657L250.39163290646798,173.0969699099595L251.56996465036045,172.96794539932208L252.7482963942529,173.00007302999325L253.92662813814533,173.16189416126423L255.1049598820378,173.05729584049263L256.28329162593025,173.24129514911604L257.4616233698227,172.94428261852224L258.63995511371513,172.71438724708204L259.81828685760763,172.62542995030176L260.9966186015001,172.76651045924075L262.17495034539246,172.99400926114794L263.3532820892849,173.1098598899676L264.5316138331774,172.96442901277587L265.70994557706985,173.39395537159527L266.8882773209623,173.29245515751862L268.06660906485473,173.31433460958434L269.2449408087472,173.38914612005425L270.4232725526397,173.13328195039077L271.6016042965321,173.53130068657742L272.77993604042456,173.54808440729644L273.958267784317,173.26146893457718L275.13659952820944,173.32866343361084L276.3149312721019,173.47460185376536L277.49326301599433,173.32612797454323L278.6715947598868,173.57857952199956L279.8499265037792,173.4353183506927L281.0282582476717,173.6447908378081L282.20658999156416,173.48607554722005L283.3849217354566,173.47549384038192L284.56325347934904,173.62616642794393L285.7415852232415,173.79852511787152L286.91991696713393,173.84238778634204L288.0982487110264,173.51475768623504L289.2765804549188,173.44269818649687L290.45491219881126,173.42736942227123L291.63324394270376,173.827218535619L292.8115756865962,173.53115599655183L293.98990743048864,173.2458546572944L295.1682391743811,173.6968818250168L296.3465709182735,173.5948498992648L297.52490266216597,173.54883299288542L298.7032344060584,173.43120000208015" style="fill: none;" fill="none"></path></g></g></g></g></g></g><g transform="translate(20, 177)" clip-path="url(#clip_1)"><clipPath id="clip_1"><rect width="309" height="23"></rect></clipPath><g><g><line x1="5.298630176838462" y1="0" x2="5.298630176838462" y2="5" style="visibility: inherit;" fill="rgb(0, 0, 0)" stroke="rgb(204, 204, 204)" stroke-width="1px"></line><line x1="28.86526505468746" y1="0" x2="28.86526505468746" y2="5" style="visibility: inherit;" fill="rgb(0, 0, 0)" stroke="rgb(204, 204, 204)" stroke-width="1px"></line><line x1="52.43189993253645" y1="0" x2="52.43189993253645" y2="5" style="visibility: inherit;" fill="rgb(0, 0, 0)" stroke="rgb(204, 204, 204)" stroke-width="1px"></line><line x1="75.99853481038544" y1="0" x2="75.99853481038544" y2="5" style="visibility: inherit;" fill="rgb(0, 0, 0)" stroke="rgb(204, 204, 204)" stroke-width="1px"></line><line x1="99.56516968823443" y1="0" x2="99.56516968823443" y2="5" style="visibility: inherit;" fill="rgb(0, 0, 0)" stroke="rgb(204, 204, 204)" stroke-width="1px"></line><line x1="123.13180456608343" y1="0" x2="123.13180456608343" y2="5" style="visibility: inherit;" fill="rgb(0, 0, 0)" stroke="rgb(204, 204, 204)" stroke-width="1px"></line><line x1="146.69843944393241" y1="0" x2="146.69843944393241" y2="5" style="visibility: inherit;" fill="rgb(0, 0, 0)" stroke="rgb(204, 204, 204)" stroke-width="1px"></line><line x1="170.2650743217814" y1="0" x2="170.2650743217814" y2="5" style="visibility: inherit;" fill="rgb(0, 0, 0)" stroke="rgb(204, 204, 204)" stroke-width="1px"></line><line x1="193.8317091996304" y1="0" x2="193.8317091996304" y2="5" style="visibility: inherit;" fill="rgb(0, 0, 0)" stroke="rgb(204, 204, 204)" stroke-width="1px"></line><line x1="217.39834407747938" y1="0" x2="217.39834407747938" y2="5" style="visibility: inherit;" fill="rgb(0, 0, 0)" stroke="rgb(204, 204, 204)" stroke-width="1px"></line><line x1="240.96497895532838" y1="0" x2="240.96497895532838" y2="5" style="visibility: inherit;" fill="rgb(0, 0, 0)" stroke="rgb(204, 204, 204)" stroke-width="1px"></line><line x1="264.5316138331774" y1="0" x2="264.5316138331774" y2="5" style="visibility: inherit;" fill="rgb(0, 0, 0)" stroke="rgb(204, 204, 204)" stroke-width="1px"></line><line x1="288.0982487110264" y1="0" x2="288.0982487110264" y2="5" style="visibility: inherit;" fill="rgb(0, 0, 0)" stroke="rgb(204, 204, 204)" stroke-width="1px"></line></g><g transform="translate(0, 8)"><text x="5.298630176838462" y="0" dx="0em" dy="0.95em" style="text-anchor: middle; visibility: inherit; font-family: Roboto, sans-serif; font-size: 12px; font-weight: 200;" fill="rgb(33, 33, 33)" stroke="none" stroke-width="1px">0</text><text x="28.86526505468746" y="0" dx="0em" dy="0.95em" style="text-anchor: middle; visibility: hidden; font-family: Roboto, sans-serif; font-size: 12px; font-weight: 200;" fill="rgb(33, 33, 33)" stroke="none" stroke-width="1px">20</text><text x="52.43189993253645" y="0" dx="0em" dy="0.95em" style="text-anchor: middle; visibility: inherit; font-family: Roboto, sans-serif; font-size: 12px; font-weight: 200;" fill="rgb(33, 33, 33)" stroke="none" stroke-width="1px">40</text><text x="75.99853481038544" y="0" dx="0em" dy="0.95em" style="text-anchor: middle; visibility: hidden; font-family: Roboto, sans-serif; font-size: 12px; font-weight: 200;" fill="rgb(33, 33, 33)" stroke="none" stroke-width="1px">60</text><text x="99.56516968823443" y="0" dx="0em" dy="0.95em" style="text-anchor: middle; visibility: inherit; font-family: Roboto, sans-serif; font-size: 12px; font-weight: 200;" fill="rgb(33, 33, 33)" stroke="none" stroke-width="1px">80</text><text x="123.13180456608343" y="0" dx="0em" dy="0.95em" style="text-anchor: middle; visibility: hidden; font-family: Roboto, sans-serif; font-size: 12px; font-weight: 200;" fill="rgb(33, 33, 33)" stroke="none" stroke-width="1px">100</text><text x="146.69843944393241" y="0" dx="0em" dy="0.95em" style="text-anchor: middle; visibility: inherit; font-family: Roboto, sans-serif; font-size: 12px; font-weight: 200;" fill="rgb(33, 33, 33)" stroke="none" stroke-width="1px">120</text><text x="170.2650743217814" y="0" dx="0em" dy="0.95em" style="text-anchor: middle; visibility: hidden; font-family: Roboto, sans-serif; font-size: 12px; font-weight: 200;" fill="rgb(33, 33, 33)" stroke="none" stroke-width="1px">140</text><text x="193.8317091996304" y="0" dx="0em" dy="0.95em" style="text-anchor: middle; visibility: inherit; font-family: Roboto, sans-serif; font-size: 12px; font-weight: 200;" fill="rgb(33, 33, 33)" stroke="none" stroke-width="1px">160</text><text x="217.39834407747938" y="0" dx="0em" dy="0.95em" style="text-anchor: middle; visibility: hidden; font-family: Roboto, sans-serif; font-size: 12px; font-weight: 200;" fill="rgb(33, 33, 33)" stroke="none" stroke-width="1px">180</text><text x="240.96497895532838" y="0" dx="0em" dy="0.95em" style="text-anchor: middle; visibility: inherit; font-family: Roboto, sans-serif; font-size: 12px; font-weight: 200;" fill="rgb(33, 33, 33)" stroke="none" stroke-width="1px">200</text><text x="264.5316138331774" y="0" dx="0em" dy="0.95em" style="text-anchor: middle; visibility: hidden; font-family: Roboto, sans-serif; font-size: 12px; font-weight: 200;" fill="rgb(33, 33, 33)" stroke="none" stroke-width="1px">220</text><text x="288.0982487110264" y="0" dx="0em" dy="0.95em" style="text-anchor: middle; visibility: inherit; font-family: Roboto, sans-serif; font-size: 12px; font-weight: 200;" fill="rgb(33, 33, 33)" stroke="none" stroke-width="1px">240</text></g><line x1="0" y1="0" x2="309.609375" y2="0" fill="rgb(0, 0, 0)" stroke="rgb(204, 204, 204)" stroke-width="1px"></line></g></g></g></g></svg>