<svg viewBox="0 0 330 200" xmlns="http://www.w3.org/2000/svg"><g><g><g><g><g><line x1="41.171875" y1="176.76565561772637" x2="36.171875" y2="176.76565561772637" style="visibility: inherit;" fill="rgb(0, 0, 0)" stroke="rgb(204, 204, 204)" stroke-width="1px"></line><line x1="41.171875" y1="161.5847683583884" x2="36.171875" y2="161.5847683583884" style="visibility: inherit;" fill="rgb(0, 0, 0)" stroke="rgb(204, 204, 204)" stroke-width="1px"></line><line x1="41.171875" y1="146.40388109905044" x2="36.171875" y2="146.40388109905044" style="visibility: inherit;" fill="rgb(0, 0, 0)" stroke="rgb(204, 204, 204)" stroke-width="1px"></line><line x1="41.171875" y1="131.2229938397125" x2="36.171875" y2="131.2229938397125" style="visibility: inherit;" fill="rgb(0, 0, 0)" stroke="rgb(204, 204, 204)" stroke-width="1px"></line><line x1="41.171875" y1="116.04210658037456" x2="36.171875" y2="116.04210658037456" style="visibility: inherit;" fill="rgb(0, 0, 0)" stroke="rgb(204, 204, 204)" stroke-width="1px"></line><line x1="41.171875" y1="100.8612193210366" x2="36.171875" y2="100.8612193210366" style="visibility: inherit;" fill="rgb(0, 0, 0)" stroke="rgb(204, 204, 204)" stroke-width="1px"></line><line x1="41.171875" y1="85.68033206169865" x2="36.171875" y2="85.68033206169865" style="visibility: inherit;" fill="rgb(0, 0, 0)" stroke="rgb(204, 204, 204)" stroke-width="1px"></line><line x1="41.171875" y1="70.49944480236071" x2="36.171875" y2="70.49944480236071" style="visibility: inherit;" fill="rgb(0, 0, 0)" stroke="rgb(204, 204, 204)" stroke-width="1px"></line><line x1="41.171875" y1="55.31855754302275" x2="36.171875" y2="55.31855754302275" style="visibility: inherit;" fill="rgb(0, 0, 0)" stroke="rgb(204, 204, 204)" stroke-width="1px"></line><line x1="41.171875" y1="40.137670283684805" x2="36.171875" y2="40.137670283684805" style="visibility: inherit;" fill="rgb(0, 0, 0)" stroke="rgb(204, 204, 204)" stroke-width="1px"></line><line x1="41.171875" y1="24.95678302434684" x2="36.171875" y2="24.95678302434684" style="visibility: inherit;" fill="rgb(0, 0, 0)" stroke="rgb(204, 204, 204)" stroke-width="1px"></line><line x1="41.171875" y1="9.775895765008876" x2="36.171875" y2="9.775895765008876" style="visibility: inherit;" fill="rgb(0, 0, 0)" stroke="rgb(204, 204, 204)" stroke-width="1px"></line></g><g transform="translate(31.171875, 0)"><text x="0" y="176.76565561772637" dx="0em" dy="0.3em" style="text-anchor: end; visibility: hidden; font-family: Roboto, sans-serif; font-size: 12px; font-weight: 200;" fill="rgb(33, 33, 33)" stroke="none" stroke-width="1px">0</text><text x="0" y="161.5847683583884" dx="0em" dy="0.3em" style="text-anchor: end; visibility: inherit; font-family: Roboto, sans-serif; font-size: 12px; font-weight: 200;" fill="rgb(33, 33, 33)" stroke="none" stroke-width="1px">0.1</text><text x="0" y="146.40388109905044" dx="0em" dy="0.3em" style="text-anchor: end; visibility: hidden; font-family: Roboto, sans-serif; font-size: 12px; font-weight: 200;" fill="rgb(33, 33, 33)" stroke="none" stroke-width="1px">0.2</text><text x="0" y="131.2229938397125" dx="0em" dy="0.3em" style="text-anchor: end; visibility: inherit; font-family: Roboto, sans-serif; font-size: 12px; font-weight: 200;" fill="rgb(33, 33, 33)" stroke="none" stroke-width="1px">0.3</text><text x="0" y="116.04210658037456" dx="0em" dy="0.3em" style="text-anchor: end; visibility: hidden; font-family: Roboto, sans-serif; font-size: 12px; font-weight: 200;" fill="rgb(33, 33, 33)" stroke="none" stroke-width="1px">0.4</text><text x="0" y="100.8612193210366" dx="0em" dy="0.3em" style="text-anchor: end; visibility: inherit; font-family: Roboto, sans-serif; font-size: 12px; font-weight: 200;" fill="rgb(33, 33, 33)" stroke="none" stroke-width="1px">0.5</text><text x="0" y="85.68033206169865" dx="0em" dy="0.3em" style="text-anchor: end; visibility: hidden; font-family: Roboto, sans-serif; font-size: 12px; font-weight: 200;" fill="rgb(33, 33, 33)" stroke="none" stroke-width="1px">0.6</text><text x="0" y="70.49944480236071" dx="0em" dy="0.3em" style="text-anchor: end; visibility: inherit; font-family: Roboto, sans-serif; font-size: 12px; font-weight: 200;" fill="rgb(33, 33, 33)" stroke="none" stroke-width="1px">0.7</text><text x="0" y="55.31855754302275" dx="0em" dy="0.3em" style="text-anchor: end; visibility: hidden; font-family: Roboto, sans-serif; font-size: 12px; font-weight: 200;" fill="rgb(33, 33, 33)" stroke="none" stroke-width="1px">0.8</text><text x="0" y="40.137670283684805" dx="0em" dy="0.3em" style="text-anchor: end; visibility: inherit; font-family: Roboto, sans-serif; font-size: 12px; font-weight: 200;" fill="rgb(33, 33, 33)" stroke="none" stroke-width="1px">0.9</text><text x="0" y="24.95678302434684" dx="0em" dy="0.3em" style="text-anchor: end; visibility: hidden; font-family: Roboto, sans-serif; font-size: 12px; font-weight: 200;" fill="rgb(33, 33, 33)" stroke="none" stroke-width="1px">1</text><text x="0" y="9.775895765008876" dx="0em" dy="0.3em" style="text-anchor: end; visibility: inherit; font-family: Roboto, sans-serif; font-size: 12px; font-weight: 200;" fill="rgb(33, 33, 33)" stroke="none" stroke-width="1px">1.1</text></g><line x1="41.171875" y1="0" x2="41.171875" y2="177" fill="rgb(0, 0, 0)" stroke="rgb(204, 204, 204)" stroke-width="1px"></line></g></g><g transform="translate(41, 0)" clip-path="url(#clip_0)"><clipPath id="clip_0"><rect width="288" height="177"></rect></clipPath><g><g><g><line x1="14.158117049313224" y1="0" x2="14.158117049313224" y2="177" fill="rgb(0, 0, 0)" stroke="rgb(66, 66, 66)" stroke-width="1px" opacity="0.25"></line><line x1="35.50814451024631" y1="0" x2="35.50814451024631" y2="177" fill="rgb(0, 0, 0)" stroke="rgb(66, 66, 66)" stroke-width="1px" opacity="0.25"></line><line x1="56.858171971179395" y1="0" x2="56.858171971179395" y2="177" fill="rgb(0, 0, 0)" stroke="rgb(66, 66, 66)" stroke-width="1px" opacity="0.25"></line><line x1="78.20819943211248" y1="0" x2="78.20819943211248" y2="177" fill="rgb(0, 0, 0)" stroke="rgb(66, 66, 66)" stroke-width="1px" opacity="0.25"></line><line x1="99.55822689304557" y1="0" x2="99.55822689304557" y2="177" fill="rgb(0, 0, 0)" stroke="rgb(66, 66, 66)" stroke-width="1px" opacity="0.25"></line><line x1="120.90825435397866" y1="0" x2="120.90825435397866" y2="177" fill="rgb(0, 0, 0)" stroke="rgb(66, 66, 66)" stroke-width="1px" opacity="0.25"></line><line x1="142.25828181491175" y1="0" x2="142.25828181491175" y2="177" fill="rgb(0, 0, 0)" stroke="rgb(66, 66, 66)" stroke-width="1px" opacity="0.25"></line><line x1="163.60830927584485" y1="0" x2="163.60830927584485" y2="177" fill="rgb(0, 0, 0)" stroke="rgb(66, 66, 66)" stroke-width="1px" opacity="0.25"></line><line x1="184.9583367367779" y1="0" x2="184.9583367367779" y2="177" fill="rgb(0, 0, 0)" stroke="rgb(66, 66, 66)" stroke-width="1px" opacity="0.25"></line><line x1="206.308364197711" y1="0" x2="206.308364197711" y2="177" fill="rgb(0, 0, 0)" stroke="rgb(66, 66, 66)" stroke-width="1px" opacity="0.25"></line><line x1="227.6583916586441" y1="0" x2="227.6583916586441" y2="177" fill="rgb(0, 0, 0)" stroke="rgb(66, 66, 66)" stroke-width="1px" opacity="0.25"></line><line x1="249.00841911957716" y1="0" x2="249.00841911957716" y2="177" fill="rgb(0, 0, 0)" stroke="rgb(66, 66, 66)" stroke-width="1px" opacity="0.25"></line><line x1="270.35844658051025" y1="0" x2="270.35844658051025" y2="177" fill="rgb(0, 0, 0)" stroke="rgb(66, 66, 66)" stroke-width="1px" opacity="0.25"></line></g><g><line x1="0" y1="176.76565561772637" x2="288.828125" y2="176.76565561772637" fill="rgb(0, 0, 0)" stroke="rgb(66, 66, 66)" stroke-width="1px" opacity="0.25"></line><line x1="0" y1="161.5847683583884" x2="288.828125" y2="161.5847683583884" fill="rgb(0, 0, 0)" stroke="rgb(66, 66, 66)" stroke-width="1px" opacity="0.25"></line><line x1="0" y1="146.40388109905044" x2="288.828125" y2="146.40388109905044" fill="rgb(0, 0, 0)" stroke="rgb(66, 66, 66)" stroke-width="1px" opacity="0.25"></line><line x1="0" y1="131.2229938397125" x2="288.828125" y2="131.2229938397125" fill="rgb(0, 0, 0)" stroke="rgb(66, 66, 66)" stroke-width="1px" opacity="0.25"></line><line x1="0" y1="116.04210658037456" x2="288.828125" y2="116.04210658037456" fill="rgb(0, 0, 0)" stroke="rgb(66, 66, 66)" stroke-width="1px" opacity="0.25"></line><line x1="0" y1="100.8612193210366" x2="288.828125" y2="100.8612193210366" fill="rgb(0, 0, 0)" stroke="rgb(66, 66, 66)" stroke-width="1px" opacity="0.25"></line><line x1="0" y1="85.68033206169865" x2="288.828125" y2="85.68033206169865" fill="rgb(0, 0, 0)" stroke="rgb(66, 66, 66)" stroke-width="1px" opacity="0.25"></line><line x1="0" y1="70.49944480236071" x2="288.828125" y2="70.49944480236071" fill="rgb(0, 0, 0)" stroke="rgb(66, 66, 66)" stroke-width="1px" opacity="0.25"></line><line x1="0" y1="55.31855754302275" x2="288.828125" y2="55.31855754302275" fill="rgb(0, 0, 0)" stroke="rgb(66, 66, 66)" stroke-width="1px" opacity="0.25"></line><line x1="0" y1="40.137670283684805" x2="288.828125" y2="40.137670283684805" fill="rgb(0, 0, 0)" stroke="rgb(66, 66, 66)" stroke-width="1px" opacity="0.25"></line><line x1="0" y1="24.95678302434684" x2="288.828125" y2="24.95678302434684" fill="rgb(0, 0, 0)" stroke="rgb(66, 66, 66)" stroke-width="1px" opacity="0.25"></line><line x1="0" y1="9.775895765008876" x2="288.828125" y2="9.775895765008876" fill="rgb(0, 0, 0)" stroke="rgb(66, 66, 66)" stroke-width="1px" opacity="0.25"></line></g></g></g><g><g><line x1="0" y1="176.76565561772637" x2="288.828125" y2="176.76565561772637" fill="rgb(0, 0, 0)" stroke="rgb(153, 153, 153)" stroke-width="1.5px"></line></g></g><g><g><line x1="14.158117049313224" y1="0" x2="14.158117049313224" y2="177" fill="rgb(0, 0, 0)" stroke="rgb(153, 153, 153)" stroke-width="1.5px"></line></g></g><g><g><g><g><g><path stroke="rgb(0, 153, 136)" stroke-width="2px" d="M15.182918367438011,107.32386703335006L16.2077196855628,107.32386703335006L17.232521003687587,107.32386703335006L18.257322321812378,107.32386703335006L19.282123639937165,107.32386703335006L20.306924958061952,107.32386703335006L21.331726276186743,107.32386703335006L22.35652759431153,107.32386703335006L23.381328912436317,107.32386703335006L24.406130230561107,107.32386703335006L25.430931548685894,107.32386703335006L26.45573286681068,107.32386703335006L27.480534184935472,107.32386703335006L28.50533550306026,107.32386703335006L29.530136821185042,107.32386703335006L30.554938139309833,107.12086535623904L31.57973945743462,106.47145574330533L32.60454077555941,106.54522853137196L33.6293420936842,107.37192327249608L34.65414341180899,107.53643552597975L35.678944729933775,105.33613689656605L36.70374604805856,104.49227049116331L37.72854736618335,103.10632376596972L38.75334868430814,102.62751506661655L39.77815000243292,101.92322348018605L40.80295132055772,102.1890764326358L41.827752638682504,95.54287871446219L42.852553956807284,90.97222954335021L43.877355274932086,86.40861117888392L44.90215659305687,81.44038859072053L45.92695791118166,77.20366371834024L46.951759229306454,70.27046166828465L47.976560547431234,65.03368997986895L49.00136186555603,60.94652913757808L50.026163183680815,60.94519808626106L51.050964501805595,58.10288798393281L52.07576581993039,53.88320909415448L53.10056713805518,52.63748239300934L54.12536845617996,50.15655345948419L55.15016977430475,52.3018885237892L56.174971092429544,51.91679624528706L57.199772410554324,51.231154226605895L58.22457372867912,51.500714819107955L59.249375046803905,51.35135932383588L60.27417636492869,51.72764093449634L61.29897768305348,52.208524329237356L62.32377900117827,50.07119080479357L63.34858031930305,49.64586143342925L64.37338163742784,47.53118962171044L65.39818295555264,50.96742716377338L66.42298427367741,49.62120716782658L67.44778559180222,49.96231804389242L68.472586909927,49.01518709875068L69.49738822805179,47.811688783329L70.52218954617658,46.96318396330086L71.54699086430136,45.9823175478164L72.57179218242615,48.020161698991934L73.59659350055095,46.80166477247817L74.62139481867572,44.935163219363844L75.64619613680051,45.17273806555334L76.67099745492531,47.85905538202159L77.6957987730501,45.754592605922255L78.72060009117487,43.508771299841136L79.74540140929967,45.294889427787915L80.77020272742446,43.82330096947167L81.79500404554923,44.34246882256557L82.81980536367404,47.89683710370663L83.84460668179882,43.73207990172025L84.86940799992361,42.70028791748533L85.89420931804841,41.88595265736335L86.91901063617318,42.12990329481869L87.94381195429797,43.39646678219074L88.96861327242277,42.430495605659345L89.99341459054754,42.238267341529586L91.01821590867233,41.79401056274816L92.04301722679713,42.517617420069506L93.06781854492192,42.25560458259721L94.09261986304669,42.60947463001948L95.1174211811715,42.47688946841689L96.14222249929628,42.04449441917872L97.16702381742107,41.75544975120033L98.19182513554586,43.727961129089955L99.21662645367064,42.90247358277153L100.24142777179543,41.520177002676064L101.26622908992023,40.23008797375825L102.291030408045,39.9733602570036L103.31583172616979,39.71926614032979L104.34063304429459,39.46569611007209L105.36543436241938,41.0392635866485L106.39023568054415,40.74339485922796L107.41503699866895,40.075508327212056L108.43983831679374,39.9425989073409L109.46463963491853,41.54017059752458L110.48944095304331,43.07611192224927L111.5142422711681,40.94572237697291L112.53904358929289,41.536794114801374L113.56384490741769,40.84240343433041L114.58864622554246,41.31322834417589L115.61344754366725,39.17388593337823L116.63824886179205,39.96617410414792L117.66305017991684,39.51483079487189L118.68785149804161,37.39498220950864L119.71265281616641,39.61217226309789L120.7374541342912,39.85039503058218L121.76225545241597,38.07076814767424L122.78705677054077,38.12263300005481L123.81185808866556,37.523945450419326L124.83665940679035,39.63783594803912L125.86146072491513,39.043488147586636L126.88626204303992,38.72220763425697L127.91106336116471,37.23725020054629L128.9358646792895,39.98679419539362L129.96066599741428,39.31593613984981L130.98546731553907,37.964410828418494L132.01026863366386,42.97354438345637L133.03506995178864,37.67726285941736L134.05987126991343,36.217292234054334L135.08467258803825,36.94177733694557L136.109473906163,36.47694121716171L137.1342752242878,36.58744413036435L138.1590765424126,35.5944149527532L139.1838778605374,37.223828112186254L140.20867917866215,38.3600952872123L141.23348049678697,36.7591864892648L142.25828181491175,35.01958302691515L143.28308313303654,36.50042790368526L144.30788445116133,35.37409342260443L145.33268576928612,36.9769860745067L146.3574870874109,38.10797566853407L147.38228840553566,36.91201998618745L148.40708972366045,34.64398629072351L149.43189104178526,33.58363893006697L150.45669235991005,33.57563510633595L151.48149367803484,31.950014432815763L152.50629499615962,34.46856114190139L153.5310963142844,34.15773798071059L154.5558976324092,35.92291738527096L155.580698950534,34.44715487314113L156.60550026865877,33.74747477900772L157.63030158678356,33.40523313923553L158.65510290490835,33.54013235396048L159.67990422303313,35.19100521028844L160.70470554115795,34.50450965135922L161.72950685928274,32.946874423574265L162.75430817740752,34.05792762480312L163.77910949553228,34.27902721184766L164.80391081365707,34.12002072862988L165.82871213178186,33.27637173003037L166.85351344990667,32.90548027826942L167.87831476803146,31.20764496677129L168.90311608615625,33.91482626393894L169.92791740428103,32.220518774218384L170.95271872240582,33.710377549541654L171.97752004053058,38.878935935764474L173.0023213586554,31.990359288393215L174.02712267678018,32.64956380238364L175.05192399490497,32.983750801707366L176.07672531302975,32.64424341249353L177.10152663115454,30.546650175222652L178.12632794927933,29.52022046574654L179.15112926740414,30.93998886615849L180.1759305855289,32.44054008835893L181.2007319036537,30.506113213719868L182.22553322177848,30.93317622196557L183.25033453990326,31.8301757169053L184.27513585802805,34.241715184255234L185.29993717615287,31.87956631514172L186.32473849427765,32.627516000706585L187.34953981240244,29.93431276501785L188.3743411305272,28.992361966896183L189.399142448652,30.022931068588427L190.42394376677677,29.416000363526315L191.4487450849016,31.122247118996654L192.47354640302638,29.43175895651791L193.49834772115116,30.51637442374273L194.52314903927595,30.326209547500888L195.5479503574007,28.86734412557068L196.5727516755255,31.825078483942328L197.5975529936503,28.353605087623674L198.6223543117751,28.88079919227471L199.64715562989988,29.391721421179504L200.67195694802467,33.14744687628693L201.69675826614946,29.022759751919832L202.72155958427425,31.65300814040584L203.74636090239903,29.94339100185761L204.77116222052382,30.00918054550611L205.7959635386486,29.81926736365253L206.8207648567734,27.34544001942678L207.84556617489818,27.86816038740466L208.87036749302297,27.363173085373063L209.89516881114778,31.728753747982623L210.91997012927257,30.567473033024637L211.94477144739733,30.74238152496757L212.96957276552212,29.153167650126164L213.9943740836469,27.821894831694248L215.0191754017717,26.947962885567065L216.0439767198965,28.195073039845834L217.0687780380213,29.661265271065773L218.09357935614608,28.532014913520474L219.11838067427084,31.352344616524725L220.14318199239563,31.101576271123722L221.1679833105204,29.224647404611243L222.19278462864523,28.039124603876395L223.21758594677001,28.818217576009005L224.2423872648948,28.161243121164528L225.2671885830196,28.03050520465047L226.29198990114438,28.00448835926417L227.31679121926913,29.217335565410416L228.34159253739395,27.022650290536976L229.36639385551874,28.006930532395234L230.39119517364352,26.375776334747343L231.4159964917683,28.284213217272345L232.4407978098931,27.242969545336745L233.46559912801789,26.832756753581915L234.4904004461427,25.939110451723867L235.51520176426746,26.776294094992593L236.54000308239225,26.94289364000309L237.56480440051703,26.570036347380903L238.58960571864182,28.525869012966414L239.6144070367666,27.291059048679877L240.63920835489142,27.857338574226038L241.6640096730162,27.361019544550512L242.688810991141,27.871260712904306L243.71361230926576,26.754781394888244L244.73841362739054,27.344615966901923L245.76321494551533,27.055989692513037L246.78801626364015,26.59254246183039L247.81281758176493,26.500316462924545L248.83761889988972,26.684968790181905L249.8624202180145,25.909700647007256L250.88722153613926,25.958427587555146L251.91202285426405,25.765118947684538L252.93682417238887,25.52364522731067L253.96162549051365,25.47559195695627L254.98642680863844,25.466029356155737L256.0112281267632,25.46412639859644L257.036029444888,26.072763613161012L258.0608307630128,25.787871816780104L259.0856320811376,25.934183650339936L260.1104333992624,25.760294404178715L261.13523471738716,25.72569044419261L262.16003603551195,25.718804256155394L263.18483735363674,26.123444506815243L264.2096386717615,25.59495201357768L265.2344399898863,26.098797910542284L266.2592413080111,25.590047340919355L267.2840426261359,25.488805977564407L268.3088439442607,25.468658946256767L269.33364526238546,25.667654988066158L270.35844658051025,25.910260501425856" style="fill: none;" fill="none"></path></g></g></g></g><g opacity="0.2"><g><g><g><path stroke="rgb(0, 153, 136)" stroke-width="2px" d="M15.182918367438011,107.32386703335006L16.2077196855628,107.32386703335006L17.232521003687587,107.32386703335006L18.257322321812378,107.32386703335006L19.282123639937165,107.32386703335006L20.306924958061952,107.32386703335006L21.331726276186743,107.32386703335006L22.35652759431153,107.32386703335006L23.381328912436317,107.32386703335006L24.406130230561107,107.32386703335006L25.430931548685894,107.32386703335006L26.45573286681068,107.32386703335006L27.480534184935472,107.32386703335006L28.50533550306026,107.32386703335006L29.530136821185042,107.32386703335006L30.554938139309833,107.07043173109064L31.57973945743462,106.31011677579843L32.60454077555941,106.56355660231482L33.6293420936842,107.57730685986645L34.65414341180899,107.57730685986645L35.678944729933775,104.78949591372796L36.70374604805856,104.28262078495214L37.72854736618335,102.76199992288166L38.75334868430814,102.50856009636529L39.77815000243292,101.74824966533005L40.80295132055772,102.25512479410585L41.827752638682504,93.8917010042043L42.852553956807284,89.8366999739978L43.877355274932086,85.27482833927245L44.90215659305687,80.20608610002823L45.92695791118166,76.15109411833565L46.951759229306454,68.54798075946934L47.976560547431234,63.73266929822758L49.00136186555603,59.9311171430514L50.026163183680815,60.944867400603016L51.050964501805595,57.39674602342929L52.07576581993039,52.83487438870393L53.10056713805518,52.32799473567116L54.12536845617996,49.54019283804659L55.15016977430475,52.83487438870393L56.174971092429544,51.8211241311523L57.199772410554324,51.06081370011706L58.22457372867912,51.56768430463592L59.249375046803905,51.31425352663344L60.27417636492869,51.8211241311523L61.29897768305348,52.32799473567116L62.32377900117827,49.54019283804659L63.34858031930305,49.54019283804659L64.37338163742784,47.00582171842448L65.39818295555264,51.8211241311523L66.42298427367741,49.28675301153021L67.44778559180222,50.04706344256543L68.472586909927,48.77988240701135L69.49738822805179,47.51269232294333L70.52218954617658,46.75238189190809L71.54699086430136,45.73863163435646L72.57179218242615,48.526442580494965L73.59659350055095,46.4989420653917L74.62139481867572,44.47145059880238L75.64619613680051,45.23176102983762L76.67099745492531,48.526442580494965L77.6957987730501,45.23176102983762L78.72060009117487,42.95082068821798L79.74540140929967,45.73863163435646L80.77020272742446,43.45770034125075L81.79500404554923,44.47145059880238L82.81980536367404,48.77988240701135L83.84460668179882,42.697389910215506L84.86940799992361,42.44395008369912L85.89420931804841,41.68363965266388L86.91901063617318,42.19051025718274L87.94381195429797,43.711131119253224L88.96861327242277,42.19051025718274L89.99341459054754,42.19051025718274L91.01821590867233,41.68363965266388L92.04301722679713,42.697389910215506L93.06781854492192,42.19051025718274L94.09261986304669,42.697389910215506L95.1174211811715,42.44395008369912L96.14222249929628,41.937070430666346L97.16702381742107,41.68363965266388L98.19182513554586,44.21801077228599L99.21662645367064,42.697389910215506L100.24142777179543,41.1767599996311L101.26622908992023,39.90957896407703L102.291030408045,39.90957896407703L103.31583172616979,39.656139137560636L104.34063304429459,39.40269931104425L105.36543436241938,41.43019982614749L106.39023568054415,40.66988939511227L107.41503699866895,39.90957896407703L108.43983831679374,39.90957896407703L109.46463963491853,41.937070430666346L110.48944095304331,43.45770034125075L111.5142422711681,40.41644956859588L112.53904358929289,41.68363965266388L113.56384490741769,40.66988939511227L114.58864622554246,41.43019982614749L115.61344754366725,38.64238888000901L116.63824886179205,40.163009742079474L117.66305017991684,39.40269931104425L118.68785149804161,36.86832819142214L119.71265281616641,40.163009742079474L120.7374541342912,39.90957896407703L121.76225545241597,37.62863862245738L122.78705677054077,38.13551827549015L123.81185808866556,37.37520784445491L124.83665940679035,40.163009742079474L125.86146072491513,38.89582870652539L126.88626204303992,38.64238888000901L127.91106336116471,36.86832819142214L128.9358646792895,40.66988939511227L129.96066599741428,39.149268533041784L130.98546731553907,37.62863862245738L132.01026863366386,44.21801077228599L133.03506995178864,36.3614575869033L134.05987126991343,35.85457793387051L135.08467258803825,37.12176801793852L136.109473906163,36.3614575869033L137.1342752242878,36.61489741341968L138.1590765424126,35.34770732935167L139.1838778605374,37.62863862245738L140.20867917866215,38.64238888000901L141.23348049678697,36.3614575869033L142.25828181491175,34.58739689831643L143.28308313303654,36.86832819142214L144.30788445116133,35.09426750283529L145.33268576928612,37.37520784445491L146.3574870874109,38.38895810200654L147.38228840553566,36.61489741341968L148.40708972366045,34.08051724528365L149.43189104178526,33.32020681424841L150.45669235991005,33.5736466407648L151.48149367803484,31.546146125661537L152.50629499615962,35.09426750283529L153.5310963142844,34.08051724528365L154.5558976324092,36.3614575869033L155.580698950534,34.08051724528365L156.60550026865877,33.5736466407648L157.63030158678356,33.32020681424841L158.65510290490835,33.5736466407648L159.67990422303313,35.601147155868055L160.70470554115795,34.33395707180004L161.72950685928274,32.559896383213164L162.75430817740752,34.33395707180004L163.77910949553228,34.33395707180004L164.80391081365707,34.08051724528365L165.82871213178186,33.06677603624594L166.85351344990667,32.813336209729556L167.87831476803146,30.785835694626314L168.90311608615625,34.58739689831643L169.92791740428103,31.799585952177924L170.95271872240582,34.08051724528365L171.97752004053058,40.163009742079474L173.0023213586554,30.27896509010746L174.02712267678018,32.813336209729556L175.05192399490497,33.06677603624594L176.07672531302975,32.559896383213164L177.10152663115454,30.02552526359107L178.12632794927933,29.265214832555827L179.15112926740414,31.292715347659087L180.1759305855289,32.813336209729556L181.2007319036537,30.02552526359107L182.22553322177848,31.039275521142702L183.25033453990326,32.05302577869431L184.27513585802805,34.84083672483281L185.29993717615287,31.292715347659087L186.32473849427765,32.813336209729556L187.34953981240244,29.265214832555827L188.3743411305272,28.75834422803697L189.399142448652,30.27896509010746L190.42394376677677,29.265214832555827L191.4487450849016,31.546146125661537L192.47354640302638,29.011775006039443L193.49834772115116,30.785835694626314L194.52314903927595,30.27896509010746L195.5479503574007,28.504904401520584L196.5727516755255,32.559896383213164L197.5975529936503,27.491154143968956L198.6223543117751,29.011775006039443L199.64715562989988,29.518654659072215L200.67195694802467,34.08051724528365L201.69675826614946,27.99802474848781L202.72155958427425,32.30646560521072L203.74636090239903,29.518654659072215L204.77116222052382,30.02552526359107L205.7959635386486,29.772085437074686L206.8207648567734,26.730843712933734L207.84556617489818,27.99802474848781L208.87036749302297,27.237714317452568L209.89516881114778,32.813336209729556L210.91997012927257,30.27896509010746L211.94477144739733,30.785835694626314L212.96957276552212,28.75834422803697L213.9943740836469,27.491154143968956L215.0191754017717,26.730843712933734L216.0439767198965,28.504904401520584L217.0687780380213,30.02552526359107L218.09357935614608,28.2514645750042L219.11838067427084,32.05302577869431L220.14318199239563,31.039275521142702L221.1679833105204,28.75834422803697L222.19278462864523,27.744593970485344L223.21758594677001,29.011775006039443L224.2423872648948,27.99802474848781L225.2671885830196,27.99802474848781L226.29198990114438,27.99802474848781L227.31679121926913,29.518654659072215L228.34159253739395,26.477403886417324L229.36639385551874,28.2514645750042L230.39119517364352,25.97053328189849L231.4159964917683,28.75834422803697L232.4407978098931,26.984283539450118L233.46559912801789,26.730843712933734L234.4904004461427,25.717093455382102L235.51520176426746,26.984283539450118L236.54000308239225,26.984283539450118L237.56480440051703,26.477403886417324L238.58960571864182,29.011775006039443L239.6144070367666,26.984283539450118L240.63920835489142,27.99802474848781L241.6640096730162,27.237714317452568L242.688810991141,27.99802474848781L243.71361230926576,26.477403886417324L244.73841362739054,27.491154143968956L245.76321494551533,26.984283539450118L246.78801626364015,26.477403886417324L247.81281758176493,26.477403886417324L248.83761889988972,26.730843712933734L249.8624202180145,25.717093455382102L250.88722153613926,25.97053328189849L251.91202285426405,25.717093455382102L252.93682417238887,25.463653628865718L253.96162549051365,25.463653628865718L254.98642680863844,25.463653628865718L256.0112281267632,25.463653628865718L257.036029444888,26.223973108414874L258.0608307630128,25.717093455382102L259.0856320811376,25.97053328189849L260.1104333992624,25.717093455382102L261.13523471738716,25.717093455382102L262.16003603551195,25.717093455382102L263.18483735363674,26.223973108414874L264.2096386717615,25.463653628865718L265.2344399898863,26.223973108414874L266.2592413080111,25.463653628865718L267.2840426261359,25.463653628865718L268.3088439442607,25.463653628865718L269.33364526238546,25.717093455382102L270.35844658051025,25.97053328189849" style="fill: none;" fill="none"></path></g></g></g></g></g></g><g transform="translate(41, 177)" clip-path="url(#clip_1)"><clipPath id="clip_1"><rect width="288" height="23"></rect></clipPath><g><g><line x1="14.158117049313224" y1="0" x2="14.158117049313224" y2="5" style="visibility: inherit;" fill="rgb(0, 0, 0)" stroke="rgb(204, 204, 204)" stroke-width="1px"></line><line x1="35.50814451024631" y1="0" x2="35.50814451024631" y2="5" style="visibility: inherit;" fill="rgb(0, 0, 0)" stroke="rgb(204, 204, 204)" stroke-width="1px"></line><line x1="56.858171971179395" y1="0" x2="56.858171971179395" y2="5" style="visibility: inherit;" fill="rgb(0, 0, 0)" stroke="rgb(204, 204, 204)" stroke-width="1px"></line><line x1="78.20819943211248" y1="0" x2="78.20819943211248" y2="5" style="visibility: inherit;" fill="rgb(0, 0, 0)" stroke="rgb(204, 204, 204)" stroke-width="1px"></line><line x1="99.55822689304557" y1="0" x2="99.55822689304557" y2="5" style="visibility: inherit;" fill="rgb(0, 0, 0)" stroke="rgb(204, 204, 204)" stroke-width="1px"></line><line x1="120.90825435397866" y1="0" x2="120.90825435397866" y2="5" style="visibility: inherit;" fill="rgb(0, 0, 0)" stroke="rgb(204, 204, 204)" stroke-width="1px"></line><line x1="142.25828181491175" y1="0" x2="142.25828181491175" y2="5" style="visibility: inherit;" fill="rgb(0, 0, 0)" stroke="rgb(204, 204, 204)" stroke-width="1px"></line><line x1="163.60830927584485" y1="0" x2="163.60830927584485" y2="5" style="visibility: inherit;" fill="rgb(0, 0, 0)" stroke="rgb(204, 204, 204)" stroke-width="1px"></line><line x1="184.9583367367779" y1="0" x2="184.9583367367779" y2="5" style="visibility: inherit;" fill="rgb(0, 0, 0)" stroke="rgb(204, 204, 204)" stroke-width="1px"></line><line x1="206.308364197711" y1="0" x2="206.308364197711" y2="5" style="visibility: inherit;" fill="rgb(0, 0, 0)" stroke="rgb(204, 204, 204)" stroke-width="1px"></line><line x1="227.6583916586441" y1="0" x2="227.6583916586441" y2="5" style="visibility: inherit;" fill="rgb(0, 0, 0)" stroke="rgb(204, 204, 204)" stroke-width="1px"></line><line x1="249.00841911957716" y1="0" x2="249.00841911957716" y2="5" style="visibility: inherit;" fill="rgb(0, 0, 0)" stroke="rgb(204, 204, 204)" stroke-width="1px"></line><line x1="270.35844658051025" y1="0" x2="270.35844658051025" y2="5" style="visibility: inherit;" fill="rgb(0, 0, 0)" stroke="rgb(204, 204, 204)" stroke-width="1px"></line></g><g transform="translate(0, 8)"><text x="14.158117049313224" y="0" dx="0em" dy="0.95em" style="text-anchor: middle; visibility: inherit; font-family: Roboto, sans-serif; font-size: 12px; font-weight: 200;" fill="rgb(33, 33, 33)" stroke="none" stroke-width="1px">0</text><text x="35.50814451024631" y="0" dx="0em" dy="0.95em" style="text-anchor: middle; visibility: hidden; font-family: Roboto, sans-serif; font-size: 12px; font-weight: 200;" fill="rgb(33, 33, 33)" stroke="none" stroke-width="1px">500</text><text x="56.858171971179395" y="0" dx="0em" dy="0.95em" style="text-anchor: middle; visibility: inherit; font-family: Roboto, sans-serif; font-size: 12px; font-weight: 200;" fill="rgb(33, 33, 33)" stroke="none" stroke-width="1px">1k</text><text x="78.20819943211248" y="0" dx="0em" dy="0.95em" style="text-anchor: middle; visibility: hidden; font-family: Roboto, sans-serif; font-size: 12px; font-weight: 200;" fill="rgb(33, 33, 33)" stroke="none" stroke-width="1px">1.5k</text><text x="99.55822689304557" y="0" dx="0em" dy="0.95em" style="text-anchor: middle; visibility: inherit; font-family: Roboto, sans-serif; font-size: 12px; font-weight: 200;" fill="rgb(33, 33, 33)" stroke="none" stroke-width="1px">2k</text><text x="120.90825435397866" y="0" dx="0em" dy="0.95em" style="text-anchor: middle; visibility: hidden; font-family: Roboto, sans-serif; font-size: 12px; font-weight: 200;" fill="rgb(33, 33, 33)" stroke="none" stroke-width="1px">2.5k</text><text x="142.25828181491175" y="0" dx="0em" dy="0.95em" style="text-anchor: middle; visibility: inherit; font-family: Roboto, sans-serif; font-size: 12px; font-weight: 200;" fill="rgb(33, 33, 33)" stroke="none" stroke-width="1px">3k</text><text x="163.60830927584485" y="0" dx="0em" dy="0.95em" style="text-anchor: middle; visibility: hidden; font-family: Roboto, sans-serif; font-size: 12px; font-weight: 200;" fill="rgb(33, 33, 33)" stroke="none" stroke-width="1px">3.5k</text><text x="184.9583367367779" y="0" dx="0em" dy="0.95em" style="text-anchor: middle; visibility: inherit; font-family: Roboto, sans-serif; font-size: 12px; font-weight: 200;" fill="rgb(33, 33, 33)" stroke="none" stroke-width="1px">4k</text><text x="206.308364197711" y="0" dx="0em" dy="0.95em" style="text-anchor: middle; visibility: hidden; font-family: Roboto, sans-serif; font-size: 12px; font-weight: 200;" fill="rgb(33, 33, 33)" stroke="none" stroke-width="1px">4.5k</text><text x="227.6583916586441" y="0" dx="0em" dy="0.95em" style="text-anchor: middle; visibility: inherit; font-family: Roboto, sans-serif; font-size: 12px; font-weight: 200;" fill="rgb(33, 33, 33)" stroke="none" stroke-width="1px">5k</text><text x="249.00841911957716" y="0" dx="0em" dy="0.95em" style="text-anchor: middle; visibility: hidden; font-family: Roboto, sans-serif; font-size: 12px; font-weight: 200;" fill="rgb(33, 33, 33)" stroke="none" stroke-width="1px">5.5k</text><text x="270.35844658051025" y="0" dx="0em" dy="0.95em" style="text-anchor: middle; visibility: inherit; font-family: Roboto, sans-serif; font-size: 12px; font-weight: 200;" fill="rgb(33, 33, 33)" stroke="none" stroke-width="1px">6k</text></g><line x1="0" y1="0" x2="288.828125" y2="0" fill="rgb(0, 0, 0)" stroke="rgb(204, 204, 204)" stroke-width="1px"></line></g></g></g></g></svg>