<svg viewBox="0 0 330 200" xmlns="http://www.w3.org/2000/svg"><g><g><g><g><g><line x1="40" y1="166.74096080737206" x2="35" y2="166.74096080737206" style="visibility: inherit;" fill="rgb(0, 0, 0)" stroke="rgb(204, 204, 204)" stroke-width="1px"></line><line x1="40" y1="151.12749732948996" x2="35" y2="151.12749732948996" style="visibility: inherit;" fill="rgb(0, 0, 0)" stroke="rgb(204, 204, 204)" stroke-width="1px"></line><line x1="40" y1="135.51403385160782" x2="35" y2="135.51403385160782" style="visibility: inherit;" fill="rgb(0, 0, 0)" stroke="rgb(204, 204, 204)" stroke-width="1px"></line><line x1="40" y1="119.90057037372571" x2="35" y2="119.90057037372571" style="visibility: inherit;" fill="rgb(0, 0, 0)" stroke="rgb(204, 204, 204)" stroke-width="1px"></line><line x1="40" y1="104.28710689584359" x2="35" y2="104.28710689584359" style="visibility: inherit;" fill="rgb(0, 0, 0)" stroke="rgb(204, 204, 204)" stroke-width="1px"></line><line x1="40" y1="88.67364341796149" x2="35" y2="88.67364341796149" style="visibility: inherit;" fill="rgb(0, 0, 0)" stroke="rgb(204, 204, 204)" stroke-width="1px"></line><line x1="40" y1="73.06017994007937" x2="35" y2="73.06017994007937" style="visibility: inherit;" fill="rgb(0, 0, 0)" stroke="rgb(204, 204, 204)" stroke-width="1px"></line><line x1="40" y1="57.446716462197244" x2="35" y2="57.446716462197244" style="visibility: inherit;" fill="rgb(0, 0, 0)" stroke="rgb(204, 204, 204)" stroke-width="1px"></line><line x1="40" y1="41.83325298431511" x2="35" y2="41.83325298431511" style="visibility: inherit;" fill="rgb(0, 0, 0)" stroke="rgb(204, 204, 204)" stroke-width="1px"></line><line x1="40" y1="26.219789506432992" x2="35" y2="26.219789506432992" style="visibility: inherit;" fill="rgb(0, 0, 0)" stroke="rgb(204, 204, 204)" stroke-width="1px"></line><line x1="40" y1="10.606326028550876" x2="35" y2="10.606326028550876" style="visibility: inherit;" fill="rgb(0, 0, 0)" stroke="rgb(204, 204, 204)" stroke-width="1px"></line></g><g transform="translate(30, 0)"><text x="0" y="166.74096080737206" dx="0em" dy="0.3em" style="text-anchor: end; visibility: inherit; font-family: Roboto, sans-serif; font-size: 12px; font-weight: 200;" fill="rgb(33, 33, 33)" stroke="none" stroke-width="1px">0</text><text x="0" y="151.12749732948996" dx="0em" dy="0.3em" style="text-anchor: end; visibility: hidden; font-family: Roboto, sans-serif; font-size: 12px; font-weight: 200;" fill="rgb(33, 33, 33)" stroke="none" stroke-width="1px">0.1</text><text x="0" y="135.51403385160782" dx="0em" dy="0.3em" style="text-anchor: end; visibility: inherit; font-family: Roboto, sans-serif; font-size: 12px; font-weight: 200;" fill="rgb(33, 33, 33)" stroke="none" stroke-width="1px">0.2</text><text x="0" y="119.90057037372571" dx="0em" dy="0.3em" style="text-anchor: end; visibility: hidden; font-family: Roboto, sans-serif; font-size: 12px; font-weight: 200;" fill="rgb(33, 33, 33)" stroke="none" stroke-width="1px">0.3</text><text x="0" y="104.28710689584359" dx="0em" dy="0.3em" style="text-anchor: end; visibility: inherit; font-family: Roboto, sans-serif; font-size: 12px; font-weight: 200;" fill="rgb(33, 33, 33)" stroke="none" stroke-width="1px">0.4</text><text x="0" y="88.67364341796149" dx="0em" dy="0.3em" style="text-anchor: end; visibility: hidden; font-family: Roboto, sans-serif; font-size: 12px; font-weight: 200;" fill="rgb(33, 33, 33)" stroke="none" stroke-width="1px">0.5</text><text x="0" y="73.06017994007937" dx="0em" dy="0.3em" style="text-anchor: end; visibility: inherit; font-family: Roboto, sans-serif; font-size: 12px; font-weight: 200;" fill="rgb(33, 33, 33)" stroke="none" stroke-width="1px">0.6</text><text x="0" y="57.446716462197244" dx="0em" dy="0.3em" style="text-anchor: end; visibility: hidden; font-family: Roboto, sans-serif; font-size: 12px; font-weight: 200;" fill="rgb(33, 33, 33)" stroke="none" stroke-width="1px">0.7</text><text x="0" y="41.83325298431511" dx="0em" dy="0.3em" style="text-anchor: end; visibility: inherit; font-family: Roboto, sans-serif; font-size: 12px; font-weight: 200;" fill="rgb(33, 33, 33)" stroke="none" stroke-width="1px">0.8</text><text x="0" y="26.219789506432992" dx="0em" dy="0.3em" style="text-anchor: end; visibility: hidden; font-family: Roboto, sans-serif; font-size: 12px; font-weight: 200;" fill="rgb(33, 33, 33)" stroke="none" stroke-width="1px">0.9</text><text x="0" y="10.606326028550876" dx="0em" dy="0.3em" style="text-anchor: end; visibility: inherit; font-family: Roboto, sans-serif; font-size: 12px; font-weight: 200;" fill="rgb(33, 33, 33)" stroke="none" stroke-width="1px">1</text></g><line x1="40" y1="0" x2="40" y2="177" fill="rgb(0, 0, 0)" stroke="rgb(204, 204, 204)" stroke-width="1px"></line></g></g><g transform="translate(40, 0)" clip-path="url(#clip_0)"><clipPath id="clip_0"><rect width="290" height="177"></rect></clipPath><g><g><g><line x1="15.370583212739541" y1="0" x2="15.370583212739541" y2="177" fill="rgb(0, 0, 0)" stroke="rgb(66, 66, 66)" stroke-width="1px" opacity="0.25"></line><line x1="45.0283178298779" y1="0" x2="45.0283178298779" y2="177" fill="rgb(0, 0, 0)" stroke="rgb(66, 66, 66)" stroke-width="1px" opacity="0.25"></line><line x1="74.68605244701624" y1="0" x2="74.68605244701624" y2="177" fill="rgb(0, 0, 0)" stroke="rgb(66, 66, 66)" stroke-width="1px" opacity="0.25"></line><line x1="104.3437870641546" y1="0" x2="104.3437870641546" y2="177" fill="rgb(0, 0, 0)" stroke="rgb(66, 66, 66)" stroke-width="1px" opacity="0.25"></line><line x1="134.00152168129296" y1="0" x2="134.00152168129296" y2="177" fill="rgb(0, 0, 0)" stroke="rgb(66, 66, 66)" stroke-width="1px" opacity="0.25"></line><line x1="163.65925629843127" y1="0" x2="163.65925629843127" y2="177" fill="rgb(0, 0, 0)" stroke="rgb(66, 66, 66)" stroke-width="1px" opacity="0.25"></line><line x1="193.31699091556968" y1="0" x2="193.31699091556968" y2="177" fill="rgb(0, 0, 0)" stroke="rgb(66, 66, 66)" stroke-width="1px" opacity="0.25"></line><line x1="222.97472553270802" y1="0" x2="222.97472553270802" y2="177" fill="rgb(0, 0, 0)" stroke="rgb(66, 66, 66)" stroke-width="1px" opacity="0.25"></line><line x1="252.63246014984637" y1="0" x2="252.63246014984637" y2="177" fill="rgb(0, 0, 0)" stroke="rgb(66, 66, 66)" stroke-width="1px" opacity="0.25"></line><line x1="282.29019476698477" y1="0" x2="282.29019476698477" y2="177" fill="rgb(0, 0, 0)" stroke="rgb(66, 66, 66)" stroke-width="1px" opacity="0.25"></line></g><g><line x1="0" y1="166.74096080737206" x2="290" y2="166.74096080737206" fill="rgb(0, 0, 0)" stroke="rgb(66, 66, 66)" stroke-width="1px" opacity="0.25"></line><line x1="0" y1="151.12749732948996" x2="290" y2="151.12749732948996" fill="rgb(0, 0, 0)" stroke="rgb(66, 66, 66)" stroke-width="1px" opacity="0.25"></line><line x1="0" y1="135.51403385160782" x2="290" y2="135.51403385160782" fill="rgb(0, 0, 0)" stroke="rgb(66, 66, 66)" stroke-width="1px" opacity="0.25"></line><line x1="0" y1="119.90057037372571" x2="290" y2="119.90057037372571" fill="rgb(0, 0, 0)" stroke="rgb(66, 66, 66)" stroke-width="1px" opacity="0.25"></line><line x1="0" y1="104.28710689584359" x2="290" y2="104.28710689584359" fill="rgb(0, 0, 0)" stroke="rgb(66, 66, 66)" stroke-width="1px" opacity="0.25"></line><line x1="0" y1="88.67364341796149" x2="290" y2="88.67364341796149" fill="rgb(0, 0, 0)" stroke="rgb(66, 66, 66)" stroke-width="1px" opacity="0.25"></line><line x1="0" y1="73.06017994007937" x2="290" y2="73.06017994007937" fill="rgb(0, 0, 0)" stroke="rgb(66, 66, 66)" stroke-width="1px" opacity="0.25"></line><line x1="0" y1="57.446716462197244" x2="290" y2="57.446716462197244" fill="rgb(0, 0, 0)" stroke="rgb(66, 66, 66)" stroke-width="1px" opacity="0.25"></line><line x1="0" y1="41.83325298431511" x2="290" y2="41.83325298431511" fill="rgb(0, 0, 0)" stroke="rgb(66, 66, 66)" stroke-width="1px" opacity="0.25"></line><line x1="0" y1="26.219789506432992" x2="290" y2="26.219789506432992" fill="rgb(0, 0, 0)" stroke="rgb(66, 66, 66)" stroke-width="1px" opacity="0.25"></line><line x1="0" y1="10.606326028550876" x2="290" y2="10.606326028550876" fill="rgb(0, 0, 0)" stroke="rgb(66, 66, 66)" stroke-width="1px" opacity="0.25"></line></g></g></g><g><g><line x1="0" y1="166.74096080737206" x2="290" y2="166.74096080737206" fill="rgb(0, 0, 0)" stroke="rgb(153, 153, 153)" stroke-width="1.5px"></line></g></g><g><g><line x1="15.370583212739541" y1="0" x2="15.370583212739541" y2="177" fill="rgb(0, 0, 0)" stroke="rgb(153, 153, 153)" stroke-width="1.5px"></line></g></g><g><g><g><g><g><path stroke="rgb(0, 119, 187)" stroke-width="2px" d="M15.370583212739541,140.6750788628389L16.85346994359646,139.69760826083655L18.336356674453377,140.0633283562637L19.819243405310296,118.54303676946225L21.30213013616721,107.56634397536159L22.785016867024126,101.55333288514532L24.26790359788105,98.13024471545363L25.750790328737963,96.13876719963358L27.233677059594882,94.96550609640673L28.716563790451797,94.26916268084535L30.19945052130872,101.28372538760905L31.682337252165635,98.05728151188218L33.16522398302255,95.3951166090937L34.64811071387947,94.53046193139923L36.13099744473639,104.44335944693685L37.613884175593306,118.00149987048549L39.096770906450224,126.75962286712203L40.579657637307136,132.4306449001468L42.062544368164055,122.7991540620091L43.54543109902097,128.5943098058678L45.0283178298779,114.45034515341976L46.51120456073481,105.96416494085548L47.99409129159173,100.8725282996734L49.47697802244865,97.81757204960986L50.95986475330556,95.98460756394861L52.44275148416248,94.36351381913752L53.9256382150194,89.01178563249294L55.40852494587632,87.99028818445544L56.891411676733235,103.7467697211772L58.37429840759015,94.8502719176174L59.85718513844707,100.04299049357941L61.34007186930398,103.1586211983343L62.8229586001609,108.67722399308671L64.30584533101782,109.90311358308566L65.78873206187474,111.36849219842028L67.27161879273166,100.77873238743373L68.75450552358858,93.48650246043037L70.2373922544455,92.23907140176793L71.72027898530241,91.49061276953489L73.20316571615933,90.20742996352858L74.68605244701624,89.54178489772724L76.16893917787316,88.20402375362694L77.65182590873007,82.9180369445976L79.134712639587,80.58055434818992L80.61759937044391,77.92690055864156L82.10048610130083,75.50059879714846L83.58337283215775,78.31962235149379L85.06625956301468,80.8451459719408L86.54914629387159,77.87713002242566L88.0320330247285,76.40911058006796L89.51491975558542,74.58992481014681L90.99780648644234,73.28988783749689L92.48069321729926,71.36296603869549L93.96357994815618,71.24944795800874L95.4464666790131,72.43250134143045L96.92935340987,71.47411439570517L98.41224014072692,70.37776659024459L99.89512687158384,72.32654726471576L101.37801360244076,78.7089906623529L102.86090033329768,74.61442773361226L104.3437870641546,71.63637433834248L105.8266737950115,69.43248755723634L107.30956052586842,70.19542548575438L108.79244725672535,68.56791824568353L110.27533398758227,67.90420402896427L111.75822071843919,68.6528751141446L113.24110744929611,68.58075840468749L114.72399418015303,70.51849748211366L116.20688091100995,72.20245656659492L117.68976764186685,78.11321688291457L119.17265437272377,78.94882282087816L120.65554110358069,74.6540624121066L122.1384278344376,71.66015514543912L123.62131456529453,68.6126465536058L125.10420129615144,67.09693152582908L126.58708802700836,66.29176712578406L128.06997475786528,65.39161374181275L129.5528614887222,65.68563119931854L131.03574821957912,66.5918865450896L132.51863495043605,66.1972656480426L134.00152168129296,65.0221227278446L135.48440841214986,64.62982710304907L136.9672951430068,64.29018511155074L138.4501818738637,64.08639991665173L139.93306860472063,63.96412879971233L141.41595533557754,64.0992953627907L142.89884206643447,64.91024017190531L144.38172879729137,64.56269756948551L145.86461552814828,63.728591753387065L147.3475022590052,64.06223775161656L148.83038898986212,65.0965311159031L150.31327572071905,65.61284251785399L151.79616245157595,65.29704910437799L153.27904918243289,64.89904754559012L154.7619359132898,64.24319186637311L156.24482264414672,64.37099781940822L157.72770937500363,65.49031638982011L159.21059610586056,66.26616842614848L160.69348283671746,65.58478375527343L162.1763695675744,65.4887430800717L163.65925629843127,64.59700918706203L165.1421430292882,63.95770423463523L166.62502976014514,63.78265049642119L168.10791649100204,64.92877876278587L169.59080322185898,66.76335533781652L171.07368995271588,68.1768914101582L172.5565766835728,68.39943279891665L174.03946341442972,68.22016750484845L175.52235014528665,66.96570871319568L177.00523687614356,66.00450792750175L178.4881236070005,65.11499360622236L179.9710103378574,64.89407886331776L181.45389706871433,64.97005552827724L182.93678379957123,65.22416703795521L184.41967053042816,64.85531830573646L185.90255726128504,64.6340090664052L187.38544399214197,64.70974903350869L188.86833072299888,64.65093211968956L190.35121745385584,64.19858722745379L191.83410418471274,64.03144118619358L193.31699091556968,64.55673753862375L194.79987764642658,64.55912522275858L196.2827643772835,64.66481872732075L197.76565110814042,64.72823483005803L199.24853783899735,64.7662844917004L200.73142456985425,64.78911428868582L202.2143113007112,64.69855127279584L203.6971980315681,64.64421346326183L205.18008476242503,64.61161077754144L206.66297149328196,64.59204916610923L208.14585822413886,64.37178296600783L209.6287449549958,64.6566779898913L211.11163168585267,64.9318796208424L212.5945184167096,65.20126149349431L214.0774051475665,65.05010048976216L215.56029187842344,64.85514299344165L217.04317860928035,65.05095862297262L218.52606534013728,64.95991876744915L220.00895207099418,65.0095594707561L221.49183880185112,64.93507927611924L222.97472553270802,64.89039115933713L224.45761226356495,64.75931739518661L225.94049899442186,64.6806731366963L227.4233857252788,64.63348658160213L228.90627245613567,64.60517464854561L230.3891591869926,64.58818748871172L231.87204591784953,64.78652070351363L233.35493264870644,64.5927305050715L234.83781937956337,64.78924651332949L236.32070611042028,64.8028915016633" style="fill: none;" fill="none"></path></g><g><path stroke="rgb(255, 112, 67)" stroke-width="2px" d="M15.370583212739541,103.17884538224969L16.85346994359646,98.16721625424478L18.336356674453377,97.56435800017347L19.819243405310296,94.99150704930722L21.30213013616721,92.57644889536395L22.785016867024126,90.10465996124438L24.26790359788105,88.16096407217015L25.750790328737963,86.15493187092115L27.233677059594882,84.63064811229681L28.716563790451797,83.62102503368449L30.19945052130872,83.41175005992406L31.682337252165635,81.95385624077763L33.16522398302255,81.31615182337279L34.64811071387947,81.3255189892924L36.13099744473639,80.93980099990158L37.613884175593306,80.70848630865727L39.096770906450224,80.51757393042026L40.579657637307136,80.37696814750926L42.062544368164055,79.5624229255839L43.54543109902097,79.12588224919564L45.0283178298779,79.07258748651383L46.51120456073481,78.04968058088883L47.99409129159173,77.38379186018504L49.47697802244865,77.50579973247947L50.95986475330556,76.66631291100451L52.44275148416248,76.16262234560067L53.9256382150194,75.75610288493512L55.40852494587632,75.8511884903512L56.891411676733235,75.54316648322184L58.37429840759015,74.47174096666578L59.85718513844707,74.87195648242749L61.34007186930398,74.19940082776496L62.8229586001609,73.84802025399405L64.30584533101782,74.13265081139835L65.78873206187474,73.70366096648021L67.27161879273166,73.75919120623196L68.75450552358858,73.55781810546748L70.2373922544455,73.17622661090189L71.72027898530241,73.1037300622558L73.20316571615933,73.03415574199703L74.68605244701624,72.31441753464726L76.16893917787316,71.7521889323061L77.65182590873007,71.0758549636216L79.134712639587,71.32197180621938L80.61759937044391,71.00025942610888L82.10048610130083,70.91154128516884L83.58337283215775,70.96261596517083L85.06625956301468,71.64518171929579L86.54914629387159,70.6465737149627L88.0320330247285,70.38640944226907L89.51491975558542,69.70877561077931L90.99780648644234,69.61511572810397L92.48069321729926,69.74145825901653L93.96357994815618,69.81726377756392L95.4464666790131,69.94097626211125L96.92935340987,70.11950931739824L98.41224014072692,70.09624719487215L99.89512687158384,70.2126718770547L101.37801360244076,69.94352987900908L102.86090033329768,69.96458314069902L104.3437870641546,69.63821456781805L105.8266737950115,69.36416425067054L107.30956052586842,69.30403962494063L108.79244725672535,69.24188845836302L110.27533398758227,69.51752189717173L111.75822071843919,69.3178250394224L113.24110744929611,69.19800692477283L114.72399418015303,68.96965770914521L116.20688091100995,68.83264817976864L117.68976764186685,68.07244512489267L119.17265437272377,68.3986261937757L120.65554110358069,68.75079690448312L122.1384278344376,68.49271684531448L123.62131456529453,68.57256005260986L125.10420129615144,67.94246863973706L126.58708802700836,67.64264296543232L128.06997475786528,68.11466850695983L129.5528614887222,68.13711619794014L131.03574821957912,67.81158800517325L132.51863495043605,67.61627108951309L134.00152168129296,67.5773101135359L135.48440841214986,67.68431548364781L136.9672951430068,68.16574840902878L138.4501818738637,67.33330845509366L139.93306860472063,68.21591182583246L141.41595533557754,68.48470621433955L142.89884206643447,67.94190911905417L144.38172879729137,67.61623086188294L145.86461552814828,67.8119772197544L147.3475022590052,68.24234545069272L148.83038898986212,68.50056638925572L150.31327572071905,68.23826924907969L151.79616245157595,67.74189415761897L153.27904918243289,68.17421922227182L154.7619359132898,67.33839094303947L156.24482264414672,67.3062727385534L157.72770937500363,67.00015779078592L159.21059610586056,67.41625698595652L160.69348283671746,67.35299236430362L162.1763695675744,67.18465163561368L163.65925629843127,67.83987370906864L165.1421430292882,67.86793003210711L166.62502976014514,67.49361423629578L168.10791649100204,68.10348044289684L169.59080322185898,67.53063891821104L171.07368995271588,66.79578069122539L172.5565766835728,67.24147422140113L174.03946341442972,67.4567375572273L175.52235014528665,67.16866957794896L177.00523687614356,67.72597518737149L178.4881236070005,67.51274689401295L179.9710103378574,67.4891192050962L181.45389706871433,67.24025134894957L182.93678379957123,67.11700702640124L184.41967053042816,66.9387548683137L185.90255726128504,67.27510594537486L187.38544399214197,67.26830173995462L188.86833072299888,66.95129880048702L190.35121745385584,67.88240046850994L191.83410418471274,67.5805256715564L193.31699091556968,68.02524534835501L194.79987764642658,67.35331218324795L196.2827643772835,67.3413055963579L197.76565110814042,67.77740401613758L199.24853783899735,67.77829543406918L200.73142456985425,67.90921596306612L202.2143113007112,67.90953538450559L203.6971980315681,67.04919496214175L205.18008476242503,67.15883526369419L206.66297149328196,67.17246293980658L208.14585822413886,67.20671593661366L209.6287449549958,67.25334784837732L211.11163168585267,67.80286226330793L212.5945184167096,68.15864730340591L214.0774051475665,67.66804459907505L215.56029187842344,67.37368297647653L217.04317860928035,67.06668032467945L218.52606534013728,67.58655246199085L220.00895207099418,67.71593728386043L221.49183880185112,68.26295066257528L222.97472553270802,67.2873205201232L224.45761226356495,67.53639811873983L225.94049899442186,66.82531260268227L227.4233857252788,66.84196738750123L228.90627245613567,66.22611570342188L230.3891591869926,66.29991078742772L231.87204591784953,66.23988227327266L233.35493264870644,66.33424712047784L234.83781937956337,66.18225117714402L236.32070611042028,66.7429745572541" style="fill: none;" fill="none"></path></g></g></g></g><g opacity="0.2"><g><g><g><path stroke="rgb(0, 119, 187)" stroke-width="2px" d="M15.370583212739541,140.6750788628389L16.85346994359646,139.11112589963517L18.336356674453377,140.41441964787373L19.819243405310296,93.23517386338379L21.30213013616721,93.23517386338379L22.785016867024126,93.23517386338379L24.26790359788105,93.23517386338379L25.750790328737963,93.23517386338379L27.233677059594882,93.23517386338379L28.716563790451797,93.23517386338379L30.19945052130872,111.74194788027609L31.682337252165635,93.23517386338379L33.16522398302255,91.41056168521486L34.64811071387947,93.23517386338379L36.13099744473639,119.30105348132957L37.613884175593306,138.3291482547396L39.096770906450224,139.89310121794335L40.579657637307136,140.93573807780407L42.062544368164055,108.35338506549078L43.54543109902097,137.28651372146624L45.0283178298779,93.23517386338379L46.51120456073481,93.23517386338379L47.99409129159173,93.23517386338379L49.47697802244865,93.23517386338379L50.95986475330556,93.23517386338379L52.44275148416248,91.93188011514523L53.9256382150194,80.9842070461317L55.40852494587632,86.45804358063847L56.891411676733235,127.38147751231345L58.37429840759015,81.50553012923679L59.85718513844707,107.83206663556042L61.34007186930398,107.83206663556042L62.8229586001609,116.95512752640502L64.30584533101782,111.74194788027609L65.78873206187474,113.56656005844499L67.27161879273166,84.89409294402209L68.75450552358858,82.54815768274808L70.2373922544455,90.36792482535412L71.72027898530241,90.36792482535412L73.20316571615933,88.28265575880738L74.68605244701624,88.54331730035992L76.16893917787316,86.19738203908591L77.65182590873007,74.9890567348693L79.134712639587,77.07433045459076L80.61759937044391,73.94641987500856L82.10048610130083,71.86114615528709L83.58337283215775,82.54815768274808L85.06625956301468,84.63343140246954L86.54914629387159,73.42510609825291L88.0320330247285,74.20708141656111L89.51491975558542,71.86114615528709L90.99780648644234,71.33983237853145L92.48069321729926,68.4725833405018L93.96357994815618,71.07917083697892L95.4464666790131,74.20708141656111L96.92935340987,70.03653397711818L98.41224014072692,68.73324488205435L99.89512687158384,75.24971827642183L101.37801360244076,88.28265575880738L102.86090033329768,68.4725833405018L104.3437870641546,67.16929424543797L105.8266737950115,66.12665738557723L107.30956052586842,71.33983237853145L108.79244725672535,66.12665738557723L110.27533398758227,66.90863270388542L111.75822071843919,69.77588174191507L113.24110744929611,68.4725833405018L114.72399418015303,73.42510609825291L116.20688091100995,74.72839519331674L117.68976764186685,86.97935735739411L119.17265437272377,80.2022317278235L120.65554110358069,68.21192179894926L122.1384278344376,67.16929424543797L123.62131456529453,64.04138366585578L125.10420129615144,64.82335898416395L126.58708802700836,65.08402052571651L128.06997475786528,64.04138366585578L129.5528614887222,66.12665738557723L131.03574821957912,67.95126956374615L132.51863495043605,65.60533430247216L134.00152168129296,63.25940834754759L135.48440841214986,64.04138366585578L136.9672951430068,63.78072212430324L138.4501818738637,63.78072212430324L139.93306860472063,63.78072212430324L141.41595533557754,64.30204520740833L142.89884206643447,66.12665738557723L144.38172879729137,64.04138366585578L145.86461552814828,62.47743302923939L147.3475022590052,64.56270674896086L148.83038898986212,66.64797116233288L150.31327572071905,66.38730962078033L151.79616245157595,64.82335898416395L153.27904918243289,64.30204520740833L154.7619359132898,63.25940834754759L156.24482264414672,64.56270674896086L157.72770937500363,67.16929424543797L159.21059610586056,67.42994648064106L160.69348283671746,64.56270674896086L162.1763695675744,65.34468206726903L163.65925629843127,63.25940834754759L165.1421430292882,62.99874680599504L166.62502976014514,63.52006988910013L168.10791649100204,66.64797116233288L169.59080322185898,69.51522020036253L171.07368995271588,70.29719551867072L172.5565766835728,68.73324488205435L174.03946341442972,67.95126956374615L175.52235014528665,65.08402052571651L177.00523687614356,64.56270674896086L178.4881236070005,63.78072212430324L179.9710103378574,64.56270674896086L181.45389706871433,65.08402052571651L182.93678379957123,65.60533430247216L184.41967053042816,64.30204520740833L185.90255726128504,64.30204520740833L187.38544399214197,64.82335898416395L188.86833072299888,64.56270674896086L190.35121745385584,63.52006988910013L191.83410418471274,63.78072212430324L193.31699091556968,65.34468206726903L194.79987764642658,64.56270674896086L196.2827643772835,64.82335898416395L197.76565110814042,64.82335898416395L199.24853783899735,64.82335898416395L200.73142456985425,64.82335898416395L202.2143113007112,64.56270674896086L203.6971980315681,64.56270674896086L205.18008476242503,64.56270674896086L206.66297149328196,64.56270674896086L208.14585822413886,64.04138366585578L209.6287449549958,65.08402052571651L211.11163168585267,65.34468206726903L212.5945184167096,65.60533430247216L214.0774051475665,64.82335898416395L215.56029187842344,64.56270674896086L217.04317860928035,65.34468206726903L218.52606534013728,64.82335898416395L220.00895207099418,65.08402052571651L221.49183880185112,64.82335898416395L222.97472553270802,64.82335898416395L224.45761226356495,64.56270674896086L225.94049899442186,64.56270674896086L227.4233857252788,64.56270674896086L228.90627245613567,64.56270674896086L230.3891591869926,64.56270674896086L231.87204591784953,65.08402052571651L233.35493264870644,64.30204520740833L234.83781937956337,65.08402052571651L236.32070611042028,64.82335898416395" style="fill: none;" fill="none"></path></g><g><path stroke="rgb(255, 112, 67)" stroke-width="2px" d="M15.370583212739541,103.17884538224969L16.85346994359646,95.1602387774418L18.336356674453377,96.98561407626508L19.819243405310296,91.96583433108847L21.30213013616721,89.42334896957563L22.785016867024126,86.68528602134073L24.26790359788105,85.38144785165976L25.750790328737963,83.23011766359099L27.233677059594882,82.38262564520318L28.716563790451797,82.12185242745731L30.19945052130872,83.09973570789278L31.682337252165635,79.77494930584122L33.16522398302255,80.36167741283262L34.64811071387947,81.33955138691863L36.13099744473639,80.36167741283262L37.613884175593306,80.36167741283262L39.096770906450224,80.23128615078495L40.579657637307136,80.16609517293584L42.062544368164055,78.34072918046203L43.54543109902097,78.47111113616023L45.0283178298779,78.99264826530252L46.51120456073481,76.51535388163877L47.99409129159173,76.38497192594056L49.47697802244865,77.68881009562156L50.95986475330556,75.40708864550511L52.44275148416248,75.40708864550511L53.9256382150194,75.1463247341087L55.40852494587632,75.9938167524965L56.891411676733235,75.0811337562596L58.37429840759015,72.86460328399227L59.85718513844707,75.47227962335423L61.34007186930398,73.19056747958724L62.8229586001609,73.32094943528544L64.30584533101782,74.55959662711732L65.78873206187474,73.06017621753958L67.27161879273166,73.84248656442772L68.75450552358858,73.25575845743634L70.2373922544455,72.60383937259584L71.72027898530241,72.99498523969046L73.20316571615933,72.92979426184137L74.68605244701624,71.23481022506576L76.16893917787316,70.9088460294708L77.65182590873007,70.061354011083L79.134712639587,71.6911470700095L80.61759937044391,70.51769085602673L82.10048610130083,70.7784640737726L83.58337283215775,71.039227985169L85.06625956301468,72.66903035044496L86.54914629387159,69.14866170849665L88.0320330247285,69.9961630332339L89.51491975558542,68.69232486355293L90.99780648644234,69.47462590409161L92.48069321729926,69.93097205538479L93.96357994815618,69.93097205538479L95.4464666790131,70.1265449889321L96.92935340987,70.3873089003285L98.41224014072692,70.061354011083L99.89512687158384,70.3873089003285L101.37801360244076,69.53981688194072L102.86090033329768,69.9961630332339L104.3437870641546,69.14866170849665L105.8266737950115,68.95308877494934L107.30956052586842,69.21385268634575L108.79244725672535,69.14866170849665L110.27533398758227,69.93097205538479L111.75822071843919,69.01827975279843L113.24110744929611,69.01827975279843L114.72399418015303,68.62713388570381L116.20688091100995,68.62713388570381L117.68976764186685,66.93214054257876L119.17265437272377,68.88789779710024L120.65554110358069,69.2790529705443L122.1384278344376,68.10559675656154L123.62131456529453,68.69232486355293L125.10420129615144,66.99733152042788L126.58708802700836,67.19290445397519L128.06997475786528,68.82270681925112L129.5528614887222,68.17078773441064L131.03574821957912,67.32329571602283L132.51863495043605,67.32329571602283L134.00152168129296,67.51886864957014L135.48440841214986,67.84482353881567L136.9672951430068,68.88789779710024L138.4501818738637,66.08464852419097L139.93306860472063,69.53981688194072L141.41595533557754,68.88789779710024L142.89884206643447,67.12771347612608L144.38172879729137,67.12771347612608L145.86461552814828,68.10559675656154L147.3475022590052,68.88789779710024L148.83038898986212,68.88789779710024L150.31327572071905,67.84482353881567L151.79616245157595,66.99733152042788L153.27904918243289,68.82270681925112L154.7619359132898,66.08464852419097L156.24482264414672,67.25809543182429L157.72770937500363,66.54098536913469L159.21059610586056,68.04040577871243L160.69348283671746,67.25809543182429L162.1763695675744,66.93214054257876L163.65925629843127,68.82270681925112L165.1421430292882,67.91001451666479L166.62502976014514,66.93214054257876L168.10791649100204,69.01827975279843L169.59080322185898,66.67137663118234L171.07368995271588,65.69349335074689L172.5565766835728,67.91001451666479L174.03946341442972,67.77963256096658L175.52235014528665,66.73656760903144L177.00523687614356,68.56193360150526L178.4881236070005,67.19290445397519L179.9710103378574,67.45367767172104L181.45389706871433,66.86694956472967L182.93678379957123,66.93214054257876L184.41967053042816,66.67137663118234L185.90255726128504,67.77963256096658L187.38544399214197,67.25809543182429L188.86833072299888,66.47579439128559L190.35121745385584,69.2790529705443L191.83410418471274,67.12771347612608L193.31699091556968,68.69232486355293L194.79987764642658,66.34541243558738L196.2827643772835,67.32329571602283L197.76565110814042,68.43155164580705L199.24853783899735,67.77963256096658L200.73142456985425,68.10559675656154L202.2143113007112,67.91001451666479L203.6971980315681,65.75868432859599L205.18008476242503,67.32329571602283L206.66297149328196,67.19290445397519L208.14585822413886,67.25809543182429L209.6287449549958,67.32329571602283L211.11163168585267,68.62713388570381L212.5945184167096,68.69232486355293L214.0774051475665,66.93214054257876L215.56029187842344,66.93214054257876L217.04317860928035,66.6061763469838L218.52606534013728,68.36636066795795L220.00895207099418,67.91001451666479L221.49183880185112,69.08347073064755L222.97472553270802,65.82387530644509L224.45761226356495,67.91001451666479L225.94049899442186,65.75868432859599L227.4233857252788,66.86694956472967L228.90627245613567,65.30233817730283L230.3891591869926,66.41060341343649L231.87204591784953,66.14983950204007L233.35493264870644,66.47579439128559L234.83781937956337,65.9542572621433L236.32070611042028,67.58405962741925" style="fill: none;" fill="none"></path></g></g></g></g></g></g><g transform="translate(40, 177)" clip-path="url(#clip_1)"><clipPath id="clip_1"><rect width="290" height="23"></rect></clipPath><g><g><line x1="15.370583212739541" y1="0" x2="15.370583212739541" y2="5" style="visibility: inherit;" fill="rgb(0, 0, 0)" stroke="rgb(204, 204, 204)" stroke-width="1px"></line><line x1="45.0283178298779" y1="0" x2="45.0283178298779" y2="5" style="visibility: inherit;" fill="rgb(0, 0, 0)" stroke="rgb(204, 204, 204)" stroke-width="1px"></line><line x1="74.68605244701624" y1="0" x2="74.68605244701624" y2="5" style="visibility: inherit;" fill="rgb(0, 0, 0)" stroke="rgb(204, 204, 204)" stroke-width="1px"></line><line x1="104.3437870641546" y1="0" x2="104.3437870641546" y2="5" style="visibility: inherit;" fill="rgb(0, 0, 0)" stroke="rgb(204, 204, 204)" stroke-width="1px"></line><line x1="134.00152168129296" y1="0" x2="134.00152168129296" y2="5" style="visibility: inherit;" fill="rgb(0, 0, 0)" stroke="rgb(204, 204, 204)" stroke-width="1px"></line><line x1="163.65925629843127" y1="0" x2="163.65925629843127" y2="5" style="visibility: inherit;" fill="rgb(0, 0, 0)" stroke="rgb(204, 204, 204)" stroke-width="1px"></line><line x1="193.31699091556968" y1="0" x2="193.31699091556968" y2="5" style="visibility: inherit;" fill="rgb(0, 0, 0)" stroke="rgb(204, 204, 204)" stroke-width="1px"></line><line x1="222.97472553270802" y1="0" x2="222.97472553270802" y2="5" style="visibility: inherit;" fill="rgb(0, 0, 0)" stroke="rgb(204, 204, 204)" stroke-width="1px"></line><line x1="252.63246014984637" y1="0" x2="252.63246014984637" y2="5" style="visibility: inherit;" fill="rgb(0, 0, 0)" stroke="rgb(204, 204, 204)" stroke-width="1px"></line><line x1="282.29019476698477" y1="0" x2="282.29019476698477" y2="5" style="visibility: inherit;" fill="rgb(0, 0, 0)" stroke="rgb(204, 204, 204)" stroke-width="1px"></line></g><g transform="translate(0, 8)"><text x="15.370583212739541" y="0" dx="0em" dy="0.95em" style="text-anchor: middle; visibility: inherit; font-family: Roboto, sans-serif; font-size: 12px; font-weight: 200;" fill="rgb(33, 33, 33)" stroke="none" stroke-width="1px">0</text><text x="45.0283178298779" y="0" dx="0em" dy="0.95em" style="text-anchor: middle; visibility: inherit; font-family: Roboto, sans-serif; font-size: 12px; font-weight: 200;" fill="rgb(33, 33, 33)" stroke="none" stroke-width="1px">20</text><text x="74.68605244701624" y="0" dx="0em" dy="0.95em" style="text-anchor: middle; visibility: inherit; font-family: Roboto, sans-serif; font-size: 12px; font-weight: 200;" fill="rgb(33, 33, 33)" stroke="none" stroke-width="1px">40</text><text x="104.3437870641546" y="0" dx="0em" dy="0.95em" style="text-anchor: middle; visibility: inherit; font-family: Roboto, sans-serif; font-size: 12px; font-weight: 200;" fill="rgb(33, 33, 33)" stroke="none" stroke-width="1px">60</text><text x="134.00152168129296" y="0" dx="0em" dy="0.95em" style="text-anchor: middle; visibility: inherit; font-family: Roboto, sans-serif; font-size: 12px; font-weight: 200;" fill="rgb(33, 33, 33)" stroke="none" stroke-width="1px">80</text><text x="163.65925629843127" y="0" dx="0em" dy="0.95em" style="text-anchor: middle; visibility: inherit; font-family: Roboto, sans-serif; font-size: 12px; font-weight: 200;" fill="rgb(33, 33, 33)" stroke="none" stroke-width="1px">100</text><text x="193.31699091556968" y="0" dx="0em" dy="0.95em" style="text-anchor: middle; visibility: inherit; font-family: Roboto, sans-serif; font-size: 12px; font-weight: 200;" fill="rgb(33, 33, 33)" stroke="none" stroke-width="1px">120</text><text x="222.97472553270802" y="0" dx="0em" dy="0.95em" style="text-anchor: middle; visibility: inherit; font-family: Roboto, sans-serif; font-size: 12px; font-weight: 200;" fill="rgb(33, 33, 33)" stroke="none" stroke-width="1px">140</text><text x="252.63246014984637" y="0" dx="0em" dy="0.95em" style="text-anchor: middle; visibility: inherit; font-family: Roboto, sans-serif; font-size: 12px; font-weight: 200;" fill="rgb(33, 33, 33)" stroke="none" stroke-width="1px">160</text><text x="282.29019476698477" y="0" dx="0em" dy="0.95em" style="text-anchor: middle; visibility: hidden; font-family: Roboto, sans-serif; font-size: 12px; font-weight: 200;" fill="rgb(33, 33, 33)" stroke="none" stroke-width="1px">180</text></g><line x1="0" y1="0" x2="290" y2="0" fill="rgb(0, 0, 0)" stroke="rgb(204, 204, 204)" stroke-width="1px"></line></g></g></g></g></svg>