<svg viewBox="0 0 330 200" xmlns="http://www.w3.org/2000/svg"><g><g><g><g><g><line x1="70" y1="177" x2="65" y2="177" style="visibility: inherit;" fill="rgb(0, 0, 0)" stroke="rgb(204, 204, 204)" stroke-width="1px"></line><line x1="70" y1="162.25" x2="65" y2="162.25" style="visibility: inherit;" fill="rgb(0, 0, 0)" stroke="rgb(204, 204, 204)" stroke-width="1px"></line><line x1="70" y1="147.5" x2="65" y2="147.5" style="visibility: inherit;" fill="rgb(0, 0, 0)" stroke="rgb(204, 204, 204)" stroke-width="1px"></line><line x1="70" y1="132.75" x2="65" y2="132.75" style="visibility: inherit;" fill="rgb(0, 0, 0)" stroke="rgb(204, 204, 204)" stroke-width="1px"></line><line x1="70" y1="118.00000000000001" x2="65" y2="118.00000000000001" style="visibility: inherit;" fill="rgb(0, 0, 0)" stroke="rgb(204, 204, 204)" stroke-width="1px"></line><line x1="70" y1="103.24999999999999" x2="65" y2="103.24999999999999" style="visibility: inherit;" fill="rgb(0, 0, 0)" stroke="rgb(204, 204, 204)" stroke-width="1px"></line><line x1="70" y1="88.5" x2="65" y2="88.5" style="visibility: inherit;" fill="rgb(0, 0, 0)" stroke="rgb(204, 204, 204)" stroke-width="1px"></line><line x1="70" y1="73.75" x2="65" y2="73.75" style="visibility: inherit;" fill="rgb(0, 0, 0)" stroke="rgb(204, 204, 204)" stroke-width="1px"></line><line x1="70" y1="59.00000000000001" x2="65" y2="59.00000000000001" style="visibility: inherit;" fill="rgb(0, 0, 0)" stroke="rgb(204, 204, 204)" stroke-width="1px"></line><line x1="70" y1="44.24999999999998" x2="65" y2="44.24999999999998" style="visibility: inherit;" fill="rgb(0, 0, 0)" stroke="rgb(204, 204, 204)" stroke-width="1px"></line><line x1="70" y1="29.500000000000032" x2="65" y2="29.500000000000032" style="visibility: inherit;" fill="rgb(0, 0, 0)" stroke="rgb(204, 204, 204)" stroke-width="1px"></line><line x1="70" y1="14.750000000000007" x2="65" y2="14.750000000000007" style="visibility: inherit;" fill="rgb(0, 0, 0)" stroke="rgb(204, 204, 204)" stroke-width="1px"></line><line x1="70" y1="0" x2="65" y2="0" style="visibility: inherit;" fill="rgb(0, 0, 0)" stroke="rgb(204, 204, 204)" stroke-width="1px"></line></g><g transform="translate(60, 0)"><text x="0" y="177" dx="0em" dy="0.3em" style="text-anchor: end; visibility: hidden; font-family: Roboto, sans-serif; font-size: 12px; font-weight: 200;" fill="rgb(33, 33, 33)" stroke="none" stroke-width="1px">-5e-4</text><text x="0" y="162.25" dx="0em" dy="0.3em" style="text-anchor: end; visibility: inherit; font-family: Roboto, sans-serif; font-size: 12px; font-weight: 200;" fill="rgb(33, 33, 33)" stroke="none" stroke-width="1px">0</text><text x="0" y="147.5" dx="0em" dy="0.3em" style="text-anchor: end; visibility: hidden; font-family: Roboto, sans-serif; font-size: 12px; font-weight: 200;" fill="rgb(33, 33, 33)" stroke="none" stroke-width="1px">5e-4</text><text x="0" y="132.75" dx="0em" dy="0.3em" style="text-anchor: end; visibility: inherit; font-family: Roboto, sans-serif; font-size: 12px; font-weight: 200;" fill="rgb(33, 33, 33)" stroke="none" stroke-width="1px">1e-3</text><text x="0" y="118.00000000000001" dx="0em" dy="0.3em" style="text-anchor: end; visibility: hidden; font-family: Roboto, sans-serif; font-size: 12px; font-weight: 200;" fill="rgb(33, 33, 33)" stroke="none" stroke-width="1px">1.5e-3</text><text x="0" y="103.24999999999999" dx="0em" dy="0.3em" style="text-anchor: end; visibility: inherit; font-family: Roboto, sans-serif; font-size: 12px; font-weight: 200;" fill="rgb(33, 33, 33)" stroke="none" stroke-width="1px">2e-3</text><text x="0" y="88.5" dx="0em" dy="0.3em" style="text-anchor: end; visibility: hidden; font-family: Roboto, sans-serif; font-size: 12px; font-weight: 200;" fill="rgb(33, 33, 33)" stroke="none" stroke-width="1px">2.5e-3</text><text x="0" y="73.75" dx="0em" dy="0.3em" style="text-anchor: end; visibility: inherit; font-family: Roboto, sans-serif; font-size: 12px; font-weight: 200;" fill="rgb(33, 33, 33)" stroke="none" stroke-width="1px">3e-3</text><text x="0" y="59.00000000000001" dx="0em" dy="0.3em" style="text-anchor: end; visibility: hidden; font-family: Roboto, sans-serif; font-size: 12px; font-weight: 200;" fill="rgb(33, 33, 33)" stroke="none" stroke-width="1px">3.5e-3</text><text x="0" y="44.24999999999998" dx="0em" dy="0.3em" style="text-anchor: end; visibility: inherit; font-family: Roboto, sans-serif; font-size: 12px; font-weight: 200;" fill="rgb(33, 33, 33)" stroke="none" stroke-width="1px">4e-3</text><text x="0" y="29.500000000000032" dx="0em" dy="0.3em" style="text-anchor: end; visibility: hidden; font-family: Roboto, sans-serif; font-size: 12px; font-weight: 200;" fill="rgb(33, 33, 33)" stroke="none" stroke-width="1px">4.5e-3</text><text x="0" y="14.750000000000007" dx="0em" dy="0.3em" style="text-anchor: end; visibility: inherit; font-family: Roboto, sans-serif; font-size: 12px; font-weight: 200;" fill="rgb(33, 33, 33)" stroke="none" stroke-width="1px">5e-3</text><text x="0" y="0" dx="0em" dy="0.3em" style="text-anchor: end; visibility: hidden; font-family: Roboto, sans-serif; font-size: 12px; font-weight: 200;" fill="rgb(33, 33, 33)" stroke="none" stroke-width="1px">5.5e-3</text></g><line x1="70" y1="0" x2="70" y2="177" fill="rgb(0, 0, 0)" stroke="rgb(204, 204, 204)" stroke-width="1px"></line></g></g><g transform="translate(70, 0)" clip-path="url(#clip_0)"><clipPath id="clip_0"><rect width="260" height="177"></rect></clipPath><g><g><g><line x1="0" y1="0" x2="0" y2="177" fill="rgb(0, 0, 0)" stroke="rgb(66, 66, 66)" stroke-width="1px" opacity="0.25"></line><line x1="28.888888888888886" y1="0" x2="28.888888888888886" y2="177" fill="rgb(0, 0, 0)" stroke="rgb(66, 66, 66)" stroke-width="1px" opacity="0.25"></line><line x1="57.77777777777777" y1="0" x2="57.77777777777777" y2="177" fill="rgb(0, 0, 0)" stroke="rgb(66, 66, 66)" stroke-width="1px" opacity="0.25"></line><line x1="86.66666666666666" y1="0" x2="86.66666666666666" y2="177" fill="rgb(0, 0, 0)" stroke="rgb(66, 66, 66)" stroke-width="1px" opacity="0.25"></line><line x1="115.55555555555554" y1="0" x2="115.55555555555554" y2="177" fill="rgb(0, 0, 0)" stroke="rgb(66, 66, 66)" stroke-width="1px" opacity="0.25"></line><line x1="144.44444444444446" y1="0" x2="144.44444444444446" y2="177" fill="rgb(0, 0, 0)" stroke="rgb(66, 66, 66)" stroke-width="1px" opacity="0.25"></line><line x1="173.33333333333331" y1="0" x2="173.33333333333331" y2="177" fill="rgb(0, 0, 0)" stroke="rgb(66, 66, 66)" stroke-width="1px" opacity="0.25"></line><line x1="202.22222222222223" y1="0" x2="202.22222222222223" y2="177" fill="rgb(0, 0, 0)" stroke="rgb(66, 66, 66)" stroke-width="1px" opacity="0.25"></line><line x1="231.1111111111111" y1="0" x2="231.1111111111111" y2="177" fill="rgb(0, 0, 0)" stroke="rgb(66, 66, 66)" stroke-width="1px" opacity="0.25"></line><line x1="260" y1="0" x2="260" y2="177" fill="rgb(0, 0, 0)" stroke="rgb(66, 66, 66)" stroke-width="1px" opacity="0.25"></line></g><g><line x1="0" y1="177" x2="260" y2="177" fill="rgb(0, 0, 0)" stroke="rgb(66, 66, 66)" stroke-width="1px" opacity="0.25"></line><line x1="0" y1="162.25" x2="260" y2="162.25" fill="rgb(0, 0, 0)" stroke="rgb(66, 66, 66)" stroke-width="1px" opacity="0.25"></line><line x1="0" y1="147.5" x2="260" y2="147.5" fill="rgb(0, 0, 0)" stroke="rgb(66, 66, 66)" stroke-width="1px" opacity="0.25"></line><line x1="0" y1="132.75" x2="260" y2="132.75" fill="rgb(0, 0, 0)" stroke="rgb(66, 66, 66)" stroke-width="1px" opacity="0.25"></line><line x1="0" y1="118.00000000000001" x2="260" y2="118.00000000000001" fill="rgb(0, 0, 0)" stroke="rgb(66, 66, 66)" stroke-width="1px" opacity="0.25"></line><line x1="0" y1="103.24999999999999" x2="260" y2="103.24999999999999" fill="rgb(0, 0, 0)" stroke="rgb(66, 66, 66)" stroke-width="1px" opacity="0.25"></line><line x1="0" y1="88.5" x2="260" y2="88.5" fill="rgb(0, 0, 0)" stroke="rgb(66, 66, 66)" stroke-width="1px" opacity="0.25"></line><line x1="0" y1="73.75" x2="260" y2="73.75" fill="rgb(0, 0, 0)" stroke="rgb(66, 66, 66)" stroke-width="1px" opacity="0.25"></line><line x1="0" y1="59.00000000000001" x2="260" y2="59.00000000000001" fill="rgb(0, 0, 0)" stroke="rgb(66, 66, 66)" stroke-width="1px" opacity="0.25"></line><line x1="0" y1="44.24999999999998" x2="260" y2="44.24999999999998" fill="rgb(0, 0, 0)" stroke="rgb(66, 66, 66)" stroke-width="1px" opacity="0.25"></line><line x1="0" y1="29.500000000000032" x2="260" y2="29.500000000000032" fill="rgb(0, 0, 0)" stroke="rgb(66, 66, 66)" stroke-width="1px" opacity="0.25"></line><line x1="0" y1="14.750000000000007" x2="260" y2="14.750000000000007" fill="rgb(0, 0, 0)" stroke="rgb(66, 66, 66)" stroke-width="1px" opacity="0.25"></line><line x1="0" y1="0" x2="260" y2="0" fill="rgb(0, 0, 0)" stroke="rgb(66, 66, 66)" stroke-width="1px" opacity="0.25"></line></g></g></g><g><g><line x1="0" y1="162.25" x2="260" y2="162.25" fill="rgb(0, 0, 0)" stroke="rgb(153, 153, 153)" stroke-width="1.5px"></line></g></g><g><g><line x1="28.888888888888886" y1="0" x2="28.888888888888886" y2="177" fill="rgb(0, 0, 0)" stroke="rgb(153, 153, 153)" stroke-width="1.5px"></line></g></g><g><g><g><g><g><path stroke="rgb(255, 112, 67)" stroke-width="2px" d="M28.888888888888886,14.750003296881902L30.333333333333332,14.750003296881902L31.777777777777775,14.75000329688196L33.22222222222222,14.750003296881902L34.666666666666664,14.750003296881902L36.111111111111114,14.750003296881902L37.55555555555555,14.750003296881902L39,14.750003296881902L40.44444444444444,14.750003296881902L41.88888888888889,14.750003296881902L43.33333333333333,14.750003296881902L44.77777777777778,14.750003296881902L46.22222222222222,14.750003296881902L47.666666666666664,14.750003296881902L49.11111111111111,14.75000329688196L50.55555555555556,14.750003296881902L52,14.750003296881902L53.44444444444444,14.750003296881902L54.888888888888886,14.750003296881902L56.333333333333336,14.750003296881902L57.77777777777777,61.95103823813371L59.22222222222222,90.27099650822713L60.666666666666664,107.2627329070449L62.111111111111114,117.45768886504688L63.55555555555555,123.57463152290316L65,127.24478598758569L66.44444444444444,129.44687465959882L67.8888888888889,130.76812642036325L69.33333333333333,131.56087695754294L70.77777777777777,132.03652709291046L72.22222222222223,132.32191710683253L73.66666666666667,132.49315109095832L75.1111111111111,132.5958914727119L76.55555555555556,132.65753569862423L78,132.69452223304123L79.44444444444446,132.7167141532845L80.88888888888889,132.73002930528395L82.33333333333333,132.73801839643093L83.77777777777779,132.7428118511001L85.22222222222223,142.18568735461403L86.66666666666666,147.85141264864384L88.11111111111111,151.25084782215342L89.55555555555556,153.2905089252122L91,154.51430558667053L92.44444444444444,155.24858358340987L93.88888888888889,155.6891503814046L95.33333333333333,155.95349046018387L96.77777777777779,156.11209450744508L98.22222222222221,156.20725693579953L99.66666666666667,156.2643543928114L101.11111111111111,156.29861286701822L102.55555555555556,156.3191679515422L104,156.33150100225657L105.44444444444444,156.33890083268517L106.88888888888889,156.34334073094232L108.33333333333334,156.3460046698966L109.77777777777777,156.34760303326917L111.22222222222221,156.3485620512927L112.66666666666667,156.34913746210685L114.11111111111111,156.34948270859533L115.55555555555554,156.3496898564884L117,156.34981414522426L118.44444444444444,156.34988871846576L119.8888888888889,156.3499334624107L121.33333333333333,156.3499603087776L122.77777777777777,156.3499764165978L124.22222222222223,156.34998608128987L125.66666666666667,156.34999188010514L127.1111111111111,156.3499953593943L128.55555555555557,156.3499974469678L130,156.34999869951187L131.44444444444443,158.237999274559L132.88888888888889,159.37079961958727L134.33333333333334,160.05047982660423L135.7777777777778,160.4582879508144L137.22222222222223,160.70297282534054L138.66666666666666,160.8497837500562L140.11111111111111,160.9378703048856L141.55555555555554,160.99072223778325L143,161.0224333975218L144.44444444444446,161.04146009336495L145.88888888888889,161.05287611087084L147.33333333333334,161.05972572137438L148.77777777777777,161.0638354876765L150.2222222222222,161.06630134745777L151.66666666666669,161.06778086332653L153.11111111111111,161.0686685728478L154.55555555555554,161.06920119856053L156,161.0695207739882L157.44444444444443,161.0697125192448L158.8888888888889,161.06982756639877L160.33333333333334,161.06989659469113L161.77777777777777,161.06993801166655L163.22222222222223,161.0699628618518L164.66666666666666,161.06997777196295L166.1111111111111,161.06998671802964L167.55555555555557,161.06999208566967L169,161.06999530625367L170.44444444444446,161.06999723860406L171.88888888888889,161.06999839801432L173.33333333333331,161.06999909366047L174.7777777777778,161.06999951104817L176.22222222222223,161.06999976148074L177.66666666666666,161.06999991174033L179.11111111111111,161.07000000189606L180.55555555555554,161.447600012108L182,161.6741600182352L183.44444444444446,161.81009602191148L184.88888888888889,161.89165762411727L186.33333333333334,161.94059458544072L187.77777777777777,161.9699567622348L189.2222222222222,161.98757406831126L190.66666666666666,161.99814445195713L192.11111111111111,162.00448668214466L193.55555555555557,162.00829202025716L195,162.01057522312468L196.44444444444443,162.01194514484519L197.88888888888889,162.0127670978775L199.33333333333334,162.01326026969687L200.7777777777778,162.0135561727885L202.22222222222223,162.01373371464348L203.66666666666666,162.01384023975646L205.11111111111111,162.01390415482425L206.55555555555554,162.0139425038649L208,162.01396551328932L209.44444444444446,162.01397931894397L210.88888888888889,162.01398760233675L212.33333333333334,162.01399257237242L213.77777777777777,162.01399555439383L215.2222222222222,162.0139973436067L216.66666666666669,162.01399841713436L218.11111111111111,162.013999061251L219.55555555555554,162.01399944772098L221,162.01399967960296L222.44444444444443,162.01399981873215L223.8888888888889,162.01399990220966L225.33333333333334,162.0139999522962L226.77777777777777,162.01399998234808L228.22222222222223,162.0140000003792L229.66666666666666,162.0140000111979L231.1111111111111,162.08952000918111L232.55555555555557,162.13483200797106L234,162.16201920724498L235.44444444444446,162.1783315268094L236.88888888888889,162.188118918548L238.33333333333331,162.19399135359117L239.7777777777778,162.19751481461708L241.22222222222223,162.19962889123263L242.66666666666666,162.20089733720195L244.11111111111111,162.20165840478353" style="fill: none;" fill="none"></path></g></g></g></g><g opacity="0.2"><g><g><g><path stroke="rgb(255, 112, 67)" stroke-width="2px" d="M28.888888888888886,14.750003296881902L30.333333333333332,14.750003296881902L31.777777777777775,14.750003296881902L33.22222222222222,14.750003296881902L34.666666666666664,14.750003296881902L36.111111111111114,14.750003296881902L37.55555555555555,14.750003296881902L39,14.750003296881902L40.44444444444444,14.750003296881902L41.88888888888889,14.750003296881902L43.33333333333333,14.750003296881902L44.77777777777778,14.750003296881902L46.22222222222222,14.750003296881902L47.666666666666664,14.750003296881902L49.11111111111111,14.750003296881902L50.55555555555556,14.750003296881902L52,14.750003296881902L53.44444444444444,14.750003296881902L54.888888888888886,14.750003296881902L56.333333333333336,14.750003296881902L57.77777777777777,132.75000203307718L59.22222222222222,132.75000203307718L60.666666666666664,132.75000203307718L62.111111111111114,132.75000203307718L63.55555555555555,132.75000203307718L65,132.75000203307718L66.44444444444444,132.75000203307718L67.8888888888889,132.75000203307718L69.33333333333333,132.75000203307718L70.77777777777777,132.75000203307718L72.22222222222223,132.75000203307718L73.66666666666667,132.75000203307718L75.1111111111111,132.75000203307718L76.55555555555556,132.75000203307718L78,132.75000203307718L79.44444444444446,132.75000203307718L80.88888888888889,132.75000203307718L82.33333333333333,132.75000203307718L83.77777777777779,132.75000203307718L85.22222222222223,156.35000057832804L86.66666666666666,156.35000057832804L88.11111111111111,156.35000057832804L89.55555555555556,156.35000057832804L91,156.35000057832804L92.44444444444444,156.35000057832804L93.88888888888889,156.35000057832804L95.33333333333333,156.35000057832804L96.77777777777779,156.35000057832804L98.22222222222221,156.35000057832804L99.66666666666667,156.35000057832804L101.11111111111111,156.35000057832804L102.55555555555556,156.35000057832804L104,156.35000057832804L105.44444444444444,156.35000057832804L106.88888888888889,156.35000057832804L108.33333333333334,156.35000057832804L109.77777777777777,156.35000057832804L111.22222222222221,156.35000057832804L112.66666666666667,156.35000057832804L114.11111111111111,156.35000057832804L115.55555555555554,156.35000057832804L117,156.35000057832804L118.44444444444444,156.35000057832804L119.8888888888889,156.35000057832804L121.33333333333333,156.35000057832804L122.77777777777777,156.35000057832804L124.22222222222223,156.35000057832804L125.66666666666667,156.35000057832804L127.1111111111111,156.35000057832804L128.55555555555557,156.35000057832804L130,156.35000057832804L131.44444444444443,161.07000013712968L132.88888888888889,161.07000013712968L134.33333333333334,161.07000013712968L135.7777777777778,161.07000013712968L137.22222222222223,161.07000013712968L138.66666666666666,161.07000013712968L140.11111111111111,161.07000013712968L141.55555555555554,161.07000013712968L143,161.07000013712968L144.44444444444446,161.07000013712968L145.88888888888889,161.07000013712968L147.33333333333334,161.07000013712968L148.77777777777777,161.07000013712968L150.2222222222222,161.07000013712968L151.66666666666669,161.07000013712968L153.11111111111111,161.07000013712968L154.55555555555554,161.07000013712968L156,161.07000013712968L157.44444444444443,161.07000013712968L158.8888888888889,161.07000013712968L160.33333333333334,161.07000013712968L161.77777777777777,161.07000013712968L163.22222222222223,161.07000013712968L164.66666666666666,161.07000013712968L166.1111111111111,161.07000013712968L167.55555555555557,161.07000013712968L169,161.07000013712968L170.44444444444446,161.07000013712968L171.88888888888889,161.07000013712968L173.33333333333331,161.07000013712968L174.7777777777778,161.07000013712968L176.22222222222223,161.07000013712968L177.66666666666666,161.07000013712968L179.11111111111111,161.07000013712968L180.55555555555554,162.01400002742594L182,162.01400002742594L183.44444444444446,162.01400002742594L184.88888888888889,162.01400002742594L186.33333333333334,162.01400002742594L187.77777777777777,162.01400002742594L189.2222222222222,162.01400002742594L190.66666666666666,162.01400002742594L192.11111111111111,162.01400002742594L193.55555555555557,162.01400002742594L195,162.01400002742594L196.44444444444443,162.01400002742594L197.88888888888889,162.01400002742594L199.33333333333334,162.01400002742594L200.7777777777778,162.01400002742594L202.22222222222223,162.01400002742594L203.66666666666666,162.01400002742594L205.11111111111111,162.01400002742594L206.55555555555554,162.01400002742594L208,162.01400002742594L209.44444444444446,162.01400002742594L210.88888888888889,162.01400002742594L212.33333333333334,162.01400002742594L213.77777777777777,162.01400002742594L215.2222222222222,162.01400002742594L216.66666666666669,162.01400002742594L218.11111111111111,162.01400002742594L219.55555555555554,162.01400002742594L221,162.01400002742594L222.44444444444443,162.01400002742594L223.8888888888889,162.01400002742594L225.33333333333334,162.01400002742594L226.77777777777777,162.01400002742594L228.22222222222223,162.01400002742594L229.66666666666666,162.01400002742594L231.1111111111111,162.20280000615594L232.55555555555557,162.20280000615594L234,162.20280000615594L235.44444444444446,162.20280000615594L236.88888888888889,162.20280000615594L238.33333333333331,162.20280000615594L239.7777777777778,162.20280000615594L241.22222222222223,162.20280000615594L242.66666666666666,162.20280000615594L244.11111111111111,162.20280000615594" style="fill: none;" fill="none"></path></g></g></g></g></g></g><g transform="translate(70, 177)" clip-path="url(#clip_1)"><clipPath id="clip_1"><rect width="260" height="23"></rect></clipPath><g><g><line x1="0" y1="0" x2="0" y2="5" style="visibility: inherit;" fill="rgb(0, 0, 0)" stroke="rgb(204, 204, 204)" stroke-width="1px"></line><line x1="28.888888888888886" y1="0" x2="28.888888888888886" y2="5" style="visibility: inherit;" fill="rgb(0, 0, 0)" stroke="rgb(204, 204, 204)" stroke-width="1px"></line><line x1="57.77777777777777" y1="0" x2="57.77777777777777" y2="5" style="visibility: inherit;" fill="rgb(0, 0, 0)" stroke="rgb(204, 204, 204)" stroke-width="1px"></line><line x1="86.66666666666666" y1="0" x2="86.66666666666666" y2="5" style="visibility: inherit;" fill="rgb(0, 0, 0)" stroke="rgb(204, 204, 204)" stroke-width="1px"></line><line x1="115.55555555555554" y1="0" x2="115.55555555555554" y2="5" style="visibility: inherit;" fill="rgb(0, 0, 0)" stroke="rgb(204, 204, 204)" stroke-width="1px"></line><line x1="144.44444444444446" y1="0" x2="144.44444444444446" y2="5" style="visibility: inherit;" fill="rgb(0, 0, 0)" stroke="rgb(204, 204, 204)" stroke-width="1px"></line><line x1="173.33333333333331" y1="0" x2="173.33333333333331" y2="5" style="visibility: inherit;" fill="rgb(0, 0, 0)" stroke="rgb(204, 204, 204)" stroke-width="1px"></line><line x1="202.22222222222223" y1="0" x2="202.22222222222223" y2="5" style="visibility: inherit;" fill="rgb(0, 0, 0)" stroke="rgb(204, 204, 204)" stroke-width="1px"></line><line x1="231.1111111111111" y1="0" x2="231.1111111111111" y2="5" style="visibility: inherit;" fill="rgb(0, 0, 0)" stroke="rgb(204, 204, 204)" stroke-width="1px"></line><line x1="260" y1="0" x2="260" y2="5" style="visibility: inherit;" fill="rgb(0, 0, 0)" stroke="rgb(204, 204, 204)" stroke-width="1px"></line></g><g transform="translate(0, 8)"><text x="0" y="0" dx="0em" dy="0.95em" style="text-anchor: middle; visibility: hidden; font-family: Roboto, sans-serif; font-size: 12px; font-weight: 200;" fill="rgb(33, 33, 33)" stroke="none" stroke-width="1px">-20</text><text x="28.888888888888886" y="0" dx="0em" dy="0.95em" style="text-anchor: middle; visibility: inherit; font-family: Roboto, sans-serif; font-size: 12px; font-weight: 200;" fill="rgb(33, 33, 33)" stroke="none" stroke-width="1px">0</text><text x="57.77777777777777" y="0" dx="0em" dy="0.95em" style="text-anchor: middle; visibility: inherit; font-family: Roboto, sans-serif; font-size: 12px; font-weight: 200;" fill="rgb(33, 33, 33)" stroke="none" stroke-width="1px">20</text><text x="86.66666666666666" y="0" dx="0em" dy="0.95em" style="text-anchor: middle; visibility: inherit; font-family: Roboto, sans-serif; font-size: 12px; font-weight: 200;" fill="rgb(33, 33, 33)" stroke="none" stroke-width="1px">40</text><text x="115.55555555555554" y="0" dx="0em" dy="0.95em" style="text-anchor: middle; visibility: inherit; font-family: Roboto, sans-serif; font-size: 12px; font-weight: 200;" fill="rgb(33, 33, 33)" stroke="none" stroke-width="1px">60</text><text x="144.44444444444446" y="0" dx="0em" dy="0.95em" style="text-anchor: middle; visibility: inherit; font-family: Roboto, sans-serif; font-size: 12px; font-weight: 200;" fill="rgb(33, 33, 33)" stroke="none" stroke-width="1px">80</text><text x="173.33333333333331" y="0" dx="0em" dy="0.95em" style="text-anchor: middle; visibility: inherit; font-family: Roboto, sans-serif; font-size: 12px; font-weight: 200;" fill="rgb(33, 33, 33)" stroke="none" stroke-width="1px">100</text><text x="202.22222222222223" y="0" dx="0em" dy="0.95em" style="text-anchor: middle; visibility: inherit; font-family: Roboto, sans-serif; font-size: 12px; font-weight: 200;" fill="rgb(33, 33, 33)" stroke="none" stroke-width="1px">120</text><text x="231.1111111111111" y="0" dx="0em" dy="0.95em" style="text-anchor: middle; visibility: inherit; font-family: Roboto, sans-serif; font-size: 12px; font-weight: 200;" fill="rgb(33, 33, 33)" stroke="none" stroke-width="1px">140</text><text x="260" y="0" dx="0em" dy="0.95em" style="text-anchor: middle; visibility: hidden; font-family: Roboto, sans-serif; font-size: 12px; font-weight: 200;" fill="rgb(33, 33, 33)" stroke="none" stroke-width="1px">160</text></g><line x1="0" y1="0" x2="260" y2="0" fill="rgb(0, 0, 0)" stroke="rgb(204, 204, 204)" stroke-width="1px"></line></g></g></g></g></svg>