<svg viewBox="0 0 330 200" xmlns="http://www.w3.org/2000/svg"><g><g><g><g><g><line x1="30.78125" y1="154.69280778534733" x2="25.78125" y2="154.69280778534733" style="visibility: inherit;" fill="rgb(0, 0, 0)" stroke="rgb(204, 204, 204)" stroke-width="1px"></line><line x1="30.78125" y1="130.47984738273345" x2="25.78125" y2="130.47984738273345" style="visibility: inherit;" fill="rgb(0, 0, 0)" stroke="rgb(204, 204, 204)" stroke-width="1px"></line><line x1="30.78125" y1="106.26688698011957" x2="25.78125" y2="106.26688698011957" style="visibility: inherit;" fill="rgb(0, 0, 0)" stroke="rgb(204, 204, 204)" stroke-width="1px"></line><line x1="30.78125" y1="82.05392657750568" x2="25.78125" y2="82.05392657750568" style="visibility: inherit;" fill="rgb(0, 0, 0)" stroke="rgb(204, 204, 204)" stroke-width="1px"></line><line x1="30.78125" y1="57.8409661748918" x2="25.78125" y2="57.8409661748918" style="visibility: inherit;" fill="rgb(0, 0, 0)" stroke="rgb(204, 204, 204)" stroke-width="1px"></line><line x1="30.78125" y1="33.628005772277916" x2="25.78125" y2="33.628005772277916" style="visibility: inherit;" fill="rgb(0, 0, 0)" stroke="rgb(204, 204, 204)" stroke-width="1px"></line><line x1="30.78125" y1="9.415045369664032" x2="25.78125" y2="9.415045369664032" style="visibility: inherit;" fill="rgb(0, 0, 0)" stroke="rgb(204, 204, 204)" stroke-width="1px"></line></g><g transform="translate(20.78125, 0)"><text x="0" y="154.69280778534733" dx="0em" dy="0.3em" style="text-anchor: end; visibility: inherit; font-family: Roboto, sans-serif; font-size: 12px; font-weight: 200;" fill="rgb(33, 33, 33)" stroke="none" stroke-width="1px">5</text><text x="0" y="130.47984738273345" dx="0em" dy="0.3em" style="text-anchor: end; visibility: inherit; font-family: Roboto, sans-serif; font-size: 12px; font-weight: 200;" fill="rgb(33, 33, 33)" stroke="none" stroke-width="1px">10</text><text x="0" y="106.26688698011957" dx="0em" dy="0.3em" style="text-anchor: end; visibility: inherit; font-family: Roboto, sans-serif; font-size: 12px; font-weight: 200;" fill="rgb(33, 33, 33)" stroke="none" stroke-width="1px">15</text><text x="0" y="82.05392657750568" dx="0em" dy="0.3em" style="text-anchor: end; visibility: inherit; font-family: Roboto, sans-serif; font-size: 12px; font-weight: 200;" fill="rgb(33, 33, 33)" stroke="none" stroke-width="1px">20</text><text x="0" y="57.8409661748918" dx="0em" dy="0.3em" style="text-anchor: end; visibility: inherit; font-family: Roboto, sans-serif; font-size: 12px; font-weight: 200;" fill="rgb(33, 33, 33)" stroke="none" stroke-width="1px">25</text><text x="0" y="33.628005772277916" dx="0em" dy="0.3em" style="text-anchor: end; visibility: inherit; font-family: Roboto, sans-serif; font-size: 12px; font-weight: 200;" fill="rgb(33, 33, 33)" stroke="none" stroke-width="1px">30</text><text x="0" y="9.415045369664032" dx="0em" dy="0.3em" style="text-anchor: end; visibility: inherit; font-family: Roboto, sans-serif; font-size: 12px; font-weight: 200;" fill="rgb(33, 33, 33)" stroke="none" stroke-width="1px">35</text></g><line x1="30.78125" y1="0" x2="30.78125" y2="177" fill="rgb(0, 0, 0)" stroke="rgb(204, 204, 204)" stroke-width="1px"></line></g></g><g transform="translate(30, 0)" clip-path="url(#clip_0)"><clipPath id="clip_0"><rect width="299" height="177"></rect></clipPath><g><g><g><line x1="12.602905338041758" y1="0" x2="12.602905338041758" y2="177" fill="rgb(0, 0, 0)" stroke="rgb(66, 66, 66)" stroke-width="1px" opacity="0.25"></line><line x1="47.5231613694051" y1="0" x2="47.5231613694051" y2="177" fill="rgb(0, 0, 0)" stroke="rgb(66, 66, 66)" stroke-width="1px" opacity="0.25"></line><line x1="82.44341740076844" y1="0" x2="82.44341740076844" y2="177" fill="rgb(0, 0, 0)" stroke="rgb(66, 66, 66)" stroke-width="1px" opacity="0.25"></line><line x1="117.36367343213179" y1="0" x2="117.36367343213179" y2="177" fill="rgb(0, 0, 0)" stroke="rgb(66, 66, 66)" stroke-width="1px" opacity="0.25"></line><line x1="152.28392946349513" y1="0" x2="152.28392946349513" y2="177" fill="rgb(0, 0, 0)" stroke="rgb(66, 66, 66)" stroke-width="1px" opacity="0.25"></line><line x1="187.20418549485848" y1="0" x2="187.20418549485848" y2="177" fill="rgb(0, 0, 0)" stroke="rgb(66, 66, 66)" stroke-width="1px" opacity="0.25"></line><line x1="222.12444152622183" y1="0" x2="222.12444152622183" y2="177" fill="rgb(0, 0, 0)" stroke="rgb(66, 66, 66)" stroke-width="1px" opacity="0.25"></line><line x1="257.04469755758515" y1="0" x2="257.04469755758515" y2="177" fill="rgb(0, 0, 0)" stroke="rgb(66, 66, 66)" stroke-width="1px" opacity="0.25"></line><line x1="291.9649535889485" y1="0" x2="291.9649535889485" y2="177" fill="rgb(0, 0, 0)" stroke="rgb(66, 66, 66)" stroke-width="1px" opacity="0.25"></line></g><g><line x1="0" y1="154.69280778534733" x2="299.21875" y2="154.69280778534733" fill="rgb(0, 0, 0)" stroke="rgb(66, 66, 66)" stroke-width="1px" opacity="0.25"></line><line x1="0" y1="130.47984738273345" x2="299.21875" y2="130.47984738273345" fill="rgb(0, 0, 0)" stroke="rgb(66, 66, 66)" stroke-width="1px" opacity="0.25"></line><line x1="0" y1="106.26688698011957" x2="299.21875" y2="106.26688698011957" fill="rgb(0, 0, 0)" stroke="rgb(66, 66, 66)" stroke-width="1px" opacity="0.25"></line><line x1="0" y1="82.05392657750568" x2="299.21875" y2="82.05392657750568" fill="rgb(0, 0, 0)" stroke="rgb(66, 66, 66)" stroke-width="1px" opacity="0.25"></line><line x1="0" y1="57.8409661748918" x2="299.21875" y2="57.8409661748918" fill="rgb(0, 0, 0)" stroke="rgb(66, 66, 66)" stroke-width="1px" opacity="0.25"></line><line x1="0" y1="33.628005772277916" x2="299.21875" y2="33.628005772277916" fill="rgb(0, 0, 0)" stroke="rgb(66, 66, 66)" stroke-width="1px" opacity="0.25"></line><line x1="0" y1="9.415045369664032" x2="299.21875" y2="9.415045369664032" fill="rgb(0, 0, 0)" stroke="rgb(66, 66, 66)" stroke-width="1px" opacity="0.25"></line></g></g></g><g><g><line x1="0" y1="178.90576818796123" x2="299.21875" y2="178.90576818796123" fill="rgb(0, 0, 0)" stroke="rgb(153, 153, 153)" stroke-width="1.5px"></line></g></g><g><g><line x1="12.602905338041758" y1="0" x2="12.602905338041758" y2="177" fill="rgb(0, 0, 0)" stroke="rgb(153, 153, 153)" stroke-width="1.5px"></line></g></g><g><g><g><g><g><path stroke="rgb(0, 119, 187)" stroke-width="2px" d="M12.602905338041758,167.52514154289798L14.348918139609925,168.36522029618666L16.09493094117809,168.4101163811631L17.84094374274626,156.62084157018842L19.586956544314425,152.58686153954469L21.332969345882592,151.00998114381974L23.07898214745076,144.3408373566537L24.824994949018926,142.70986236304535L26.571007750587096,150.1958475534226L28.31702055215526,156.07061444671294L30.06303335372343,165.64523856453823L31.809046155291593,111.19531468040401L33.55505895685977,147.34641172189347L35.30107175842793,141.5316605128905L37.0470845599961,160.41041582861786L38.793097361564264,166.4001738515545L40.539110163132435,167.05257183677068L42.2851229647006,167.02206779476015L44.03113576626877,168.36210387619866L45.77714856783693,165.63069965679247L47.5231613694051,106.9456506142519L49.26917417097327,32.29296904858881L51.015186972541436,61.365950182082024L52.7611997741096,105.62612509282276L54.50721257567777,111.0176982406443L56.25322537724594,139.18403588413926L57.99923817881411,161.86913495953894L59.74525098038227,162.8075123079421L61.49126378195044,166.78835465044827L63.23727658351861,169.9975000099533L64.98328938508678,168.5643406396288L66.72930218665493,168.89379639062392L68.4753149882231,168.61922337913245L70.22132778979127,168.58838117859713L71.96734059135945,168.2869032777606L73.71335339292762,169.48660389407556L75.45936619449579,168.40723691635984L77.20537899606396,167.46254500566135L78.95139179763211,168.07561626105013L80.69740459920027,169.07762742381504L82.44341740076844,169.9195488704236L84.18943020233661,170.51663695597725L85.93544300390478,171.06801101320525L87.68145580547295,171.38891985267034L89.42746860704112,171.52262977423578L91.17348140860929,171.81546870412828L92.91949421017746,171.29309674005933L94.66550701174562,171.04541567834286L96.41151981331377,171.6646914035299L98.15753261488194,171.85376391244807L99.90354541645011,172.31236924551618L101.64955821801829,172.54283377715277L103.39557101958646,172.66870698835882L105.14158382115463,172.63705941662167L106.8875966227228,172.47675662358063L108.63360942429095,172.5397989759253L110.37962222585912,172.81411706907934L112.1256350274273,172.09261926485777L113.87164782899545,170.75739641473146L115.61766063056362,172.2099662944677L117.36367343213179,172.8009696163338L119.10968623369996,173.144721442864L120.85569903526813,172.4792245556633L122.60171183683629,172.83017485748604L124.34772463840446,172.87202395589892L126.09373743997263,172.78204125076763L127.8397502415408,172.58744800161742L129.58576304310895,172.34675081389645L131.3317758446771,171.99554145410815L133.0777886462453,168.43425698171365L134.82380144781345,168.32244594119996L136.56981424938164,171.626132873042L138.3158270509498,172.754581055359L140.06183985251798,173.25920214124565L141.80785265408613,173.4307383941571L143.55386545565432,173.52382236464285L145.29987825722247,173.52448231628534L147.04589105879063,173.4698465120801L148.7919038603588,173.4043485858003L150.53791666192697,173.47378744378267L152.28392946349513,173.52635080789602L154.0299422650633,173.54354317723357L155.77595506663147,173.50729894264538L157.52196786819965,173.52745999050913L159.2679806697678,173.57174676463637L161.01399347133597,173.5557620679445L162.76000627290415,173.48836305928876L164.5060190744723,173.5613958987175L166.2520318760405,173.6078053202658L167.99804467760865,173.59467194474774L169.74405747917683,173.48897559244776L171.49007028074496,173.46283655295835L173.23608308231312,173.58981032773636L174.9820958838813,173.57792859316146L176.72810868544946,173.6285983268463L178.47412148701764,173.65654928804196L180.2201342885858,173.51964690145235L181.96614709015398,173.2451580250161L183.71215989172214,173.50866331044625L185.45817269329032,173.54114284987017L187.20418549485848,173.55941737714824L188.95019829642663,173.61624736262814L190.69621109799482,173.60577525744395L192.44222389956298,173.5171830516557L194.18823670113116,173.0750282627257L195.93424950269932,172.87297896633703L197.6802623042675,173.15462768856406L199.42627510583566,173.39531841529313L201.17228790740384,173.54851790250763L202.918300708972,173.6403166756868L204.66431351054013,173.68115579386355L206.4103263121083,173.688350949021L208.15633911367647,173.68531445725515L209.90235191524465,173.67960916476477L211.6483647168128,173.68860530293946L213.394377518381,173.69822997954418L215.14039031994915,173.71012086524382L216.8864031215173,173.71140891623043L218.6324159230855,173.71207187919285L220.37842872465365,173.71550162650297L222.12444152622183,173.69757375664776L223.87045432779,173.67764890722378L225.61646712935817,173.6855189086917L227.36247993092633,173.695285096119L229.1084927324945,173.69810127996723L230.85450553406267,173.68575720357504L232.60051833563085,173.6975892878067L234.346531137199,173.7133726421155L236.09254393876716,173.71782672244925L237.83855674033532,173.70778816141612L239.58456954190348,173.72752622958913L241.33058234347166,173.7137804602995L243.07659514503982,173.695791022483L244.82260794660797,173.69576771875424L246.56862074817616,173.69623203687635L248.31463354974431,173.6871635496628L250.0606463513125,173.65934282421796L251.80665915288066,173.67116494782948L253.55267195444884,173.67039633697468L255.298684756017,173.67455673246812L257.04469755758515,173.7040666913115L258.79071035915337,173.71256237648925L260.5367231607215,173.7153465414509L262.2827359622897,173.71793822255222L264.02874876385783,173.71814104269075L265.774761565426,173.71852525085643L267.5207743669942,173.71624889819216L269.26678716856236,173.7175668571124L271.0127999701305,173.71855178107006L272.7588127716987,173.71699775963836" style="fill: none;" fill="none"></path></g><g><path stroke="rgb(255, 112, 67)" stroke-width="2px" d="M12.602905338041758,167.51585423070134L14.348918139609925,168.66136480518787L16.09493094117809,169.16309468283086L17.84094374274626,169.6569612217256L19.586956544314425,169.9797790140181L21.332969345882592,170.22905003881584L23.07898214745076,170.40277867609137L24.824994949018926,170.65497761567173L26.571007750587096,170.78993534185312L28.31702055215526,170.7650043459287L30.06303335372343,170.79212643892893L31.809046155291593,171.09375825066692L33.55505895685977,171.08664944179884L35.30107175842793,170.98732840670434L37.0470845599961,171.14509092847936L38.793097361564264,171.13505337659532L40.539110163132435,171.20198749047117L42.2851229647006,171.35682672439737L44.03113576626877,171.39799488615324L45.77714856783693,171.291258215281L47.5231613694051,171.3893826584057L49.26917417097327,171.65548842267222L51.015186972541436,171.84671767999353L52.7611997741096,171.8602875463329L54.50721257567777,172.09053547928752L56.25322537724594,172.09277227193996L57.99923817881411,172.12785687761274L59.74525098038227,172.16288668139416L61.49126378195044,172.24086572938646L63.23727658351861,172.32637314385062L64.98328938508678,172.2813197341567L66.72930218665493,172.35987835177565L68.4753149882231,172.44531370417482L70.22132778979127,172.40050467491284L71.96734059135945,172.4837907832209L73.71335339292762,172.488650345308L75.45936619449579,172.58535199326104L77.20537899606396,172.50851443719156L78.95139179763211,172.5271442013926L80.69740459920027,172.66951059108098L82.44341740076844,172.7895085491411L84.18943020233661,172.85249660194842L85.93544300390478,172.89782737201995L87.68145580547295,172.86002676624983L89.42746860704112,172.89837171918492L91.17348140860929,172.88703352152848L92.91949421017746,172.85163754114228L94.66550701174562,172.87796775886474L96.41151981331377,172.96901516786326L98.15753261488194,172.963812391279L99.90354541645011,173.03339146271017L101.64955821801829,173.04229845775427L103.39557101958646,173.0121560338028L105.14158382115463,173.02335149355025L106.8875966227228,173.0012239045927L108.63360942429095,173.04443693651635L110.37962222585912,173.0733132921371L112.1256350274273,173.03550147505973L113.87164782899545,173.07691717930717L115.61766063056362,173.09411250625982L117.36367343213179,173.16942856142063L119.10968623369996,173.17637763222186L120.85569903526813,173.17584775066615L122.60171183683629,173.15642893353404L124.34772463840446,173.09896506006518L126.09373743997263,173.26838794676178L127.8397502415408,173.27429397345065L129.58576304310895,173.24806077089738L131.3317758446771,173.22858338171767L133.0777886462453,173.33407454298538L134.82380144781345,173.29123227123523L136.56981424938164,173.32980351612431L138.3158270509498,173.2978401641912L140.06183985251798,173.34694585644948L141.80785265408613,173.40372633977725L143.55386545565432,173.34226145474227L145.29987825722247,173.27769824044472L147.04589105879063,173.33699923733218L148.7919038603588,173.3724801964759L150.53791666192697,173.37941176446682L152.28392946349513,173.44984161411085L154.0299422650633,173.3666690630634L155.77595506663147,173.21829501088322L157.52196786819965,173.45106776209292L159.2679806697678,173.28149691739267L161.01399347133597,173.35195704635555L162.76000627290415,173.44751069418814L164.5060190744723,173.42263382324612L166.2520318760405,173.3848797656957L167.99804467760865,173.2869653994095L169.74405747917683,173.38204730293276L171.49007028074496,173.4028155142705L173.23608308231312,173.41076072032604L174.9820958838813,173.41156356217888L176.72810868544946,173.43359753095845L178.47412148701764,173.43208017088585L180.2201342885858,173.50242109599483L181.96614709015398,173.3732878901965L183.71215989172214,173.42371898356743L185.45817269329032,173.45114626627358L187.20418549485848,173.40439192383093L188.95019829642663,173.40890677976293L190.69621109799482,173.3838064246121L192.44222389956298,173.37413540253183L194.18823670113116,173.48335647276457L195.93424950269932,173.52082784946535L197.6802623042675,173.4093364300613L199.42627510583566,173.42909977250318L201.17228790740384,173.49017579976123L202.918300708972,173.44418433588234L204.66431351054013,173.4184806780967L206.4103263121083,173.44504985319415L208.15633911367647,173.52092097704883L209.90235191524465,173.51014491642948L211.6483647168128,173.49612580674042L213.394377518381,173.3847174324663L215.14039031994915,173.46618687753886L216.8864031215173,173.5224151764205L218.6324159230855,173.36656787029642L220.37842872465365,173.41946582709852L222.12444152622183,173.40398405428869L223.87045432779,173.47282054539122L225.61646712935817,173.47673754718437L227.36247993092633,173.46799640402372L229.1084927324945,173.38582089921755L230.85450553406267,173.46693427117668L232.60051833563085,173.46890417263327L234.346531137199,173.53878531015368L236.09254393876716,173.46092401171722L237.83855674033532,173.46645144541134L239.58456954190348,173.50490699206438L241.33058234347166,173.4210289193387L243.07659514503982,173.38532124797794L244.82260794660797,173.39554575739098L246.56862074817616,173.48324544769355L248.31463354974431,173.47630930522473L250.0606463513125,173.53222547615636L251.80665915288066,173.43908233059423L253.55267195444884,173.4494228058497L255.298684756017,173.37869227036109L257.04469755758515,173.55757459384594L258.79071035915337,173.4348626692684L260.5367231607215,173.50072457670058L262.2827359622897,173.54561838766597L264.02874876385783,173.56421375562533L265.774761565426,173.51442044733173L267.5207743669942,173.51043107459947L269.26678716856236,173.59327313455037L271.0127999701305,173.5002170907325L272.7588127716987,173.40954627427737" style="fill: none;" fill="none"></path></g></g></g></g><g opacity="0.2"><g><g><g><path stroke="rgb(0, 119, 187)" stroke-width="2px" d="M12.602905338041758,167.52514154289798L14.348918139609925,168.58952132331473L16.09493094117809,168.42530423285373L17.84094374274626,152.40826060525472L19.586956544314425,151.1249258587872L21.332969345882592,150.43637164464016L23.07898214745076,141.91243864084336L24.824994949018926,142.11582662152026L26.571007750587096,152.92259574167574L28.31702055215526,158.210521600325L30.06303335372343,169.13285102353424L31.809046155291593,91.3615868087508L33.55505895685977,160.51468135777773L35.30107175842793,139.413599778385L37.0470845599961,167.28712472647837L38.793097361564264,168.5819820208975L40.539110163132435,167.29021203040853L42.2851229647006,167.01095649978694L44.03113576626877,168.85022070256574L45.77714856783693,164.63576796979083L47.5231613694051,85.56924120865132L49.26917417097327,5.100246022648852L51.015186972541436,71.95597195921815L52.7611997741096,121.74818061965362L54.50721257567777,112.98161369830912L56.25322537724594,149.44380689479834L57.99923817881411,170.132329302147L59.74525098038227,163.149322337988L61.49126378195044,168.23840227043345L63.23727658351861,171.16645200311547L64.98328938508678,168.04230305180255L66.72930218665493,169.0138027828691L68.4753149882231,168.51920838040363L70.22132778979127,168.57714670718795L71.96734059135945,168.17708799873827L73.71335339292762,169.92360261789014L75.45936619449579,168.01407050019327L77.20537899606396,167.11843485537966L78.95139179763211,168.29893143866104L80.69740459920027,169.44261648310322L82.44341740076844,170.22622421318553L84.18943020233661,170.7341301604013L85.93544300390478,171.26885258657478L87.68145580547295,171.50581297700484L89.42746860704112,171.57133447963545L91.17348140860929,171.92213718200182L92.91949421017746,171.1028193670629L94.66550701174562,170.95519624658527L96.41151981331377,171.89026659947115L98.15753261488194,171.92263479905264L99.90354541645011,172.4794192099489L101.64955821801829,172.62678197626187L103.39557101958646,172.7145571212265L105.14158382115463,172.62553158353325L106.8875966227228,172.41836529241834L108.63360942429095,172.56276256129507L110.37962222585912,172.9140392121518L112.1256350274273,171.82980901420683L113.87164782899545,170.27103283903742L115.61766063056362,172.73907428613154L117.36367343213179,173.016246406154L119.10968623369996,173.26993527326454L120.85569903526813,172.23681300193533L122.60171183683629,172.95801077915954L124.34772463840446,172.8872677611871L126.09373743997263,172.749264467316L127.8397502415408,172.5165661496077L129.58576304310895,172.25907530349875L131.3317758446771,171.86761116889195L133.0777886462453,167.1370360347432L134.82380144781345,168.28171804513292L136.56981424938164,172.82952224657794L138.3158270509498,173.16562561835855L140.06183985251798,173.44301364183463L141.80785265408613,173.49322158587245L143.55386545565432,173.5577288040967L145.29987825722247,173.52472270794775L147.04589105879063,173.4499450663464L148.7919038603588,173.38049054171205L150.53791666192697,173.49908099778173L152.28392946349513,173.5454973538964L154.0299422650633,173.54980560917508L155.77595506663147,173.4940967453261L157.52196786819965,173.5348037828415L159.2679806697678,173.58787850910016L161.01399347133597,173.54993953859017L162.76000627290415,173.46381253362563L164.5060190744723,173.58799858374815L166.2520318760405,173.624710252808L167.99804467760865,173.58988802760817L169.74405747917683,173.45047501118705L171.49007028074496,173.45331523843765L173.23608308231312,173.63606134801702L174.9820958838813,173.5736005943463L176.72810868544946,173.64705510569192L178.47412148701764,173.66673060678582L180.2201342885858,173.46977931997972L181.96614709015398,173.14517367302636L183.71215989172214,173.60464681823595L185.45817269329032,173.55297373257983L187.20418549485848,173.56607399213223L188.95019829642663,173.6369480531099L190.69621109799482,173.60196072526907L192.44222389956298,173.48491276660053L194.18823670113116,172.9139705155984L195.93424950269932,172.7993812008039L197.6802623042675,173.25722006078044L199.42627510583566,173.48299157223263L201.17228790740384,173.60432180849162L202.918300708972,173.6737549736934L204.66431351054013,173.69603170730585L206.4103263121083,173.69097183091327L208.15633911367647,173.6842083954523L209.90235191524465,173.6775309750036L211.6483647168128,173.69188220456658L213.394377518381,173.70173583036745L215.14039031994915,173.71445219741545L216.8864031215173,173.7118780971491L218.6324159230855,173.7123133677481L220.37842872465365,173.71675093418617L222.12444152622183,173.69104341387649L223.87045432779,173.6703911517037L225.61646712935817,173.68838560772573L227.36247993092633,173.69884249317641L229.1084927324945,173.69912709318342L230.85450553406267,173.68126079375688L232.60051833563085,173.70189920116258L234.346531137199,173.71912183120207L236.09254393876716,173.71944915007424L237.83855674033532,173.7041315505077L239.58456954190348,173.73471594882815L241.33058234347166,173.70877347476016L243.07659514503982,173.68923825318288L244.82260794660797,173.69575923022003L246.56862074817616,173.69640116776122L248.31463354974431,173.6838602944295L250.0606463513125,173.64920894469026L251.80665915288066,173.67547123296492L253.55267195444884,173.67011636549003L255.298684756017,173.67607218348687L257.04469755758515,173.7148158850512L258.79071035915337,173.7156569848691L260.5367231607215,173.71636069158018L262.2827359622897,173.71888225918804L264.02874876385783,173.71821492124053L265.774761565426,173.7186652011705L267.5207743669942,173.71541972198293L269.26678716856236,173.71804693218974L271.0127999701305,173.71891054600417L272.7588127716987,173.71643169726144" style="fill: none;" fill="none"></path></g><g><path stroke="rgb(255, 112, 67)" stroke-width="2px" d="M12.602905338041758,167.51585423070134L14.348918139609925,168.96721612857579L16.09493094117809,169.3328243814088L17.84094374274626,169.83343117550334L19.586956544314425,170.09676988788232L21.332969345882592,170.31972541792632L23.07898214745076,170.46603753106933L24.824994949018926,170.74683382724615L26.571007750587096,170.83909329848774L28.31702055215526,170.75592313173001L30.06303335372343,170.80200581887095L31.809046155291593,171.20362953871825L33.55505895685977,171.08406001244188L35.30107175842793,170.9511500773171L37.0470845599961,171.20255694883377L38.793097361564264,171.13139713328513L40.539110163132435,171.22636867518187L42.2851229647006,171.41322791873696L44.03113576626877,171.4129906558508L45.77714856783693,171.25237869123936L47.5231613694051,171.4251251226816L49.26917417097327,171.75241917172966L51.015186972541436,171.91637417618014L52.7611997741096,171.86523045808272L54.50721257567777,172.1744047809231L56.25322537724594,172.09358703815852L57.99923817881411,172.14063667258498L59.74525098038227,172.1756465144223L61.49126378195044,172.26927010293892L63.23727658351861,172.3575197736759L64.98328938508678,172.26490873771974L66.72930218665493,172.38849383732037L68.4753149882231,172.47643408492596L70.22132778979127,172.38418269563186L71.96734059135945,172.5141282878843L73.71335339292762,172.4904204722893L75.45936619449579,172.62057619517572L77.20537899606396,172.4805258594691L78.95139179763211,172.53393021372779L80.69740459920027,172.72136847109027L82.44341740076844,172.83321858297742L84.18943020233661,172.87544040835982L85.93544300390478,172.9143393987718L87.68145580547295,172.84625765064192L89.42746860704112,172.9123391167752L91.17348140860929,172.88290350955813L92.91949421017746,172.83874432591293L94.66550701174562,172.8875587112957L96.41151981331377,173.00217977659807L98.15753261488194,172.96191724619302L99.90354541645011,173.05873609036655L101.64955821801829,173.04554288841837L103.39557101958646,173.00117646054898L105.14158382115463,173.02742951231227L106.8875966227228,172.99316378692333L108.63360942429095,173.06017756342445L110.37962222585912,173.08383169179703L112.1256350274273,173.02172827566048L113.87164782899545,173.09200311796212L115.61766063056362,173.10037601553177L117.36367343213179,173.19686292257742L119.10968623369996,173.17890887629272L120.85569903526813,173.17565473787573L122.60171183683629,173.1493555035555L124.34772463840446,173.07803347177568L126.09373743997263,173.3301013311383L127.8397502415408,173.2764452819444L129.58576304310895,173.23850515687047L131.3317758446771,173.22148861649126L133.0777886462453,173.37250038208288L134.82380144781345,173.275626696123L136.56981424938164,173.34385334202523L138.3158270509498,173.28619730612007L140.06183985251798,173.36483292307017L141.80785265408613,173.42440899877928L143.55386545565432,173.31987247206243L145.29987825722247,173.25418067125312L147.04589105879063,173.35860000973182L148.7919038603588,173.38540436576835L150.53791666192697,173.38193663302562L152.28392946349513,173.4754961432445L154.0299422650633,173.33637292236807L155.77595506663147,173.16424880088036L157.52196786819965,173.53585674513928L159.2679806697678,173.21972963835455L161.01399347133597,173.3776226049273L162.76000627290415,173.48231672961967L164.5060190744723,173.41357226179795L166.2520318760405,173.3711276055784L167.99804467760865,173.25129945698328L169.74405747917683,173.41668150244263L171.49007028074496,173.4103804698328L173.23608308231312,173.41365481311846L174.9820958838813,173.4118560025264L176.72810868544946,173.44162354687134L178.47412148701764,173.43152746264659L180.2201342885858,173.52804323379033L181.96614709015398,173.3262502831731L183.71215989172214,173.44208883613229L185.45817269329032,173.46113683173405L187.20418549485848,173.38736135161784L188.95019829642663,173.41055134529338L190.69621109799482,173.37466345759262L192.44222389956298,173.37061267006877L194.18823670113116,173.52314095537324L195.93424950269932,173.53447704125128L197.6802623042675,173.36872495805463L199.42627510583566,173.4362986980584L201.17228790740384,173.51242313847598L202.918300708972,173.42743164712974L204.66431351054013,173.409117954183L206.4103263121083,173.45472784739746L208.15633911367647,173.5485575255743L209.90235191524465,173.50621966651767L211.6483647168128,173.49101925518931L213.394377518381,173.34413621018635L215.14039031994915,173.49586265084633L216.8864031215173,173.5428966986598L218.6324159230855,173.30979947911615L220.37842872465365,173.438734250654L222.12444152622183,173.3983447182174L223.87045432779,173.4978946833508L225.61646712935817,173.47816434047056L227.36247993092633,173.46481238598295L229.1084927324945,173.3558879390767L230.85450553406267,173.49648034254514L232.60051833563085,173.46962172200423L234.346531137199,173.5642399673405L236.09254393876716,173.43256252920358L237.83855674033532,173.46846484895337L239.58456954190348,173.51891467413307L241.33058234347166,173.39047578780017L243.07659514503982,173.37231449729126L244.82260794660797,173.3992701012017L246.56862074817616,173.51519062819943L248.31463354974431,173.47378277038274L250.0606463513125,173.5525933037672L251.80665915288066,173.4051543362353L253.55267195444884,173.45318939097004L255.298684756017,173.35292821446004L257.04469755758515,173.6227336393718L258.79071035915337,173.39016405554096L260.5367231607215,173.52471520328226L262.2827359622897,173.56197124923182L264.02874876385783,173.57098723890658L265.774761565426,173.49628291211428L267.5207743669942,173.50897791972974L269.26678716856236,173.6234488917221L271.0127999701305,173.46632082374836L272.7588127716987,173.3765188418169" style="fill: none;" fill="none"></path></g></g></g></g></g></g><g transform="translate(30, 177)" clip-path="url(#clip_1)"><clipPath id="clip_1"><rect width="299" height="23"></rect></clipPath><g><g><line x1="12.602905338041758" y1="0" x2="12.602905338041758" y2="5" style="visibility: inherit;" fill="rgb(0, 0, 0)" stroke="rgb(204, 204, 204)" stroke-width="1px"></line><line x1="47.5231613694051" y1="0" x2="47.5231613694051" y2="5" style="visibility: inherit;" fill="rgb(0, 0, 0)" stroke="rgb(204, 204, 204)" stroke-width="1px"></line><line x1="82.44341740076844" y1="0" x2="82.44341740076844" y2="5" style="visibility: inherit;" fill="rgb(0, 0, 0)" stroke="rgb(204, 204, 204)" stroke-width="1px"></line><line x1="117.36367343213179" y1="0" x2="117.36367343213179" y2="5" style="visibility: inherit;" fill="rgb(0, 0, 0)" stroke="rgb(204, 204, 204)" stroke-width="1px"></line><line x1="152.28392946349513" y1="0" x2="152.28392946349513" y2="5" style="visibility: inherit;" fill="rgb(0, 0, 0)" stroke="rgb(204, 204, 204)" stroke-width="1px"></line><line x1="187.20418549485848" y1="0" x2="187.20418549485848" y2="5" style="visibility: inherit;" fill="rgb(0, 0, 0)" stroke="rgb(204, 204, 204)" stroke-width="1px"></line><line x1="222.12444152622183" y1="0" x2="222.12444152622183" y2="5" style="visibility: inherit;" fill="rgb(0, 0, 0)" stroke="rgb(204, 204, 204)" stroke-width="1px"></line><line x1="257.04469755758515" y1="0" x2="257.04469755758515" y2="5" style="visibility: inherit;" fill="rgb(0, 0, 0)" stroke="rgb(204, 204, 204)" stroke-width="1px"></line><line x1="291.9649535889485" y1="0" x2="291.9649535889485" y2="5" style="visibility: inherit;" fill="rgb(0, 0, 0)" stroke="rgb(204, 204, 204)" stroke-width="1px"></line></g><g transform="translate(0, 8)"><text x="12.602905338041758" y="0" dx="0em" dy="0.95em" style="text-anchor: middle; visibility: inherit; font-family: Roboto, sans-serif; font-size: 12px; font-weight: 200;" fill="rgb(33, 33, 33)" stroke="none" stroke-width="1px">0</text><text x="47.5231613694051" y="0" dx="0em" dy="0.95em" style="text-anchor: middle; visibility: inherit; font-family: Roboto, sans-serif; font-size: 12px; font-weight: 200;" fill="rgb(33, 33, 33)" stroke="none" stroke-width="1px">20</text><text x="82.44341740076844" y="0" dx="0em" dy="0.95em" style="text-anchor: middle; visibility: inherit; font-family: Roboto, sans-serif; font-size: 12px; font-weight: 200;" fill="rgb(33, 33, 33)" stroke="none" stroke-width="1px">40</text><text x="117.36367343213179" y="0" dx="0em" dy="0.95em" style="text-anchor: middle; visibility: inherit; font-family: Roboto, sans-serif; font-size: 12px; font-weight: 200;" fill="rgb(33, 33, 33)" stroke="none" stroke-width="1px">60</text><text x="152.28392946349513" y="0" dx="0em" dy="0.95em" style="text-anchor: middle; visibility: inherit; font-family: Roboto, sans-serif; font-size: 12px; font-weight: 200;" fill="rgb(33, 33, 33)" stroke="none" stroke-width="1px">80</text><text x="187.20418549485848" y="0" dx="0em" dy="0.95em" style="text-anchor: middle; visibility: inherit; font-family: Roboto, sans-serif; font-size: 12px; font-weight: 200;" fill="rgb(33, 33, 33)" stroke="none" stroke-width="1px">100</text><text x="222.12444152622183" y="0" dx="0em" dy="0.95em" style="text-anchor: middle; visibility: inherit; font-family: Roboto, sans-serif; font-size: 12px; font-weight: 200;" fill="rgb(33, 33, 33)" stroke="none" stroke-width="1px">120</text><text x="257.04469755758515" y="0" dx="0em" dy="0.95em" style="text-anchor: middle; visibility: inherit; font-family: Roboto, sans-serif; font-size: 12px; font-weight: 200;" fill="rgb(33, 33, 33)" stroke="none" stroke-width="1px">140</text><text x="291.9649535889485" y="0" dx="0em" dy="0.95em" style="text-anchor: middle; visibility: hidden; font-family: Roboto, sans-serif; font-size: 12px; font-weight: 200;" fill="rgb(33, 33, 33)" stroke="none" stroke-width="1px">160</text></g><line x1="0" y1="0" x2="299.21875" y2="0" fill="rgb(0, 0, 0)" stroke="rgb(204, 204, 204)" stroke-width="1px"></line></g></g></g></g></svg>