<svg viewBox="0 0 330 200" xmlns="http://www.w3.org/2000/svg"><g><g><g><g><g><line x1="70" y1="177" x2="65" y2="177" style="visibility: inherit;" fill="rgb(0, 0, 0)" stroke="rgb(204, 204, 204)" stroke-width="1px"></line><line x1="70" y1="163.3846153846154" x2="65" y2="163.3846153846154" style="visibility: inherit;" fill="rgb(0, 0, 0)" stroke="rgb(204, 204, 204)" stroke-width="1px"></line><line x1="70" y1="149.76923076923077" x2="65" y2="149.76923076923077" style="visibility: inherit;" fill="rgb(0, 0, 0)" stroke="rgb(204, 204, 204)" stroke-width="1px"></line><line x1="70" y1="136.15384615384616" x2="65" y2="136.15384615384616" style="visibility: inherit;" fill="rgb(0, 0, 0)" stroke="rgb(204, 204, 204)" stroke-width="1px"></line><line x1="70" y1="122.53846153846153" x2="65" y2="122.53846153846153" style="visibility: inherit;" fill="rgb(0, 0, 0)" stroke="rgb(204, 204, 204)" stroke-width="1px"></line><line x1="70" y1="108.92307692307693" x2="65" y2="108.92307692307693" style="visibility: inherit;" fill="rgb(0, 0, 0)" stroke="rgb(204, 204, 204)" stroke-width="1px"></line><line x1="70" y1="95.30769230769232" x2="65" y2="95.30769230769232" style="visibility: inherit;" fill="rgb(0, 0, 0)" stroke="rgb(204, 204, 204)" stroke-width="1px"></line><line x1="70" y1="81.6923076923077" x2="65" y2="81.6923076923077" style="visibility: inherit;" fill="rgb(0, 0, 0)" stroke="rgb(204, 204, 204)" stroke-width="1px"></line><line x1="70" y1="68.0769230769231" x2="65" y2="68.0769230769231" style="visibility: inherit;" fill="rgb(0, 0, 0)" stroke="rgb(204, 204, 204)" stroke-width="1px"></line><line x1="70" y1="54.46153846153847" x2="65" y2="54.46153846153847" style="visibility: inherit;" fill="rgb(0, 0, 0)" stroke="rgb(204, 204, 204)" stroke-width="1px"></line><line x1="70" y1="40.846153846153875" x2="65" y2="40.846153846153875" style="visibility: inherit;" fill="rgb(0, 0, 0)" stroke="rgb(204, 204, 204)" stroke-width="1px"></line><line x1="70" y1="27.23076923076925" x2="65" y2="27.23076923076925" style="visibility: inherit;" fill="rgb(0, 0, 0)" stroke="rgb(204, 204, 204)" stroke-width="1px"></line><line x1="70" y1="13.615384615384626" x2="65" y2="13.615384615384626" style="visibility: inherit;" fill="rgb(0, 0, 0)" stroke="rgb(204, 204, 204)" stroke-width="1px"></line><line x1="70" y1="0" x2="65" y2="0" style="visibility: inherit;" fill="rgb(0, 0, 0)" stroke="rgb(204, 204, 204)" stroke-width="1px"></line></g><g transform="translate(60, 0)"><text x="0" y="177" dx="0em" dy="0.3em" style="text-anchor: end; visibility: hidden; font-family: Roboto, sans-serif; font-size: 12px; font-weight: 200;" fill="rgb(33, 33, 33)" stroke="none" stroke-width="1px">-5e-4</text><text x="0" y="163.3846153846154" dx="0em" dy="0.3em" style="text-anchor: end; visibility: inherit; font-family: Roboto, sans-serif; font-size: 12px; font-weight: 200;" fill="rgb(33, 33, 33)" stroke="none" stroke-width="1px">0</text><text x="0" y="149.76923076923077" dx="0em" dy="0.3em" style="text-anchor: end; visibility: hidden; font-family: Roboto, sans-serif; font-size: 12px; font-weight: 200;" fill="rgb(33, 33, 33)" stroke="none" stroke-width="1px">5e-4</text><text x="0" y="136.15384615384616" dx="0em" dy="0.3em" style="text-anchor: end; visibility: inherit; font-family: Roboto, sans-serif; font-size: 12px; font-weight: 200;" fill="rgb(33, 33, 33)" stroke="none" stroke-width="1px">1e-3</text><text x="0" y="122.53846153846153" dx="0em" dy="0.3em" style="text-anchor: end; visibility: hidden; font-family: Roboto, sans-serif; font-size: 12px; font-weight: 200;" fill="rgb(33, 33, 33)" stroke="none" stroke-width="1px">1.5e-3</text><text x="0" y="108.92307692307693" dx="0em" dy="0.3em" style="text-anchor: end; visibility: inherit; font-family: Roboto, sans-serif; font-size: 12px; font-weight: 200;" fill="rgb(33, 33, 33)" stroke="none" stroke-width="1px">2e-3</text><text x="0" y="95.30769230769232" dx="0em" dy="0.3em" style="text-anchor: end; visibility: hidden; font-family: Roboto, sans-serif; font-size: 12px; font-weight: 200;" fill="rgb(33, 33, 33)" stroke="none" stroke-width="1px">2.5e-3</text><text x="0" y="81.6923076923077" dx="0em" dy="0.3em" style="text-anchor: end; visibility: inherit; font-family: Roboto, sans-serif; font-size: 12px; font-weight: 200;" fill="rgb(33, 33, 33)" stroke="none" stroke-width="1px">3e-3</text><text x="0" y="68.0769230769231" dx="0em" dy="0.3em" style="text-anchor: end; visibility: hidden; font-family: Roboto, sans-serif; font-size: 12px; font-weight: 200;" fill="rgb(33, 33, 33)" stroke="none" stroke-width="1px">3.5e-3</text><text x="0" y="54.46153846153847" dx="0em" dy="0.3em" style="text-anchor: end; visibility: inherit; font-family: Roboto, sans-serif; font-size: 12px; font-weight: 200;" fill="rgb(33, 33, 33)" stroke="none" stroke-width="1px">4e-3</text><text x="0" y="40.846153846153875" dx="0em" dy="0.3em" style="text-anchor: end; visibility: hidden; font-family: Roboto, sans-serif; font-size: 12px; font-weight: 200;" fill="rgb(33, 33, 33)" stroke="none" stroke-width="1px">4.5e-3</text><text x="0" y="27.23076923076925" dx="0em" dy="0.3em" style="text-anchor: end; visibility: inherit; font-family: Roboto, sans-serif; font-size: 12px; font-weight: 200;" fill="rgb(33, 33, 33)" stroke="none" stroke-width="1px">5e-3</text><text x="0" y="13.615384615384626" dx="0em" dy="0.3em" style="text-anchor: end; visibility: hidden; font-family: Roboto, sans-serif; font-size: 12px; font-weight: 200;" fill="rgb(33, 33, 33)" stroke="none" stroke-width="1px">5.5e-3</text><text x="0" y="0" dx="0em" dy="0.3em" style="text-anchor: end; visibility: hidden; font-family: Roboto, sans-serif; font-size: 12px; font-weight: 200;" fill="rgb(33, 33, 33)" stroke="none" stroke-width="1px">6e-3</text></g><line x1="70" y1="0" x2="70" y2="177" fill="rgb(0, 0, 0)" stroke="rgb(204, 204, 204)" stroke-width="1px"></line></g></g><g transform="translate(70, 0)" clip-path="url(#clip_0)"><clipPath id="clip_0"><rect width="260" height="177"></rect></clipPath><g><g><g><line x1="0" y1="0" x2="0" y2="177" fill="rgb(0, 0, 0)" stroke="rgb(66, 66, 66)" stroke-width="1px" opacity="0.25"></line><line x1="20" y1="0" x2="20" y2="177" fill="rgb(0, 0, 0)" stroke="rgb(66, 66, 66)" stroke-width="1px" opacity="0.25"></line><line x1="40" y1="0" x2="40" y2="177" fill="rgb(0, 0, 0)" stroke="rgb(66, 66, 66)" stroke-width="1px" opacity="0.25"></line><line x1="60" y1="0" x2="60" y2="177" fill="rgb(0, 0, 0)" stroke="rgb(66, 66, 66)" stroke-width="1px" opacity="0.25"></line><line x1="80" y1="0" x2="80" y2="177" fill="rgb(0, 0, 0)" stroke="rgb(66, 66, 66)" stroke-width="1px" opacity="0.25"></line><line x1="100" y1="0" x2="100" y2="177" fill="rgb(0, 0, 0)" stroke="rgb(66, 66, 66)" stroke-width="1px" opacity="0.25"></line><line x1="120" y1="0" x2="120" y2="177" fill="rgb(0, 0, 0)" stroke="rgb(66, 66, 66)" stroke-width="1px" opacity="0.25"></line><line x1="140" y1="0" x2="140" y2="177" fill="rgb(0, 0, 0)" stroke="rgb(66, 66, 66)" stroke-width="1px" opacity="0.25"></line><line x1="160" y1="0" x2="160" y2="177" fill="rgb(0, 0, 0)" stroke="rgb(66, 66, 66)" stroke-width="1px" opacity="0.25"></line><line x1="180" y1="0" x2="180" y2="177" fill="rgb(0, 0, 0)" stroke="rgb(66, 66, 66)" stroke-width="1px" opacity="0.25"></line><line x1="200" y1="0" x2="200" y2="177" fill="rgb(0, 0, 0)" stroke="rgb(66, 66, 66)" stroke-width="1px" opacity="0.25"></line><line x1="220" y1="0" x2="220" y2="177" fill="rgb(0, 0, 0)" stroke="rgb(66, 66, 66)" stroke-width="1px" opacity="0.25"></line><line x1="240" y1="0" x2="240" y2="177" fill="rgb(0, 0, 0)" stroke="rgb(66, 66, 66)" stroke-width="1px" opacity="0.25"></line><line x1="260" y1="0" x2="260" y2="177" fill="rgb(0, 0, 0)" stroke="rgb(66, 66, 66)" stroke-width="1px" opacity="0.25"></line></g><g><line x1="0" y1="177" x2="260" y2="177" fill="rgb(0, 0, 0)" stroke="rgb(66, 66, 66)" stroke-width="1px" opacity="0.25"></line><line x1="0" y1="163.3846153846154" x2="260" y2="163.3846153846154" fill="rgb(0, 0, 0)" stroke="rgb(66, 66, 66)" stroke-width="1px" opacity="0.25"></line><line x1="0" y1="149.76923076923077" x2="260" y2="149.76923076923077" fill="rgb(0, 0, 0)" stroke="rgb(66, 66, 66)" stroke-width="1px" opacity="0.25"></line><line x1="0" y1="136.15384615384616" x2="260" y2="136.15384615384616" fill="rgb(0, 0, 0)" stroke="rgb(66, 66, 66)" stroke-width="1px" opacity="0.25"></line><line x1="0" y1="122.53846153846153" x2="260" y2="122.53846153846153" fill="rgb(0, 0, 0)" stroke="rgb(66, 66, 66)" stroke-width="1px" opacity="0.25"></line><line x1="0" y1="108.92307692307693" x2="260" y2="108.92307692307693" fill="rgb(0, 0, 0)" stroke="rgb(66, 66, 66)" stroke-width="1px" opacity="0.25"></line><line x1="0" y1="95.30769230769232" x2="260" y2="95.30769230769232" fill="rgb(0, 0, 0)" stroke="rgb(66, 66, 66)" stroke-width="1px" opacity="0.25"></line><line x1="0" y1="81.6923076923077" x2="260" y2="81.6923076923077" fill="rgb(0, 0, 0)" stroke="rgb(66, 66, 66)" stroke-width="1px" opacity="0.25"></line><line x1="0" y1="68.0769230769231" x2="260" y2="68.0769230769231" fill="rgb(0, 0, 0)" stroke="rgb(66, 66, 66)" stroke-width="1px" opacity="0.25"></line><line x1="0" y1="54.46153846153847" x2="260" y2="54.46153846153847" fill="rgb(0, 0, 0)" stroke="rgb(66, 66, 66)" stroke-width="1px" opacity="0.25"></line><line x1="0" y1="40.846153846153875" x2="260" y2="40.846153846153875" fill="rgb(0, 0, 0)" stroke="rgb(66, 66, 66)" stroke-width="1px" opacity="0.25"></line><line x1="0" y1="27.23076923076925" x2="260" y2="27.23076923076925" fill="rgb(0, 0, 0)" stroke="rgb(66, 66, 66)" stroke-width="1px" opacity="0.25"></line><line x1="0" y1="13.615384615384626" x2="260" y2="13.615384615384626" fill="rgb(0, 0, 0)" stroke="rgb(66, 66, 66)" stroke-width="1px" opacity="0.25"></line><line x1="0" y1="0" x2="260" y2="0" fill="rgb(0, 0, 0)" stroke="rgb(66, 66, 66)" stroke-width="1px" opacity="0.25"></line></g></g></g><g><g><line x1="0" y1="163.3846153846154" x2="260" y2="163.3846153846154" fill="rgb(0, 0, 0)" stroke="rgb(153, 153, 153)" stroke-width="1.5px"></line></g></g><g><g><line x1="20" y1="0" x2="20" y2="177" fill="rgb(0, 0, 0)" stroke="rgb(153, 153, 153)" stroke-width="1.5px"></line></g></g><g><g><g><g><g><path stroke="rgb(255, 112, 67)" stroke-width="2px" d="M20,13.61538542692478L21,13.61538542692478L22,13.61538542692478L23,13.61538542692478L24,13.61538542692478L25,13.61538542692478L26,13.61538542692478L27,13.61538542692478L28,13.61538542692478L29,13.61538542692478L30,13.61538542692478L31,13.61538542692478L32,13.61538542692478L33,13.615385426924819L34,106.35249263573235L35,127.31107884688805L36,132.04771932968808L37,133.11820007875383L38,133.3601287280403L39,133.41480460277893L40,133.42716135046985L41,133.42995397544797L42,133.43058510869304L43,133.43072774480643L44,133.43075998056807L45,133.4307672658502L46,133.43076891232394L47,133.43076928442702L48,133.4307693685223L49,133.43076938752785L50,133.43076939182308L51,133.43076939279382L52,133.4307693930132L53,133.43076939306277L54,133.430769393074L55,133.43076939307653L56,133.4307693930771L57,133.43076939307724L58,151.97819076969665L59,156.16990800081263L60,157.11723609504483L61,157.33133224434133L62,157.37971797408233L63,157.39065314900378L64,157.39312449853605L65,157.39368302353031L66,157.39380925017903L67,157.39383777740164L68,157.39384422455396L69,157.3938456816104L70,157.39384601090512L71,157.39384608532575L72,157.3938461021448L73,157.39384610594593L74,157.39384610680494L75,157.39384610699912L76,157.39384610704298L77,157.3938461070529L78,157.39384610705514L79,157.39384610705565L80,157.39384610705577L81,157.3938461070558L82,157.3938461070558L83,157.3938461070558L84,157.3938461070558L85,157.3938461070558L86,157.3938461070558L87,157.3938461070558L88,157.3938461070558L89,157.3938461070558L90,157.3938461070558L91,157.3938461070558L92,157.3938461070558L93,157.3938461070558L94,157.3938461070558L95,157.3938461070558L96,157.3938461070558L97,157.3938461070558L98,157.3938461070558L99,157.3938461070558L100,157.3938461070558L101,157.3938461070558L102,157.3938461070558L103,157.3938461070558L104,157.3938461070558L105,157.3938461070558L106,157.3938461070558L107,157.3938461070558L108,157.3938461070558L109,157.3938461070558L110,157.3938461070558L111,157.3938461070558L112,157.3938461070558L113,157.3938461070558L114,157.3938461070558L115,157.3938461070558L116,157.3938461070558L117,157.3938461070558L118,157.3938461070558L119,157.3938461070558L120,157.3938461070558L121,157.3938461070558L122,157.3938461070558L123,157.3938461070558L124,157.3938461070558L125,157.3938461070558L126,157.3938461070558L127,157.3938461070558L128,157.3938461070558L129,157.3938461070558L130,157.3938461070558L131,157.3938461070558L132,157.3938461070558L133,157.3938461070558L134,157.3938461070558L135,157.3938461070558L136,157.3938461070558L137,157.3938461070558L138,157.3938461070558L139,157.3938461070558L140,157.3938461070558L141,157.3938461070558L142,157.3938461070558L143,157.3938461070558L144,157.3938461070558L145,157.3938461070558L146,157.3938461070558L147,157.3938461070558L148,157.3938461070558L149,157.3938461070558L150,157.3938461070558L151,157.3938461070558L152,157.3938461070558L153,157.3938461070558L154,157.3938461070558L155,157.3938461070558L156,157.3938461070558L157,157.3938461070558L158,157.3938461070558L159,157.3938461070558L160,157.3938461070558L161,161.1033304437207L162,161.94167390380696L163,162.13113952578644L164,162.1739587563538L165,162.18363590246204L166,162.1858229374825L167,162.18631720739714L168,162.18642891239784L169,162.18645415772798L170,162.18645986317262L171,162.1864611526031L172,162.18646144401438L173,162.18646150987334L174,162.18646152475745L175,162.18646152812127L176,162.1864615288815L177,162.1864615290533L178,162.18646152909213L179,162.1864615291009L180,162.18646152910287L181,162.18646152910333L182,162.18646152910344L183,162.18646152910347L184,162.18646152910347L185,162.18646152910347L186,162.18646152910347L187,162.18646152910347L188,162.18646152910347L189,162.18646152910347L190,162.18646152910347L191,162.18646152910347L192,162.18646152910347L193,162.18646152910347L194,162.18646152910347L195,162.18646152910347L196,162.18646152910347L197,162.18646152910347L198,162.18646152910347L199,162.18646152910347L200,162.18646152910347L201,162.18646152910347L202,162.92835840410407L203,163.09602709785423L204,163.13392022264173L205,163.14248406884371L206,163.14441949808537L207,163.14485690509397L208,163.14495575907793L209,163.1449781000783L210,163.1449831491444L211,163.14498429023334L212,163.14498454811942L213,163.1449846064017L214,163.14498461957348L215,163.14498462255028L216,163.14498462322305L217,163.1449846233751L218,163.14498462340947L219,163.14498462341723L220,163.14498462341896L221,163.1449846234194L222,163.14498462341948L223,163.14498462341948L224,163.1449846234195L225,163.1449846234195L226,163.1449846234195L227,163.1449846234195L228,163.1449846234195L229,163.1449846234195L230,163.1449846234195L231,163.1449846234195L232,163.1449846234195L233,163.1449846234195L234,163.1449846234195L235,163.1449846234195L236,163.1449846234195L237,163.1449846234195L238,163.1449846234195L239,163.29336399123122L240,163.32689772835667L241,163.334476352947L242,163.33618912210443L243,163.336576207934L244,163.3366636893315L245,163.33668346012732L246,163.3366879283272L247,163.33668893814036L248,163.33668916635813L249,163.35270744395785L250,163.35632757469537L251,163.35714572424206L252,163.3573306260396L253,163.35737241384584L254,163.35738185789006" style="fill: none;" fill="none"></path></g></g></g></g><g opacity="0.2"><g><g><g><path stroke="rgb(255, 112, 67)" stroke-width="2px" d="M20,13.61538542692478L21,13.61538542692478L22,13.61538542692478L23,13.61538542692478L24,13.61538542692478L25,13.61538542692478L26,13.61538542692478L27,13.61538542692478L28,13.61538542692478L29,13.61538542692478L30,13.61538542692478L31,13.61538542692478L32,13.61538542692478L33,13.61538542692478L34,133.43076939307727L35,133.43076939307727L36,133.43076939307727L37,133.43076939307727L38,133.43076939307727L39,133.43076939307727L40,133.43076939307727L41,133.43076939307727L42,133.43076939307727L43,133.43076939307727L44,133.43076939307727L45,133.43076939307727L46,133.43076939307727L47,133.43076939307727L48,133.43076939307727L49,133.43076939307727L50,133.43076939307727L51,133.43076939307727L52,133.43076939307727L53,133.43076939307727L54,133.43076939307727L55,133.43076939307727L56,133.43076939307727L57,133.43076939307727L58,157.3938461070558L59,157.3938461070558L60,157.3938461070558L61,157.3938461070558L62,157.3938461070558L63,157.3938461070558L64,157.3938461070558L65,157.3938461070558L66,157.3938461070558L67,157.3938461070558L68,157.3938461070558L69,157.3938461070558L70,157.3938461070558L71,157.3938461070558L72,157.3938461070558L73,157.3938461070558L74,157.3938461070558L75,157.3938461070558L76,157.3938461070558L77,157.3938461070558L78,157.3938461070558L79,157.3938461070558L80,157.3938461070558L81,157.3938461070558L82,157.3938461070558L83,157.3938461070558L84,157.3938461070558L85,157.3938461070558L86,157.3938461070558L87,157.3938461070558L88,157.3938461070558L89,157.3938461070558L90,157.3938461070558L91,157.3938461070558L92,157.3938461070558L93,157.3938461070558L94,157.3938461070558L95,157.3938461070558L96,157.3938461070558L97,157.3938461070558L98,157.3938461070558L99,157.3938461070558L100,157.3938461070558L101,157.3938461070558L102,157.3938461070558L103,157.3938461070558L104,157.3938461070558L105,157.3938461070558L106,157.3938461070558L107,157.3938461070558L108,157.3938461070558L109,157.3938461070558L110,157.3938461070558L111,157.3938461070558L112,157.3938461070558L113,157.3938461070558L114,157.3938461070558L115,157.3938461070558L116,157.3938461070558L117,157.3938461070558L118,157.3938461070558L119,157.3938461070558L120,157.3938461070558L121,157.3938461070558L122,157.3938461070558L123,157.3938461070558L124,157.3938461070558L125,157.3938461070558L126,157.3938461070558L127,157.3938461070558L128,157.3938461070558L129,157.3938461070558L130,157.3938461070558L131,157.3938461070558L132,157.3938461070558L133,157.3938461070558L134,157.3938461070558L135,157.3938461070558L136,157.3938461070558L137,157.3938461070558L138,157.3938461070558L139,157.3938461070558L140,157.3938461070558L141,157.3938461070558L142,157.3938461070558L143,157.3938461070558L144,157.3938461070558L145,157.3938461070558L146,157.3938461070558L147,157.3938461070558L148,157.3938461070558L149,157.3938461070558L150,157.3938461070558L151,157.3938461070558L152,157.3938461070558L153,157.3938461070558L154,157.3938461070558L155,157.3938461070558L156,157.3938461070558L157,157.3938461070558L158,157.3938461070558L159,157.3938461070558L160,157.3938461070558L161,162.18646152910347L162,162.18646152910347L163,162.18646152910347L164,162.18646152910347L165,162.18646152910347L166,162.18646152910347L167,162.18646152910347L168,162.18646152910347L169,162.18646152910347L170,162.18646152910347L171,162.18646152910347L172,162.18646152910347L173,162.18646152910347L174,162.18646152910347L175,162.18646152910347L176,162.18646152910347L177,162.18646152910347L178,162.18646152910347L179,162.18646152910347L180,162.18646152910347L181,162.18646152910347L182,162.18646152910347L183,162.18646152910347L184,162.18646152910347L185,162.18646152910347L186,162.18646152910347L187,162.18646152910347L188,162.18646152910347L189,162.18646152910347L190,162.18646152910347L191,162.18646152910347L192,162.18646152910347L193,162.18646152910347L194,162.18646152910347L195,162.18646152910347L196,162.18646152910347L197,162.18646152910347L198,162.18646152910347L199,162.18646152910347L200,162.18646152910347L201,162.18646152910347L202,163.1449846234195L203,163.1449846234195L204,163.1449846234195L205,163.1449846234195L206,163.1449846234195L207,163.1449846234195L208,163.1449846234195L209,163.1449846234195L210,163.1449846234195L211,163.1449846234195L212,163.1449846234195L213,163.1449846234195L214,163.1449846234195L215,163.1449846234195L216,163.1449846234195L217,163.1449846234195L218,163.1449846234195L219,163.1449846234195L220,163.1449846234195L221,163.1449846234195L222,163.1449846234195L223,163.1449846234195L224,163.1449846234195L225,163.1449846234195L226,163.1449846234195L227,163.1449846234195L228,163.1449846234195L229,163.1449846234195L230,163.1449846234195L231,163.1449846234195L232,163.1449846234195L233,163.1449846234195L234,163.1449846234195L235,163.1449846234195L236,163.1449846234195L237,163.1449846234195L238,163.1449846234195L239,163.33668923299535L240,163.33668923299535L241,163.33668923299535L242,163.33668923299535L243,163.33668923299535L244,163.33668923299535L245,163.33668923299535L246,163.33668923299535L247,163.33668923299535L248,163.33668923299535L249,163.35738461545336L250,163.35738461545336L251,163.35738461545336L252,163.35738461545336L253,163.35738461545336L254,163.35738461545336" style="fill: none;" fill="none"></path></g></g></g></g></g></g><g transform="translate(70, 177)" clip-path="url(#clip_1)"><clipPath id="clip_1"><rect width="260" height="23"></rect></clipPath><g><g><line x1="0" y1="0" x2="0" y2="5" style="visibility: inherit;" fill="rgb(0, 0, 0)" stroke="rgb(204, 204, 204)" stroke-width="1px"></line><line x1="20" y1="0" x2="20" y2="5" style="visibility: inherit;" fill="rgb(0, 0, 0)" stroke="rgb(204, 204, 204)" stroke-width="1px"></line><line x1="40" y1="0" x2="40" y2="5" style="visibility: inherit;" fill="rgb(0, 0, 0)" stroke="rgb(204, 204, 204)" stroke-width="1px"></line><line x1="60" y1="0" x2="60" y2="5" style="visibility: inherit;" fill="rgb(0, 0, 0)" stroke="rgb(204, 204, 204)" stroke-width="1px"></line><line x1="80" y1="0" x2="80" y2="5" style="visibility: inherit;" fill="rgb(0, 0, 0)" stroke="rgb(204, 204, 204)" stroke-width="1px"></line><line x1="100" y1="0" x2="100" y2="5" style="visibility: inherit;" fill="rgb(0, 0, 0)" stroke="rgb(204, 204, 204)" stroke-width="1px"></line><line x1="120" y1="0" x2="120" y2="5" style="visibility: inherit;" fill="rgb(0, 0, 0)" stroke="rgb(204, 204, 204)" stroke-width="1px"></line><line x1="140" y1="0" x2="140" y2="5" style="visibility: inherit;" fill="rgb(0, 0, 0)" stroke="rgb(204, 204, 204)" stroke-width="1px"></line><line x1="160" y1="0" x2="160" y2="5" style="visibility: inherit;" fill="rgb(0, 0, 0)" stroke="rgb(204, 204, 204)" stroke-width="1px"></line><line x1="180" y1="0" x2="180" y2="5" style="visibility: inherit;" fill="rgb(0, 0, 0)" stroke="rgb(204, 204, 204)" stroke-width="1px"></line><line x1="200" y1="0" x2="200" y2="5" style="visibility: inherit;" fill="rgb(0, 0, 0)" stroke="rgb(204, 204, 204)" stroke-width="1px"></line><line x1="220" y1="0" x2="220" y2="5" style="visibility: inherit;" fill="rgb(0, 0, 0)" stroke="rgb(204, 204, 204)" stroke-width="1px"></line><line x1="240" y1="0" x2="240" y2="5" style="visibility: inherit;" fill="rgb(0, 0, 0)" stroke="rgb(204, 204, 204)" stroke-width="1px"></line><line x1="260" y1="0" x2="260" y2="5" style="visibility: inherit;" fill="rgb(0, 0, 0)" stroke="rgb(204, 204, 204)" stroke-width="1px"></line></g><g transform="translate(0, 8)"><text x="0" y="0" dx="0em" dy="0.95em" style="text-anchor: middle; visibility: hidden; font-family: Roboto, sans-serif; font-size: 12px; font-weight: 200;" fill="rgb(33, 33, 33)" stroke="none" stroke-width="1px">-20</text><text x="20" y="0" dx="0em" dy="0.95em" style="text-anchor: middle; visibility: inherit; font-family: Roboto, sans-serif; font-size: 12px; font-weight: 200;" fill="rgb(33, 33, 33)" stroke="none" stroke-width="1px">0</text><text x="40" y="0" dx="0em" dy="0.95em" style="text-anchor: middle; visibility: hidden; font-family: Roboto, sans-serif; font-size: 12px; font-weight: 200;" fill="rgb(33, 33, 33)" stroke="none" stroke-width="1px">20</text><text x="60" y="0" dx="0em" dy="0.95em" style="text-anchor: middle; visibility: inherit; font-family: Roboto, sans-serif; font-size: 12px; font-weight: 200;" fill="rgb(33, 33, 33)" stroke="none" stroke-width="1px">40</text><text x="80" y="0" dx="0em" dy="0.95em" style="text-anchor: middle; visibility: hidden; font-family: Roboto, sans-serif; font-size: 12px; font-weight: 200;" fill="rgb(33, 33, 33)" stroke="none" stroke-width="1px">60</text><text x="100" y="0" dx="0em" dy="0.95em" style="text-anchor: middle; visibility: inherit; font-family: Roboto, sans-serif; font-size: 12px; font-weight: 200;" fill="rgb(33, 33, 33)" stroke="none" stroke-width="1px">80</text><text x="120" y="0" dx="0em" dy="0.95em" style="text-anchor: middle; visibility: hidden; font-family: Roboto, sans-serif; font-size: 12px; font-weight: 200;" fill="rgb(33, 33, 33)" stroke="none" stroke-width="1px">100</text><text x="140" y="0" dx="0em" dy="0.95em" style="text-anchor: middle; visibility: inherit; font-family: Roboto, sans-serif; font-size: 12px; font-weight: 200;" fill="rgb(33, 33, 33)" stroke="none" stroke-width="1px">120</text><text x="160" y="0" dx="0em" dy="0.95em" style="text-anchor: middle; visibility: hidden; font-family: Roboto, sans-serif; font-size: 12px; font-weight: 200;" fill="rgb(33, 33, 33)" stroke="none" stroke-width="1px">140</text><text x="180" y="0" dx="0em" dy="0.95em" style="text-anchor: middle; visibility: inherit; font-family: Roboto, sans-serif; font-size: 12px; font-weight: 200;" fill="rgb(33, 33, 33)" stroke="none" stroke-width="1px">160</text><text x="200" y="0" dx="0em" dy="0.95em" style="text-anchor: middle; visibility: hidden; font-family: Roboto, sans-serif; font-size: 12px; font-weight: 200;" fill="rgb(33, 33, 33)" stroke="none" stroke-width="1px">180</text><text x="220" y="0" dx="0em" dy="0.95em" style="text-anchor: middle; visibility: inherit; font-family: Roboto, sans-serif; font-size: 12px; font-weight: 200;" fill="rgb(33, 33, 33)" stroke="none" stroke-width="1px">200</text><text x="240" y="0" dx="0em" dy="0.95em" style="text-anchor: middle; visibility: hidden; font-family: Roboto, sans-serif; font-size: 12px; font-weight: 200;" fill="rgb(33, 33, 33)" stroke="none" stroke-width="1px">220</text><text x="260" y="0" dx="0em" dy="0.95em" style="text-anchor: middle; visibility: hidden; font-family: Roboto, sans-serif; font-size: 12px; font-weight: 200;" fill="rgb(33, 33, 33)" stroke="none" stroke-width="1px">240</text></g><line x1="0" y1="0" x2="260" y2="0" fill="rgb(0, 0, 0)" stroke="rgb(204, 204, 204)" stroke-width="1px"></line></g></g></g></g></svg>