<svg viewBox="0 0 330 200" xmlns="http://www.w3.org/2000/svg"><g><g><g><g><g><line x1="30.78125" y1="170.63179930271545" x2="25.78125" y2="170.63179930271545" style="visibility: inherit;" fill="rgb(0, 0, 0)" stroke="rgb(204, 204, 204)" stroke-width="1px"></line><line x1="30.78125" y1="157.57879723754556" x2="25.78125" y2="157.57879723754556" style="visibility: inherit;" fill="rgb(0, 0, 0)" stroke="rgb(204, 204, 204)" stroke-width="1px"></line><line x1="30.78125" y1="144.52579517237567" x2="25.78125" y2="144.52579517237567" style="visibility: inherit;" fill="rgb(0, 0, 0)" stroke="rgb(204, 204, 204)" stroke-width="1px"></line><line x1="30.78125" y1="131.47279310720577" x2="25.78125" y2="131.47279310720577" style="visibility: inherit;" fill="rgb(0, 0, 0)" stroke="rgb(204, 204, 204)" stroke-width="1px"></line><line x1="30.78125" y1="118.4197910420359" x2="25.78125" y2="118.4197910420359" style="visibility: inherit;" fill="rgb(0, 0, 0)" stroke="rgb(204, 204, 204)" stroke-width="1px"></line><line x1="30.78125" y1="105.366788976866" x2="25.78125" y2="105.366788976866" style="visibility: inherit;" fill="rgb(0, 0, 0)" stroke="rgb(204, 204, 204)" stroke-width="1px"></line><line x1="30.78125" y1="92.31378691169611" x2="25.78125" y2="92.31378691169611" style="visibility: inherit;" fill="rgb(0, 0, 0)" stroke="rgb(204, 204, 204)" stroke-width="1px"></line><line x1="30.78125" y1="79.26078484652622" x2="25.78125" y2="79.26078484652622" style="visibility: inherit;" fill="rgb(0, 0, 0)" stroke="rgb(204, 204, 204)" stroke-width="1px"></line><line x1="30.78125" y1="66.20778278135634" x2="25.78125" y2="66.20778278135634" style="visibility: inherit;" fill="rgb(0, 0, 0)" stroke="rgb(204, 204, 204)" stroke-width="1px"></line><line x1="30.78125" y1="53.15478071618645" x2="25.78125" y2="53.15478071618645" style="visibility: inherit;" fill="rgb(0, 0, 0)" stroke="rgb(204, 204, 204)" stroke-width="1px"></line><line x1="30.78125" y1="40.10177865101656" x2="25.78125" y2="40.10177865101656" style="visibility: inherit;" fill="rgb(0, 0, 0)" stroke="rgb(204, 204, 204)" stroke-width="1px"></line><line x1="30.78125" y1="27.048776585846664" x2="25.78125" y2="27.048776585846664" style="visibility: inherit;" fill="rgb(0, 0, 0)" stroke="rgb(204, 204, 204)" stroke-width="1px"></line><line x1="30.78125" y1="13.995774520676768" x2="25.78125" y2="13.995774520676768" style="visibility: inherit;" fill="rgb(0, 0, 0)" stroke="rgb(204, 204, 204)" stroke-width="1px"></line><line x1="30.78125" y1="0.9427724555068944" x2="25.78125" y2="0.9427724555068944" style="visibility: inherit;" fill="rgb(0, 0, 0)" stroke="rgb(204, 204, 204)" stroke-width="1px"></line></g><g transform="translate(20.78125, 0)"><text x="0" y="170.63179930271545" dx="0em" dy="0.3em" style="text-anchor: end; visibility: inherit; font-family: Roboto, sans-serif; font-size: 12px; font-weight: 200;" fill="rgb(33, 33, 33)" stroke="none" stroke-width="1px">0</text><text x="0" y="157.57879723754556" dx="0em" dy="0.3em" style="text-anchor: end; visibility: hidden; font-family: Roboto, sans-serif; font-size: 12px; font-weight: 200;" fill="rgb(33, 33, 33)" stroke="none" stroke-width="1px">2</text><text x="0" y="144.52579517237567" dx="0em" dy="0.3em" style="text-anchor: end; visibility: inherit; font-family: Roboto, sans-serif; font-size: 12px; font-weight: 200;" fill="rgb(33, 33, 33)" stroke="none" stroke-width="1px">4</text><text x="0" y="131.47279310720577" dx="0em" dy="0.3em" style="text-anchor: end; visibility: hidden; font-family: Roboto, sans-serif; font-size: 12px; font-weight: 200;" fill="rgb(33, 33, 33)" stroke="none" stroke-width="1px">6</text><text x="0" y="118.4197910420359" dx="0em" dy="0.3em" style="text-anchor: end; visibility: inherit; font-family: Roboto, sans-serif; font-size: 12px; font-weight: 200;" fill="rgb(33, 33, 33)" stroke="none" stroke-width="1px">8</text><text x="0" y="105.366788976866" dx="0em" dy="0.3em" style="text-anchor: end; visibility: hidden; font-family: Roboto, sans-serif; font-size: 12px; font-weight: 200;" fill="rgb(33, 33, 33)" stroke="none" stroke-width="1px">10</text><text x="0" y="92.31378691169611" dx="0em" dy="0.3em" style="text-anchor: end; visibility: inherit; font-family: Roboto, sans-serif; font-size: 12px; font-weight: 200;" fill="rgb(33, 33, 33)" stroke="none" stroke-width="1px">12</text><text x="0" y="79.26078484652622" dx="0em" dy="0.3em" style="text-anchor: end; visibility: hidden; font-family: Roboto, sans-serif; font-size: 12px; font-weight: 200;" fill="rgb(33, 33, 33)" stroke="none" stroke-width="1px">14</text><text x="0" y="66.20778278135634" dx="0em" dy="0.3em" style="text-anchor: end; visibility: inherit; font-family: Roboto, sans-serif; font-size: 12px; font-weight: 200;" fill="rgb(33, 33, 33)" stroke="none" stroke-width="1px">16</text><text x="0" y="53.15478071618645" dx="0em" dy="0.3em" style="text-anchor: end; visibility: hidden; font-family: Roboto, sans-serif; font-size: 12px; font-weight: 200;" fill="rgb(33, 33, 33)" stroke="none" stroke-width="1px">18</text><text x="0" y="40.10177865101656" dx="0em" dy="0.3em" style="text-anchor: end; visibility: inherit; font-family: Roboto, sans-serif; font-size: 12px; font-weight: 200;" fill="rgb(33, 33, 33)" stroke="none" stroke-width="1px">20</text><text x="0" y="27.048776585846664" dx="0em" dy="0.3em" style="text-anchor: end; visibility: hidden; font-family: Roboto, sans-serif; font-size: 12px; font-weight: 200;" fill="rgb(33, 33, 33)" stroke="none" stroke-width="1px">22</text><text x="0" y="13.995774520676768" dx="0em" dy="0.3em" style="text-anchor: end; visibility: inherit; font-family: Roboto, sans-serif; font-size: 12px; font-weight: 200;" fill="rgb(33, 33, 33)" stroke="none" stroke-width="1px">24</text><text x="0" y="0.9427724555068944" dx="0em" dy="0.3em" style="text-anchor: end; visibility: hidden; font-family: Roboto, sans-serif; font-size: 12px; font-weight: 200;" fill="rgb(33, 33, 33)" stroke="none" stroke-width="1px">26</text></g><line x1="30.78125" y1="0" x2="30.78125" y2="177" fill="rgb(0, 0, 0)" stroke="rgb(204, 204, 204)" stroke-width="1px"></line></g></g><g transform="translate(30, 0)" clip-path="url(#clip_0)"><clipPath id="clip_0"><rect width="299" height="177"></rect></clipPath><g><g><g><line x1="8.573967428097646" y1="0" x2="8.573967428097646" y2="177" fill="rgb(0, 0, 0)" stroke="rgb(66, 66, 66)" stroke-width="1px" opacity="0.25"></line><line x1="31.529976081199017" y1="0" x2="31.529976081199017" y2="177" fill="rgb(0, 0, 0)" stroke="rgb(66, 66, 66)" stroke-width="1px" opacity="0.25"></line><line x1="54.48598473430039" y1="0" x2="54.48598473430039" y2="177" fill="rgb(0, 0, 0)" stroke="rgb(66, 66, 66)" stroke-width="1px" opacity="0.25"></line><line x1="77.44199338740177" y1="0" x2="77.44199338740177" y2="177" fill="rgb(0, 0, 0)" stroke="rgb(66, 66, 66)" stroke-width="1px" opacity="0.25"></line><line x1="100.39800204050313" y1="0" x2="100.39800204050313" y2="177" fill="rgb(0, 0, 0)" stroke="rgb(66, 66, 66)" stroke-width="1px" opacity="0.25"></line><line x1="123.3540106936045" y1="0" x2="123.3540106936045" y2="177" fill="rgb(0, 0, 0)" stroke="rgb(66, 66, 66)" stroke-width="1px" opacity="0.25"></line><line x1="146.31001934670587" y1="0" x2="146.31001934670587" y2="177" fill="rgb(0, 0, 0)" stroke="rgb(66, 66, 66)" stroke-width="1px" opacity="0.25"></line><line x1="169.26602799980725" y1="0" x2="169.26602799980725" y2="177" fill="rgb(0, 0, 0)" stroke="rgb(66, 66, 66)" stroke-width="1px" opacity="0.25"></line><line x1="192.2220366529086" y1="0" x2="192.2220366529086" y2="177" fill="rgb(0, 0, 0)" stroke="rgb(66, 66, 66)" stroke-width="1px" opacity="0.25"></line><line x1="215.17804530600998" y1="0" x2="215.17804530600998" y2="177" fill="rgb(0, 0, 0)" stroke="rgb(66, 66, 66)" stroke-width="1px" opacity="0.25"></line><line x1="238.13405395911136" y1="0" x2="238.13405395911136" y2="177" fill="rgb(0, 0, 0)" stroke="rgb(66, 66, 66)" stroke-width="1px" opacity="0.25"></line><line x1="261.0900626122127" y1="0" x2="261.0900626122127" y2="177" fill="rgb(0, 0, 0)" stroke="rgb(66, 66, 66)" stroke-width="1px" opacity="0.25"></line><line x1="284.0460712653141" y1="0" x2="284.0460712653141" y2="177" fill="rgb(0, 0, 0)" stroke="rgb(66, 66, 66)" stroke-width="1px" opacity="0.25"></line></g><g><line x1="0" y1="170.63179930271545" x2="299.21875" y2="170.63179930271545" fill="rgb(0, 0, 0)" stroke="rgb(66, 66, 66)" stroke-width="1px" opacity="0.25"></line><line x1="0" y1="157.57879723754556" x2="299.21875" y2="157.57879723754556" fill="rgb(0, 0, 0)" stroke="rgb(66, 66, 66)" stroke-width="1px" opacity="0.25"></line><line x1="0" y1="144.52579517237567" x2="299.21875" y2="144.52579517237567" fill="rgb(0, 0, 0)" stroke="rgb(66, 66, 66)" stroke-width="1px" opacity="0.25"></line><line x1="0" y1="131.47279310720577" x2="299.21875" y2="131.47279310720577" fill="rgb(0, 0, 0)" stroke="rgb(66, 66, 66)" stroke-width="1px" opacity="0.25"></line><line x1="0" y1="118.4197910420359" x2="299.21875" y2="118.4197910420359" fill="rgb(0, 0, 0)" stroke="rgb(66, 66, 66)" stroke-width="1px" opacity="0.25"></line><line x1="0" y1="105.366788976866" x2="299.21875" y2="105.366788976866" fill="rgb(0, 0, 0)" stroke="rgb(66, 66, 66)" stroke-width="1px" opacity="0.25"></line><line x1="0" y1="92.31378691169611" x2="299.21875" y2="92.31378691169611" fill="rgb(0, 0, 0)" stroke="rgb(66, 66, 66)" stroke-width="1px" opacity="0.25"></line><line x1="0" y1="79.26078484652622" x2="299.21875" y2="79.26078484652622" fill="rgb(0, 0, 0)" stroke="rgb(66, 66, 66)" stroke-width="1px" opacity="0.25"></line><line x1="0" y1="66.20778278135634" x2="299.21875" y2="66.20778278135634" fill="rgb(0, 0, 0)" stroke="rgb(66, 66, 66)" stroke-width="1px" opacity="0.25"></line><line x1="0" y1="53.15478071618645" x2="299.21875" y2="53.15478071618645" fill="rgb(0, 0, 0)" stroke="rgb(66, 66, 66)" stroke-width="1px" opacity="0.25"></line><line x1="0" y1="40.10177865101656" x2="299.21875" y2="40.10177865101656" fill="rgb(0, 0, 0)" stroke="rgb(66, 66, 66)" stroke-width="1px" opacity="0.25"></line><line x1="0" y1="27.048776585846664" x2="299.21875" y2="27.048776585846664" fill="rgb(0, 0, 0)" stroke="rgb(66, 66, 66)" stroke-width="1px" opacity="0.25"></line><line x1="0" y1="13.995774520676768" x2="299.21875" y2="13.995774520676768" fill="rgb(0, 0, 0)" stroke="rgb(66, 66, 66)" stroke-width="1px" opacity="0.25"></line><line x1="0" y1="0.9427724555068944" x2="299.21875" y2="0.9427724555068944" fill="rgb(0, 0, 0)" stroke="rgb(66, 66, 66)" stroke-width="1px" opacity="0.25"></line></g></g></g><g><g><line x1="0" y1="170.63179930271545" x2="299.21875" y2="170.63179930271545" fill="rgb(0, 0, 0)" stroke="rgb(153, 153, 153)" stroke-width="1.5px"></line></g></g><g><g><line x1="8.573967428097646" y1="0" x2="8.573967428097646" y2="177" fill="rgb(0, 0, 0)" stroke="rgb(153, 153, 153)" stroke-width="1.5px"></line></g></g><g><g><g><g><g><path stroke="rgb(0, 119, 187)" stroke-width="2px" d="M8.573967428097646,134.66432578125512L9.721767860752715,101.4720546145191L10.869568293407784,125.31621921774399L12.017368726062854,146.20506505831105L13.165169158717921,154.65274998161556L14.312969591372989,144.60449428981448L15.460770024028058,35.87794171238109L16.608570456683125,106.64534744751354L17.756370889338193,132.85884051900337L18.904171321993264,130.2513746431071L20.05197175464833,128.17792323878393L21.1997721873034,139.37888642371016L22.34757261995847,119.07097178349036L23.495373052613537,134.37356802471086L24.643173485268605,133.07850150508614L25.790973917923676,143.54410518183929L26.938774350578743,147.54294968354353L28.08657478323381,151.16301980677903L29.234375215888882,152.04355067219416L30.38217564854395,153.98551747166482L31.529976081199017,157.31578240965848L32.677776513854084,157.1043778939018L33.82557694650915,158.25863463962799L34.973377379164226,154.08098968733643L36.12117781181929,159.3528848833735L37.26897824447436,162.02829813139815L38.41677867712943,159.45766959540094L39.564579109784496,157.45303419046263L40.712379542439564,161.79243326835157L41.86017997509464,152.130859499452L43.0079804077497,155.11972542381125L44.155780840404766,157.6317835276398L45.30358127305984,159.17147542476653L46.45138170571491,160.59430285486619L47.599182138369976,144.9194477682828L48.74698257102505,157.28459065175446L49.89478300368011,150.6934875221435L51.04258343633518,158.84886275108812L52.19038386899025,155.67942786328445L53.33818430164532,156.97334582579342L54.48598473430039,161.99616258069634L55.633785166955455,164.56321990480842L56.78158559961052,165.13305006057334L57.92938603226559,166.16068298743505L59.077186464920665,164.61152570799075L60.22498689757573,164.78897303984377L61.3727873302308,166.40777383825665L62.52058776288587,166.70187252292527L63.668388195540935,166.84254062525045L64.816188628196,166.8768559848364L65.96398906085108,165.64853906432452L67.11178949350614,165.12973609411094L68.25958992616121,166.21726284823876L69.40739035881627,166.13276081250856L70.55519079147135,166.70218987006976L71.70299122412641,165.79975550859004L72.85079165678148,166.4853396152367L73.99859208943656,166.86555591548145L75.14639252209163,166.98924885771174L76.29419295474669,167.12498261458046L77.44199338740177,166.92170603272024L78.58979382005683,161.45560198957972L79.73759425271189,165.46680251407707L80.88539468536696,165.6616055483959L82.03319511802202,166.5141482540281L83.18099555067711,167.2382631367807L84.32879598333217,167.26311574079088L85.47659641598723,166.83010112836894L86.6243968486423,165.7096788028749L87.77219728129737,158.84158042248743L88.91999771395244,165.4848838227337L90.06779814660752,167.28383393658848L91.21559857926259,167.81885672694412L92.36339901191765,167.51511463014512L93.51119944457271,167.91013780325517L94.65899987722779,167.79421747380246L95.80680030988285,166.75590610191898L96.95460074253793,167.1217975178019L98.102401175193,167.8176255286218L99.25020160784806,168.24197327734768L100.39800204050313,167.373120896L101.54580247315819,165.87813106012644L102.69360290581326,167.99492910870094L103.84140333846834,167.98442328381566L104.9892037711234,167.87768632416447L106.13700420377847,167.9369475697267L107.28480463643353,167.9881301120051L108.43260506908861,166.90141085989063L109.58040550174367,168.24023711105278L110.72820593439873,168.4678907316953L111.87600636705382,168.4843511193464L113.02380679970888,168.51548152086372L114.17160723236395,168.5899679723451L115.31940766501901,168.43857596680445L116.46720809767407,167.76452580236426L117.61500853032915,168.65786614028423L118.76280896298422,168.43675636127378L119.9106093956393,168.56139768933562L121.05840982829436,168.93082630342292L122.20621026094943,168.0010077738605L123.3540106936045,168.28600345631963L124.50181112625955,167.51798481838657L125.64961155891464,168.2655477021729L126.7974119915697,162.06059707531688L127.94521242422478,166.79469865129013L129.09301285687985,167.22611065537637L130.2408132895349,168.72207609763993L131.38861372218997,168.8690914394732L132.53641415484506,169.11626594073803L133.68421458750012,168.89909535567145L134.83201502015518,162.0480911902697L135.97981545281024,167.45108529583501L137.1276158854653,168.9004228781936L138.2754163181204,166.81377258908358L139.42321675077545,166.51686514205866L140.57101718343054,168.48205048646997L141.7188176160856,166.96753470148894L142.86661804874066,159.97284048839637L144.01441848139572,166.3836909289098L145.16221891405078,168.56017976653604L146.31001934670587,169.26915696339498L147.45781977936093,168.9354569442048L148.60562021201602,169.27119650013074L149.75342064467108,167.26399890010234L150.90122107732617,168.82052746479926L152.0490215099812,169.38656117752396L153.1968219426363,169.55967058556558L154.34462237529135,169.49776264523476L155.4924228079464,166.67016769291018L156.64022324060147,168.11548742757097L157.78802367325656,169.21628881952827L158.93582410591162,169.56555652458442L160.08362453856668,169.5845171769957L161.23142497122177,163.55681376154527L162.3792254038768,167.5802624895873L163.5270258365319,169.1529448720378L164.67482626918698,167.95584677532167L165.82262670184204,169.0619781159451L166.9704271344971,168.59227625682817L168.11822756715216,169.0135642915586L169.26602799980725,169.04863029151036L170.41382843246228,167.09876489861176L171.56162886511737,168.38457155016718L172.70942929777246,169.4434518113452L173.85722973042752,169.74958563942022L175.00503016308258,169.75453756166965L176.15283059573764,169.76212508918437L177.30063102839273,169.7595583198889L178.44843146104776,169.77372391107417L179.59623189370285,169.6800359843191L180.74403232635794,169.82287209269126L181.89183275901297,169.86223722024963L183.03963319166806,169.86424535810306L184.18743362432312,169.82539263654246L185.3352340569782,169.87316278819185L186.48303448963327,169.78372246074449L187.63083492228833,169.8786062907068L188.77863535494342,169.89392436294386L189.92643578759845,169.81568921262158L191.07423622025354,169.8683217341062L192.2220366529086,169.85964766515855L193.3698370855637,169.8337517796076L194.51763751821875,169.7475545613052L195.6654379508738,169.80994547070173L196.8132383835289,169.88920110906705L197.96103881618393,169.90587832444209L199.10883924883902,169.88257270289847L200.25663968149408,169.91334551613346L201.40444011414917,169.93183999685942L202.55224054680423,169.9110072671212L203.7000409794593,169.9249344284836L204.84784141211438,169.95675642456138L205.9956418447694,169.97079340735962L207.1434422774245,169.96666289156647L208.2912427100796,169.9517505239913L209.43904314273462,169.95581771637563L210.5868435753897,169.95036147140678L211.73464400804477,169.94146406094853L212.88244444069986,169.89332985185342L214.0302448733549,169.79634162100461L215.17804530600998,169.82158520070223L216.32584573866507,169.93277495575276L217.4736461713201,169.92959423291333L218.6214466039752,169.96203986733332L219.76924703663025,169.9812210641893L220.91704746928534,169.98650069574325L222.06484790194037,169.99000075846988L223.21264833459546,169.99382314503563L224.36044876725055,169.99358334593197L225.50824919990558,169.99356742785415L226.65604963256067,169.9927927673818L227.80385006521573,169.97923841330984L228.9516504978708,169.98390792717123L230.09945093052588,169.99304466389867L231.24725136318094,169.99744774612543L232.39505179583603,169.99693379939075L233.54285222849106,169.9973648097122L234.69065266114615,170.00019358833217L235.8384530938012,170.0028687364493L236.98625352645627,170.00963742032462L238.13405395911136,170.0111567927891L239.28185439176642,170.00974893551066L240.4296548244215,170.00824482748118L241.57745525707654,170.0047526752468L242.72525568973163,170.00643230317598L243.8730561223867,170.0089131558143L245.02085655504175,170.00720027099086L246.16865698769683,170.0078337533007L247.3164574203519,170.01073486209728L248.46425785300696,170.01642837260115L249.61205828566202,170.01754359555227L250.7598587183171,170.0171145999288L251.9076591509722,170.01360870319613L253.05545958362723,170.0064398109859L254.20326001628231,170.00897292600095L255.35106044893737,170.00797836852814L256.49886088159246,170.0039530449978L257.6466613142475,170.00076332848528L258.7944617469026,169.99270875419404L259.94226217955764,169.99576869547474L261.0900626122127,169.99916662172552L262.23786304486777,170.00248846632485L263.3856634775228,170.00447327282276L264.53346391017794,170.00683231540663L265.681264342833,170.00714001522275L266.82906477548806,170.00822442888335L267.9768652081431,170.00900639383616L269.1246656407982,170.0101633280208L270.27246607345324,170.01172773991834L271.4202665061083,170.01279680823095L272.5680669387634,170.0125021323912L273.7158673714185,170.01355974375485L274.86366780407354,170.01425206028722L276.0114682367286,170.01434062722433L277.15926866938366,170.0144145391005" style="fill: none;" fill="none"></path></g><g><path stroke="rgb(255, 112, 67)" stroke-width="2px" d="M8.573967428097646,155.98375912682096L9.721767860752715,157.28129774327996L10.869568293407784,157.61064086118415L12.017368726062854,157.76676707759373L13.165169158717921,157.90930968063483L14.312969591372989,158.12170378021017L15.460770024028058,158.36706040254143L16.608570456683125,158.52636993153348L17.756370889338193,158.85011276334055L18.904171321993264,159.09963535800705L20.05197175464833,159.38806094193905L21.1997721873034,159.52747972251353L22.34757261995847,159.70458276136463L23.495373052613537,159.9074936451539L24.643173485268605,160.11241441836515L25.790973917923676,160.64783073073986L26.938774350578743,161.2479138235783L28.08657478323381,161.6431619717136L29.234375215888882,161.8028271234184L30.38217564854395,161.95392858787034L31.529976081199017,162.2623821884205L32.677776513854084,162.43250861090394L33.82557694650915,162.49855541867876L34.973377379164226,162.71193999307675L36.12117781181929,162.9337868988159L37.26897824447436,163.11593997806267L38.41677867712943,163.3898717729528L39.564579109784496,163.41684206334338L40.712379542439564,163.72635595986242L41.86017997509464,163.67474499273754L43.0079804077497,164.0654897557804L44.155780840404766,163.89408349358965L45.30358127305984,163.9209714298737L46.45138170571491,164.155779250852L47.599182138369976,164.5099523317877L48.74698257102505,164.61809319859935L49.89478300368011,164.73322030903486L51.04258343633518,164.85261567826416L52.19038386899025,164.85286523504544L53.33818430164532,165.3605566560665L54.48598473430039,165.78741332561478L55.633785166955455,165.86296626397043L56.78158559961052,165.90536891774838L57.92938603226559,165.97348300133694L59.077186464920665,166.06888306559057L60.22498689757573,166.24345953163532L61.3727873302308,166.304024687274L62.52058776288587,166.29924152652572L63.668388195540935,166.12480350260984L64.816188628196,166.40785713847262L65.96398906085108,166.48658596352044L67.11178949350614,166.4066458139921L68.25958992616121,166.45865164152602L69.40739035881627,166.3985212783261L70.55519079147135,166.43959113790766L71.70299122412641,166.45080022609145L72.85079165678148,166.52081426902254L73.99859208943656,166.6902836830828L75.14639252209163,166.69136770257626L76.29419295474669,166.85534857674872L77.44199338740177,166.7441651380024L78.58979382005683,166.8634379399674L79.73759425271189,166.80716049209812L80.88539468536696,166.74043824900247L82.03319511802202,167.02956077731972L83.18099555067711,166.88060303707107L84.32879598333217,167.021132055289L85.47659641598723,167.08726054072685L86.6243968486423,167.21622218468144L87.77219728129737,167.275495841747L88.91999771395244,167.03737408085627L90.06779814660752,166.93302452418305L91.21559857926259,167.20778159008168L92.36339901191765,167.35864509221236L93.51119944457271,167.33342451002517L94.65899987722779,167.26658098574075L95.80680030988285,167.23111139135875L96.95460074253793,167.36380306119895L98.102401175193,167.4106885989808L99.25020160784806,167.5268497909039L100.39800204050313,167.549602308663L101.54580247315819,167.57047410777093L102.69360290581326,167.65029245098896L103.84140333846834,167.45908416440477L104.9892037711234,167.53893360244368L106.13700420377847,167.39251173121366L107.28480463643353,167.6248113334141L108.43260506908861,167.38400089637761L109.58040550174367,167.78598755980235L110.72820593439873,167.58643134933092L111.87600636705382,167.74160930057363L113.02380679970888,167.86000625876702L114.17160723236395,167.91411802073L115.31940766501901,167.96260135307327L116.46720809767407,168.00937667683837L117.61500853032915,167.9832153881927L118.76280896298422,168.00264041220925L119.9106093956393,167.9216073624686L121.05840982829436,168.1101877780639L122.20621026094943,168.15445920293388L123.3540106936045,168.0653212081537L124.50181112625955,168.12461654788478L125.64961155891464,168.01951213607768L126.7974119915697,168.02521136112492L127.94521242422478,168.12334221739255L129.09301285687985,168.24437392733935L130.2408132895349,168.322028688266L131.38861372218997,168.31988413405907L132.53641415484506,168.23340398077025L133.68421458750012,168.15967075370642L134.83201502015518,168.13847182254656L135.97981545281024,168.3501031559425L137.1276158854653,168.3280623224796L138.2754163181204,168.25826302606964L139.42321675077545,168.36910018684827L140.57101718343054,168.38505154198276L141.7188176160856,168.5146116649422L142.86661804874066,168.37478320172542L144.01441848139572,168.3181519103192L145.16221891405078,168.40556846835847L146.31001934670587,168.54203525140608L147.45781977936093,168.54626564333861L148.60562021201602,168.56199667431076L149.75342064467108,168.4615455883192L150.90122107732617,168.53642144368757L152.0490215099812,168.68033170627285L153.1968219426363,168.82543446063013L154.34462237529135,168.60357177748506L155.4924228079464,168.51873384233312L156.64022324060147,168.6769715729L157.78802367325656,168.55860425611658L158.93582410591162,168.65964849255343L160.08362453856668,168.74021918133982L161.23142497122177,168.82606220263241L162.3792254038768,168.7004670537953L163.5270258365319,168.73387643442484L164.67482626918698,168.90799552848648L165.82262670184204,168.86822342035876L166.9704271344971,168.6394158450148L168.11822756715216,168.92172859943165L169.26602799980725,168.73806293136968L170.41382843246228,168.92237285860472L171.56162886511737,168.9227632332629L172.70942929777246,168.88063091368483L173.85722973042752,169.03783023793773L175.00503016308258,169.06387449389277L176.15283059573764,168.99227000166982L177.30063102839273,168.996471270324L178.44843146104776,169.03265796293243L179.59623189370285,168.82477419734943L180.74403232635794,169.1144196652076L181.89183275901297,169.13857033164473L183.03963319166806,169.05211663546243L184.18743362432312,169.06727958528987L185.3352340569782,169.00568367555175L186.48303448963327,168.9927861158895L187.63083492228833,169.05778307184764L188.77863535494342,168.98509036398295L189.92643578759845,169.21264688636975L191.07423622025354,169.15283910490933L192.2220366529086,169.11441427992767L193.3698370855637,169.12973156675812L194.51763751821875,169.02484776465877L195.6654379508738,169.02389533271986L196.8132383835289,169.0937199415972L197.96103881618393,168.9930066001873L199.10883924883902,169.0342176812481L200.25663968149408,169.1585611716643L201.40444011414917,169.0905668316828L202.55224054680423,169.10659807267479L203.7000409794593,169.03298167583114L204.84784141211438,169.01250166350368L205.9956418447694,169.071538286226L207.1434422774245,169.13395617971102L208.2912427100796,168.9573445390149L209.43904314273462,169.08062633322004L210.5868435753897,169.12679616356039L211.73464400804477,169.18689397188206L212.88244444069986,168.94595837287991L214.0302448733549,169.00899672331255L215.17804530600998,169.14217263938485L216.32584573866507,169.26281909263932L217.4736461713201,169.19627143621898L218.6214466039752,169.07397009378388L219.76924703663025,169.16386487496226L220.91704746928534,169.14294113773L222.06484790194037,169.08482321466045L223.21264833459546,169.2428172754222L224.36044876725055,169.1562880747339L225.50824919990558,169.15679019966916L226.65604963256067,169.1654535328152L227.80385006521573,169.1100608748718L228.9516504978708,169.120534843279L230.09945093052588,169.1888164604083L231.24725136318094,169.22726061188388L232.39505179583603,169.26694243273874L233.54285222849106,169.24933299514836L234.69065266114615,169.0271434531847L235.8384530938012,169.12290035841892L236.98625352645627,169.16532485406097L238.13405395911136,169.09634453158648L239.28185439176642,169.1775797445002L240.4296548244215,169.2685199908144L241.57745525707654,169.15830002326723L242.72525568973163,169.187762765371L243.8730561223867,169.2791373320142L245.02085655504175,169.17550611959825L246.16865698769683,169.1984807474142L247.3164574203519,169.1933669568907L248.46425785300696,169.25834651735923L249.61205828566202,169.21858793353368L250.7598587183171,169.21725847497464L251.9076591509722,169.16870867660998L253.05545958362723,169.03182458768072L254.20326001628231,169.13581806930083L255.35106044893737,169.15783010772003L256.49886088159246,169.13128078364406L257.6466613142475,169.25086578438223L258.7944617469026,169.3290308549624L259.94226217955764,169.29350113253543L261.0900626122127,169.04414951349727L262.23786304486777,169.25998131956501L263.3856634775228,169.0896191948214L264.53346391017794,169.10424252930008L265.681264342833,169.21125652253352L266.82906477548806,169.06112002690423L267.9768652081431,169.27696164796885L269.1246656407982,169.2644176007529L270.27246607345324,169.19224283012835L271.4202665061083,169.21571745946054L272.5680669387634,169.1217083677431L273.7158673714185,169.20717167949834L274.86366780407354,169.00112319793695L276.0114682367286,169.14751122510577L277.15926866938366,169.13771738883327" style="fill: none;" fill="none"></path></g></g></g></g><g opacity="0.2"><g><g><g><path stroke="rgb(0, 119, 187)" stroke-width="2px" d="M8.573967428097646,134.6643257812551L9.721767860752715,93.97060133083676L10.869568293407784,131.92286496934713L12.017368726062854,152.23398653240653L13.165169158717921,157.1129518070202L14.312969591372989,141.67223730350966L15.460770024028058,4.135142278593447L16.608570456683125,127.30807623339331L17.756370889338193,140.51285746471814L18.904171321993264,129.49002272891104L20.05197175464833,127.57249707019228L21.1997721873034,142.64945164454878L22.34757261995847,113.14127071474984L23.495373052613537,138.84176794284937L24.643173485268605,132.7003554673991L25.790973917923676,146.5999532832107L26.938774350578743,148.71057094626096L28.08657478323381,152.2200428660073L29.234375215888882,152.30065658380053L30.38217564854395,154.55255170510168L31.529976081199017,158.2881853502095L32.677776513854084,157.04264996036048L33.82557694650915,158.59566567907774L34.973377379164226,152.8611605410601L36.12117781181929,160.8922237907435L37.26897824447436,162.80949114697123L38.41677867712943,158.70707263269375L39.564579109784496,156.86770137196643L40.712379542439564,163.05949294742507L41.86017997509464,149.3097798201609L43.0079804077497,155.9924433810531L44.155780840404766,158.3652785295329L45.30358127305984,159.6210495445994L46.45138170571491,161.0097537582286L47.599182138369976,140.34255209700652L48.74698257102505,160.8950845686338L49.89478300368011,148.76895353339404L51.04258343633518,161.23014802465593L52.19038386899025,154.7539856350627L53.33818430164532,157.35115649701697L54.48598473430039,163.4627731577093L55.633785166955455,165.31277411055692L56.78158559961052,165.2994345763393L57.92938603226559,166.46074118054972L59.077186464920665,164.15918779435455L60.22498689757573,164.8407858266639L61.3727873302308,166.880446939602L62.52058776288587,166.7877462990688L63.668388195540935,166.88361425719555L64.816188628196,166.8868757151548L65.96398906085108,165.2898832193172L67.11178949350614,164.97825098911318L68.25958992616121,166.5348094198575L69.40739035881627,166.10808709148137L70.55519079147135,166.86845726930596L71.70299122412641,165.5362540025249L72.85079165678148,166.6855230882369L73.99859208943656,166.97657514526867L75.14639252209163,167.02536591836295L76.29419295474669,167.16461546865327L77.44199338740177,166.86235137186702L78.58979382005683,159.8595561061821L79.73759425271189,166.63803160779335L80.88539468536696,165.71848602094892L82.03319511802202,166.76308191226178L83.18099555067711,167.4496971981529L84.32879598333217,167.27037244428737L85.47659641598723,166.70366533714497L86.6243968486423,165.3825270644232L87.77219728129737,156.83616668351124L88.91999771395244,167.42465975097102L90.06779814660752,167.80910877603444L91.21559857926259,167.97507785177663L92.36339901191765,167.42642507733302L93.51119944457271,168.02548048687643L94.65899987722779,167.76036993574522L95.80680030988285,166.4527299132295L96.95460074253793,167.22863402941627L98.102401175193,168.02080011576044L99.25020160784806,168.36587843395242L100.39800204050313,167.1194249810328L101.54580247315819,165.44160948014266L102.69360290581326,168.6130122598351L103.84140333846834,167.98135569153646L104.9892037711234,167.84652023517074L106.13700420377847,167.95425124091153L107.28480463643353,168.00307488533184L108.43260506908861,166.58410007051353L109.58040550174367,168.6311605383947L110.72820593439873,168.53436323591387L111.87600636705382,168.4891573824073L113.02380679970888,168.5245712763455L114.17160723236395,168.61171724629187L115.31940766501901,168.39437106596185L116.46720809767407,167.5677101212745L117.61500853032915,168.918712285465L118.76280896298422,168.37219459117512L119.9106093956393,168.5977916688472L121.05840982829436,169.0386956403528L122.20621026094943,167.72951037375572L123.3540106936045,168.36921924990588L124.50181112625955,167.29373131428724L125.64961155891464,168.48382833749037L126.7974119915697,160.24881562613155L127.94521242422478,168.17700738019187L129.09301285687985,167.35207850153074L130.2408132895349,169.15888254460577L131.38861372218997,168.91201839975008L132.53641415484506,169.18843834033214L133.68421458750012,168.83568378948922L134.83201502015518,160.04766878538499L135.97981545281024,169.02870372975977L137.1276158854653,169.3236144720089L138.2754163181204,166.20449227210833L139.42321675077545,166.4301712363382L140.57101718343054,169.05586429504484L141.7188176160856,166.52531174618443L142.86661804874066,157.93046207475436L144.01441848139572,168.25559299551966L145.16221891405078,169.19569201111423L146.31001934670587,169.4761709769481L147.45781977936093,168.83801998769704L148.60562021201602,169.36922898028482L149.75342064467108,166.67791794712247L150.90122107732617,169.27501771754024L152.0490215099812,169.5518371711619L153.1968219426363,169.6102167434692L154.34462237529135,169.47968616653353L155.4924228079464,165.84453919261904L156.64022324060147,168.53750585138667L157.78802367325656,169.53771144818765L158.93582410591162,169.6675390844587L160.08362453856668,169.59005349152406L161.23142497122177,161.79678666607785L162.3792254038768,168.7550679321422L163.5270258365319,169.6121518725983L164.67482626918698,167.6063065041875L165.82262670184204,169.3849570345251L166.9704271344971,168.4551281687656L168.11822756715216,169.13657604330157L169.26602799980725,169.05886920105704L170.41382843246228,166.52942435753283L171.56162886511737,168.76001380243014L172.70942929777246,169.75263390311036L173.85722973042752,169.8389735530442L175.00503016308258,169.7559834717838L176.15283059573764,169.76434056879458L177.30063102839273,169.75880884978451L178.44843146104776,169.7778601172859L179.59623189370285,169.6526800780573L180.74403232635794,169.8645787599937L181.89183275901297,169.87373143062194L183.03963319166806,169.86483171360032L184.18743362432312,169.81404804342526L185.3352340569782,169.88711117872512L186.48303448963327,169.75760680957768L187.63083492228833,169.90631138834436L188.77863535494342,169.89839708171075L189.92643578759845,169.7928453573595L191.07423622025354,169.88368988637433L192.2220366529086,169.85711492668028L193.3698370855637,169.82619044868449L194.51763751821875,169.72238586448822L195.6654379508738,169.82816297137825L196.8132383835289,169.91234293628997L197.96103881618393,169.91074789895728L199.10883924883902,169.87576770229273L200.25663968149408,169.92233085953285L201.40444011414917,169.93724019407398L202.55224054680423,169.904924325363L203.7000409794593,169.92900101565144L204.84784141211438,169.9660481185066L205.9956418447694,169.9748920612516L207.1434422774245,169.96545682364754L208.2912427100796,169.94739626679237L209.43904314273462,169.95700529451372L210.5868435753897,169.94876830427117L211.73464400804477,169.9388661090576L212.88244444069986,169.87927516030885L214.0302448733549,169.7680220600591L215.17804530600998,169.82895606505838L216.32584573866507,169.9652412149794L217.4736461713201,169.9286654947199L218.6214466039752,169.97151365722857L219.76924703663025,169.986821775416L220.91704746928534,169.98804229358717L222.06484790194037,169.99102274060968L223.21264833459546,169.99493924240497L224.36044876725055,169.9935133270722L225.50824919990558,169.99356277993996L226.65604963256067,169.99256657453068L227.80385006521573,169.9752806820175L228.9516504978708,169.98527137695504L230.09945093052588,169.99571249658655L231.24725136318094,169.99873340062575L232.39505179583603,169.99678373225632L233.54285222849106,169.99749066027115L234.69065266114615,170.00101956245118L235.8384530938012,170.0036498520494L236.98625352645627,170.01161380605564L238.13405395911136,170.01160043384462L239.28185439176642,170.00933785573685L240.4296548244215,170.00780564348293L241.57745525707654,170.00373300288894L242.72525568973163,170.00692273717078L243.8730561223867,170.0096375391428L245.02085655504175,170.00670012632668L246.16865698769683,170.00801872358753L247.3164574203519,170.01158195588025L248.46425785300696,170.0180908188206L249.61205828566202,170.01786922912714L250.7598587183171,170.0169893376408L251.9076591509722,170.01258501758682L253.05545958362723,170.00434656855762L254.20326001628231,170.00971256940326L255.35106044893737,170.00768796802578L256.49886088159246,170.00277769213233L257.6466613142475,169.99983196423227L258.7944617469026,169.99035690175242L259.94226217955764,169.9966621667014L261.0900626122127,170.00015878107007L262.23786304486777,170.00345841061355L263.3856634775228,170.00505281580536L264.53346391017794,170.00752113145825L265.681264342833,170.0072298603887L266.82906477548806,170.0085410664638L267.9768652081431,170.00923471952007L269.1246656407982,170.01050114084478L270.27246607345324,170.0121845320228L271.4202665061083,170.01310896512845L272.5680669387634,170.01241609009173L273.7158673714185,170.01386855534167L274.86366780407354,170.01445420955895L276.0114682367286,170.01436648785452L277.15926866938366,170.0144361206044" style="fill: none;" fill="none"></path></g><g><path stroke="rgb(255, 112, 67)" stroke-width="2px" d="M8.573967428097646,155.98375912682096L9.721767860752715,157.57454147059968L10.869568293407784,157.70189393492055L12.017368726062854,157.81182809752588L13.165169158717921,157.95082206839356L14.312969591372989,158.18368409813124L15.460770024028058,158.438692454398L16.608570456683125,158.5728852666143L17.756370889338193,158.94464168071707L18.904171321993264,159.17249326454407L20.05197175464833,159.47227820202997L21.1997721873034,159.56818856222225L22.34757261995847,159.7562950172687L23.495373052613537,159.9667415257125L24.643173485268605,160.1722491660444L25.790973917923676,160.8041667599025L26.938774350578743,161.4231318842698L28.08657478323381,161.7585703457157L29.234375215888882,161.84944769743032L30.38217564854395,161.99804865371803L31.529976081199017,162.35244745163024L32.677776513854084,162.48218376785647L33.82557694650915,162.5178404038947L34.973377379164226,162.77424608327567L36.12117781181929,162.99856390230045L37.26897824447436,163.16912679448356L38.41677867712943,163.46985702572434L39.564579109784496,163.42471710937474L40.712379542439564,163.81673081853594L41.86017997509464,163.65967512378376L43.0079804077497,164.17958318788334L44.155780840404766,163.8440346366709L45.30358127305984,163.92882242935713L46.45138170571491,164.22434070762344L47.599182138369976,164.61336721071723L48.74698257102505,164.6496692139733L49.89478300368011,164.7668362353377L51.04258343633518,164.88747789201844L52.19038386899025,164.85293810304617L53.33818430164532,165.5087973035481L54.48598473430039,165.91205106116763L55.633785166955455,165.88502694106134L56.78158559961052,165.91775005438123L57.92938603226559,165.99337160972328L59.077186464920665,166.09673889830543L60.22498689757573,166.29443405531248L61.3727873302308,166.321709086724L62.52058776288587,166.29784489302557L63.668388195540935,166.07386940260338L64.816188628196,166.49050587452558L65.96398906085108,166.50957396669978L67.11178949350614,166.3833041165846L68.25958992616121,166.473836805638L69.40739035881627,166.38096383377416L70.55519079147135,166.45158311241082L71.70299122412641,166.4540731639849L72.85079165678148,166.54125764589907L73.99859208943656,166.73976700036656L75.14639252209163,166.691684225064L76.29419295474669,166.9032292971143L77.44199338740177,166.7117007230713L78.58979382005683,166.89826436534742L79.73759425271189,166.79072805899932L80.88539468536696,166.7209560436541L82.03319511802202,167.1139815672418L83.18099555067711,166.83710891653334L84.32879598333217,167.06216507611234L85.47659641598723,167.10656937497615L86.6243968486423,167.25387765177928L87.77219728129737,167.29280313696248L88.91999771395244,166.967844987883L90.06779814660752,166.90255553218284L91.21559857926259,167.28800781345777L92.36339901191765,167.4026956755218L93.51119944457271,167.32606036070436L94.65899987722779,167.2470633675388L95.80680030988285,167.22075463641002L96.95460074253793,167.40254765730216L98.102401175193,167.42437869140807L99.25020160784806,167.56076765831295L100.39800204050313,167.55624580868053L101.54580247315819,167.57656845738126L102.69360290581326,167.6735985822128L103.84140333846834,167.40325332103524L104.9892037711234,167.56224881303385L106.13700420377847,167.34975805821884L107.28480463643353,167.69264041622714L108.43260506908861,167.31368673775975L109.58040550174367,167.9033635106215L110.72820593439873,167.52816299846978L111.87600636705382,167.78691965843004L113.02380679970888,167.89457694681835L114.17160723236395,167.92991809592849L115.31940766501901,167.9767579849978L116.46720809767407,168.0230345879119L117.61500853032915,167.97557656230907L118.76280896298422,168.00831231844666L119.9106093956393,167.89794654949523L121.05840982829436,168.16525131026614L122.20621026094943,168.16738600141014L123.3540106936045,168.03929383500082L124.50181112625955,168.1419301742145L125.64961155891464,167.9888227341805L126.7974119915697,168.026875475932L127.94521242422478,168.15199541315027L129.09301285687985,168.27971393567006L130.2408132895349,168.34470307582342L131.38861372218997,168.3192579463966L132.53641415484506,168.20815266986162L133.68421458750012,168.13814141350434L134.83201502015518,168.13228195375828L135.97981545281024,168.41189731789012L137.1276158854653,168.32162662692068L138.2754163181204,168.23788235295768L139.42321675077545,168.4014634921919L140.57101718343054,168.38970917281014L141.7188176160856,168.55244188172364L142.86661804874066,168.33395473572153L144.01441848139572,168.3016161585649L145.16221891405078,168.43109319977563L146.31001934670587,168.58188214154663L147.45781977936093,168.54750087405793L148.60562021201602,168.56658997276L149.75342064467108,168.4322149094638L150.90122107732617,168.55828441954446L152.0490215099812,168.7223520155032L153.1968219426363,168.86780296513237L154.34462237529135,168.53879016716104L155.4924228079464,168.49396204214665L156.64022324060147,168.7231753546934L157.78802367325656,168.5240422230506L158.93582410591162,168.68915236520812L160.08362453856668,168.7637449896935L161.23142497122177,168.85112747758347L162.3792254038768,168.66379456847594L163.5270258365319,168.74363162825207L164.67482626918698,168.95883650427191L165.82262670184204,168.8566103758667L166.9704271344971,168.57260639795058L168.11822756715216,169.0041610057601L169.26602799980725,168.68443445464874L170.41382843246228,168.97618945234518L171.56162886511737,168.92287721862823L172.70942929777246,168.86832871184419L173.85722973042752,169.08373081582033L175.00503016308258,169.07147914744039L176.15283059573764,168.97136223003884L177.30063102839273,168.99769799734705L178.44843146104776,169.04322410315143L179.59623189370285,168.7640742864686L180.74403232635794,169.1989931480706L181.89183275901297,169.1456220766251L183.03963319166806,169.02687304975547L184.18743362432312,169.07170700991648L185.3352340569782,168.98769830655849L186.48303448963327,168.9890201617762L187.63083492228833,169.07676151118423L188.77863535494342,168.9638648446323L189.92643578759845,169.2790910389013L191.07423622025354,169.1353758508912L192.2220366529086,169.10319462818882L193.3698370855637,169.13420405619442L194.51763751821875,168.99422277851608L195.6654379508738,169.02361723243794L196.8132383835289,169.114108005688L197.96103881618393,168.9635993454604L199.10883924883902,169.0462508909635L200.25663968149408,169.19486818566182L201.40444011414917,169.07071318719207L202.55224054680423,169.11127902934686L203.7000409794593,169.0114864488458L204.84784141211438,169.00652171158376L205.9956418447694,169.08877636986324L207.1434422774245,169.1521815594625L208.2912427100796,168.90577576537495L209.43904314273462,169.1166233428975L210.5868435753897,169.1402772768122L211.73464400804477,169.204441910746L212.88244444069986,168.87560766826172L214.0302448733549,169.0274032700797L215.17804530600998,169.18105863038272L216.32584573866507,169.29804660999787L217.4736461713201,169.17684020837532L218.6214466039752,169.03825936588942L219.76924703663025,169.1901132219213L220.91704746928534,169.13683162272417L222.06484790194037,169.0678533818262L223.21264833459546,169.2889499081511L224.36044876725055,169.13102244249163L225.50824919990558,169.15693681496032L226.65604963256067,169.16798313655033L227.80385006521573,169.09388679128628L228.9516504978708,169.1235931337958L230.09945093052588,169.2087539868569L231.24725136318094,169.2384859067592L232.39505179583603,169.27852911428033L233.54285222849106,169.24419122138164L234.69065266114615,168.96226640346404L235.8384530938012,169.15086038501187L236.98625352645627,169.1777123682924L238.13405395911136,169.07620299039883L239.28185439176642,169.20129958703055L240.4296548244215,169.29507360278728L241.57745525707654,169.1261169319679L242.72525568973163,169.19636558154082L243.8730561223867,169.30581776103406L245.02085655504175,169.14524687669643L246.16865698769683,169.20518910127265L247.3164574203519,169.19187378291355L248.46425785300696,169.27731987739267L249.61205828566202,169.20697883799807L250.7598587183171,169.21687028681657L251.9076591509722,169.1545326372942L253.05545958362723,168.99185584853598L254.20326001628231,169.16618309106588L255.35106044893737,169.16425739542382L256.49886088159246,169.1235286554255L257.6466613142475,169.2857833685771L258.7944617469026,169.35185424766414L259.94226217955764,169.28312682081904L261.0900626122127,168.97134141801584L262.23786304486777,169.3230019761171L263.3856634775228,169.03987521524513L264.53346391017794,169.10851239182227L265.681264342833,169.24250350246987L266.82906477548806,169.0172817219789L267.9768652081431,169.33998517039856L269.1246656407982,169.26075486862007L270.27246607345324,169.17116854309845L271.4202665061083,169.2225718085937L272.5680669387634,169.09425868463182L273.7158673714185,169.23212608318914L274.86366780407354,168.9409591710211L276.0114682367286,169.19025501598452L277.15926866938366,169.13485768986996" style="fill: none;" fill="none"></path></g></g></g></g></g></g><g transform="translate(30, 177)" clip-path="url(#clip_1)"><clipPath id="clip_1"><rect width="299" height="23"></rect></clipPath><g><g><line x1="8.573967428097646" y1="0" x2="8.573967428097646" y2="5" style="visibility: inherit;" fill="rgb(0, 0, 0)" stroke="rgb(204, 204, 204)" stroke-width="1px"></line><line x1="31.529976081199017" y1="0" x2="31.529976081199017" y2="5" style="visibility: inherit;" fill="rgb(0, 0, 0)" stroke="rgb(204, 204, 204)" stroke-width="1px"></line><line x1="54.48598473430039" y1="0" x2="54.48598473430039" y2="5" style="visibility: inherit;" fill="rgb(0, 0, 0)" stroke="rgb(204, 204, 204)" stroke-width="1px"></line><line x1="77.44199338740177" y1="0" x2="77.44199338740177" y2="5" style="visibility: inherit;" fill="rgb(0, 0, 0)" stroke="rgb(204, 204, 204)" stroke-width="1px"></line><line x1="100.39800204050313" y1="0" x2="100.39800204050313" y2="5" style="visibility: inherit;" fill="rgb(0, 0, 0)" stroke="rgb(204, 204, 204)" stroke-width="1px"></line><line x1="123.3540106936045" y1="0" x2="123.3540106936045" y2="5" style="visibility: inherit;" fill="rgb(0, 0, 0)" stroke="rgb(204, 204, 204)" stroke-width="1px"></line><line x1="146.31001934670587" y1="0" x2="146.31001934670587" y2="5" style="visibility: inherit;" fill="rgb(0, 0, 0)" stroke="rgb(204, 204, 204)" stroke-width="1px"></line><line x1="169.26602799980725" y1="0" x2="169.26602799980725" y2="5" style="visibility: inherit;" fill="rgb(0, 0, 0)" stroke="rgb(204, 204, 204)" stroke-width="1px"></line><line x1="192.2220366529086" y1="0" x2="192.2220366529086" y2="5" style="visibility: inherit;" fill="rgb(0, 0, 0)" stroke="rgb(204, 204, 204)" stroke-width="1px"></line><line x1="215.17804530600998" y1="0" x2="215.17804530600998" y2="5" style="visibility: inherit;" fill="rgb(0, 0, 0)" stroke="rgb(204, 204, 204)" stroke-width="1px"></line><line x1="238.13405395911136" y1="0" x2="238.13405395911136" y2="5" style="visibility: inherit;" fill="rgb(0, 0, 0)" stroke="rgb(204, 204, 204)" stroke-width="1px"></line><line x1="261.0900626122127" y1="0" x2="261.0900626122127" y2="5" style="visibility: inherit;" fill="rgb(0, 0, 0)" stroke="rgb(204, 204, 204)" stroke-width="1px"></line><line x1="284.0460712653141" y1="0" x2="284.0460712653141" y2="5" style="visibility: inherit;" fill="rgb(0, 0, 0)" stroke="rgb(204, 204, 204)" stroke-width="1px"></line></g><g transform="translate(0, 8)"><text x="8.573967428097646" y="0" dx="0em" dy="0.95em" style="text-anchor: middle; visibility: inherit; font-family: Roboto, sans-serif; font-size: 12px; font-weight: 200;" fill="rgb(33, 33, 33)" stroke="none" stroke-width="1px">0</text><text x="31.529976081199017" y="0" dx="0em" dy="0.95em" style="text-anchor: middle; visibility: hidden; font-family: Roboto, sans-serif; font-size: 12px; font-weight: 200;" fill="rgb(33, 33, 33)" stroke="none" stroke-width="1px">20</text><text x="54.48598473430039" y="0" dx="0em" dy="0.95em" style="text-anchor: middle; visibility: inherit; font-family: Roboto, sans-serif; font-size: 12px; font-weight: 200;" fill="rgb(33, 33, 33)" stroke="none" stroke-width="1px">40</text><text x="77.44199338740177" y="0" dx="0em" dy="0.95em" style="text-anchor: middle; visibility: hidden; font-family: Roboto, sans-serif; font-size: 12px; font-weight: 200;" fill="rgb(33, 33, 33)" stroke="none" stroke-width="1px">60</text><text x="100.39800204050313" y="0" dx="0em" dy="0.95em" style="text-anchor: middle; visibility: inherit; font-family: Roboto, sans-serif; font-size: 12px; font-weight: 200;" fill="rgb(33, 33, 33)" stroke="none" stroke-width="1px">80</text><text x="123.3540106936045" y="0" dx="0em" dy="0.95em" style="text-anchor: middle; visibility: hidden; font-family: Roboto, sans-serif; font-size: 12px; font-weight: 200;" fill="rgb(33, 33, 33)" stroke="none" stroke-width="1px">100</text><text x="146.31001934670587" y="0" dx="0em" dy="0.95em" style="text-anchor: middle; visibility: inherit; font-family: Roboto, sans-serif; font-size: 12px; font-weight: 200;" fill="rgb(33, 33, 33)" stroke="none" stroke-width="1px">120</text><text x="169.26602799980725" y="0" dx="0em" dy="0.95em" style="text-anchor: middle; visibility: hidden; font-family: Roboto, sans-serif; font-size: 12px; font-weight: 200;" fill="rgb(33, 33, 33)" stroke="none" stroke-width="1px">140</text><text x="192.2220366529086" y="0" dx="0em" dy="0.95em" style="text-anchor: middle; visibility: inherit; font-family: Roboto, sans-serif; font-size: 12px; font-weight: 200;" fill="rgb(33, 33, 33)" stroke="none" stroke-width="1px">160</text><text x="215.17804530600998" y="0" dx="0em" dy="0.95em" style="text-anchor: middle; visibility: hidden; font-family: Roboto, sans-serif; font-size: 12px; font-weight: 200;" fill="rgb(33, 33, 33)" stroke="none" stroke-width="1px">180</text><text x="238.13405395911136" y="0" dx="0em" dy="0.95em" style="text-anchor: middle; visibility: inherit; font-family: Roboto, sans-serif; font-size: 12px; font-weight: 200;" fill="rgb(33, 33, 33)" stroke="none" stroke-width="1px">200</text><text x="261.0900626122127" y="0" dx="0em" dy="0.95em" style="text-anchor: middle; visibility: hidden; font-family: Roboto, sans-serif; font-size: 12px; font-weight: 200;" fill="rgb(33, 33, 33)" stroke="none" stroke-width="1px">220</text><text x="284.0460712653141" y="0" dx="0em" dy="0.95em" style="text-anchor: middle; visibility: inherit; font-family: Roboto, sans-serif; font-size: 12px; font-weight: 200;" fill="rgb(33, 33, 33)" stroke="none" stroke-width="1px">240</text></g><line x1="0" y1="0" x2="299.21875" y2="0" fill="rgb(0, 0, 0)" stroke="rgb(204, 204, 204)" stroke-width="1px"></line></g></g></g></g></svg>