<svg viewBox="0 0 330 200" xmlns="http://www.w3.org/2000/svg"><g><g><g><g><g><line x1="40" y1="170.34704610425567" x2="35" y2="170.34704610425567" style="visibility: inherit;" fill="rgb(0, 0, 0)" stroke="rgb(204, 204, 204)" stroke-width="1px"></line><line x1="40" y1="154.19130297979848" x2="35" y2="154.19130297979848" style="visibility: inherit;" fill="rgb(0, 0, 0)" stroke="rgb(204, 204, 204)" stroke-width="1px"></line><line x1="40" y1="138.03555985534123" x2="35" y2="138.03555985534123" style="visibility: inherit;" fill="rgb(0, 0, 0)" stroke="rgb(204, 204, 204)" stroke-width="1px"></line><line x1="40" y1="121.879816730884" x2="35" y2="121.879816730884" style="visibility: inherit;" fill="rgb(0, 0, 0)" stroke="rgb(204, 204, 204)" stroke-width="1px"></line><line x1="40" y1="105.7240736064268" x2="35" y2="105.7240736064268" style="visibility: inherit;" fill="rgb(0, 0, 0)" stroke="rgb(204, 204, 204)" stroke-width="1px"></line><line x1="40" y1="89.56833048196958" x2="35" y2="89.56833048196958" style="visibility: inherit;" fill="rgb(0, 0, 0)" stroke="rgb(204, 204, 204)" stroke-width="1px"></line><line x1="40" y1="73.41258735751235" x2="35" y2="73.41258735751235" style="visibility: inherit;" fill="rgb(0, 0, 0)" stroke="rgb(204, 204, 204)" stroke-width="1px"></line><line x1="40" y1="57.25684423305514" x2="35" y2="57.25684423305514" style="visibility: inherit;" fill="rgb(0, 0, 0)" stroke="rgb(204, 204, 204)" stroke-width="1px"></line><line x1="40" y1="41.10110110859791" x2="35" y2="41.10110110859791" style="visibility: inherit;" fill="rgb(0, 0, 0)" stroke="rgb(204, 204, 204)" stroke-width="1px"></line><line x1="40" y1="24.945357984140678" x2="35" y2="24.945357984140678" style="visibility: inherit;" fill="rgb(0, 0, 0)" stroke="rgb(204, 204, 204)" stroke-width="1px"></line><line x1="40" y1="8.789614859683466" x2="35" y2="8.789614859683466" style="visibility: inherit;" fill="rgb(0, 0, 0)" stroke="rgb(204, 204, 204)" stroke-width="1px"></line></g><g transform="translate(30, 0)"><text x="0" y="170.34704610425567" dx="0em" dy="0.3em" style="text-anchor: end; visibility: inherit; font-family: Roboto, sans-serif; font-size: 12px; font-weight: 200;" fill="rgb(33, 33, 33)" stroke="none" stroke-width="1px">0</text><text x="0" y="154.19130297979848" dx="0em" dy="0.3em" style="text-anchor: end; visibility: hidden; font-family: Roboto, sans-serif; font-size: 12px; font-weight: 200;" fill="rgb(33, 33, 33)" stroke="none" stroke-width="1px">0.1</text><text x="0" y="138.03555985534123" dx="0em" dy="0.3em" style="text-anchor: end; visibility: inherit; font-family: Roboto, sans-serif; font-size: 12px; font-weight: 200;" fill="rgb(33, 33, 33)" stroke="none" stroke-width="1px">0.2</text><text x="0" y="121.879816730884" dx="0em" dy="0.3em" style="text-anchor: end; visibility: hidden; font-family: Roboto, sans-serif; font-size: 12px; font-weight: 200;" fill="rgb(33, 33, 33)" stroke="none" stroke-width="1px">0.3</text><text x="0" y="105.7240736064268" dx="0em" dy="0.3em" style="text-anchor: end; visibility: inherit; font-family: Roboto, sans-serif; font-size: 12px; font-weight: 200;" fill="rgb(33, 33, 33)" stroke="none" stroke-width="1px">0.4</text><text x="0" y="89.56833048196958" dx="0em" dy="0.3em" style="text-anchor: end; visibility: hidden; font-family: Roboto, sans-serif; font-size: 12px; font-weight: 200;" fill="rgb(33, 33, 33)" stroke="none" stroke-width="1px">0.5</text><text x="0" y="73.41258735751235" dx="0em" dy="0.3em" style="text-anchor: end; visibility: inherit; font-family: Roboto, sans-serif; font-size: 12px; font-weight: 200;" fill="rgb(33, 33, 33)" stroke="none" stroke-width="1px">0.6</text><text x="0" y="57.25684423305514" dx="0em" dy="0.3em" style="text-anchor: end; visibility: hidden; font-family: Roboto, sans-serif; font-size: 12px; font-weight: 200;" fill="rgb(33, 33, 33)" stroke="none" stroke-width="1px">0.7</text><text x="0" y="41.10110110859791" dx="0em" dy="0.3em" style="text-anchor: end; visibility: inherit; font-family: Roboto, sans-serif; font-size: 12px; font-weight: 200;" fill="rgb(33, 33, 33)" stroke="none" stroke-width="1px">0.8</text><text x="0" y="24.945357984140678" dx="0em" dy="0.3em" style="text-anchor: end; visibility: hidden; font-family: Roboto, sans-serif; font-size: 12px; font-weight: 200;" fill="rgb(33, 33, 33)" stroke="none" stroke-width="1px">0.9</text><text x="0" y="8.789614859683466" dx="0em" dy="0.3em" style="text-anchor: end; visibility: inherit; font-family: Roboto, sans-serif; font-size: 12px; font-weight: 200;" fill="rgb(33, 33, 33)" stroke="none" stroke-width="1px">1</text></g><line x1="40" y1="0" x2="40" y2="177" fill="rgb(0, 0, 0)" stroke="rgb(204, 204, 204)" stroke-width="1px"></line></g></g><g transform="translate(40, 0)" clip-path="url(#clip_0)"><clipPath id="clip_0"><rect width="290" height="177"></rect></clipPath><g><g><g><line x1="17.63742222800801" y1="0" x2="17.63742222800801" y2="177" fill="rgb(0, 0, 0)" stroke="rgb(66, 66, 66)" stroke-width="1px" opacity="0.25"></line><line x1="38.70221928508114" y1="0" x2="38.70221928508114" y2="177" fill="rgb(0, 0, 0)" stroke="rgb(66, 66, 66)" stroke-width="1px" opacity="0.25"></line><line x1="59.76701634215427" y1="0" x2="59.76701634215427" y2="177" fill="rgb(0, 0, 0)" stroke="rgb(66, 66, 66)" stroke-width="1px" opacity="0.25"></line><line x1="80.8318133992274" y1="0" x2="80.8318133992274" y2="177" fill="rgb(0, 0, 0)" stroke="rgb(66, 66, 66)" stroke-width="1px" opacity="0.25"></line><line x1="101.89661045630054" y1="0" x2="101.89661045630054" y2="177" fill="rgb(0, 0, 0)" stroke="rgb(66, 66, 66)" stroke-width="1px" opacity="0.25"></line><line x1="122.96140751337367" y1="0" x2="122.96140751337367" y2="177" fill="rgb(0, 0, 0)" stroke="rgb(66, 66, 66)" stroke-width="1px" opacity="0.25"></line><line x1="144.02620457044682" y1="0" x2="144.02620457044682" y2="177" fill="rgb(0, 0, 0)" stroke="rgb(66, 66, 66)" stroke-width="1px" opacity="0.25"></line><line x1="165.09100162751994" y1="0" x2="165.09100162751994" y2="177" fill="rgb(0, 0, 0)" stroke="rgb(66, 66, 66)" stroke-width="1px" opacity="0.25"></line><line x1="186.15579868459307" y1="0" x2="186.15579868459307" y2="177" fill="rgb(0, 0, 0)" stroke="rgb(66, 66, 66)" stroke-width="1px" opacity="0.25"></line><line x1="207.22059574166622" y1="0" x2="207.22059574166622" y2="177" fill="rgb(0, 0, 0)" stroke="rgb(66, 66, 66)" stroke-width="1px" opacity="0.25"></line><line x1="228.28539279873934" y1="0" x2="228.28539279873934" y2="177" fill="rgb(0, 0, 0)" stroke="rgb(66, 66, 66)" stroke-width="1px" opacity="0.25"></line><line x1="249.35018985581246" y1="0" x2="249.35018985581246" y2="177" fill="rgb(0, 0, 0)" stroke="rgb(66, 66, 66)" stroke-width="1px" opacity="0.25"></line><line x1="270.4149869128856" y1="0" x2="270.4149869128856" y2="177" fill="rgb(0, 0, 0)" stroke="rgb(66, 66, 66)" stroke-width="1px" opacity="0.25"></line></g><g><line x1="0" y1="170.34704610425567" x2="290" y2="170.34704610425567" fill="rgb(0, 0, 0)" stroke="rgb(66, 66, 66)" stroke-width="1px" opacity="0.25"></line><line x1="0" y1="154.19130297979848" x2="290" y2="154.19130297979848" fill="rgb(0, 0, 0)" stroke="rgb(66, 66, 66)" stroke-width="1px" opacity="0.25"></line><line x1="0" y1="138.03555985534123" x2="290" y2="138.03555985534123" fill="rgb(0, 0, 0)" stroke="rgb(66, 66, 66)" stroke-width="1px" opacity="0.25"></line><line x1="0" y1="121.879816730884" x2="290" y2="121.879816730884" fill="rgb(0, 0, 0)" stroke="rgb(66, 66, 66)" stroke-width="1px" opacity="0.25"></line><line x1="0" y1="105.7240736064268" x2="290" y2="105.7240736064268" fill="rgb(0, 0, 0)" stroke="rgb(66, 66, 66)" stroke-width="1px" opacity="0.25"></line><line x1="0" y1="89.56833048196958" x2="290" y2="89.56833048196958" fill="rgb(0, 0, 0)" stroke="rgb(66, 66, 66)" stroke-width="1px" opacity="0.25"></line><line x1="0" y1="73.41258735751235" x2="290" y2="73.41258735751235" fill="rgb(0, 0, 0)" stroke="rgb(66, 66, 66)" stroke-width="1px" opacity="0.25"></line><line x1="0" y1="57.25684423305514" x2="290" y2="57.25684423305514" fill="rgb(0, 0, 0)" stroke="rgb(66, 66, 66)" stroke-width="1px" opacity="0.25"></line><line x1="0" y1="41.10110110859791" x2="290" y2="41.10110110859791" fill="rgb(0, 0, 0)" stroke="rgb(66, 66, 66)" stroke-width="1px" opacity="0.25"></line><line x1="0" y1="24.945357984140678" x2="290" y2="24.945357984140678" fill="rgb(0, 0, 0)" stroke="rgb(66, 66, 66)" stroke-width="1px" opacity="0.25"></line><line x1="0" y1="8.789614859683466" x2="290" y2="8.789614859683466" fill="rgb(0, 0, 0)" stroke="rgb(66, 66, 66)" stroke-width="1px" opacity="0.25"></line></g></g></g><g><g><line x1="0" y1="170.34704610425567" x2="290" y2="170.34704610425567" fill="rgb(0, 0, 0)" stroke="rgb(153, 153, 153)" stroke-width="1.5px"></line></g></g><g><g><line x1="17.63742222800801" y1="0" x2="17.63742222800801" y2="177" fill="rgb(0, 0, 0)" stroke="rgb(153, 153, 153)" stroke-width="1.5px"></line></g></g><g><g><g><g><g><path stroke="rgb(0, 119, 187)" stroke-width="2px" d="M17.63742222800801,98.18472822735085L18.690662080861667,98.18472822735085L19.743901933715325,98.18472822735085L20.79714178656898,98.18472822735085L21.850381639422636,98.60179189454024L22.903621492276294,98.69581491932753L23.95686134512995,98.30022190710669L25.010101197983605,98.21082919060305L26.063341050837263,97.98221780587455L27.11658090369092,97.93055196658685L28.169820756544574,98.12728440787319L29.22306060939823,97.75492814243577L30.27630046225189,98.08759340949484L31.329540315105547,98.16277575858356L32.3827801679592,127.9822658451652L33.436020020812855,108.87874431820795L34.48925987366651,102.4772558517775L35.54249972652017,101.44733723353097L36.59573957937383,98.08843858589647L37.648979432227485,96.91250971643053L38.70221928508114,93.10379497691757L39.75545913793479,95.16075359814813L40.80869899078845,96.45926179675062L41.86193884364211,100.29567946464846L42.915178696495765,87.61611726019204L43.96841854934942,81.4159940011672L45.02165840220308,88.55953798751267L46.07489825505674,90.38238781597786L47.12813810791039,77.45616816736076L48.181377960764046,105.79620919924288L49.2346178136177,89.69287998370453L50.28785766647136,93.13943348437535L51.34109751932502,84.95676123089481L52.394337372178676,82.48225063895488L53.44757722503233,120.68710345945316L54.50081707788599,86.38913023158696L55.55405693073964,109.69073861371797L56.6072967835933,88.48894730257511L57.660536636446956,94.74302468640002L58.71377648930061,93.86394841208231L59.76701634215427,71.15709868534279L60.82025619500793,58.939441017072355L61.873496047861586,55.55302372138991L62.926735900715244,45.617687453737595L63.979975753568894,56.91889405464946L65.03321560642256,58.63933119625112L66.08645545927621,44.02269517999407L67.13969531212987,40.92774432787105L68.19293516498352,40.228285435291255L69.24617501783719,38.19452773760828L70.29941487069084,52.11512664553767L71.3526547235445,60.054586412405115L72.40589457639815,47.26026728456034L73.4591344292518,48.53693636597926L74.51237428210547,41.11432728569929L75.56561413495912,50.89931390215654L76.61885398781277,44.35754014703976L77.67209384066643,41.6286459530767L78.72533369352008,38.7194181021789L79.77857354637375,37.85352372032489L80.8318133992274,38.491467140230306L81.88505325208106,68.22973419854482L82.93829310493471,52.025582563233115L83.99153295778837,50.23912428161263L85.04477281064203,44.20833729279682L86.09801266349568,35.55106091574603L87.15125251634935,35.88702167088445L88.204492369203,41.17317099032335L89.25773222205666,52.37148224554906L90.31097207491031,76.9936575762267L91.36421192776398,41.710089974494544L92.41745178061763,32.90236814629865L93.47069163347128,28.61932525006423L94.52393148632494,34.73726718554256L95.57717133917859,30.909692420893286L96.63041119203226,30.46147829918476L97.6836510448859,42.65632117977333L98.73689089773957,39.16008159096346L99.79013075059322,33.78492846447836L100.84337060344687,27.568330556666215L101.89661045630054,39.50155568606113L102.94985030915419,48.033920870025064L104.00309016200785,30.16337617766644L105.0563300148615,28.83394861535776L106.10956986771517,31.451222411991488L107.16280972056882,29.333410751866328L108.21604957342248,29.271603091780246L109.26928942627613,40.094904166548005L110.32252927912978,28.57756729023174L111.37576913198345,25.34942249353094L112.4290089848371,23.36940099088019L113.48224883769076,25.006012460081923L114.53548869054441,21.624519222911875L115.58872854339808,25.028486955623283L116.64196839625173,32.05005774303896L117.69520824910538,23.841700119513487L118.74844810195904,27.196840938664085L119.80168795481269,24.620553109684717L120.85492780766636,20.703769859517667L121.90816766052001,30.23902867582493L122.96140751337367,26.766957204430536L124.01464736622732,33.69340534457603L125.06788721908099,29.006508544426037L126.12112707193464,58.16658837566132L127.17436692478829,35.787901234757925L128.22760677764197,34.481685370123394L129.2808466304956,23.140794637927943L130.33408648334927,23.49547775816723L131.38732633620293,20.241093942523626L132.4405661890566,19.922420975290375L133.49380604191023,62.574267552410674L134.5470458947639,30.740171536431497L135.60028574761756,20.836350298655844L136.65352560047123,39.02218003879606L137.7067654533249,43.548995335169955L138.76000530617853,25.815233352681773L139.8132451590322,37.22967573000071L140.86648501188586,65.02683746082772L141.9197248647395,38.17195307820994L142.97296471759316,23.141159589751076L144.02620457044682,19.32738248625718L145.07944442330046,20.757966623929704L146.13268427615412,18.371963100879313L147.1859241290078,35.547496653093354L148.23916398186145,22.964850212776938L149.2924038347151,19.704354342163214L150.34564368756875,18.133846725200087L151.39888354042242,17.778912003766415L152.45212339327605,37.289147093105775L153.50536324612972,27.31823952898047L154.55860309898338,19.854584777420783L155.61184295183705,17.95938991601721L156.66508280469068,17.739484764891095L157.71832265754435,48.32592248390801L158.771562510398,28.770498876256518L159.82480236325165,18.30711540194522L160.8780422161053,29.905793655964676L161.93128206895898,21.68982533542586L162.98452192181264,27.544152787664704L164.03776177466628,23.03177448715001L165.09100162751994,21.80356810368258L166.1442414803736,37.365083821482415L167.19748133322724,27.9606278922469L168.2507211860809,17.29044900935464L169.30396103893457,14.878988581820998L170.35720089178824,14.959225187851725L171.41044074464187,14.977358660814625L172.46368059749554,14.77304793815319L173.5169204503492,14.935282602382792L174.57016030320284,15.805583186703089L175.6234001560565,14.751817793452831L176.67664000891017,13.6800238110841L177.72987986176383,13.437798371068801L178.78311971461747,13.383055421625327L179.83635956747113,13.162274627500008L180.8895994203248,13.946021171521824L181.94283927317844,13.081095999425505L182.9960791260321,14.136083689128135L184.04931897888576,14.582919794551993L185.10255883173943,14.475495866826684L186.15579868459307,15.076444721814076L187.20903853744673,15.00385027549014L188.2622783903004,14.987443930620922L189.31551824315406,15.192144984231582L190.3687580960077,15.029998534796473L191.42199794886136,13.742892658627783L192.47523780171502,14.285649734107828L193.52847765456866,14.19990394561521L194.58171750742233,13.972116509864765L195.634957360276,13.503811320993249L196.68819721312965,12.98115657320605L197.7414370659833,12.654627712655056L198.79467691883696,12.580832190170527L199.84791677169062,12.980972177191243L200.90115662454426,13.48822158936012L201.95439647739792,12.769224406305858L203.0076363302516,13.857191821531952L204.06087618310525,13.477838341430024L205.1141160359589,13.183695567375866L206.16735588881255,13.742453416382673L207.22059574166622,13.243498574315153L208.27383559451985,12.7139170049057L209.32707544737352,12.385822682668033L210.38031530022718,12.311673365842331L211.43355515308085,12.294915620239738L212.48679500593448,12.291128369733533L213.54003485878815,12.08186356356803L214.5932747116418,12.034569717374646L215.64651456449545,12.232290195686021L216.6997544173491,12.276975023784411L217.75299427020278,12.495482682485754L218.80623412305644,13.378500963556688L219.85947397591008,13.369654207527601L220.91271382876374,13.367654840665045L221.9659536816174,13.367202983754089L223.01919353447104,13.367100864092198L224.0724333873247,12.950260009946431L225.12567324017837,12.647645089358347L226.17891309303204,12.37084522975437L227.23215294588567,12.51669734903497L228.28539279873934,12.549659927992382L229.338632651593,12.557109470836743L230.39187250444667,12.350384179968453L231.4451123573003,12.30366426423224L232.49835221015397,12.29310556327584L233.55159206300763,12.290719296859715L234.60483191586127,12.290180000649649L235.65807176871493,12.290058119706167L236.7113116215686,12.29003057461296L237.76455147442226,12.290024349421891L238.8177913272759,12.290022942528712L239.87103118012956,12.290022624570858L240.92427103298323,12.290022552712374L241.97751088583686,12.706840311574565L243.03075073869053,13.009450012628548L244.0839905915442,12.869430917515619L245.13723044439786,13.046195489571195L246.1904702972515,13.294553170406854L247.24371015010516,13.559090893826873L248.29695000295882,13.410467531768651L249.35018985581246,13.1684697643924L250.40342970866612,13.11377826896539L251.4566695615198,13.101417990998854L252.50990941437345,12.890215680627321L253.5631492672271,12.842483958483365L254.61638912008075,12.623287701727723L255.66962897293442,12.57374934770095L256.72286882578805,12.562553679690893L257.7761086786417,12.35161457116952L258.8293485314954,12.303942332643663L259.88258838434905,12.293168406736822L260.9358282372027,12.290733499481885L261.9890680900564,12.290183210442258L263.04230794291004,12.290058845119322L264.09554779576365,12.290030738556355" style="fill: none;" fill="none"></path></g><g><path stroke="rgb(255, 112, 67)" stroke-width="2px" d="M17.63742222800801,104.0411843396007L18.690662080861667,99.59374313297643L19.743901933715325,98.80669387929295L20.79714178656898,98.63746431708006L21.850381639422636,98.70390352991362L22.903621492276294,97.62458914803895L23.95686134512995,95.7134755337981L25.010101197983605,93.4059257147526L26.063341050837263,92.72812745178473L27.11658090369092,90.64715942701005L28.169820756544574,88.19697302589998L29.22306060939823,89.04999482449146L30.27630046225189,87.83601401334255L31.329540315105547,87.14483657916495L32.3827801679592,85.79028310261599L33.436020020812855,83.60846657584281L34.48925987366651,81.81282422032476L35.54249972652017,79.47922311149837L36.59573957937383,79.31654108747861L37.648979432227485,79.48819129089111L38.70221928508114,77.96391012693923L39.75545913793479,77.77573297619433L40.80869899078845,77.26428121649117L41.86193884364211,75.84614129824868L42.915178696495765,73.38944685268218L43.96841854934942,73.35525612686192L45.02165840220308,72.51389347262212L46.07489825505674,71.33379957025132L47.12813810791039,69.29562280413111L48.181377960764046,68.73079041121241L49.2346178136177,66.62325385867727L50.28785766647136,67.13688908702723L51.34109751932502,66.05462327186032L52.394337372178676,64.0906541486911L53.44757722503233,62.031624521688954L54.50081707788599,60.941057163333134L55.55405693073964,59.86095339014032L56.6072967835933,58.418495107335L57.660536636446956,57.831992152626995L58.71377648930061,54.52120322306374L59.76701634215427,50.17790788808104L60.82025619500793,50.08206464111199L61.873496047861586,49.9040936749888L62.926735900715244,49.39495596629983L63.979975753568894,48.446247840641966L65.03321560642256,47.60661314158998L66.08645545927621,47.26055276058576L67.13969531212987,45.20245868274332L68.19293516498352,48.697098284621944L69.24617501783719,47.24648756682724L70.29941487069084,46.13711994293387L71.3526547235445,46.04270579895242L72.40589457639815,44.718816381863064L73.4591344292518,45.670070698907516L74.51237428210547,46.093463062110665L75.56561413495912,46.13704378766193L76.61885398781277,43.9585997123499L77.67209384066643,44.0914980139827L78.72533369352008,44.32994191770283L79.77857354637375,42.247635415899865L80.8318133992274,42.81907858424794L81.88505325208106,41.59356697121243L82.93829310493471,42.61916062050567L83.99153295778837,42.90304328048884L85.04477281064203,40.46629411103179L86.09801266349568,42.0517836227782L87.15125251634935,40.6907272034914L88.204492369203,40.43523440126523L89.25773222205666,38.18919225538574L90.31097207491031,39.03625195278892L91.36421192776398,40.58234521348421L92.41745178061763,41.713291892073116L93.47069163347128,39.10325991096166L94.52393148632494,38.04447641288534L95.57717133917859,38.11780467364677L96.63041119203226,37.71755908547664L97.6836510448859,36.8976724761213L98.73689089773957,37.23340032128477L99.79013075059322,36.57984370786286L100.84337060344687,35.28589103169843L101.89661045630054,36.81703176631256L102.94985030915419,35.54790442045916L104.00309016200785,34.89636236043699L105.0563300148615,37.771042724363L106.10956986771517,36.54504049865034L107.16280972056882,36.89319065829261L108.21604957342248,35.40880593773846L109.26928942627613,36.16748537718138L110.32252927912978,33.52541949526583L111.37576913198345,34.751894098669965L112.4290089848371,33.5181091976489L113.48224883769076,33.65609158512034L114.53548869054441,32.74943561070893L115.58872854339808,32.231918029165286L116.64196839625173,32.375473891820185L117.69520824910538,33.44996195453571L118.74844810195904,31.86921476399237L119.80168795481269,32.03298811780735L120.85492780766636,30.923752014238467L121.90816766052001,30.516761715813423L122.96140751337367,30.99790262249003L124.01464736622732,31.731867130052272L125.06788721908099,31.376720889883572L126.12112707193464,31.556972675689195L127.17436692478829,30.659869585301283L128.22760677764197,29.883996119463234L129.2808466304956,28.562399834652734L130.33408648334927,29.566278348124847L131.38732633620293,29.94945783118799L132.4405661890566,30.088162342892918L133.49380604191023,29.390078456109354L134.5470458947639,29.023895156855424L135.60028574761756,29.357962959615982L136.65352560047123,28.651925228078365L137.7067654533249,28.44025475221821L138.76000530617853,28.70503055600048L139.8132451590322,27.514416562348636L140.86648501188586,27.662155574885542L141.9197248647395,28.060263871578183L142.97296471759316,28.098130398098068L144.02620457044682,26.335212688907166L145.07944442330046,26.50992145404043L146.13268427615412,26.393095242652365L147.1859241290078,27.825554731736386L148.23916398186145,27.680374305924268L149.2924038347151,25.771883541730762L150.34564368756875,24.298512737977774L151.39888354042242,26.0496272651304L152.45212339327605,26.393273199734242L153.50536324612972,26.002020910609595L154.55860309898338,26.122006780818513L155.61184295183705,25.78440430762645L156.66508280469068,24.457652823378382L157.71832265754435,24.626730711573195L158.771562510398,25.446471915976982L159.82480236325165,24.74599938272494L160.8780422161053,23.12882292406248L161.93128206895898,24.899535868448492L162.98452192181264,25.924943656533017L164.03776177466628,23.134756947149096L165.09100162751994,25.265596237525347L166.1442414803736,23.506766649331134L167.19748133322724,23.526088937501452L168.2507211860809,23.6867587136464L169.30396103893457,21.795291599852316L170.35720089178824,21.784637807237047L171.41044074464187,22.772168539328874L172.46368059749554,21.536488271923915L173.5169204503492,21.257224531490376L174.57016030320284,23.3303057501961L175.6234001560565,20.776893236132565L176.67664000891017,20.825048670607515L177.72987986176383,21.982180680329947L178.78311971461747,21.618465851873896L179.83635956747113,22.63040923364126L180.8895994203248,22.598601055126657L181.94283927317844,22.904025738109016L182.9960791260321,23.07725616023858L184.04931897888576,20.56339363649396L185.10255883173943,21.766736250312096L186.15579868459307,22.61181984844538L187.20903853744673,22.021271686661997L188.2622783903004,22.148322638182705L189.31551824315406,22.33333909224485L190.3687580960077,22.010440984293307L191.42199794886136,22.666897118325124L192.47523780171502,22.190029541963L193.52847765456866,21.09231152719254L194.58171750742233,22.042582085918163L195.634957360276,22.465752119741246L196.68819721312965,22.509282598852636L197.7414370659833,22.779635323215558L198.79467691883696,21.329766877531178L199.84791677169062,21.15840700111472L200.90115662454426,23.36007893686384L201.95439647739792,22.60719601574678L203.0076363302516,22.228635588023224L204.06087618310525,20.840529110808145L205.1141160359589,24.121874083858973L206.16735588881255,22.98777060651879L207.22059574166622,21.428911400090353L208.27383559451985,20.29507216447602L209.32707544737352,20.820361552188682L210.38031530022718,22.241628774361278L211.43355515308085,21.781305564900524L212.48679500593448,22.250393233683074L213.54003485878815,21.991695220258357L214.5932747116418,20.94328352671175L215.64651456449545,21.27947065138063L216.6997544173491,21.303342993023158L217.75299427020278,21.51714702978547L218.80623412305644,22.55541268460635L219.85947397591008,22.060629616167013L220.91271382876374,21.427786423821967L221.9659536816174,20.815840138717128L223.01919353447104,20.0523136156301L224.0724333873247,20.765498120149513L225.12567324017837,22.646047413822668L226.17891309303204,21.716393785110593L227.23215294588567,20.9852698461439L228.28539279873934,22.226799553552272L229.338632651593,21.309030437362846L230.39187250444667,20.267979066899613L231.4451123573003,21.33526073101419L232.49835221015397,21.15964861200188L233.55159206300763,19.869506947798467L234.60483191586127,20.984691196013568L235.65807176871493,20.663602121989516L236.7113116215686,20.434725598951896L237.76455147442226,20.435105453278037L238.8177913272759,20.48728979559865L239.87103118012956,20.603287900738657L240.92427103298323,21.046321247602513L241.97751088583686,21.980082334198155L243.03075073869053,21.40958273809702L244.0839905915442,22.114285379582572L245.13723044439786,21.648321513904985L246.1904702972515,20.032045518871467L247.24371015010516,19.406259761199884L248.29695000295882,19.890058842619432L249.35018985581246,22.96922035597861L250.40342970866612,21.00790126836608L251.4566695615198,21.34617275623742L252.50990941437345,21.00580433739411L253.5631492672271,21.189395910819304L254.61638912008075,20.86616832655408L255.66962897293442,19.85527889853017L256.72286882578805,19.10579566891899L257.7761086786417,20.13476728909061L258.8293485314954,21.253048920696713L259.88258838434905,21.81839390076634L260.9358282372027,20.487299653404357L261.9890680900564,22.791583447889348L263.04230794291004,21.176164214689003L264.09554779576365,21.592609069657506" style="fill: none;" fill="none"></path></g></g></g></g><g opacity="0.2"><g><g><g><path stroke="rgb(0, 119, 187)" stroke-width="2px" d="M17.63742222800801,98.18472822735085L18.690662080861667,98.18472822735085L19.743901933715325,98.18472822735085L20.79714178656898,98.18472822735085L21.850381639422636,98.72325248458884L22.903621492276294,98.72325248458884L23.95686134512995,98.18472822735085L25.010101197983605,98.18472822735085L26.063341050837263,97.91546609873184L27.11658090369092,97.91546609873184L28.169820756544574,98.18472822735085L29.22306060939823,97.64620397011284L30.27630046225189,98.18472822735085L31.329540315105547,98.18472822735085L32.3827801679592,136.6892487307676L33.436020020812855,103.30071348589848L34.48925987366651,100.60808738492183L35.54249972652017,101.14661164215984L36.59573957937383,97.1076748980882L37.648979432227485,96.5691506408502L38.70221928508114,91.99168963954057L39.75545913793479,95.7613642549932L40.80869899078845,96.8384127694692L41.86193884364211,101.41587377077884L42.915178696495765,83.9138161513973L43.96841854934942,79.60562209349331L45.02165840220308,90.64537899644556L46.07489825505674,90.91464112506456L47.12813810791039,73.68184563430202L48.181377960764046,114.07120826023171L49.2346178136177,84.99087429544659L50.28785766647136,94.14579148327921L51.34109751932502,82.5675055083023L52.394337372178676,81.75971912244529L53.44757722503233,131.84252560083894L54.50081707788599,76.37447655006532L55.55405693073964,116.49456741780273L56.6072967835933,82.2982433796833L57.660536636446956,96.5691506408502L58.71377648930061,93.6072672260412L59.76701634215427,64.52693326125606L60.82025619500793,55.372011258636796L61.873496047861586,54.5642248727798L62.926735900715244,42.716671954397256L63.979975753568894,60.21872957377879L65.03321560642256,59.141681059302776L66.08645545927621,39.754788539588255L67.13969531212987,40.02405066820726L68.19293516498352,40.02405066820726L69.24617501783719,37.600691510636274L70.29941487069084,56.1797976444938L71.3526547235445,62.372826602730775L72.40589457639815,43.52445834025424L73.4591344292518,48.90971054220752L74.51237428210547,38.94700215373127L75.56561413495912,53.7564288573495L76.61885398781277,42.44740982577825L77.67209384066643,40.83183705406425L78.72533369352008,37.86995363925526L79.77857354637375,37.600691510636274L80.8318133992274,38.677740025112264L81.88505325208106,76.91300080730332L82.93829310493471,47.29413777049352L83.99153295778837,49.71749692806451L85.04477281064203,42.44740982577825L86.09801266349568,33.02322569453998L87.15125251634935,35.985118738922274L88.204492369203,42.716671954397256L89.25773222205666,55.641273387255794L90.31097207491031,84.18307828001629L91.36421192776398,31.407652922825985L92.41745178061763,30.33060440834999L93.47069163347128,27.368720993540997L94.52393148632494,36.52364299616026L95.57717133917859,29.792080151111985L96.63041119203226,30.33060440834999L97.6836510448859,46.21708925601753L98.73689089773957,38.13921576787426L99.79013075059322,32.215439308682974L100.84337060344687,25.753148221826997L101.89661045630054,42.98593408301624L102.94985030915419,50.52528331392152L104.00309016200785,24.945361835970008L105.0563300148615,28.44576950801699L106.10956986771517,32.215439308682974L107.16280972056882,28.71503163663599L108.21604957342248,29.253555893873997L109.26928942627613,43.25519621163524L110.32252927912978,25.21462396458901L111.37576913198345,24.40683757873202L112.4290089848371,22.791255177444725L113.48224883769076,25.483886093208014L114.53548869054441,20.637158148492723L115.58872854339808,26.022410350446002L116.64196839625173,34.10028383858927L117.69520824910538,21.44494453434973L118.74844810195904,28.176507379398007L119.80168795481269,23.86830369192072L120.85492780766636,19.56010963401673L121.90816766052001,33.02322569453998L122.96140751337367,25.753148221826997L124.01464736622732,35.71585661030327L125.06788721908099,27.637983122159998L126.12112707193464,66.68103029020806L127.17436692478829,29.253555893873997L128.22760677764197,34.10028383858927L129.2808466304956,19.82937176263573L130.33408648334927,23.599041563301718L131.38732633620293,19.290847505397725L132.4405661890566,19.82937176263573L133.49380604191023,75.02816590697033L134.5470458947639,21.44494453434973L135.60028574761756,17.94453686230273L136.65352560047123,44.33225435568455L137.7067654533249,44.870778612922535L138.76000530617853,20.637158148492723L139.8132451590322,40.56257492544525L140.86648501188586,73.14332137706404L141.9197248647395,30.33060440834999L142.97296471759316,18.75232324815974L144.02620457044682,18.21379899092173L145.07944442330046,21.17568240573073L146.13268427615412,17.675274733683725L147.1859241290078,40.56257492544525L148.23916398186145,19.290847505397725L149.2924038347151,18.75232324815974L150.34564368756875,17.675274733683725L151.39888354042242,17.675274733683725L152.45212339327605,42.98593408301624L153.50536324612972,24.40683757873202L154.55860309898338,17.675274733683725L155.61184295183705,17.406012605064742L156.66508280469068,17.675274733683725L157.71832265754435,57.25684615896979L158.771562510398,23.06051730606371L159.82480236325165,15.251915576112738L160.8780422161053,33.292487823158986L161.93128206895898,19.290847505397725L162.98452192181264,29.253555893873997L164.03776177466628,21.714206662968714L165.09100162751994,21.44494453434973L166.1442414803736,41.90888556854024L167.19748133322724,25.21462396458901L168.2507211860809,14.174867061636744L169.30396103893457,14.174867061636744L170.35720089178824,14.982653447493755L171.41044074464187,14.982653447493755L172.46368059749554,14.713391318874752L173.5169204503492,14.982653447493755L174.57016030320284,16.059701961969747L175.6234001560565,14.444129190255747L176.67664000891017,13.36707104620646L177.72987986176383,13.36707104620646L178.78311971461747,13.36707104620646L179.83635956747113,13.097808917587457L180.8895994203248,14.174867061636744L181.94283927317844,12.828546788968454L182.9960791260321,14.444129190255747L184.04931897888576,14.713391318874752L185.10255883173943,14.444129190255747L186.15579868459307,15.251915576112738L187.20903853744673,14.982653447493755L188.2622783903004,14.982653447493755L189.31551824315406,15.251915576112738L190.3687580960077,14.982653447493755L191.42199794886136,13.36707104620646L192.47523780171502,14.444129190255747L193.52847765456866,14.174867061636744L194.58171750742233,13.905604933017742L195.634957360276,13.36707104620646L196.68819721312965,12.828546788968454L197.7414370659833,12.559284660349451L198.79467691883696,12.559284660349451L199.84791677169062,13.097808917587457L200.90115662454426,13.636333174825443L201.95439647739792,12.559284660349451L203.0076363302516,14.174867061636744L204.06087618310525,13.36707104620646L205.1141160359589,13.097808917587457L206.16735588881255,13.905604933017742L207.22059574166622,13.097808917587457L208.27383559451985,12.559284660349451L209.32707544737352,12.290022531730449L210.38031530022718,12.290022531730449L211.43355515308085,12.290022531730449L212.48679500593448,12.290022531730449L213.54003485878815,12.020760403111463L214.5932747116418,12.020760403111463L215.64651456449545,12.290022531730449L216.6997544173491,12.290022531730449L217.75299427020278,12.559284660349451L218.80623412305644,13.636333174825443L219.85947397591008,13.36707104620646L220.91271382876374,13.36707104620646L221.9659536816174,13.36707104620646L223.01919353447104,13.36707104620646L224.0724333873247,12.828546788968454L225.12567324017837,12.559284660349451L226.17891309303204,12.290022531730449L227.23215294588567,12.559284660349451L228.28539279873934,12.559284660349451L229.338632651593,12.559284660349451L230.39187250444667,12.290022531730449L231.4451123573003,12.290022531730449L232.49835221015397,12.290022531730449L233.55159206300763,12.290022531730449L234.60483191586127,12.290022531730449L235.65807176871493,12.290022531730449L236.7113116215686,12.290022531730449L237.76455147442226,12.290022531730449L238.8177913272759,12.290022531730449L239.87103118012956,12.290022531730449L240.92427103298323,12.290022531730449L241.97751088583686,12.828546788968454L243.03075073869053,13.097808917587457L244.0839905915442,12.828546788968454L245.13723044439786,13.097808917587457L246.1904702972515,13.36707104620646L247.24371015010516,13.636333174825443L248.29695000295882,13.36707104620646L249.35018985581246,13.097808917587457L250.40342970866612,13.097808917587457L251.4566695615198,13.097808917587457L252.50990941437345,12.828546788968454L253.5631492672271,12.828546788968454L254.61638912008075,12.559284660349451L255.66962897293442,12.559284660349451L256.72286882578805,12.559284660349451L257.7761086786417,12.290022531730449L258.8293485314954,12.290022531730449L259.88258838434905,12.290022531730449L260.9358282372027,12.290022531730449L261.9890680900564,12.290022531730449L263.04230794291004,12.290022531730449L264.09554779576365,12.290022531730449" style="fill: none;" fill="none"></path></g><g><path stroke="rgb(255, 112, 67)" stroke-width="2px" d="M17.63742222800801,104.0411843396007L18.690662080861667,98.58862142027934L19.743901933715325,98.58862142027934L20.79714178656898,98.58862142027934L21.850381639422636,98.72325248458884L22.903621492276294,97.3096263093391L23.95686134512995,95.15552446560045L25.010101197983605,92.73216530802945L26.063341050837263,92.53021871156521L27.11658090369092,90.03953920705281L28.169820756544574,87.48154417038567L29.22306060939823,89.29906835335058L30.27630046225189,87.48154417038567L31.329540315105547,86.94301991314768L32.3827801679592,85.3947674883751L33.436020020812855,82.9713987012308L34.48925987366651,81.28851521214871L35.54249972652017,78.79783570763632L36.59573957937383,79.2690396179329L37.648979432227485,79.53831137612521L38.70221928508114,77.5188357819094L39.75545913793479,77.7207871931603L40.80869899078845,77.11494258898092L41.86193884364211,75.43205909989882L42.915178696495765,72.67211746676743L43.96841854934942,73.34527278831494L45.02165840220308,72.26822427383894L46.07489825505674,70.98922434811203L47.12813810791039,68.70049625485055L48.181377960764046,68.56586519054105L49.2346178136177,66.00787496866056L50.28785766647136,67.28686526481415L51.34109751932502,65.73861284004157L52.394337372178676,63.517195464148166L53.44757722503233,61.43040915256429L54.50081707788599,60.62262276670727L55.55405693073964,59.54557425223128L56.6072967835933,57.997312197885385L57.660536636446956,57.6607393518983L58.71377648930061,53.554487075671915L59.76701634215427,48.90971054220752L60.82025619500793,50.05407940362491L61.873496047861586,49.852127992374015L62.926735900715244,49.246293017767925L63.979975753568894,48.169234873718615L65.03321560642256,47.36144848786162L66.08645545927621,47.15950670618402L67.13969531212987,44.60151648430353L68.19293516498352,49.71749692806451L69.24617501783719,46.82292423062364L70.29941487069084,45.81319606308902L71.3526547235445,46.01513784476663L72.40589457639815,44.33225435568455L73.4591344292518,45.947827127398526L74.51237428210547,46.21708925601753L75.56561413495912,46.14976890907613L76.61885398781277,43.32251655857664L77.67209384066643,44.130302944433645L78.72533369352008,44.39956507305263L79.77857354637375,41.63962343992124L80.8318133992274,42.98593408301624L81.88505325208106,41.23573024699276L82.93829310493471,42.91862336564815L83.99153295778837,42.98593408301624L85.04477281064203,39.754788539588255L86.09801266349568,42.514730172719645L87.15125251634935,40.29331279682624L88.204492369203,40.360633143767664L89.25773222205666,37.53337116369485L90.31097207491031,39.28358462929165L91.36421192776398,41.03378846531515L92.41745178061763,42.043516632849744L93.47069163347128,38.341157549551866L94.52393148632494,37.735322574945755L95.57717133917859,38.13921576787426L96.63041119203226,37.600691510636274L97.6836510448859,36.658274060469765L98.73689089773957,37.33142938201727L99.79013075059322,36.38901193185076L100.84337060344687,34.90807022444628L101.89661045630054,37.26410903507587L102.94985030915419,35.17733235306526L104.00309016200785,34.70611881319538L105.0563300148615,38.610419678170864L106.10956986771517,36.18706052059988L107.16280972056882,36.99484690645687L108.21604957342248,34.975380941814365L109.26928942627613,36.38901193185076L110.32252927912978,32.753963565920984L111.37576913198345,35.11001200612387L112.4290089848371,33.15785675884948L113.48224883769076,33.69638101608747L114.53548869054441,32.48470143730198L115.58872854339808,32.08080824437349L116.64196839625173,32.41739071993388L117.69520824910538,33.76370136302887L118.74844810195904,31.407652922825985L119.80168795481269,32.08080824437349L120.85492780766636,30.599866536968996L121.90816766052001,30.39792475529139L122.96140751337367,31.13839079420698L124.01464736622732,31.94617718006399L125.06788721908099,31.273021858516483L126.12112707193464,31.609604334076884L127.17436692478829,30.39792475529139L128.22760677764197,29.657449086802483L129.2808466304956,28.176507379398007L130.33408648334927,29.859400498053382L131.38732633620293,30.061342279730987L132.4405661890566,30.128662626672387L133.49380604191023,29.186245176505896L134.5470458947639,28.916973418313596L135.60028574761756,29.455507305124897L136.65352560047123,28.44576950801699L137.7067654533249,28.37844916107559L138.76000530617853,28.782342354004097L139.8132451590322,27.166769582290097L140.86648501188586,27.705293839528103L141.9197248647395,28.176507379398007L142.97296471759316,28.109187032456607L144.02620457044682,25.8204589391951L145.07944442330046,26.560934607684008L146.13268427615412,26.35898319643311L147.1859241290078,28.243818096766088L148.23916398186145,27.637983122159998L149.2924038347151,25.21462396458901L150.34564368756875,23.86830369192072L151.39888354042242,26.560934607684008L152.45212339327605,26.493614260742607L153.50536324612972,25.8877792861365L154.55860309898338,26.1570414147555L155.61184295183705,25.6858278748856L156.66508280469068,24.07025510317162L157.71832265754435,24.676099707351003L158.771562510398,25.6858278748856L159.82480236325165,24.541468643041505L160.8780422161053,22.656624113135226L161.93128206895898,25.416565746266617L162.98452192181264,26.224352132123606L164.03776177466628,22.32005126714812L165.09100162751994,25.8877792861365L166.1442414803736,22.993206588695628L167.19748133322724,23.531730845933613L168.2507211860809,23.733672627611217L169.30396103893457,21.243002752672126L170.35720089178824,21.781527009910114L171.41044074464187,23.06051730606371L172.46368059749554,21.17568240573073L173.5169204503492,21.17568240573073L174.57016030320284,23.93562403886212L175.6234001560565,20.031323173886634L176.67664000891017,20.839109559743623L177.72987986176383,22.32005126714812L178.78311971461747,21.51226488129113L179.83635956747113,22.92588624175421L180.8895994203248,22.58931339576712L181.94283927317844,22.993206588695628L182.9960791260321,23.12783765300511L184.04931897888576,19.82937176263573L185.10255883173943,22.11809985589722L186.15579868459307,22.858575524386126L187.20903853744673,21.848837727278216L188.2622783903004,22.185420202838618L189.31551824315406,22.38736198451622L190.3687580960077,21.916158074219613L191.42199794886136,22.858575524386126L192.47523780171502,22.050789138529115L193.52847765456866,20.771789212802222L194.58171750742233,22.32005126714812L195.634957360276,22.58931339576712L196.68819721312965,22.521993048825724L197.7414370659833,22.858575524386126L198.79467691883696,20.906420277111724L199.84791677169062,21.108371688362624L200.90115662454426,24.002944385803517L201.95439647739792,22.38736198451622L203.0076363302516,22.11809985589722L204.06087618310525,20.435216366815116L205.1141160359589,25.07999290027951L206.16735588881255,22.656624113135226L207.22059574166622,20.97374062405312L208.27383559451985,19.964002826945233L209.32707544737352,20.97374062405312L210.38031530022718,22.656624113135226L211.43355515308085,21.64689594560063L212.48679500593448,22.38736198451622L213.54003485878815,21.916158074219613L214.5932747116418,20.637158148492723L215.64651456449545,21.37763381698163L216.6997544173491,21.310313470040228L217.75299427020278,21.57957559865921L218.80623412305644,22.858575524386126L219.85947397591008,21.916158074219613L220.91271382876374,21.243002752672126L221.9659536816174,20.637158148492723L223.01919353447104,19.82937176263573L224.0724333873247,20.97374062405312L225.12567324017837,23.19514837037321L226.17891309303204,21.44494453434973L227.23215294588567,20.771789212802222L228.28539279873934,22.58931339576712L229.338632651593,21.041051341421227L230.39187250444667,19.964002826945233L231.4451123573003,21.64689594560063L232.49835221015397,21.108371688362624L233.55159206300763,19.492798916648624L234.60483191586127,21.310313470040228L235.65807176871493,20.569847431124618L236.7113116215686,20.36789601987372L237.76455147442226,20.435216366815116L238.8177913272759,20.50252708418322L239.87103118012956,20.637158148492723L240.92427103298323,21.17568240573073L241.97751088583686,22.25273092020672L243.03075073869053,21.243002752672126L244.0839905915442,22.32005126714812L245.13723044439786,21.51226488129113L246.1904702972515,19.56010963401673L247.24371015010516,19.223536788029623L248.29695000295882,20.031323173886634L249.35018985581246,23.86830369192072L250.40342970866612,20.435216366815116L251.4566695615198,21.44494453434973L252.50990941437345,20.906420277111724L253.5631492672271,21.243002752672126L254.61638912008075,20.771789212802222L255.66962897293442,19.56010963401673L256.72286882578805,18.88695431246924L257.7761086786417,20.435216366815116L258.8293485314954,21.57957559865921L259.88258838434905,21.98346879158772L260.9358282372027,20.098633891254735L261.9890680900564,23.464410498992216L263.04230794291004,20.70447849543412L264.09554779576365,21.714206662968714" style="fill: none;" fill="none"></path></g></g></g></g></g></g><g transform="translate(40, 177)" clip-path="url(#clip_1)"><clipPath id="clip_1"><rect width="290" height="23"></rect></clipPath><g><g><line x1="17.63742222800801" y1="0" x2="17.63742222800801" y2="5" style="visibility: inherit;" fill="rgb(0, 0, 0)" stroke="rgb(204, 204, 204)" stroke-width="1px"></line><line x1="38.70221928508114" y1="0" x2="38.70221928508114" y2="5" style="visibility: inherit;" fill="rgb(0, 0, 0)" stroke="rgb(204, 204, 204)" stroke-width="1px"></line><line x1="59.76701634215427" y1="0" x2="59.76701634215427" y2="5" style="visibility: inherit;" fill="rgb(0, 0, 0)" stroke="rgb(204, 204, 204)" stroke-width="1px"></line><line x1="80.8318133992274" y1="0" x2="80.8318133992274" y2="5" style="visibility: inherit;" fill="rgb(0, 0, 0)" stroke="rgb(204, 204, 204)" stroke-width="1px"></line><line x1="101.89661045630054" y1="0" x2="101.89661045630054" y2="5" style="visibility: inherit;" fill="rgb(0, 0, 0)" stroke="rgb(204, 204, 204)" stroke-width="1px"></line><line x1="122.96140751337367" y1="0" x2="122.96140751337367" y2="5" style="visibility: inherit;" fill="rgb(0, 0, 0)" stroke="rgb(204, 204, 204)" stroke-width="1px"></line><line x1="144.02620457044682" y1="0" x2="144.02620457044682" y2="5" style="visibility: inherit;" fill="rgb(0, 0, 0)" stroke="rgb(204, 204, 204)" stroke-width="1px"></line><line x1="165.09100162751994" y1="0" x2="165.09100162751994" y2="5" style="visibility: inherit;" fill="rgb(0, 0, 0)" stroke="rgb(204, 204, 204)" stroke-width="1px"></line><line x1="186.15579868459307" y1="0" x2="186.15579868459307" y2="5" style="visibility: inherit;" fill="rgb(0, 0, 0)" stroke="rgb(204, 204, 204)" stroke-width="1px"></line><line x1="207.22059574166622" y1="0" x2="207.22059574166622" y2="5" style="visibility: inherit;" fill="rgb(0, 0, 0)" stroke="rgb(204, 204, 204)" stroke-width="1px"></line><line x1="228.28539279873934" y1="0" x2="228.28539279873934" y2="5" style="visibility: inherit;" fill="rgb(0, 0, 0)" stroke="rgb(204, 204, 204)" stroke-width="1px"></line><line x1="249.35018985581246" y1="0" x2="249.35018985581246" y2="5" style="visibility: inherit;" fill="rgb(0, 0, 0)" stroke="rgb(204, 204, 204)" stroke-width="1px"></line><line x1="270.4149869128856" y1="0" x2="270.4149869128856" y2="5" style="visibility: inherit;" fill="rgb(0, 0, 0)" stroke="rgb(204, 204, 204)" stroke-width="1px"></line></g><g transform="translate(0, 8)"><text x="17.63742222800801" y="0" dx="0em" dy="0.95em" style="text-anchor: middle; visibility: inherit; font-family: Roboto, sans-serif; font-size: 12px; font-weight: 200;" fill="rgb(33, 33, 33)" stroke="none" stroke-width="1px">0</text><text x="38.70221928508114" y="0" dx="0em" dy="0.95em" style="text-anchor: middle; visibility: hidden; font-family: Roboto, sans-serif; font-size: 12px; font-weight: 200;" fill="rgb(33, 33, 33)" stroke="none" stroke-width="1px">20</text><text x="59.76701634215427" y="0" dx="0em" dy="0.95em" style="text-anchor: middle; visibility: inherit; font-family: Roboto, sans-serif; font-size: 12px; font-weight: 200;" fill="rgb(33, 33, 33)" stroke="none" stroke-width="1px">40</text><text x="80.8318133992274" y="0" dx="0em" dy="0.95em" style="text-anchor: middle; visibility: hidden; font-family: Roboto, sans-serif; font-size: 12px; font-weight: 200;" fill="rgb(33, 33, 33)" stroke="none" stroke-width="1px">60</text><text x="101.89661045630054" y="0" dx="0em" dy="0.95em" style="text-anchor: middle; visibility: inherit; font-family: Roboto, sans-serif; font-size: 12px; font-weight: 200;" fill="rgb(33, 33, 33)" stroke="none" stroke-width="1px">80</text><text x="122.96140751337367" y="0" dx="0em" dy="0.95em" style="text-anchor: middle; visibility: hidden; font-family: Roboto, sans-serif; font-size: 12px; font-weight: 200;" fill="rgb(33, 33, 33)" stroke="none" stroke-width="1px">100</text><text x="144.02620457044682" y="0" dx="0em" dy="0.95em" style="text-anchor: middle; visibility: inherit; font-family: Roboto, sans-serif; font-size: 12px; font-weight: 200;" fill="rgb(33, 33, 33)" stroke="none" stroke-width="1px">120</text><text x="165.09100162751994" y="0" dx="0em" dy="0.95em" style="text-anchor: middle; visibility: hidden; font-family: Roboto, sans-serif; font-size: 12px; font-weight: 200;" fill="rgb(33, 33, 33)" stroke="none" stroke-width="1px">140</text><text x="186.15579868459307" y="0" dx="0em" dy="0.95em" style="text-anchor: middle; visibility: inherit; font-family: Roboto, sans-serif; font-size: 12px; font-weight: 200;" fill="rgb(33, 33, 33)" stroke="none" stroke-width="1px">160</text><text x="207.22059574166622" y="0" dx="0em" dy="0.95em" style="text-anchor: middle; visibility: hidden; font-family: Roboto, sans-serif; font-size: 12px; font-weight: 200;" fill="rgb(33, 33, 33)" stroke="none" stroke-width="1px">180</text><text x="228.28539279873934" y="0" dx="0em" dy="0.95em" style="text-anchor: middle; visibility: inherit; font-family: Roboto, sans-serif; font-size: 12px; font-weight: 200;" fill="rgb(33, 33, 33)" stroke="none" stroke-width="1px">200</text><text x="249.35018985581246" y="0" dx="0em" dy="0.95em" style="text-anchor: middle; visibility: hidden; font-family: Roboto, sans-serif; font-size: 12px; font-weight: 200;" fill="rgb(33, 33, 33)" stroke="none" stroke-width="1px">220</text><text x="270.4149869128856" y="0" dx="0em" dy="0.95em" style="text-anchor: middle; visibility: inherit; font-family: Roboto, sans-serif; font-size: 12px; font-weight: 200;" fill="rgb(33, 33, 33)" stroke="none" stroke-width="1px">240</text></g><line x1="0" y1="0" x2="290" y2="0" fill="rgb(0, 0, 0)" stroke="rgb(204, 204, 204)" stroke-width="1px"></line></g></g></g></g></svg>