<svg viewBox="0 0 330 200" xmlns="http://www.w3.org/2000/svg"><g><g><g><g><g><line x1="30.78125" y1="168.9233670387563" x2="25.78125" y2="168.9233670387563" style="visibility: inherit;" fill="rgb(0, 0, 0)" stroke="rgb(204, 204, 204)" stroke-width="1px"></line><line x1="30.78125" y1="156.22487790056132" x2="25.78125" y2="156.22487790056132" style="visibility: inherit;" fill="rgb(0, 0, 0)" stroke="rgb(204, 204, 204)" stroke-width="1px"></line><line x1="30.78125" y1="143.52638876236634" x2="25.78125" y2="143.52638876236634" style="visibility: inherit;" fill="rgb(0, 0, 0)" stroke="rgb(204, 204, 204)" stroke-width="1px"></line><line x1="30.78125" y1="130.82789962417138" x2="25.78125" y2="130.82789962417138" style="visibility: inherit;" fill="rgb(0, 0, 0)" stroke="rgb(204, 204, 204)" stroke-width="1px"></line><line x1="30.78125" y1="118.12941048597641" x2="25.78125" y2="118.12941048597641" style="visibility: inherit;" fill="rgb(0, 0, 0)" stroke="rgb(204, 204, 204)" stroke-width="1px"></line><line x1="30.78125" y1="105.4309213477814" x2="25.78125" y2="105.4309213477814" style="visibility: inherit;" fill="rgb(0, 0, 0)" stroke="rgb(204, 204, 204)" stroke-width="1px"></line><line x1="30.78125" y1="92.73243220958643" x2="25.78125" y2="92.73243220958643" style="visibility: inherit;" fill="rgb(0, 0, 0)" stroke="rgb(204, 204, 204)" stroke-width="1px"></line><line x1="30.78125" y1="80.03394307139146" x2="25.78125" y2="80.03394307139146" style="visibility: inherit;" fill="rgb(0, 0, 0)" stroke="rgb(204, 204, 204)" stroke-width="1px"></line><line x1="30.78125" y1="67.33545393319648" x2="25.78125" y2="67.33545393319648" style="visibility: inherit;" fill="rgb(0, 0, 0)" stroke="rgb(204, 204, 204)" stroke-width="1px"></line><line x1="30.78125" y1="54.63696479500151" x2="25.78125" y2="54.63696479500151" style="visibility: inherit;" fill="rgb(0, 0, 0)" stroke="rgb(204, 204, 204)" stroke-width="1px"></line><line x1="30.78125" y1="41.93847565680653" x2="25.78125" y2="41.93847565680653" style="visibility: inherit;" fill="rgb(0, 0, 0)" stroke="rgb(204, 204, 204)" stroke-width="1px"></line><line x1="30.78125" y1="29.23998651861155" x2="25.78125" y2="29.23998651861155" style="visibility: inherit;" fill="rgb(0, 0, 0)" stroke="rgb(204, 204, 204)" stroke-width="1px"></line><line x1="30.78125" y1="16.541497380416565" x2="25.78125" y2="16.541497380416565" style="visibility: inherit;" fill="rgb(0, 0, 0)" stroke="rgb(204, 204, 204)" stroke-width="1px"></line><line x1="30.78125" y1="3.8430082422215825" x2="25.78125" y2="3.8430082422215825" style="visibility: inherit;" fill="rgb(0, 0, 0)" stroke="rgb(204, 204, 204)" stroke-width="1px"></line></g><g transform="translate(20.78125, 0)"><text x="0" y="168.9233670387563" dx="0em" dy="0.3em" style="text-anchor: end; visibility: inherit; font-family: Roboto, sans-serif; font-size: 12px; font-weight: 200;" fill="rgb(33, 33, 33)" stroke="none" stroke-width="1px">0</text><text x="0" y="156.22487790056132" dx="0em" dy="0.3em" style="text-anchor: end; visibility: hidden; font-family: Roboto, sans-serif; font-size: 12px; font-weight: 200;" fill="rgb(33, 33, 33)" stroke="none" stroke-width="1px">2</text><text x="0" y="143.52638876236634" dx="0em" dy="0.3em" style="text-anchor: end; visibility: inherit; font-family: Roboto, sans-serif; font-size: 12px; font-weight: 200;" fill="rgb(33, 33, 33)" stroke="none" stroke-width="1px">4</text><text x="0" y="130.82789962417138" dx="0em" dy="0.3em" style="text-anchor: end; visibility: hidden; font-family: Roboto, sans-serif; font-size: 12px; font-weight: 200;" fill="rgb(33, 33, 33)" stroke="none" stroke-width="1px">6</text><text x="0" y="118.12941048597641" dx="0em" dy="0.3em" style="text-anchor: end; visibility: inherit; font-family: Roboto, sans-serif; font-size: 12px; font-weight: 200;" fill="rgb(33, 33, 33)" stroke="none" stroke-width="1px">8</text><text x="0" y="105.4309213477814" dx="0em" dy="0.3em" style="text-anchor: end; visibility: hidden; font-family: Roboto, sans-serif; font-size: 12px; font-weight: 200;" fill="rgb(33, 33, 33)" stroke="none" stroke-width="1px">10</text><text x="0" y="92.73243220958643" dx="0em" dy="0.3em" style="text-anchor: end; visibility: inherit; font-family: Roboto, sans-serif; font-size: 12px; font-weight: 200;" fill="rgb(33, 33, 33)" stroke="none" stroke-width="1px">12</text><text x="0" y="80.03394307139146" dx="0em" dy="0.3em" style="text-anchor: end; visibility: hidden; font-family: Roboto, sans-serif; font-size: 12px; font-weight: 200;" fill="rgb(33, 33, 33)" stroke="none" stroke-width="1px">14</text><text x="0" y="67.33545393319648" dx="0em" dy="0.3em" style="text-anchor: end; visibility: inherit; font-family: Roboto, sans-serif; font-size: 12px; font-weight: 200;" fill="rgb(33, 33, 33)" stroke="none" stroke-width="1px">16</text><text x="0" y="54.63696479500151" dx="0em" dy="0.3em" style="text-anchor: end; visibility: hidden; font-family: Roboto, sans-serif; font-size: 12px; font-weight: 200;" fill="rgb(33, 33, 33)" stroke="none" stroke-width="1px">18</text><text x="0" y="41.93847565680653" dx="0em" dy="0.3em" style="text-anchor: end; visibility: inherit; font-family: Roboto, sans-serif; font-size: 12px; font-weight: 200;" fill="rgb(33, 33, 33)" stroke="none" stroke-width="1px">20</text><text x="0" y="29.23998651861155" dx="0em" dy="0.3em" style="text-anchor: end; visibility: hidden; font-family: Roboto, sans-serif; font-size: 12px; font-weight: 200;" fill="rgb(33, 33, 33)" stroke="none" stroke-width="1px">22</text><text x="0" y="16.541497380416565" dx="0em" dy="0.3em" style="text-anchor: end; visibility: inherit; font-family: Roboto, sans-serif; font-size: 12px; font-weight: 200;" fill="rgb(33, 33, 33)" stroke="none" stroke-width="1px">24</text><text x="0" y="3.8430082422215825" dx="0em" dy="0.3em" style="text-anchor: end; visibility: hidden; font-family: Roboto, sans-serif; font-size: 12px; font-weight: 200;" fill="rgb(33, 33, 33)" stroke="none" stroke-width="1px">26</text></g><line x1="30.78125" y1="0" x2="30.78125" y2="177" fill="rgb(0, 0, 0)" stroke="rgb(204, 204, 204)" stroke-width="1px"></line></g></g><g transform="translate(30, 0)" clip-path="url(#clip_0)"><clipPath id="clip_0"><rect width="299" height="177"></rect></clipPath><g><g><g><line x1="16.55527602749538" y1="0" x2="16.55527602749538" y2="177" fill="rgb(0, 0, 0)" stroke="rgb(66, 66, 66)" stroke-width="1px" opacity="0.25"></line><line x1="40.00806476532157" y1="0" x2="40.00806476532157" y2="177" fill="rgb(0, 0, 0)" stroke="rgb(66, 66, 66)" stroke-width="1px" opacity="0.25"></line><line x1="63.46085350314777" y1="0" x2="63.46085350314777" y2="177" fill="rgb(0, 0, 0)" stroke="rgb(66, 66, 66)" stroke-width="1px" opacity="0.25"></line><line x1="86.91364224097396" y1="0" x2="86.91364224097396" y2="177" fill="rgb(0, 0, 0)" stroke="rgb(66, 66, 66)" stroke-width="1px" opacity="0.25"></line><line x1="110.36643097880014" y1="0" x2="110.36643097880014" y2="177" fill="rgb(0, 0, 0)" stroke="rgb(66, 66, 66)" stroke-width="1px" opacity="0.25"></line><line x1="133.81921971662635" y1="0" x2="133.81921971662635" y2="177" fill="rgb(0, 0, 0)" stroke="rgb(66, 66, 66)" stroke-width="1px" opacity="0.25"></line><line x1="157.2720084544525" y1="0" x2="157.2720084544525" y2="177" fill="rgb(0, 0, 0)" stroke="rgb(66, 66, 66)" stroke-width="1px" opacity="0.25"></line><line x1="180.72479719227871" y1="0" x2="180.72479719227871" y2="177" fill="rgb(0, 0, 0)" stroke="rgb(66, 66, 66)" stroke-width="1px" opacity="0.25"></line><line x1="204.1775859301049" y1="0" x2="204.1775859301049" y2="177" fill="rgb(0, 0, 0)" stroke="rgb(66, 66, 66)" stroke-width="1px" opacity="0.25"></line><line x1="227.6303746679311" y1="0" x2="227.6303746679311" y2="177" fill="rgb(0, 0, 0)" stroke="rgb(66, 66, 66)" stroke-width="1px" opacity="0.25"></line><line x1="251.0831634057573" y1="0" x2="251.0831634057573" y2="177" fill="rgb(0, 0, 0)" stroke="rgb(66, 66, 66)" stroke-width="1px" opacity="0.25"></line><line x1="274.5359521435835" y1="0" x2="274.5359521435835" y2="177" fill="rgb(0, 0, 0)" stroke="rgb(66, 66, 66)" stroke-width="1px" opacity="0.25"></line><line x1="297.9887408814097" y1="0" x2="297.9887408814097" y2="177" fill="rgb(0, 0, 0)" stroke="rgb(66, 66, 66)" stroke-width="1px" opacity="0.25"></line></g><g><line x1="0" y1="168.9233670387563" x2="299.21875" y2="168.9233670387563" fill="rgb(0, 0, 0)" stroke="rgb(66, 66, 66)" stroke-width="1px" opacity="0.25"></line><line x1="0" y1="156.22487790056132" x2="299.21875" y2="156.22487790056132" fill="rgb(0, 0, 0)" stroke="rgb(66, 66, 66)" stroke-width="1px" opacity="0.25"></line><line x1="0" y1="143.52638876236634" x2="299.21875" y2="143.52638876236634" fill="rgb(0, 0, 0)" stroke="rgb(66, 66, 66)" stroke-width="1px" opacity="0.25"></line><line x1="0" y1="130.82789962417138" x2="299.21875" y2="130.82789962417138" fill="rgb(0, 0, 0)" stroke="rgb(66, 66, 66)" stroke-width="1px" opacity="0.25"></line><line x1="0" y1="118.12941048597641" x2="299.21875" y2="118.12941048597641" fill="rgb(0, 0, 0)" stroke="rgb(66, 66, 66)" stroke-width="1px" opacity="0.25"></line><line x1="0" y1="105.4309213477814" x2="299.21875" y2="105.4309213477814" fill="rgb(0, 0, 0)" stroke="rgb(66, 66, 66)" stroke-width="1px" opacity="0.25"></line><line x1="0" y1="92.73243220958643" x2="299.21875" y2="92.73243220958643" fill="rgb(0, 0, 0)" stroke="rgb(66, 66, 66)" stroke-width="1px" opacity="0.25"></line><line x1="0" y1="80.03394307139146" x2="299.21875" y2="80.03394307139146" fill="rgb(0, 0, 0)" stroke="rgb(66, 66, 66)" stroke-width="1px" opacity="0.25"></line><line x1="0" y1="67.33545393319648" x2="299.21875" y2="67.33545393319648" fill="rgb(0, 0, 0)" stroke="rgb(66, 66, 66)" stroke-width="1px" opacity="0.25"></line><line x1="0" y1="54.63696479500151" x2="299.21875" y2="54.63696479500151" fill="rgb(0, 0, 0)" stroke="rgb(66, 66, 66)" stroke-width="1px" opacity="0.25"></line><line x1="0" y1="41.93847565680653" x2="299.21875" y2="41.93847565680653" fill="rgb(0, 0, 0)" stroke="rgb(66, 66, 66)" stroke-width="1px" opacity="0.25"></line><line x1="0" y1="29.23998651861155" x2="299.21875" y2="29.23998651861155" fill="rgb(0, 0, 0)" stroke="rgb(66, 66, 66)" stroke-width="1px" opacity="0.25"></line><line x1="0" y1="16.541497380416565" x2="299.21875" y2="16.541497380416565" fill="rgb(0, 0, 0)" stroke="rgb(66, 66, 66)" stroke-width="1px" opacity="0.25"></line><line x1="0" y1="3.8430082422215825" x2="299.21875" y2="3.8430082422215825" fill="rgb(0, 0, 0)" stroke="rgb(66, 66, 66)" stroke-width="1px" opacity="0.25"></line></g></g></g><g><g><line x1="0" y1="168.9233670387563" x2="299.21875" y2="168.9233670387563" fill="rgb(0, 0, 0)" stroke="rgb(153, 153, 153)" stroke-width="1.5px"></line></g></g><g><g><line x1="16.55527602749538" y1="0" x2="16.55527602749538" y2="177" fill="rgb(0, 0, 0)" stroke="rgb(153, 153, 153)" stroke-width="1.5px"></line></g></g><g><g><g><g><g><path stroke="rgb(0, 119, 187)" stroke-width="2px" d="M17.681009886911042,133.93275188675946L18.8067437463267,101.64196599869842L19.932477605742353,124.83853516429471L21.05821146515801,145.16005052846296L22.183945324573667,153.37830060655946L23.309679183989328,143.6029504516232L24.43541304340498,37.82935599077273L25.56114690282064,106.67475481773755L26.686880762236292,132.1763026900607L27.81261462165195,129.6396542671179L28.93834848106761,127.62251675308728L30.064082340483267,138.5192674492848L31.189816199898925,118.76290548820474L32.31555005931458,133.64989096366384L33.441283918730235,132.38999779498224L34.567017778145896,142.5713609749147L35.69275163756156,146.4615988846841L36.81848549697721,149.98334973631947L37.94421935639287,150.83996582926832L39.069953215808525,152.72918979373972L40.19568707522418,155.9690064222276L41.32142093463984,155.76334354607863L42.44715479405549,156.88625126302466L43.572888653471146,152.82206903237403L44.698622512886814,157.95078222420082L45.82435637230247,160.55353260304875L46.95009023171813,158.05272103650518L48.07582409113378,156.1025305141597L49.201557950549436,160.3240737102573L50.3272918099651,150.92490339298485L51.45302566938075,153.83259323218837L52.57875952879641,156.27642510984512L53.704493388212065,157.77429975463673L54.83022724762772,159.15848391215386L55.955961107043386,143.90934995308643L57.08169496645904,155.93866181667497L58.20742882587469,149.52656971079676L59.333162685290354,157.46044907782726L60.45889654470601,154.37709443679913L61.58463040412167,155.6358702425947L62.71036426353732,160.52226983763285L63.836098122952976,163.01960718459796L64.96183198236864,163.5739610418539L66.0875658417843,164.57368397874254L67.21329970119996,163.06660102662448L68.3390335606156,163.23922897879115L69.46476742003127,164.8140639671651L70.59050127944693,165.10017508046883L71.71623513886259,165.23702270835923L72.84196899827823,165.27040608015372L73.9677028576939,164.07544962527032L75.09343671710955,163.5707370810427L76.21917057652522,164.62872715917487L77.34490443594086,164.54652015594922L78.47063829535652,165.1004838086256L79.59637215477217,164.22255910747486L80.72210601418784,164.8895230969162L81.8478398736035,165.25941291496088L82.97357373301915,165.37974641950953L84.09930759243481,165.51179371626765L85.22504145185046,165.3140380234459L86.35077531126613,159.99639059846942L87.4765091706818,163.89864894770903L88.60224303009744,164.08816123025022L89.7279768895131,164.91754930766464L90.85371074892875,165.62199759684214L91.97944460834441,165.64617521671101L93.10517846776007,165.22492106191456L94.23091232717573,164.1349288394785L95.35664618659138,157.45336453358408L96.48238004600704,163.9162391771777L97.60811390542268,165.66633071680099L98.73384776483836,166.1868225590682L99.85958162425402,165.8913299438248L100.98531548366967,166.2756244875649L102.11104934308533,166.16285249556628L103.23678320250097,165.15274113481587L104.36251706191665,165.50869512510488L105.4882509213323,166.1856247994689L106.61398478074796,166.59844747819903L107.7397186401636,165.75319268760344L108.86545249957926,164.2988060187153L109.99118635899494,166.35811290408708L111.11692021841058,166.34789241208625L112.24265407782624,166.24405437421518L113.36838793724189,166.3017061143536L114.49412179665755,166.35149856469897L115.6198556560732,165.29429405723428L116.74558951548887,166.59675846530163L117.87132337490453,166.81822912887512L118.99705723432018,166.834242460732L120.12279109373584,166.86452737630634L121.24852495315149,166.93699081348018L122.37425881256716,166.78971053815582L123.49999267198281,166.1339672348906L124.62572653139847,167.00304490155688L125.75146039081412,166.78794035219005L126.87719425022978,166.90919648489125L128.00292810964544,167.26859160487243L129.1286619690611,166.3640264757787L130.25439582847676,166.64128181980385L131.3801296878924,165.89412217920685L132.50586354730805,166.62138163358242L133.63159740672373,160.58495432400457L134.75733126613937,165.1904800981879L135.88306512555505,165.6101751706796L137.0087989849707,167.0655109489822L138.13453284438634,167.20853342856938L139.26026670380202,167.44899479553152L140.38600056321766,167.23772245359558L141.51173442263334,160.57278809246318L142.63746828204899,165.82903961381461L143.76320214146463,167.23901392127817L144.88893600088028,165.2090359974886L146.01466986029595,164.92019240639195L147.14040371971163,166.83200431187964L148.26613757912727,165.35862200877526L149.39187143854292,158.55390014889286L150.5176052979586,164.79063513744222L151.64333915737424,166.90801164025822L152.7690730167899,167.5977333754263L153.89480687620556,167.27309647979527L155.0205407356212,167.59971751937698L156.14627459503689,165.64703438986274L157.2720084544525,167.16128842685825L158.39774231386818,167.7119489505447L159.52347617328383,167.88035679471426L160.6492100326995,167.82013024269705L161.77494389211518,165.06933133758392L162.9006777515308,166.47539692005878L164.02641161094647,167.54630110357834L165.15214547036211,167.88608287460954L166.2778793297778,167.9045285653017L167.40361318919346,162.04053452261311L168.52934704860908,165.95470842039077L169.65508090802476,167.4846775456288L170.7808147674404,166.32009202709384L171.90654862685608,167.39618140057246L173.03228248627173,166.93923640612542L174.15801634568737,167.34908247114296L175.28375020510305,167.383196096291L176.4094840645187,165.48628806018988L177.53521792393437,166.7371728541304L178.66095178335001,167.76729446355674L179.78668564276566,168.06511385186573L180.91241950218134,168.06993128241413L182.03815336159698,168.07731273652334L183.16388722101263,168.0748156793823L184.2896210804283,168.08859654028348L185.41535493984395,167.99745313018212L186.54108879925963,168.13640988217296L187.66682265867527,168.17470587279857L188.79255651809092,168.1766594706447L189.9182903775066,168.13886196932938L191.04402423692224,168.18533470784743L192.16975809633792,168.09832353440729L193.29549195575353,168.19063036759027L194.4212258151692,168.20553240874136L195.54695967458488,168.1294220854891L196.67269353400053,168.18062513433955L197.7984273934162,168.1721866487126L198.92416125283182,168.1469940823014L200.0498951122475,168.0631379368039L201.17562897166317,168.12383434069156L202.30136283107882,168.2009374360483L203.4270966904945,168.21716170669794L204.5528305499101,168.19448905403513L205.6785644093258,168.22442609324384L206.80429826874146,168.24241827323755L207.9300321281571,168.2221513498908L209.05576598757276,168.2357002566023L210.1814998469884,168.26665798337905L211.30723370640408,168.28031372883183L212.43296756581972,168.27629539575622L213.55870142523537,168.26178804053382L214.68443528465104,168.26574477003234L215.8101691440667,168.26043671391417L216.93590300348237,168.25178095261896L218.061636862898,168.20495404427112L219.18737072231366,168.1105999646642L220.31310458172933,168.1351579415188L221.43883844114498,168.24332783912075L222.56457230056066,168.24023350310316L223.69030615997627,168.27179793052048L224.81604001939195,168.29045817578182L225.94177387880762,168.295594415216L227.06750773822327,168.29899941801116L228.19324159763894,168.3027179904932L229.31897545705456,168.30248470421174L230.44470931647024,168.30246921846086L231.5704431758859,168.3017155973747L232.69617703530156,168.2885293726964L233.82191089471723,168.2930720649256L234.94764475413285,168.30196065250976L236.07337861354853,168.30624414925262L237.1991124729642,168.305744161051L238.32484633237985,168.30616346535035L239.4505801917955,168.30891541577532L240.57631405121114,168.3115179082241L241.70204791062682,168.31810275807254L242.8277817700425,168.3195808651502L243.9535156294581,168.3182112445626L245.07924948887378,168.31674798734562L246.20498334828943,168.31335068019774L247.3307172077051,168.3149846902828L248.45645106712078,168.3173981642196L249.5821849265364,168.3157318004807L250.70791878595207,168.31634807773176L251.83365264536772,168.31917039388233L252.9593865047834,168.3247092715237L254.08512036419907,168.32579420558412L255.2108542236147,168.32537686126457L256.3365880830304,168.32196618291204L257.462321942446,168.31499199418445L258.5880558018617,168.31745631107825L259.71378966127736,168.31648876528283L260.839523520693,168.31257276750142L261.96525738010865,168.30946968207434L263.09099123952427,168.3016338659426L264.21672509893995,168.30461070076746L265.3424589583556,168.3079163410617L266.4681928177713,168.31114796604368L267.5939266771869,168.31307886620206L268.7196605366026,168.3153738383838L269.84539439601826,168.31567318122873L270.9711282554339,168.31672814276337L272.09686211484956,168.31748886994401L273.22259597426523,168.318614382382L274.34832983368085,168.3201363056445L275.4740636930965,168.32117633860304L276.5997975525122,168.3208896660099L277.7255314119278,168.32191855318442L278.8512652713435,168.3225920667503L279.97699913075917,168.32267822825423L281.10273299017484,168.32275013272124" style="fill: none;" fill="none"></path></g></g></g></g><g opacity="0.2"><g><g><g><path stroke="rgb(0, 119, 187)" stroke-width="2px" d="M17.681009886911042,133.93275188675946L18.8067437463267,94.3442483879966L19.932477605742353,131.26574776242146L21.05821146515801,151.02522954794057L22.183945324573667,155.77168459605792L23.309679183989328,140.75033208037928L24.43541304340498,6.948674917302931L25.56114690282064,126.7762943519342L26.686880762236292,139.6224404109816L27.81261462165195,128.89898028541674L28.93834848106761,127.03353365268967L30.064082340483267,141.70100577470788L31.189816199898925,112.99425209811085L32.31555005931458,137.99673683440548L33.441283918730235,132.02212201221244L34.567017778145896,145.54421378911778L35.69275163756156,147.5975081451068L36.81848549697721,151.01166458446065L37.94421935639287,151.0900888744957L39.069953215808525,153.28082366450238L40.19568707522418,156.91499939126916L41.32142093463984,155.70329211195764L42.44715479405549,157.21412871009161L43.572888653471146,151.63536982807554L44.698622512886814,159.44831346625878L45.82435637230247,161.31350881185966L46.95009023171813,157.322509907256L48.07582409113378,155.53309503864278L49.201557950549436,161.55672068999638L50.3272918099651,148.1804428093885L51.45302566938075,154.68160861159404L52.57875952879641,156.98999875887668L53.704493388212065,158.21166366900744L54.83022724762772,159.56265137933585L55.955961107043386,139.45676045082644L57.08169496645904,159.45109654687008L58.20742882587469,147.6543050907341L59.333162685290354,159.77705984907905L60.45889654470601,153.47678675091754L61.58463040412167,156.00341976728436L62.71036426353732,161.94904801396183L63.836098122952976,163.74880387763946L64.96183198236864,163.735826638417L66.0875658417843,164.8655927432604L67.21329970119996,162.62654838169078L68.3390335606156,163.28963455655557L69.46476742003127,165.27389950640608L70.59050127944693,165.18371656833273L71.71623513886259,165.27698080125748L72.84196899827823,165.28015367966992L73.9677028576939,163.72653469141548L75.09343671710955,163.42336623479534L76.21917057652522,164.93764932669148L77.34490443594086,164.52251656069214L78.47063829535652,165.26223546948458L79.59637215477217,163.966214168896L80.72210601418784,165.0842696881484L81.8478398736035,165.36741691867934L82.97357373301915,165.41488255908058L84.09930759243481,165.5503501620911L85.22504145185046,165.25629540512847L86.35077531126613,158.44369251314038L87.4765091706818,165.0380680522674L88.60224303009744,164.14349685796896L89.7279768895131,165.15972205378307L90.85371074892875,165.82768921616272L91.97944460834441,165.65323483181484L93.10517846776007,165.1019192027621L94.23091232717573,163.81666237659664L95.35664618659138,155.5024168163591L96.48238004600704,165.80333177336908L97.60811390542268,166.17733935756956L98.73384776483836,166.33880079724958L99.85958162425402,165.80504915436094L100.98531548366967,166.38783452230038L102.11104934308533,166.12992423950467L103.23678320250097,164.85779905790426L104.36251706191665,165.61263001115827L105.4882509213323,166.38328126769406L106.61398478074796,166.71898743348714L107.7397186401636,165.50638702523318L108.86545249957926,163.87414014382034L109.99118635899494,166.9594092297899L111.11692021841058,166.34490813406015L112.24265407782624,166.2137347404182L113.36838793724189,166.31853982659044L114.49412179665755,166.36603744554915L115.6198556560732,164.98560126823298L116.74558951548887,166.97706461029284L117.87132337490453,166.88289627353612L118.99705723432018,166.83891818812174L120.12279109373584,166.87337025863167L121.24852495315149,166.95814938815883L122.37425881256716,166.74670622003785L123.49999267198281,165.94249696804573L124.62572653139847,167.25680659750853L125.75146039081412,166.72513204707778L126.87719425022978,166.94460202234663L128.00292810964544,167.37353126522868L129.1286619690611,166.0999028075937L130.25439582847676,166.7222375145709L131.3801296878924,165.6759592867328L132.50586354730805,166.83373387736648L133.63159740672373,158.8223799416214L134.75733126613937,166.53524602191584L135.88306512555505,165.7327217939136L137.0087989849707,167.4904539540163L138.13453284438634,167.25029451434034L139.26026670380202,167.51920702929564L140.38600056321766,167.17603311344374L141.51173442263334,158.626696147223L142.63746828204899,167.36381072986813L143.76320214146463,167.6507118456797L144.88893600088028,164.616303425426L146.01466986029595,164.8358530632552L147.14040371971163,167.39023362795226L148.26613757912727,164.92840960502645L149.39187143854292,156.56699169884968L150.5176052979586,166.6116972917215L151.64333915737424,167.52626369405203L152.7690730167899,167.79912499318854L153.89480687620556,167.17830586169111L155.0205407356212,167.6950874870068L156.14627459503689,165.07687109881596L157.2720084544525,167.60343495445642L158.39774231386818,167.8727361318795L159.52347617328383,167.9295301445622L160.6492100326995,167.80254471200467L161.77494389211518,164.26612648932092L162.9006777515308,166.88595353716386L164.02641161094647,167.85899405638895L165.15214547036211,167.98529563979437L166.2778793297778,167.90991451633064L167.40361318919346,160.3283088719056L168.52934704860908,167.09760674196409L169.65508090802476,167.93141271656395L170.7808147674404,165.98004509274128L171.90654862685608,167.71038837525745L173.03228248627173,166.80581319069256L174.15801634568737,167.46875328599305L175.28375020510305,167.39315692223863L176.4094840645187,164.93241051993297L177.53521792393437,167.10241828491922L178.66095178335001,168.06807932625745L179.78668564276566,168.15207403501537L180.91241950218134,168.0713379223417L182.03815336159698,168.07946804482913L183.16388722101263,168.0740865645065L184.2896210804283,168.09262040922877L185.41535493984395,167.9708401964833L186.54108879925963,168.17698381750878L187.66682265867527,168.18588790623704L188.79255651809092,168.17722990102354L189.9182903775066,168.12782548961718L191.04402423692224,168.1989042671563L192.16975809633792,168.07291717110306L193.29549195575353,168.2175830088039L194.4212258151692,168.2098836507312L195.54695967458488,168.10719865776943L196.67269353400053,168.19557589537342L197.7984273934162,168.16972269812902L198.92416125283182,168.1396381132976L200.0498951122475,168.0386528090488L201.17562897166317,168.14155706327375L202.30136283107882,168.22345074296126L203.4270966904945,168.2218990260349L204.5528305499101,168.18786887380026L205.6785644093258,168.23316739926602L206.80429826874146,168.24767180383003L207.9300321281571,168.2162336177508L209.05576598757276,168.2396563973217L210.1814998469884,168.27569731962134L211.30723370640408,168.2843010653594L212.43296756581972,168.2751220840313L213.55870142523537,168.25755204275572L214.68443528465104,168.2669000941495L215.8101691440667,168.25888681639128L216.93590300348237,168.24925355978598L218.061636862898,168.19128107103262L219.18737072231366,168.08304954865497L220.31310458172933,168.1423286169311L221.43883844114498,168.2749123311854L222.56457230056066,168.23932998896882L223.69030615997627,168.281014417079L224.81604001939195,168.2959067745274L225.94177387880762,168.29709414404303L227.06750773822327,168.29999364363354L228.19324159763894,168.30380377522306L229.31897545705456,168.3024165870288L230.44470931647024,168.30246469678167L231.5704431758859,168.3014955478069L232.69617703530156,168.28467913138203L233.82191089471723,168.29439848410365L234.94764475413285,168.30455602821263L236.07337861354853,168.3074948860277L237.1991124729642,168.30559816966397L238.32484633237985,168.30628589787187L239.4505801917955,168.30971895685548L240.57631405121114,168.31227780912L241.70204791062682,168.3200254661678L242.8277817700425,168.32001245713926L243.9535156294581,168.3178113295073L245.07924948887378,168.3163207313624L246.20498334828943,168.31235870162485L247.3307172077051,168.31546180433867L248.45645106712078,168.31810287366366L249.5821849265364,168.31524523949233L250.70791878595207,168.31652802431927L251.83365264536772,168.31999448102707L252.9593865047834,168.3263265665456L254.08512036419907,168.32611099511598L255.2108542236147,168.32525500103688L256.3365880830304,168.32097030008558L257.462321942446,168.31295560316062L258.5880558018617,168.31817586614025L259.71378966127736,168.31620625191107L260.839523520693,168.31142933662468L261.96525738010865,168.3085636132029L263.09099123952427,168.29934588862247L264.21672509893995,168.305479905768L265.3424589583556,168.30888155386083L266.4681928177713,168.3120915671366L267.5939266771869,168.3136426690907L268.7196605366026,168.31604394654022L269.84539439601826,168.31576058624546L270.9711282554339,168.3170361806275L272.09686211484956,168.31771099441795L273.22259597426523,168.31894302038071L274.34832983368085,168.32058069150665L275.4740636930965,168.32148001747726L276.5997975525122,168.3208059605757L277.7255314119278,168.32221897760488L278.8512652713435,168.32278872575014L279.97699913075917,168.3227033865228L281.10273299017484,168.32277112808242" style="fill: none;" fill="none"></path></g></g></g></g></g></g><g transform="translate(30, 177)" clip-path="url(#clip_1)"><clipPath id="clip_1"><rect width="299" height="23"></rect></clipPath><g><g><line x1="16.55527602749538" y1="0" x2="16.55527602749538" y2="5" style="visibility: inherit;" fill="rgb(0, 0, 0)" stroke="rgb(204, 204, 204)" stroke-width="1px"></line><line x1="40.00806476532157" y1="0" x2="40.00806476532157" y2="5" style="visibility: inherit;" fill="rgb(0, 0, 0)" stroke="rgb(204, 204, 204)" stroke-width="1px"></line><line x1="63.46085350314777" y1="0" x2="63.46085350314777" y2="5" style="visibility: inherit;" fill="rgb(0, 0, 0)" stroke="rgb(204, 204, 204)" stroke-width="1px"></line><line x1="86.91364224097396" y1="0" x2="86.91364224097396" y2="5" style="visibility: inherit;" fill="rgb(0, 0, 0)" stroke="rgb(204, 204, 204)" stroke-width="1px"></line><line x1="110.36643097880014" y1="0" x2="110.36643097880014" y2="5" style="visibility: inherit;" fill="rgb(0, 0, 0)" stroke="rgb(204, 204, 204)" stroke-width="1px"></line><line x1="133.81921971662635" y1="0" x2="133.81921971662635" y2="5" style="visibility: inherit;" fill="rgb(0, 0, 0)" stroke="rgb(204, 204, 204)" stroke-width="1px"></line><line x1="157.2720084544525" y1="0" x2="157.2720084544525" y2="5" style="visibility: inherit;" fill="rgb(0, 0, 0)" stroke="rgb(204, 204, 204)" stroke-width="1px"></line><line x1="180.72479719227871" y1="0" x2="180.72479719227871" y2="5" style="visibility: inherit;" fill="rgb(0, 0, 0)" stroke="rgb(204, 204, 204)" stroke-width="1px"></line><line x1="204.1775859301049" y1="0" x2="204.1775859301049" y2="5" style="visibility: inherit;" fill="rgb(0, 0, 0)" stroke="rgb(204, 204, 204)" stroke-width="1px"></line><line x1="227.6303746679311" y1="0" x2="227.6303746679311" y2="5" style="visibility: inherit;" fill="rgb(0, 0, 0)" stroke="rgb(204, 204, 204)" stroke-width="1px"></line><line x1="251.0831634057573" y1="0" x2="251.0831634057573" y2="5" style="visibility: inherit;" fill="rgb(0, 0, 0)" stroke="rgb(204, 204, 204)" stroke-width="1px"></line><line x1="274.5359521435835" y1="0" x2="274.5359521435835" y2="5" style="visibility: inherit;" fill="rgb(0, 0, 0)" stroke="rgb(204, 204, 204)" stroke-width="1px"></line><line x1="297.9887408814097" y1="0" x2="297.9887408814097" y2="5" style="visibility: inherit;" fill="rgb(0, 0, 0)" stroke="rgb(204, 204, 204)" stroke-width="1px"></line></g><g transform="translate(0, 8)"><text x="16.55527602749538" y="0" dx="0em" dy="0.95em" style="text-anchor: middle; visibility: inherit; font-family: Roboto, sans-serif; font-size: 12px; font-weight: 200;" fill="rgb(33, 33, 33)" stroke="none" stroke-width="1px">0</text><text x="40.00806476532157" y="0" dx="0em" dy="0.95em" style="text-anchor: middle; visibility: inherit; font-family: Roboto, sans-serif; font-size: 12px; font-weight: 200;" fill="rgb(33, 33, 33)" stroke="none" stroke-width="1px">500</text><text x="63.46085350314777" y="0" dx="0em" dy="0.95em" style="text-anchor: middle; visibility: inherit; font-family: Roboto, sans-serif; font-size: 12px; font-weight: 200;" fill="rgb(33, 33, 33)" stroke="none" stroke-width="1px">1k</text><text x="86.91364224097396" y="0" dx="0em" dy="0.95em" style="text-anchor: middle; visibility: inherit; font-family: Roboto, sans-serif; font-size: 12px; font-weight: 200;" fill="rgb(33, 33, 33)" stroke="none" stroke-width="1px">1.5k</text><text x="110.36643097880014" y="0" dx="0em" dy="0.95em" style="text-anchor: middle; visibility: inherit; font-family: Roboto, sans-serif; font-size: 12px; font-weight: 200;" fill="rgb(33, 33, 33)" stroke="none" stroke-width="1px">2k</text><text x="133.81921971662635" y="0" dx="0em" dy="0.95em" style="text-anchor: middle; visibility: inherit; font-family: Roboto, sans-serif; font-size: 12px; font-weight: 200;" fill="rgb(33, 33, 33)" stroke="none" stroke-width="1px">2.5k</text><text x="157.2720084544525" y="0" dx="0em" dy="0.95em" style="text-anchor: middle; visibility: inherit; font-family: Roboto, sans-serif; font-size: 12px; font-weight: 200;" fill="rgb(33, 33, 33)" stroke="none" stroke-width="1px">3k</text><text x="180.72479719227871" y="0" dx="0em" dy="0.95em" style="text-anchor: middle; visibility: inherit; font-family: Roboto, sans-serif; font-size: 12px; font-weight: 200;" fill="rgb(33, 33, 33)" stroke="none" stroke-width="1px">3.5k</text><text x="204.1775859301049" y="0" dx="0em" dy="0.95em" style="text-anchor: middle; visibility: inherit; font-family: Roboto, sans-serif; font-size: 12px; font-weight: 200;" fill="rgb(33, 33, 33)" stroke="none" stroke-width="1px">4k</text><text x="227.6303746679311" y="0" dx="0em" dy="0.95em" style="text-anchor: middle; visibility: inherit; font-family: Roboto, sans-serif; font-size: 12px; font-weight: 200;" fill="rgb(33, 33, 33)" stroke="none" stroke-width="1px">4.5k</text><text x="251.0831634057573" y="0" dx="0em" dy="0.95em" style="text-anchor: middle; visibility: inherit; font-family: Roboto, sans-serif; font-size: 12px; font-weight: 200;" fill="rgb(33, 33, 33)" stroke="none" stroke-width="1px">5k</text><text x="274.5359521435835" y="0" dx="0em" dy="0.95em" style="text-anchor: middle; visibility: inherit; font-family: Roboto, sans-serif; font-size: 12px; font-weight: 200;" fill="rgb(33, 33, 33)" stroke="none" stroke-width="1px">5.5k</text><text x="297.9887408814097" y="0" dx="0em" dy="0.95em" style="text-anchor: middle; visibility: hidden; font-family: Roboto, sans-serif; font-size: 12px; font-weight: 200;" fill="rgb(33, 33, 33)" stroke="none" stroke-width="1px">6k</text></g><line x1="0" y1="0" x2="299.21875" y2="0" fill="rgb(0, 0, 0)" stroke="rgb(204, 204, 204)" stroke-width="1px"></line></g></g></g></g></svg>